<?xml version="1.0" encoding="utf-8"?>
<!-- Generator: Adobe Illustrator 19.2.0, SVG Export Plug-In . SVG Version: 6.00 Build 0)  -->
<svg version="1.1" id="Layer_1" xmlns="http://www.w3.org/2000/svg" xmlns:xlink="http://www.w3.org/1999/xlink" x="0px" y="0px"
	 viewBox="0 0 839.1 839.1" style="enable-background:new 0 0 839.1 839.1;" xml:space="preserve">
<style type="text/css">
	.st0{fill:#5880B0;}
	.st1{fill:none;}
	.st2{fill:#CBCFD4;}
	.st3{fill:#869296;}
	.st4{fill:#99A2A7;}
	.st5{fill:#A7AEB4;}
	.st6{fill:#B3B9BE;}
	.st7{fill:#C1C8CB;}
	.st8{fill:url(#SVGID_1_);}
	.st9{fill:url(#SVGID_2_);}
	.st10{fill:url(#SVGID_3_);}
	.st11{fill:url(#SVGID_4_);}
	.st12{fill:url(#SVGID_5_);}
	.st13{fill:url(#SVGID_6_);}
	.st14{fill:url(#SVGID_7_);}
	.st15{fill:url(#SVGID_8_);}
	.st16{fill:url(#SVGID_9_);}
	.st17{fill:url(#SVGID_10_);}
	.st18{fill:url(#SVGID_11_);}
	.st19{fill:url(#SVGID_12_);}
	.st20{fill:url(#SVGID_13_);}
	.st21{fill:#F2E683;}
	.st22{fill:#C9A548;}
	.st23{fill:url(#SVGID_14_);}
	.st24{fill:url(#SVGID_15_);}
	.st25{fill:url(#SVGID_16_);}
	.st26{fill:url(#SVGID_17_);}
	.st27{fill:url(#SVGID_18_);}
	.st28{fill:url(#SVGID_19_);}
	.st29{fill:url(#SVGID_20_);}
	.st30{fill:url(#SVGID_21_);}
	.st31{fill:url(#SVGID_22_);}
	.st32{fill:url(#SVGID_23_);}
	.st33{fill:url(#SVGID_24_);}
	.st34{fill:url(#SVGID_25_);}
	.st35{fill:url(#SVGID_26_);}
	.st36{fill:#A4A9B5;}
	.st37{fill:#B30B15;}
	.st38{fill:#FFFFFF;}
</style>
<g>
	<g>
		<path class="st0" d="M276,487.4c-6.7-14.5-9.9-30.9-8.7-48c0.8-11.7,3.7-22.7,8.2-32.9c-25.5-17.3-41.5-47.3-39.2-80.2
			c2-28.6,17.3-53.1,39.4-67.9c-6.7-12.5-10.2-26.9-9.1-42.2c2.8-40.6,36.5-71.7,76.5-72.1c3.3-45,42.4-78.8,87.4-75.7
			c36.5,2.6,65.7,28.7,73.9,62.4c32.7,10.2,55.5,41.7,53,77.4c-0.2,2.6-0.5,5.3-1,7.8c25.4,13.6,41.8,41.1,39.7,71.7
			c-1.4,20.1-10.7,37.8-24.5,50.4c2.1,7.9,3,16.2,2.4,24.8c-1.3,18-8.7,34-20,46.3c11.4,16,17.5,35.8,16,56.9
			c-0.5,7.4-1.9,14.4-4.1,21.1L276,487.4z"/>
		<g>
			<path class="st1" d="M359.6,229.1c-1.7,4.6-3.7,7.9-2.6,13.9c9.8,58.4,31.5,95.6,35.4,101.3c7.9,11.7,9.7,3.1,9.6-2.6
				c-0.2-8.5-9.8-16-11.1-29.6c-1-10.4,3.6-18.4,11.4-21.6c1.5-0.8,5.5-2.4,10.8-1.5c1.2,0.2,2.2,0.5,3.3,0.8c3.6,0.9,6.7,2.7,9.3,5
				c1.9,1.6,2.9,2.9,2.9,2.9s0,0-0.1,0c2,2.5,3.6,5.3,4.7,8.2c1,2,1.6,4.7,1.9,8.8c0.5,4.7-0.4,12.6-4.3,19.5
				c-1.3,2.6-2.6,4.4-3.4,5.3c-0.5,0.9-0.8,1.6-0.8,1.6s-0.1-0.1-0.2-0.3c-0.7,1.2-1.2,2.2-1.5,3.3c-0.2,1-0.2,2.3,0,3.9
				c0.3,1.6,0.7,3.1,1.1,4.5c1.3,3.8,3.4,6.6,5.5,7.8c1.8,1,4.6,3.4,9.4-0.8c18.5-15.8,34.7-64.8,36.2-80.6
				c1-10.9-0.2-10.1-1.5-13.2c-2.1-4.9-2.2-8.2-1.6-10.8l-113.6-31.4C360.5,225.4,360.2,227.4,359.6,229.1z"/>
			<path class="st2" d="M335.2,197.7l83.2-83.5l82.6,130c1.5-1.5,3.3-3.2,5.1-4.8l-87.4-138.8L330,189.4c0.6,0.9,1.2,1.9,1.7,2.8
				C332.9,194.3,334,196.1,335.2,197.7z"/>
			<path class="st3" d="M418.3,114.2l-83.2,83.5c3,4.3,5.7,7.1,7.7,9.3l75.5-74.7l75.4,118.3c1.7-0.8,3.1-1.8,4.1-3.1
				c0.8-0.9,1.8-2.1,3.1-3.4L418.3,114.2z"/>
			<path class="st3" d="M477.2,250.3l-34.4-10l0,0.1l-44.6-13l-40.4-11.7c1.7,1.8,2.5,4.8,2.6,7.8L474,254.9c0-0.2,0.1-0.4,0.1-0.5
				C474.6,252.5,475.6,250.8,477.2,250.3z"/>
			<path class="st4" d="M442.6,240.1l0.1,0.2l34.4,10c0.2-0.1,0.4-0.1,0.6-0.1l-22.6-6.5l0.1,0.1L442.6,240.1z"/>
			<path class="st4" d="M342.9,207c0.8,0.8,1.4,1.5,2,2.1c2.1,2.4,5.3,3.8,7.9,4.5l65.9-64.8l65.4,103c3.5,0.6,6.9,0.1,9.6-1.2
				l-75.4-118.3L342.9,207z"/>
			<path class="st4" d="M398.2,227.4l-3.2-0.9l0.1-0.1l-28.4-8.2l0,0l-9.1-2.6c0,0,0.1,0.1,0.1,0.1L398.2,227.4z"/>
			<path class="st5" d="M352.8,213.6c0.7,0.2,1.3,0.3,1.9,0.4c0.1,0,0.1,0,0.2,0c1.4,0.1,1.8,0.2,0,0c0,0-0.1,0-0.1,0
				c1.2,0.2,2.1,0.7,2.9,1.5l9.1,2.6l52-50.8l51.2,80.6l-14.8-4.3l0,0l22.6,6.5c0.1,0,0.3,0,0.4,0c0.2-0.1,0.6,0,1.5,0.4
				c1.4,0.6,2.9,1,4.4,1.2l-65.4-103L352.8,213.6z"/>
			<polygon class="st6" points="395.1,226.3 395.1,226.3 381.4,222.3 419.5,184.6 455.2,243.7 469.9,247.9 418.7,167.3 366.7,218.2 
				366.7,218.2 			"/>
			<polygon class="st7" points="381.4,222.3 395.1,226.3 418.7,203.1 442.6,240.1 455.3,243.8 455.2,243.7 455.2,243.7 419.5,184.6 
							"/>
			<polygon class="st2" points="418.7,203.1 395.1,226.3 395.1,226.3 395,226.5 398.2,227.4 442.8,240.4 442.8,240.3 442.6,240.1 
							"/>
			<linearGradient id="SVGID_1_" gradientUnits="userSpaceOnUse" x1="417.4401" y1="170.8864" x2="417.4401" y2="661.3502">
				<stop  offset="0" style="stop-color:#A37D33"/>
				<stop  offset="6.459057e-03" style="stop-color:#A27C33"/>
				<stop  offset="0.1935" style="stop-color:#956728"/>
				<stop  offset="0.4002" style="stop-color:#8C5820"/>
				<stop  offset="0.6419" style="stop-color:#874F1B"/>
				<stop  offset="1" style="stop-color:#854C1A"/>
			</linearGradient>
			<path class="st8" d="M431.1,463c0.4-21.1-1.1-30.9-1.1-45.6c0-22.2,6.9-31.1,13.2-39.9c23.4-32.8,38.8-83.6,42.9-99.8
				c2.4-9.3,4.9-14.2,3.2-18.6l-15.4-4.3c-0.6,2.6-0.5,5.8,1.6,10.8c1.3,3.1,2.5,2.3,1.5,13.2c-1.5,15.8-17.7,64.8-36.2,80.6
				c-4.9,4.2-7.7,1.8-9.4,0.8c-2.1-1.2-4.2-4.1-5.5-7.8c0.8,2.8,2,5.2,4,7.1c4.7,4.3,8.7,2.1,8.7,2.1s-2.3,3.2-7.5,0.9
				c-5.3-2.3-9-6.7-10.5-15.3c-0.8-4.4-0.6-7.5,0.6-9.9c-0.1,0-0.2,0-0.2,0s0.8-1.9,2.6-3.8c0.6-0.6,1.2-1.4,1.6-2
				c0.7-1.1,1.5-2.4,2.4-4.2c3.6-7.2,1.3-19.6-0.6-22.6c-1.7-2.7-1.9-4.8,2.1-2.8c1.8,0.9,3.1,2.1,4.1,4c-1.1-2.9-2.7-5.7-4.7-8.2
				c-0.3-0.1-1.9-0.3-2.9,0.4c-1.1,0.8-2.3,1.5-2.3,1.5s-2.6-2.3-5.3-2.8c-1.3-0.3-6-0.6-6-0.6s-1.1-3.6-3.4-5.1
				c-2.3-1.5-7-0.2-7-0.2s0.2-0.1,0.7-0.4c-7.8,3.2-12.4,11.2-11.4,21.6c1.3,13.6,10.9,21.1,11.1,29.6c0.1,5.7-1.7,14.3-9.6,2.6
				c-3.9-5.7-25.6-42.9-35.4-101.3c-1-6,1-9.3,2.6-13.9c0.6-1.6,0.9-3.7,0.8-5.7l-15.4-4.3c-0.4,6.1,3.9,20,5.2,25.4
				c11.3,49,30.1,93.4,34.7,103.6c6,13.6,20,36.1,20,57.3c0,11.7-0.8,37.3-1.1,46.3c-0.4,10.2,0.1,20.4-0.8,38.1
				c-0.2,4.5-0.3,8.6-0.2,12.6h29.1C431.5,489,430.9,474.2,431.1,463z M414.4,347.9c-0.6,1.7-2.3,7.7-9.4,6.8
				c-5.7-0.8-8.5-5.1-8.5-5.1s4.9,2.9,6.4,3c3,0.2,4.1-1.5,5.7-6c1.2-3.6,0.8-5.7,0.8-7.2c0-1-0.7-2.6-1.5-4.2c0,0,0,0,0,0
				c0,0,0,0,0,0s0,0,0,0c0,0,0-0.1-0.1-0.2c-0.2-0.4-0.4-0.8-0.7-1.3c-0.4-0.7-1.2-2.2-2.3-4.1c0,0,0,0,0,0
				c-3.8-4.9-3.8-8.7-3.8-8.7s0.1,0.1,0.2,0.3c-0.9-2.6-1.5-5.3-1.7-8c-0.3-4.7-0.8-8.5-0.2-12.1c0.4-2.5,1.9-4.5,3.8-5.1
				c1.1-0.3,3.4-0.4,4.1,0c0.8,0.4,2.6,1.9,0.9,3.6c-1.3,1.3-2.3,5.1-2.3,7.3c0,2.1,0,4.9,0.2,7.3c0.2,3,1.1,6.4,1.5,7.9
				c0.1,0.3,0.3,0.8,0.6,1.3c0,0,0,0,0,0s1.2,1.8,1.9,3c2.6,4.5,3.8,7.2,3.8,7.2s-0.1,0-0.1,0c0.6,1.5,1.1,3.2,1.3,4.2
				C415.3,341,415.1,345.8,414.4,347.9z"/>
			<linearGradient id="SVGID_2_" gradientUnits="userSpaceOnUse" x1="429.1323" y1="170.8714" x2="429.1323" y2="661.3582">
				<stop  offset="0" style="stop-color:#A37D33"/>
				<stop  offset="6.459057e-03" style="stop-color:#A27C33"/>
				<stop  offset="0.1935" style="stop-color:#956728"/>
				<stop  offset="0.4002" style="stop-color:#8C5820"/>
				<stop  offset="0.6419" style="stop-color:#874F1B"/>
				<stop  offset="1" style="stop-color:#854C1A"/>
			</linearGradient>
			<path class="st9" d="M428.1,338.3c-0.2,0.4-0.4,0.8-0.6,1.1c0.7-0.9,2-2.7,3.4-5.3c-0.4,0.7-0.9,1.5-1.4,2.2
				C429,337,428.5,337.6,428.1,338.3z"/>
			<linearGradient id="SVGID_3_" gradientUnits="userSpaceOnUse" x1="424.7511" y1="170.8714" x2="424.7511" y2="661.3576">
				<stop  offset="0" style="stop-color:#A37D33"/>
				<stop  offset="6.459057e-03" style="stop-color:#A27C33"/>
				<stop  offset="0.1935" style="stop-color:#956728"/>
				<stop  offset="0.4002" style="stop-color:#8C5820"/>
				<stop  offset="0.6419" style="stop-color:#874F1B"/>
				<stop  offset="1" style="stop-color:#854C1A"/>
			</linearGradient>
			<path class="st10" d="M424.7,347.2c0,0.2,0.1,0.5,0.1,0.7c-0.2-1.6-0.2-2.8,0-3.9C424.6,345.1,424.5,346.1,424.7,347.2z"/>
			<linearGradient id="SVGID_4_" gradientUnits="userSpaceOnUse" x1="420.9769" y1="170.8752" x2="420.9769" y2="661.3484">
				<stop  offset="0" style="stop-color:#A37D33"/>
				<stop  offset="6.459057e-03" style="stop-color:#A27C33"/>
				<stop  offset="0.1935" style="stop-color:#956728"/>
				<stop  offset="0.4002" style="stop-color:#8C5820"/>
				<stop  offset="0.6419" style="stop-color:#874F1B"/>
				<stop  offset="1" style="stop-color:#854C1A"/>
			</linearGradient>
			<path class="st11" d="M416.3,289.7c4.2,1.2,7.3,3.3,9.3,5C423,292.4,419.9,290.7,416.3,289.7z"/>
			<linearGradient id="SVGID_5_" gradientUnits="userSpaceOnUse" x1="349.6361" y1="170.8766" x2="349.6361" y2="661.3382">
				<stop  offset="0" style="stop-color:#A37D33"/>
				<stop  offset="6.459057e-03" style="stop-color:#A27C33"/>
				<stop  offset="0.1935" style="stop-color:#956728"/>
				<stop  offset="0.4002" style="stop-color:#8C5820"/>
				<stop  offset="0.6419" style="stop-color:#874F1B"/>
				<stop  offset="1" style="stop-color:#854C1A"/>
			</linearGradient>
			<path class="st12" d="M379.2,364c-18.1-52-38.8-121.3-41.4-131.8c-1.4-5.6-3.5-11.1-5.9-16.6l-1.3-0.4l-2.9-9.1
				c-1.3-2.9-2.6-5.9-3.8-8.9c-5.4-13.2-10.9-21.5-10.9-21.5c-2.4-2.4-3.6-4.4-3-4.7c-2.8-0.2-5,2.3-2.3,5.1c0,0,6.7,8.2,12.1,21.5
				c4.9,12.1,11.9,31.1,14.7,39.6c4.5,13.6,22.6,63.7,41.4,139.4c5.1,20.4,12.4,58,12.1,79.1c-0.2,11.8-0.7,31.6-0.4,46.8h5.5
				c-0.6-14.7-1.1-33.4-1.4-47.6C391.2,429.9,385.4,381.8,379.2,364z"/>
			<path class="st2" d="M330.8,213.2c-1-2.4-2.1-4.8-3.2-7.2l2.9,9.1L330.8,213.2z"/>
			<linearGradient id="SVGID_6_" gradientUnits="userSpaceOnUse" x1="329.2253" y1="170.8735" x2="329.2253" y2="661.3566">
				<stop  offset="0" style="stop-color:#A37D33"/>
				<stop  offset="6.459057e-03" style="stop-color:#A27C33"/>
				<stop  offset="0.1935" style="stop-color:#956728"/>
				<stop  offset="0.4002" style="stop-color:#8C5820"/>
				<stop  offset="0.6419" style="stop-color:#874F1B"/>
				<stop  offset="1" style="stop-color:#854C1A"/>
			</linearGradient>
			<path class="st13" d="M330.8,213.2c-1-2.4-2.1-4.8-3.2-7.2l2.9,9.1L330.8,213.2z"/>
			<path class="st3" d="M357.8,215.7l-5.5-1.6c-2.7,0.2-6.1,0.9-7,3.4c-0.2,0.5-0.2,1.1-0.3,1.7l15.4,4.3
				C360.3,220.4,359.5,217.4,357.8,215.7z"/>
			<linearGradient id="SVGID_7_" gradientUnits="userSpaceOnUse" x1="352.6914" y1="170.8739" x2="352.6914" y2="661.351">
				<stop  offset="0" style="stop-color:#A37D33"/>
				<stop  offset="6.459057e-03" style="stop-color:#A27C33"/>
				<stop  offset="0.1935" style="stop-color:#956728"/>
				<stop  offset="0.4002" style="stop-color:#8C5820"/>
				<stop  offset="0.6419" style="stop-color:#874F1B"/>
				<stop  offset="1" style="stop-color:#854C1A"/>
			</linearGradient>
			<path class="st14" d="M357.8,215.7l-5.5-1.6c-2.7,0.2-6.1,0.9-7,3.4c-0.2,0.5-0.2,1.1-0.3,1.7l15.4,4.3
				C360.3,220.4,359.5,217.4,357.8,215.7z"/>
			<path class="st3" d="M331.8,215.5c-0.3-0.8-0.7-1.6-1-2.3l-0.3,2L331.8,215.5z"/>
			<linearGradient id="SVGID_8_" gradientUnits="userSpaceOnUse" x1="331.1987" y1="170.8731" x2="331.1987" y2="661.3631">
				<stop  offset="0" style="stop-color:#A37D33"/>
				<stop  offset="6.459057e-03" style="stop-color:#A27C33"/>
				<stop  offset="0.1935" style="stop-color:#956728"/>
				<stop  offset="0.4002" style="stop-color:#8C5820"/>
				<stop  offset="0.6419" style="stop-color:#874F1B"/>
				<stop  offset="1" style="stop-color:#854C1A"/>
			</linearGradient>
			<path class="st15" d="M331.8,215.5c-0.3-0.8-0.7-1.6-1-2.3l-0.3,2L331.8,215.5z"/>
			<path class="st3" d="M474.1,254.3c0,0.2-0.1,0.4-0.1,0.5l15.4,4.3c-0.2-0.6-0.5-1.2-1-1.8c-3.5-5-9.4-5.7-9.4-5.7
				s-0.6-0.6-0.8-1.1l-1-0.3C475.6,250.8,474.6,252.5,474.1,254.3z"/>
			<linearGradient id="SVGID_9_" gradientUnits="userSpaceOnUse" x1="481.6642" y1="170.8744" x2="481.6642" y2="661.3536">
				<stop  offset="0" style="stop-color:#A37D33"/>
				<stop  offset="6.459057e-03" style="stop-color:#A27C33"/>
				<stop  offset="0.1935" style="stop-color:#956728"/>
				<stop  offset="0.4002" style="stop-color:#8C5820"/>
				<stop  offset="0.6419" style="stop-color:#874F1B"/>
				<stop  offset="1" style="stop-color:#854C1A"/>
			</linearGradient>
			<path class="st16" d="M474.1,254.3c0,0.2-0.1,0.4-0.1,0.5l15.4,4.3c-0.2-0.6-0.5-1.2-1-1.8c-3.5-5-9.4-5.7-9.4-5.7
				s-0.6-0.6-0.8-1.1l-1-0.3C475.6,250.8,474.6,252.5,474.1,254.3z"/>
			<path class="st4" d="M357.7,215.5l-5.2-1.5c-0.1,0-0.1,0-0.2,0l5.5,1.6C357.8,215.6,357.7,215.6,357.7,215.5z"/>
			<linearGradient id="SVGID_10_" gradientUnits="userSpaceOnUse" x1="355.0226" y1="170.8759" x2="355.0226" y2="661.3334">
				<stop  offset="0" style="stop-color:#A37D33"/>
				<stop  offset="6.459057e-03" style="stop-color:#A27C33"/>
				<stop  offset="0.1935" style="stop-color:#956728"/>
				<stop  offset="0.4002" style="stop-color:#8C5820"/>
				<stop  offset="0.6419" style="stop-color:#874F1B"/>
				<stop  offset="1" style="stop-color:#854C1A"/>
			</linearGradient>
			<path class="st17" d="M357.7,215.5l-5.2-1.5c-0.1,0-0.1,0-0.2,0l5.5,1.6C357.8,215.6,357.7,215.6,357.7,215.5z"/>
			<path class="st4" d="M477.2,250.3l1,0.3c-0.1-0.1-0.1-0.2,0-0.3l-0.3-0.1C477.6,250.2,477.4,250.3,477.2,250.3z"/>
			<linearGradient id="SVGID_11_" gradientUnits="userSpaceOnUse" x1="477.6858" y1="170.8505" x2="477.6858" y2="661.4743">
				<stop  offset="0" style="stop-color:#A37D33"/>
				<stop  offset="6.459057e-03" style="stop-color:#A27C33"/>
				<stop  offset="0.1935" style="stop-color:#956728"/>
				<stop  offset="0.4002" style="stop-color:#8C5820"/>
				<stop  offset="0.6419" style="stop-color:#874F1B"/>
				<stop  offset="1" style="stop-color:#854C1A"/>
			</linearGradient>
			<path class="st18" d="M477.2,250.3l1,0.3c-0.1-0.1-0.1-0.2,0-0.3l-0.3-0.1C477.6,250.2,477.4,250.3,477.2,250.3z"/>
			<path class="st5" d="M354.7,214c-0.6,0-1.4,0-2.3,0l5.2,1.5C356.9,214.8,355.9,214.2,354.7,214z"/>
			<linearGradient id="SVGID_12_" gradientUnits="userSpaceOnUse" x1="355.0736" y1="170.8741" x2="355.0736" y2="661.3517">
				<stop  offset="0" style="stop-color:#A37D33"/>
				<stop  offset="6.459057e-03" style="stop-color:#A27C33"/>
				<stop  offset="0.1935" style="stop-color:#956728"/>
				<stop  offset="0.4002" style="stop-color:#8C5820"/>
				<stop  offset="0.6419" style="stop-color:#874F1B"/>
				<stop  offset="1" style="stop-color:#854C1A"/>
			</linearGradient>
			<path class="st19" d="M354.7,214c-0.6,0-1.4,0-2.3,0l5.2,1.5C356.9,214.8,355.9,214.2,354.7,214z"/>
			<path class="st5" d="M477.8,250.2l0.3,0.1c0,0,0.1-0.1,0.1-0.1C478.1,250.2,478,250.2,477.8,250.2z"/>
			<linearGradient id="SVGID_13_" gradientUnits="userSpaceOnUse" x1="478.0438" y1="250.2039" x2="478.0438" y2="250.3065">
				<stop  offset="0" style="stop-color:#A37D33"/>
				<stop  offset="6.459057e-03" style="stop-color:#A27C33"/>
				<stop  offset="0.1935" style="stop-color:#956728"/>
				<stop  offset="0.4002" style="stop-color:#8C5820"/>
				<stop  offset="0.6419" style="stop-color:#874F1B"/>
				<stop  offset="1" style="stop-color:#854C1A"/>
			</linearGradient>
			<path class="st20" d="M477.8,250.2l0.3,0.1c0,0,0.1-0.1,0.1-0.1C478.1,250.2,478,250.2,477.8,250.2z"/>
			<path class="st21" d="M456.4,379c2.5-9.4,24.3-64,27.5-72c7.9-19.6,17-41.4,25.6-55c4.6-7.1,9-11.7,17.3-15.4
				c3.3-1.5,1.3-3.6-8.1-3.2c2.6,0.3,0.7,2.2-2,3.6c-8.9,4.7-19.4,18.5-21.9,26.6c-6.4,21.1-10.8,34.5-17.7,53.3
				c-12.4,33.9-27.9,56.9-32.4,75.3c-5.6,22.7-7.5,46.3-7.5,73.8c0,16.1,0,27.1,0.1,36.3h4.2c0.3-11.1,0.6-23.8,1-36.3
				C443.2,443.1,450.4,401.6,456.4,379z"/>
			<path class="st21" d="M500.9,244.2c-1.3,1.3-2.4,2.5-3.1,3.4c3.4-4.1,13.6-13.3,17.3-13.9c-1.9,0.2-5.5,2.8-9.1,5.8
				C504.3,241,502.5,242.6,500.9,244.2z"/>
			<path class="st22" d="M444.7,392.2c4.5-18.5,20-41.4,32.4-75.3c6.9-18.8,11.3-32.2,17.7-53.3c2.5-8.1,13-21.8,21.9-26.6
				c2.8-1.5,4.6-3.3,2-3.6c-0.8-0.1-1.9,0-3.6,0.2c-3.7,0.6-13.9,9.8-17.3,13.9c-1,1.3-2.4,2.3-4.1,3.1c-2.7,1.3-6.1,1.8-9.6,1.2
				c-1.4-0.2-2.9-0.6-4.4-1.2c-0.9-0.4-1.3-0.4-1.5-0.4c-0.1,0-0.1,0.1-0.1,0.1c0,0.1,0,0.2,0,0.3c0.2,0.4,0.8,1.1,0.8,1.1
				s6,0.6,9.4,5.7c0.4,0.6,0.7,1.2,1,1.8c1.7,4.4-0.8,9.2-3.2,18.6c-4.1,16.2-19.6,67.1-42.9,99.8c-6.3,8.8-13.2,17.7-13.2,39.9
				c0,14.7,1.5,24.5,1.1,45.6c-0.2,11.2,0.4,26,0.7,39.3h5.5c-0.1-9.2-0.1-20.2-0.1-36.3C437.2,438.5,439.1,414.9,444.7,392.2z"/>
			<path class="st21" d="M397.2,450.6c-0.4-24.9-3.5-66.6-10.2-84.4c-24-64-33.8-90.3-42.8-130.3c-2.7-11.9-7.5-24.1-15.1-37.7
				c-6.9-12.5-9.8-19.6-9.8-19.6c-3.2-3.2-10-8.3-8.2-7.5c-0.7-0.3-1.1-0.4-1.4-0.3c-0.6,0.4,0.7,2.3,3,4.7c0,0,5.5,8.2,10.9,21.5
				c1.2,3,2.5,6,3.8,8.9c1.1,2.4,2.1,4.8,3.2,7.2c0.3,0.8,0.7,1.6,1,2.3c2.4,5.5,4.5,11,5.9,16.6c2.6,10.5,23.4,79.9,41.4,131.8
				c6.2,17.9,12.1,65.9,12.4,90.8c0.2,14.2,0.8,32.9,1.4,47.6h4C396.8,486.8,397.5,465.6,397.2,450.6z"/>
			<path class="st22" d="M354.8,214C356.7,214.3,356.2,214.1,354.8,214L354.8,214z"/>
			<path class="st22" d="M402.9,489.8c0.9-17.7,0.3-27.9,0.8-38.1c0.4-9,1.1-34.7,1.1-46.3c0-21.1-13.9-43.7-20-57.3
				c-4.5-10.2-23.4-54.6-34.7-103.6c-1.2-5.4-5.5-19.3-5.2-25.4c0-0.7,0.1-1.3,0.3-1.7c0.9-2.5,4.2-3.2,7-3.4c0.1,0,0.1,0,0.2,0
				c0.9,0,1.7,0,2.3,0c0,0,0.1,0,0.1,0c-0.1,0-0.1,0-0.2,0c-0.6-0.1-1.2-0.2-1.9-0.4c-2.6-0.7-5.8-2.1-7.9-4.5
				c-0.6-0.6-1.2-1.3-2-2.1c-2-2.1-4.7-5-7.7-9.3c-1.1-1.6-2.3-3.5-3.5-5.6c-0.5-0.9-1.1-1.9-1.7-2.8c-4.9-7.6-12.1-14.5-18.3-17.9
				c-0.2-0.1-0.4-0.2-0.5-0.3c-1.8-0.8,5,4.3,8.2,7.5c0,0,2.9,7.1,9.8,19.6c7.5,13.6,12.4,25.8,15.1,37.7
				c9,39.9,18.8,66.3,42.8,130.3c6.6,17.7,9.8,59.5,10.2,84.4c0.2,15-0.4,36.2-0.3,51.7h5.7C402.6,498.4,402.7,494.2,402.9,489.8z"
				/>
			<path class="st22" d="M425.6,294.7c-2-1.7-5.1-3.7-9.3-5c-1-0.3-2.1-0.6-3.3-0.8c-5.3-0.9-9.3,0.8-10.8,1.5
				c-0.4,0.2-0.7,0.4-0.7,0.4s4.7-1.3,7,0.2c2.3,1.5,3.4,5.1,3.4,5.1s4.7,0.3,6,0.6c2.6,0.6,5.3,2.8,5.3,2.8s1.1-0.8,2.3-1.5
				c1-0.7,2.6-0.4,2.9-0.4c0,0,0.1,0,0.1,0S427.5,296.3,425.6,294.7z"/>
			<linearGradient id="SVGID_14_" gradientUnits="userSpaceOnUse" x1="425.4346" y1="301.0058" x2="425.4346" y2="363.2521">
				<stop  offset="0" style="stop-color:#F2E683"/>
				<stop  offset="0.4033" style="stop-color:#ECDC88"/>
				<stop  offset="1" style="stop-color:#DEC595"/>
			</linearGradient>
			<path class="st23" d="M425.1,349.3c0.2,1.1,0.5,2.1,0.9,3.1c-0.4-1.4-0.8-2.9-1.1-4.5C424.9,348.3,425,348.8,425.1,349.3z"/>
			<linearGradient id="SVGID_15_" gradientUnits="userSpaceOnUse" x1="425.6626" y1="301.0049" x2="425.6626" y2="363.2522">
				<stop  offset="0" style="stop-color:#F2E683"/>
				<stop  offset="0.4033" style="stop-color:#ECDC88"/>
				<stop  offset="1" style="stop-color:#DEC595"/>
			</linearGradient>
			<path class="st24" d="M424.9,344c0.3-1.1,0.8-2.2,1.5-3.3c0,0,0,0,0,0C425.7,341.6,425.2,342.6,424.9,344z"/>
			<linearGradient id="SVGID_16_" gradientUnits="userSpaceOnUse" x1="433.0119" y1="301.0038" x2="433.0119" y2="363.2505">
				<stop  offset="0" style="stop-color:#F2E683"/>
				<stop  offset="0.4033" style="stop-color:#ECDC88"/>
				<stop  offset="1" style="stop-color:#DEC595"/>
			</linearGradient>
			<path class="st25" d="M430.8,334.1c3.9-6.9,4.7-14.7,4.3-19.5c-0.4-4-1-6.8-1.9-8.8c1.3,3.4,1.9,6.9,1.9,10.3
				C435.1,323.8,432.9,329.9,430.8,334.1z"/>
			<linearGradient id="SVGID_17_" gradientUnits="userSpaceOnUse" x1="429.3927" y1="170.8711" x2="429.3927" y2="661.3576">
				<stop  offset="0" style="stop-color:#A37D33"/>
				<stop  offset="6.459057e-03" style="stop-color:#A27C33"/>
				<stop  offset="0.1935" style="stop-color:#956728"/>
				<stop  offset="0.4002" style="stop-color:#8C5820"/>
				<stop  offset="0.6419" style="stop-color:#874F1B"/>
				<stop  offset="1" style="stop-color:#854C1A"/>
			</linearGradient>
			<path class="st26" d="M424.9,347.9c0-0.2-0.1-0.5-0.1-0.7c-0.2-1.1-0.1-2.1,0.2-3.2c0.3-1.4,0.8-2.4,1.5-3.3
				c-0.4-0.6-1.5-2-2.1-2.3c-1.4-0.7-2.6-1-3.2-1.1c-1.3,2.5-1.4,5.6-0.6,9.9c1.6,8.6,5.3,13,10.5,15.3c5.3,2.3,7.5-0.9,7.5-0.9
				s-4,2.3-8.7-2.1c-2.1-1.9-3.2-4.3-4-7.1c-0.3-1-0.6-2-0.9-3.1C425,348.8,424.9,348.3,424.9,347.9z"/>
			<linearGradient id="SVGID_18_" gradientUnits="userSpaceOnUse" x1="429.3927" y1="301.0051" x2="429.3927" y2="363.2546">
				<stop  offset="0" style="stop-color:#F2E683"/>
				<stop  offset="0.4033" style="stop-color:#ECDC88"/>
				<stop  offset="1" style="stop-color:#DEC595"/>
			</linearGradient>
			<path class="st27" d="M424.9,347.9c0-0.2-0.1-0.5-0.1-0.7c-0.2-1.1-0.1-2.1,0.2-3.2c0.3-1.4,0.8-2.4,1.5-3.3
				c-0.4-0.6-1.5-2-2.1-2.3c-1.4-0.7-2.6-1-3.2-1.1c-1.3,2.5-1.4,5.6-0.6,9.9c1.6,8.6,5.3,13,10.5,15.3c5.3,2.3,7.5-0.9,7.5-0.9
				s-4,2.3-8.7-2.1c-2.1-1.9-3.2-4.3-4-7.1c-0.3-1-0.6-2-0.9-3.1C425,348.8,424.9,348.3,424.9,347.9z"/>
			<linearGradient id="SVGID_19_" gradientUnits="userSpaceOnUse" x1="430.1469" y1="170.8794" x2="430.1469" y2="661.3448">
				<stop  offset="0" style="stop-color:#A37D33"/>
				<stop  offset="6.459057e-03" style="stop-color:#A27C33"/>
				<stop  offset="0.1935" style="stop-color:#956728"/>
				<stop  offset="0.4002" style="stop-color:#8C5820"/>
				<stop  offset="0.6419" style="stop-color:#874F1B"/>
				<stop  offset="1" style="stop-color:#854C1A"/>
			</linearGradient>
			<path class="st28" d="M427.4,332.3c1.5,0.8,4.1-0.4,4.1-0.4s-0.8,2.3-1.9,3.8c-0.5,0.6-1,1.6-1.6,2.6c0.4-0.6,0.9-1.3,1.4-2
				c0.5-0.7,0.9-1.4,1.4-2.2c2.1-4.2,4.3-10.3,4.3-18c0-3.4-0.7-6.9-1.9-10.3c-0.9-1.9-2.2-3.1-4.1-4c-4-2-3.8,0.1-2.1,2.8
				c1.9,3,4.1,15.4,0.6,22.6c-0.9,1.8-1.7,3.1-2.4,4.2c0.4-0.6,0.7-1,0.7-1S425.9,331.6,427.4,332.3z"/>
			<linearGradient id="SVGID_20_" gradientUnits="userSpaceOnUse" x1="430.1469" y1="301.0052" x2="430.1469" y2="363.2496">
				<stop  offset="0" style="stop-color:#F2E683"/>
				<stop  offset="0.4033" style="stop-color:#ECDC88"/>
				<stop  offset="1" style="stop-color:#DEC595"/>
			</linearGradient>
			<path class="st29" d="M427.4,332.3c1.5,0.8,4.1-0.4,4.1-0.4s-0.8,2.3-1.9,3.8c-0.5,0.6-1,1.6-1.6,2.6c0.4-0.6,0.9-1.3,1.4-2
				c0.5-0.7,0.9-1.4,1.4-2.2c2.1-4.2,4.3-10.3,4.3-18c0-3.4-0.7-6.9-1.9-10.3c-0.9-1.9-2.2-3.1-4.1-4c-4-2-3.8,0.1-2.1,2.8
				c1.9,3,4.1,15.4,0.6,22.6c-0.9,1.8-1.7,3.1-2.4,4.2c0.4-0.6,0.7-1,0.7-1S425.9,331.6,427.4,332.3z"/>
			<linearGradient id="SVGID_21_" gradientUnits="userSpaceOnUse" x1="406.2454" y1="170.8756" x2="406.2454" y2="661.3495">
				<stop  offset="0" style="stop-color:#A37D33"/>
				<stop  offset="6.459057e-03" style="stop-color:#A27C33"/>
				<stop  offset="0.1935" style="stop-color:#956728"/>
				<stop  offset="0.4002" style="stop-color:#8C5820"/>
				<stop  offset="0.6419" style="stop-color:#874F1B"/>
				<stop  offset="1" style="stop-color:#854C1A"/>
			</linearGradient>
			<path class="st30" d="M407,333.8c0.2,0.4,0.5,0.8,0.7,1.3c-0.2-0.7-1.1-3-2.9-5.4C405.8,331.7,406.7,333.1,407,333.8z"/>
			<linearGradient id="SVGID_22_" gradientUnits="userSpaceOnUse" x1="396.4883" y1="332.3836" x2="415.1288" y2="332.3836">
				<stop  offset="0" style="stop-color:#EBD07A"/>
				<stop  offset="0.4699" style="stop-color:#E6CC84"/>
				<stop  offset="1" style="stop-color:#DEC595"/>
			</linearGradient>
			<path class="st31" d="M407,333.8c0.2,0.4,0.5,0.8,0.7,1.3c-0.2-0.7-1.1-3-2.9-5.4C405.8,331.7,406.7,333.1,407,333.8z"/>
			<linearGradient id="SVGID_23_" gradientUnits="userSpaceOnUse" x1="405.8092" y1="170.8775" x2="405.8092" y2="661.3506">
				<stop  offset="0" style="stop-color:#A37D33"/>
				<stop  offset="6.459057e-03" style="stop-color:#A27C33"/>
				<stop  offset="0.1935" style="stop-color:#956728"/>
				<stop  offset="0.4002" style="stop-color:#8C5820"/>
				<stop  offset="0.6419" style="stop-color:#874F1B"/>
				<stop  offset="1" style="stop-color:#854C1A"/>
			</linearGradient>
			<path class="st32" d="M413.7,333.8c-0.5-0.1-2.7-0.3-4,0.4c-1.4,0.7-1.8,1-1.9,1.1c0.8,1.6,1.5,3.2,1.5,4.2
				c0,1.5,0.5,3.5-0.8,7.2c-1.5,4.5-2.6,6.2-5.7,6c-1.5-0.1-6.4-3-6.4-3s2.8,4.3,8.5,5.1c7.1,0.9,8.9-5.1,9.4-6.8
				c0.7-2.2,0.9-7,0.6-10C414.8,337,414.3,335.3,413.7,333.8z"/>
			<linearGradient id="SVGID_24_" gradientUnits="userSpaceOnUse" x1="396.4883" y1="344.2729" x2="415.1301" y2="344.2729">
				<stop  offset="0" style="stop-color:#EBD07A"/>
				<stop  offset="0.4699" style="stop-color:#E6CC84"/>
				<stop  offset="1" style="stop-color:#DEC595"/>
			</linearGradient>
			<path class="st33" d="M413.7,333.8c-0.5-0.1-2.7-0.3-4,0.4c-1.4,0.7-1.8,1-1.9,1.1c0.8,1.6,1.5,3.2,1.5,4.2
				c0,1.5,0.5,3.5-0.8,7.2c-1.5,4.5-2.6,6.2-5.7,6c-1.5-0.1-6.4-3-6.4-3s2.8,4.3,8.5,5.1c7.1,0.9,8.9-5.1,9.4-6.8
				c0.7-2.2,0.9-7,0.6-10C414.8,337,414.3,335.3,413.7,333.8z"/>
			<linearGradient id="SVGID_25_" gradientUnits="userSpaceOnUse" x1="403.9489" y1="170.8692" x2="403.9489" y2="661.3604">
				<stop  offset="0" style="stop-color:#A37D33"/>
				<stop  offset="6.459057e-03" style="stop-color:#A27C33"/>
				<stop  offset="0.1935" style="stop-color:#956728"/>
				<stop  offset="0.4002" style="stop-color:#8C5820"/>
				<stop  offset="0.6419" style="stop-color:#874F1B"/>
				<stop  offset="1" style="stop-color:#854C1A"/>
			</linearGradient>
			<path class="st34" d="M406.3,325.2c1.1,0,1.8-1.3,1.9-1.5c-0.3-0.6-0.5-1.1-0.6-1.3c-0.4-1.5-1.3-4.9-1.5-7.9
				c-0.2-2.4-0.2-5.3-0.2-7.3c0-2.3,0.9-6,2.3-7.3c1.7-1.7-0.2-3.2-0.9-3.6c-0.8-0.4-3.1-0.3-4.1,0c-1.9,0.6-3.4,2.6-3.8,5.1
				c-0.6,3.6-0.1,7.3,0.2,12.1c0.2,2.7,0.8,5.4,1.7,8C401.8,322.2,404,325.2,406.3,325.2z"/>
			<linearGradient id="SVGID_26_" gradientUnits="userSpaceOnUse" x1="396.4876" y1="310.5161" x2="415.1305" y2="310.5161">
				<stop  offset="0" style="stop-color:#EBD07A"/>
				<stop  offset="0.4699" style="stop-color:#E6CC84"/>
				<stop  offset="1" style="stop-color:#DEC595"/>
			</linearGradient>
			<path class="st35" d="M406.3,325.2c1.1,0,1.8-1.3,1.9-1.5c-0.3-0.6-0.5-1.1-0.6-1.3c-0.4-1.5-1.3-4.9-1.5-7.9
				c-0.2-2.4-0.2-5.3-0.2-7.3c0-2.3,0.9-6,2.3-7.3c1.7-1.7-0.2-3.2-0.9-3.6c-0.8-0.4-3.1-0.3-4.1,0c-1.9,0.6-3.4,2.6-3.8,5.1
				c-0.6,3.6-0.1,7.3,0.2,12.1c0.2,2.7,0.8,5.4,1.7,8C401.8,322.2,404,325.2,406.3,325.2z"/>
			<path class="st22" d="M407.8,335.3C407.8,335.3,407.8,335.3,407.8,335.3C407.8,335.3,407.8,335.3,407.8,335.3z"/>
			<path class="st22" d="M409.7,334.2c1.3-0.7,3.5-0.5,4-0.4c0.1,0,0.1,0,0.1,0s-1.1-2.6-3.8-7.2c-0.7-1.2-1.9-3-1.9-3s0,0,0,0
				c-0.1,0.1-0.7,1.5-1.9,1.5c-2.2,0-4.5-3-5.1-3.9c-0.1-0.2-0.2-0.3-0.2-0.3s0,3.8,3.8,8.7c0,0,0,0,0,0c1.8,2.4,2.7,4.7,2.9,5.4
				c0,0.1,0.1,0.2,0.1,0.2c0,0,0,0,0,0C407.9,335.2,408.2,334.9,409.7,334.2z"/>
			<path class="st22" d="M426.4,340.7C426.4,340.7,426.4,340.7,426.4,340.7c0.1,0.2,0.2,0.3,0.2,0.3s0.3-0.7,0.8-1.6
				c0.2-0.3,0.4-0.7,0.6-1.1c0.5-1,1.1-1.9,1.6-2.6c1.1-1.5,1.9-3.8,1.9-3.8s-2.6,1.1-4.1,0.4c-1.5-0.8-1.5-1.9-1.5-1.9
				s-0.3,0.5-0.7,1c-0.4,0.6-1,1.4-1.6,2c-1.9,1.9-2.6,3.8-2.6,3.8s0.1,0,0.2,0c0.5,0.1,1.8,0.4,3.2,1.1
				C425,338.6,426,340,426.4,340.7z"/>
		</g>
	</g>
	<path class="st36" d="M312.1,742.1c-13.6-4.4-20.1-11-29.9-19.2c-5.1-4.2-15.3-14.5-11.4-8.1c-9.8-8.2-18.3-17.4-27.2-26.9
		c4-4.9,11.9-16,15.2-32.5c3.7-18.1-9.9-36.1-9.9-36.1s-18,17.5-18.8,36.6c-0.3,7,2.7,16,5.5,23.1c-8.6-10.1-16.6-21-23.8-32.5
		c4.7-3.9,14.3-13.4,20.4-28.9c6.6-16.8-3.4-36.6-3.4-36.6s-20.4,13.8-24.3,32.1c-1.5,6.8-0.1,16.1,1.5,23.4
		c-7.4-12.1-13.6-24.6-18.9-37.4c5-2.8,16.3-10.3,25-24.7c9.2-15.1,2.9-35.9,2.9-35.9s-22,9.9-29,26.9c-2.8,6.8-2.9,17-2.5,24.6
		c-5.2-14-9.2-28.3-12.1-42.6c5.3-1.9,17.4-7.3,28.2-19.5c11.5-13,8.9-34.1,8.9-34.1s-23,5.8-32.5,21c-3.7,5.9-5.6,15.3-6.5,22.6
		c-2.5-14.5-3.9-29.1-4.3-43.4c5.5-0.9,18-4,30.5-14c13.3-10.6,14.4-31.4,14.4-31.4s-23.1,1.7-34.9,14.7c-4.6,5.1-8,13.9-10.1,20.8
		c0-14.9,1.1-29.6,3.1-43.7c5,0.1,18.2-0.5,32.5-8.3c14.7-8,19.2-27.9,19.2-27.9s-22.6-2.3-36.2,8.3c-5.9,4.6-11.1,13.8-14.3,20.4
		c2.6-15.6,6.3-30.4,11-44.2c4.3,0.9,17.5,3,33.4-2.4c15.5-5.2,23.3-23.6,23.3-23.6s-21.4-6.1-36.4,1.8c-7.1,3.7-14.4,13-18.5,18.9
		c2.7-7.4,5.7-14.4,9-21.1c3.5-7.8,7.1-15,10.9-21.8c4.1,1.6,16.5,5.8,32.6,3.3c15.8-2.4,26.5-18.8,26.5-18.8s-19.7-9.5-35.4-4.4
		c-7.4,2.4-17.1,8.9-20.8,14.8c10.2-16.5,17.5-27.8,25.8-38.3c3,1.9,14.6,8.7,31.3,9.1c15.7,0.4,28.8-13.7,28.8-13.7
		s-17.4-12.5-33.4-10.3c-8.4,1.2-20.3,7.2-24.4,12.1c9.3-10.9,14.8-16.6,20.5-22.3c3.7,0,15.1-0.6,22.5-8c11-11,13.2-23.1,13.2-23.1
		s-16.2,1.4-23.6,6.8c-9.3,6.7-12.6,19.6-13.3,22.6c-4.8,4.5-10.2,10.5-16.5,18c4.3-5,8.9-16.8,9.2-25.1
		c0.5-16.2-13.7-32.2-13.7-32.2s-12.6,14.5-10.6,30.1c2.2,16.9,9.9,27.3,12,29.8c-8.7,10.1-17.8,23.2-27.1,38.3
		c2.3-6.6,5.5-17.7,4.3-25.5c-2.3-16.4-19.5-29.9-19.5-29.9s-10.1,16.8-5.3,32.1c5.1,16.2,14.8,25.6,17.6,28.1
		c-4.9,8.3-9.7,17.2-14.3,27c-2.1,4.1-4.1,8.5-6,12.9c0.9-7.1,1.6-16.9-0.6-23.5c-5.3-16.1-24.9-26.6-24.9-26.6s-7.2,18.7,0.3,33.2
		c7.5,14.4,18,22.1,22,24.7c-5.1,13.1-9.2,27.4-12.3,42.5c-0.4-7.1-1.5-16.5-4.7-22.4c-8.1-15.2-29.7-22.3-29.7-22.3
		s-3.9,20,6.2,33.3c10,13.1,21.9,19,26.4,20.9c-2.5,14.4-4.1,29.5-4.6,45c-1.6-7.2-4.4-16.7-8.8-22.3
		c-10.9-13.8-33.8-17.2-33.8-17.2s-0.4,20.8,12.1,32.4c12.5,11.5,25.6,15.3,30.4,16.3c0,14.3,0.9,28.8,2.8,43.3
		c-2.9-6.7-7.1-14.7-12.1-19.2c-13.4-12-37-11.2-37-11.2s3.3,21,17.9,30.4c14.1,9,27.5,10.7,32.9,11c2.3,13.4,5.5,26.7,9.6,39.9
		c-3.9-5.7-9-11.8-14.1-15c-15.5-9.7-39.2-4.7-39.2-4.7s7,20.5,23.4,27.3c15.1,6.3,28.4,5.9,34.3,5.3c4.6,12.4,10.1,24.7,16.6,36.6
		c-4.9-4.9-10.9-10-16.5-12.3c-17.4-7-40.2,2.2-40.2,2.2s10.7,19.4,28.4,23.3c16.5,3.7,29.9,0.9,35.6-0.8
		c6.4,11.1,13.5,21.7,21.1,31.7c-5.7-3.9-12.4-7.8-18.3-9c-18.7-3.9-40.1,9.3-40.1,9.3s14.2,17.6,32.6,18.4
		c16.9,0.8,29.7-4.2,35.3-7c8.4,9.7,17.3,18.8,26.7,27.2c-6.5-3-14.1-5.8-20.3-6c-19.5-0.6-38.6,16.5-38.6,16.5s17.4,15.1,36.1,12.7
		c17.2-2.2,29.4-17.2,34.4-13.3c13.4,10.3,19.9,16.9,37.1,28.2C302.7,748.6,318.9,744.3,312.1,742.1z"/>
	<path class="st36" d="M527.9,742.1c13.6-4.4,20.1-11,29.9-19.2c5.1-4.2,15.3-14.5,11.4-8.1c9.8-8.2,18.3-17.4,27.2-26.9
		c-4-4.9-11.9-16-15.2-32.5c-3.7-18.1,9.9-36.1,9.9-36.1s18,17.5,18.8,36.6c0.3,7-2.7,16-5.6,23.1c8.6-10.1,16.6-21,23.8-32.5
		c-4.7-3.9-14.3-13.4-20.4-28.9c-6.6-16.8,3.4-36.6,3.4-36.6s20.4,13.8,24.3,32.1c1.5,6.8,0.1,16.1-1.5,23.4
		c7.4-12.1,13.6-24.6,18.9-37.4c-5-2.8-16.3-10.3-25-24.7c-9.2-15.1-2.9-35.9-2.9-35.9s22,9.9,29,26.9c2.8,6.8,2.9,17,2.5,24.6
		c5.2-14,9.2-28.3,12.1-42.6c-5.3-1.9-17.4-7.3-28.2-19.5c-11.5-13-8.9-34.1-8.9-34.1s23,5.8,32.5,21c3.7,5.9,5.6,15.3,6.5,22.6
		c2.5-14.5,3.9-29.1,4.3-43.4c-5.5-0.9-18-4-30.5-14c-13.3-10.6-14.4-31.4-14.4-31.4s23.1,1.7,34.9,14.7c4.6,5.1,8,13.9,10.1,20.8
		c0-14.9-1.1-29.6-3.1-43.7c-5,0.1-18.2-0.5-32.5-8.3c-14.7-8-19.2-27.9-19.2-27.9s22.6-2.3,36.2,8.3c5.9,4.6,11.1,13.8,14.3,20.4
		c-2.6-15.6-6.3-30.4-11-44.2c-4.3,0.9-17.5,3-33.4-2.4c-15.5-5.2-23.3-23.6-23.3-23.6s21.4-6.1,36.4,1.8c7.1,3.7,14.4,13,18.5,18.9
		c-2.7-7.4-5.7-14.4-9-21.1c-3.5-7.8-7.1-15-10.9-21.8c-4.1,1.6-16.5,5.8-32.6,3.3c-15.8-2.4-26.5-18.8-26.5-18.8s19.7-9.5,35.4-4.4
		c7.4,2.4,17.1,8.9,20.8,14.8c-10.2-16.5-17.5-27.8-25.8-38.3c-3,1.9-14.6,8.7-31.3,9.1c-15.7,0.4-28.8-13.7-28.8-13.7
		s17.4-12.5,33.4-10.3c8.4,1.2,20.3,7.2,24.4,12.1c-9.3-10.9-14.8-16.6-20.5-22.3c-3.7,0-15.1-0.6-22.5-8
		c-11-11-13.2-23.1-13.2-23.1s16.2,1.4,23.6,6.8c9.3,6.7,12.6,19.6,13.3,22.6c4.8,4.5,10.2,10.5,16.5,18c-4.3-5-8.9-16.8-9.2-25.1
		c-0.5-16.2,13.7-32.2,13.7-32.2s12.6,14.5,10.6,30.1c-2.2,16.9-9.9,27.3-12,29.8c8.7,10.1,17.8,23.2,27.1,38.3
		c-2.3-6.6-5.5-17.7-4.3-25.5c2.3-16.4,19.5-29.9,19.5-29.9s10.1,16.8,5.3,32.1c-5.1,16.2-14.8,25.6-17.6,28.1
		c4.9,8.3,9.7,17.2,14.3,27c2.1,4.1,4.1,8.5,6,12.9c-0.9-7.1-1.6-16.9,0.6-23.5c5.3-16.1,24.9-26.6,24.9-26.6s7.2,18.7-0.3,33.2
		c-7.5,14.4-18,22.1-22,24.7c5.1,13.1,9.2,27.4,12.3,42.5c0.4-7.1,1.5-16.5,4.7-22.4c8.1-15.2,29.7-22.3,29.7-22.3s3.9,20-6.2,33.3
		c-10,13.1-21.9,19-26.4,20.9c2.5,14.4,4.1,29.5,4.6,45c1.6-7.2,4.4-16.7,8.8-22.3c10.9-13.8,33.8-17.2,33.8-17.2
		s0.4,20.8-12.1,32.4c-12.5,11.5-25.6,15.3-30.4,16.3c0,14.3-0.9,28.8-2.8,43.3c2.9-6.7,7.1-14.7,12.1-19.2c13.4-12,37-11.2,37-11.2
		s-3.3,21-17.9,30.4c-14.1,9-27.5,10.7-32.9,11c-2.3,13.4-5.5,26.7-9.6,39.9c3.9-5.7,9-11.8,14.1-15c15.5-9.7,39.2-4.7,39.2-4.7
		s-7,20.5-23.4,27.3c-15.1,6.3-28.4,5.9-34.3,5.3c-4.6,12.4-10.1,24.7-16.6,36.6c4.9-4.9,10.9-10,16.5-12.3
		c17.4-7,40.2,2.2,40.2,2.2s-10.7,19.4-28.4,23.3c-16.5,3.7-29.9,0.9-35.6-0.8c-6.4,11.1-13.5,21.7-21.1,31.7
		c5.7-3.9,12.4-7.8,18.3-9c18.7-3.9,40.1,9.3,40.1,9.3s-14.2,17.6-32.6,18.4c-16.9,0.8-29.7-4.2-35.3-7
		c-8.4,9.7-17.3,18.8-26.7,27.2c6.5-3,14.1-5.8,20.3-6c19.5-0.6,38.6,16.5,38.6,16.5s-17.4,15.1-36.1,12.7
		c-17.2-2.2-29.4-17.2-34.4-13.3c-13.4,10.3-19.9,16.9-37.1,28.2C537.3,748.6,521.1,744.3,527.9,742.1z"/>
	<path class="st37" d="M263.5,762.5c0,6.1,5,11.1,11.1,11.1h290.7c6.1,0,11.1-5,11.1-11.1v-89.8h-313V762.5z"/>
	<g>
		<path d="M265.6,600.8c-0.4,0-0.8-0.3-0.8-0.8c0-0.4,0.6-0.9,1.1-1.4c7.8-6.8,18.8-15.5,18.8-27.1c0-8.7-4.8-10.5-7.6-10.5
			c-2.4,0-4.2,0.4-5.9,2c-1.3,1.3-2.3,3.9-2.3,5.3c0,0.6-0.2,1.1-0.7,1.1c-0.3,0-0.4-0.4-0.5-1.1c-0.1-0.5-0.3-5.1-0.3-6.7
			c0-0.5,0.1-0.7,0.7-1.1c2.2-1.1,5.2-2.1,10-2.1c9.7,0,13.9,5.3,13.9,11.8c0,10.7-11.9,20.1-19.1,25.8c-0.3,0.2-0.2,0.4,0.1,0.4
			h3.8c0.9,0,7.5-0.1,9.5-0.3c3.8-0.4,5.6-2.3,6.3-4.9c0.2-0.7,0.3-0.9,0.7-0.9c0.4,0,0.4,0.5,0.4,1.1c0,0.9-1.1,6-1.6,7.9
			c-0.4,1.5-1.3,1.7-4.8,1.7H265.6z"/>
		<path d="M308.2,601.8c-10.9,0-13.9-12.6-13.9-20.5c0-12.9,4.5-22.9,14.8-22.9c11,0,13.9,11.6,13.9,20.4
			C323,592.5,317.8,601.8,308.2,601.8z M308,560.8c-4.2,0-7.1,5.7-7.1,18.3c0,9.6,2.4,20.1,8.5,20.1c4.5,0,7.3-7.6,7.3-18.3
			C316.5,571.3,314,560.8,308,560.8z"/>
		<path d="M324.4,600.8c-0.4,0-0.8-0.3-0.8-0.8c0-0.4,0.6-0.9,1.1-1.4c7.8-6.8,18.8-15.5,18.8-27.1c0-8.7-4.8-10.5-7.6-10.5
			c-2.4,0-4.2,0.4-5.9,2c-1.3,1.3-2.3,3.9-2.3,5.3c0,0.6-0.2,1.1-0.7,1.1c-0.3,0-0.4-0.4-0.5-1.1c-0.1-0.5-0.3-5.1-0.3-6.7
			c0-0.5,0.1-0.7,0.7-1.1c2.2-1.1,5.2-2.1,10-2.1c9.7,0,13.9,5.3,13.9,11.8c0,10.7-11.9,20.1-19.1,25.8c-0.3,0.2-0.2,0.4,0.1,0.4
			h3.8c0.9,0,7.5-0.1,9.5-0.3c3.8-0.4,5.6-2.3,6.3-4.9c0.2-0.7,0.3-0.9,0.7-0.9c0.4,0,0.4,0.5,0.4,1.1c0,0.9-1.1,6-1.6,7.9
			c-0.4,1.5-1.3,1.7-4.8,1.7H324.4z"/>
		<path d="M366.9,601.8c-10.9,0-13.9-12.6-13.9-20.5c0-12.9,4.5-22.9,14.8-22.9c11,0,13.9,11.6,13.9,20.4
			C381.7,592.5,376.5,601.8,366.9,601.8z M366.7,560.8c-4.2,0-7.1,5.7-7.1,18.3c0,9.6,2.4,20.1,8.5,20.1c4.5,0,7.3-7.6,7.3-18.3
			C375.3,571.3,372.7,560.8,366.7,560.8z"/>
		<path d="M398.9,600.3c-0.9-0.4-1.1-0.7-1.1-1.9c0-3,0.2-6.4,0.3-7.3c0.1-0.8,0.2-1.4,0.7-1.4c0.5,0,0.6,0.5,0.6,0.9
			c0,0.7,0.2,1.9,0.5,2.8c1.2,4.1,4.5,5.6,7.9,5.6c5,0,7.4-3.4,7.4-6.3c0-2.7-0.8-5.3-5.4-8.9l-2.5-2c-6.1-4.8-8.2-8.6-8.2-13.1
			c0-6.1,5.1-10.5,12.8-10.5c3.6,0,5.9,0.6,7.4,0.9c0.5,0.1,0.8,0.3,0.8,0.7c0,0.7-0.2,2.3-0.2,6.6c0,1.2-0.2,1.7-0.6,1.7
			c-0.4,0-0.6-0.3-0.6-1c0-0.5-0.3-2.2-1.4-3.7c-0.8-1.1-2.4-2.7-6-2.7c-4.1,0-6.6,2.4-6.6,5.7c0,2.5,1.3,4.5,5.9,8l1.6,1.2
			c6.7,5,9.1,8.9,9.1,14.1c0,3.2-1.2,7-5.2,9.6c-2.8,1.8-5.9,2.3-8.8,2.3C403.8,601.8,401.3,601.4,398.9,600.3z"/>
		<path d="M437.7,562.2l-8.3,0.2c-3.2,0.1-4.5,0.4-5.4,1.6c-0.6,0.8-0.8,1.5-0.9,1.9c-0.1,0.4-0.3,0.7-0.6,0.7
			c-0.4,0-0.5-0.3-0.5-0.9c0-0.9,1.1-5.9,1.2-6.4c0.2-0.7,0.3-1.1,0.7-1.1c0.4,0,1,0.6,2.4,0.7c1.6,0.2,3.7,0.3,5.5,0.3h21.9
			c1.8,0,3-0.2,3.8-0.3c0.8-0.2,1.3-0.3,1.5-0.3c0.4,0,0.4,0.3,0.4,1.2c0,1.2-0.2,5-0.2,6.4c-0.1,0.6-0.2,0.9-0.5,0.9
			c-0.4,0-0.6-0.3-0.6-1.1l-0.1-0.6c-0.1-1.4-1.6-3-6.5-3.1l-7-0.2v22.7c0,5.1,0,9.5,0.3,11.9c0.2,1.6,0.5,2.8,2.2,3
			c0.8,0.1,2,0.2,2.8,0.2c0.6,0,0.9,0.2,0.9,0.4c0,0.4-0.4,0.6-1.1,0.6c-3.7,0-7.1-0.2-8.7-0.2c-1.3,0-4.8,0.2-7,0.2
			c-0.7,0-1.1-0.2-1.1-0.6c0-0.3,0.2-0.4,0.9-0.4c0.8,0,1.5-0.1,2-0.2c1.1-0.2,1.4-1.4,1.6-3c0.3-2.3,0.3-6.7,0.3-11.8V562.2z"/>
		<path d="M465.7,575.2c0-8.4,0-10-0.1-11.7c-0.1-1.9-0.6-2.8-2.4-3.2c-0.4-0.1-1.4-0.2-2.2-0.2c-0.6,0-0.9-0.1-0.9-0.5
			c0-0.4,0.4-0.5,1.2-0.5c1.5,0,3.1,0.1,4.5,0.1c1.4,0.1,2.7,0.1,3.5,0.1c1.8,0,12.8,0,13.8-0.1c1.1-0.1,1.9-0.2,2.4-0.3
			c0.3-0.1,0.6-0.2,0.9-0.2c0.3,0,0.3,0.2,0.3,0.5c0,0.4-0.3,1.1-0.4,3.6c-0.1,0.6-0.2,3-0.3,3.7c-0.1,0.3-0.2,0.6-0.6,0.6
			c-0.4,0-0.5-0.3-0.5-0.8c0-0.4-0.1-1.3-0.3-2c-0.4-1-0.9-1.7-3.7-2c-0.9-0.1-6.8-0.2-7.9-0.2c-0.3,0-0.4,0.2-0.4,0.6v14
			c0,0.4,0.1,0.6,0.4,0.6c1.2,0,7.6,0,8.9-0.1c1.3-0.1,2.2-0.3,2.7-0.8c0.4-0.4,0.6-0.7,0.9-0.7c0.2,0,0.4,0.1,0.4,0.4
			c0,0.3-0.2,1.2-0.4,4c-0.1,1.1-0.2,3.3-0.2,3.7c0,0.4,0,1.1-0.5,1.1c-0.4,0-0.5-0.2-0.5-0.5c-0.1-0.6-0.1-1.3-0.2-2
			c-0.3-1.1-1.1-1.9-3.1-2.2c-1.1-0.1-6.5-0.2-7.9-0.2c-0.3,0-0.3,0.2-0.3,0.6v4.4c0,1.9-0.1,7,0,8.6c0.1,3.8,1,4.7,6.6,4.7
			c1.4,0,3.8,0,5.2-0.7c1.4-0.7,2.1-1.8,2.5-4.1c0.1-0.6,0.2-0.8,0.6-0.8c0.4,0,0.4,0.4,0.4,1c0,1.3-0.4,5-0.7,6.1
			c-0.4,1.4-0.9,1.4-3,1.4c-4.2,0-7.2-0.1-9.6-0.2c-2.4-0.1-4.1-0.2-5.8-0.2c-0.6,0-1.8,0-3.2,0.1c-1.3,0-2.7,0.1-3.8,0.1
			c-0.7,0-1.1-0.2-1.1-0.6c0-0.3,0.2-0.4,0.9-0.4c0.8,0,1.5-0.1,2-0.2c1.1-0.2,1.4-1.4,1.6-3c0.3-2.3,0.3-6.7,0.3-11.8V575.2z"/>
		<path d="M491.8,564.5c-1.3-3-2.2-3.7-4.2-4.2c-0.8-0.2-1.7-0.2-2.2-0.2c-0.5,0-0.7-0.2-0.7-0.5c0-0.4,0.6-0.5,1.4-0.5
			c2.9,0,6.1,0.2,8,0.2c1.4,0,4-0.2,6.8-0.2c0.7,0,1.3,0.1,1.3,0.5c0,0.4-0.3,0.5-0.8,0.5c-0.9,0-1.7,0.1-2.2,0.4
			c-0.4,0.3-0.6,0.7-0.6,1.2c0,0.7,0.5,2.3,1.3,4.3l9.5,25.1h0.2c2.4-6.1,9.6-23.9,10.9-27.6c0.3-0.7,0.5-1.6,0.5-2
			c0-0.4-0.2-0.9-0.7-1.1c-0.7-0.2-1.5-0.3-2.2-0.3c-0.5,0-0.9-0.1-0.9-0.4c0-0.4,0.5-0.6,1.6-0.6c2.8,0,5.1,0.2,5.8,0.2
			c0.9,0,3.5-0.2,5.2-0.2c0.7,0,1.2,0.1,1.2,0.5c0,0.4-0.3,0.5-0.9,0.5c-0.6,0-1.7,0-2.7,0.7c-0.7,0.5-1.6,1.4-3,5
			c-2.2,5.2-3.7,8.2-6.6,15c-3.5,8.1-6.1,14.1-7.4,16.9c-1.4,3.2-1.8,4.1-2.5,4.1c-0.7,0-1.1-0.8-2.1-3.4L491.8,564.5z"/>
		<path d="M533.1,575.2c0-8.4,0-10-0.1-11.7c-0.1-1.9-0.7-2.8-1.9-3.1c-0.6-0.2-1.3-0.2-2-0.2c-0.6,0-0.9-0.1-0.9-0.6
			c0-0.3,0.4-0.4,1.3-0.4c2.1,0,5.6,0.2,7.2,0.2c1.4,0,4.7-0.2,6.8-0.2c0.7,0,1.2,0.1,1.2,0.4c0,0.4-0.3,0.6-0.9,0.6
			c-0.6,0-1,0.1-1.7,0.2c-1.5,0.3-1.9,1.2-2,3.2c-0.1,1.8-0.1,3.3-0.1,11.7v9.7c0,5.4,0,9.7,0.2,12.1c0.2,1.5,0.6,2.5,2.2,2.7
			c0.8,0.1,2,0.2,2.8,0.2c0.6,0,0.9,0.2,0.9,0.4c0,0.4-0.4,0.6-1.1,0.6c-3.7,0-7.1-0.2-8.6-0.2c-1.3,0-4.8,0.2-7,0.2
			c-0.7,0-1.1-0.2-1.1-0.6c0-0.3,0.2-0.4,0.9-0.4c0.8,0,1.5-0.1,2-0.2c1.1-0.2,1.4-1.2,1.6-2.8c0.3-2.3,0.3-6.7,0.3-12.1V575.2z"/>
		<path d="M554.2,575.2c0-8.4,0-10-0.1-11.7c-0.1-1.9-0.6-2.8-2.4-3.2c-0.4-0.1-1.4-0.2-2.2-0.2c-0.6,0-0.9-0.1-0.9-0.5
			c0-0.4,0.4-0.5,1.2-0.5c1.5,0,3.1,0.1,4.5,0.1c1.4,0.1,2.7,0.1,3.5,0.1c1.8,0,12.8,0,13.8-0.1c1.1-0.1,1.9-0.2,2.4-0.3
			c0.3-0.1,0.6-0.2,0.9-0.2c0.3,0,0.3,0.2,0.3,0.5c0,0.4-0.3,1.1-0.4,3.6c-0.1,0.6-0.2,3-0.3,3.7c-0.1,0.3-0.2,0.6-0.6,0.6
			c-0.4,0-0.5-0.3-0.5-0.8c0-0.4-0.1-1.3-0.3-2c-0.4-1-0.9-1.7-3.7-2c-0.9-0.1-6.8-0.2-7.9-0.2c-0.3,0-0.4,0.2-0.4,0.6v14
			c0,0.4,0.1,0.6,0.4,0.6c1.2,0,7.6,0,8.9-0.1c1.3-0.1,2.2-0.3,2.7-0.8c0.4-0.4,0.6-0.7,0.9-0.7c0.2,0,0.4,0.1,0.4,0.4
			c0,0.3-0.2,1.2-0.4,4c-0.1,1.1-0.2,3.3-0.2,3.7c0,0.4,0,1.1-0.5,1.1c-0.4,0-0.5-0.2-0.5-0.5c-0.1-0.6-0.1-1.3-0.2-2
			c-0.3-1.1-1.1-1.9-3.1-2.2c-1.1-0.1-6.5-0.2-7.9-0.2c-0.3,0-0.3,0.2-0.3,0.6v4.4c0,1.9-0.1,7,0,8.6c0.1,3.8,1,4.7,6.6,4.7
			c1.4,0,3.8,0,5.2-0.7c1.4-0.7,2.1-1.8,2.5-4.1c0.1-0.6,0.2-0.8,0.6-0.8c0.4,0,0.4,0.4,0.4,1c0,1.3-0.4,5-0.7,6.1
			c-0.4,1.4-0.9,1.4-3,1.4c-4.2,0-7.2-0.1-9.6-0.2c-2.4-0.1-4.1-0.2-5.8-0.2c-0.6,0-1.8,0-3.2,0.1c-1.3,0-2.7,0.1-3.8,0.1
			c-0.7,0-1.1-0.2-1.1-0.6c0-0.3,0.2-0.4,0.9-0.4c0.8,0,1.5-0.1,2-0.2c1.1-0.2,1.4-1.4,1.6-3c0.3-2.3,0.3-6.7,0.3-11.8V575.2z"/>
		<path d="M579.7,564.1c0-3.1,2.4-5.3,5.5-5.3s5.5,2.2,5.5,5.3c0,3-2.3,5.2-5.5,5.2S579.7,567.1,579.7,564.1z M589.7,564.1
			c0-2.6-1.8-4.2-4.4-4.2s-4.4,1.6-4.4,4.2c0,2.5,1.8,4.3,4.5,4.3C587.9,568.4,589.7,566.6,589.7,564.1z M583,563.2v-1.5
			c0-0.4-0.2-0.4-0.7-0.4c-0.1,0-0.1-0.1-0.1-0.2c0-0.2,0.1-0.2,0.3-0.2h0.2c0.1,0,0.6,0.1,1,0.1c0.5,0,0.8-0.1,1.4-0.1
			c1,0,2.7,0.2,2.7,1.6c0,0.6-0.2,1.1-1.3,1.8l1.1,1.3c0.8,0.9,0.9,0.9,1,0.9c0.1,0,0.2,0.1,0.2,0.2c0,0.2-0.1,0.2-0.5,0.2
			c-0.8,0-1.4,0.1-2.4-1.1l-0.8-1.1h-0.7v0.5c0,1.1,0.1,1.2,0.1,1.3c0.1,0.1,0.4,0.1,0.6,0.1c0.1,0,0.2,0,0.2,0.2s-0.1,0.2-0.2,0.2
			h-0.2c-0.1,0-0.7-0.1-1-0.1c-0.2,0-0.8,0.1-0.9,0.1h-0.3c-0.1,0-0.4-0.1-0.4-0.2c0-0.1,0.1-0.2,0.2-0.2c0.5,0,0.6,0,0.7-0.4
			c0.1-0.3,0-0.7,0-1.6V563.2z M584.3,563.8c0.2,0.1,0.6,0.2,0.8,0.2c0.2,0,0.4,0,0.5-0.1c0.3-0.2,0.5-0.5,0.5-1
			c0-0.7-0.5-1.3-1.4-1.3c-0.1,0-0.4,0-0.5,0.1V563.8z"/>
		<path d="M305.2,621.1c-0.7-2-1.3-3.3-2-3.9c-0.6-0.4-1.7-0.5-2.2-0.5c-0.5,0-0.9-0.1-0.9-0.5c0-0.4,0.4-0.5,1.2-0.5
			c2.8,0,5.9,0.2,6.3,0.2c0.5,0,2.9-0.2,6.1-0.2c0.8,0,1.1,0.2,1.1,0.5c0,0.4-0.4,0.5-1,0.5c-0.4,0-1,0-1.4,0.2
			c-0.5,0.2-0.6,0.6-0.6,1.2c0,0.7,0.5,2.6,1.2,5c0.9,3.6,6,20.2,7,23.2h0.2l10.6-28.5c0.5-1.5,0.9-2,1.4-2c0.6,0,0.9,0.8,1.6,2.6
			l11.4,27.5h0.2c1-3.7,5.4-18.1,7.3-24.5c0.4-1.3,0.5-2.4,0.5-3.2c0-0.9-0.5-1.6-2.6-1.6c-0.5,0-0.9-0.2-0.9-0.5
			c0-0.4,0.4-0.5,1.3-0.5c2.9,0,5.2,0.2,5.7,0.2c0.4,0,2.7-0.2,4.5-0.2c0.6,0,1,0.1,1,0.4c0,0.4-0.3,0.5-0.8,0.5
			c-0.5,0-1.3,0.1-1.9,0.3c-1.3,0.5-1.9,2.7-3.1,5.8c-2.5,6.9-8.3,24.3-10.9,32.5c-0.6,1.9-0.9,2.6-1.6,2.6c-0.5,0-0.9-0.7-1.7-2.7
			l-11.4-27.4h-0.1c-1,2.8-8.3,22.1-10.7,27.2c-1,2.2-1.3,2.9-2,2.9c-0.5,0-0.8-0.6-1.3-2L305.2,621.1z"/>
		<path d="M366.6,631.6c0-8.3,0-9.8-0.1-11.6c-0.1-1.9-0.7-2.8-1.9-3.1c-0.6-0.2-1.3-0.2-2-0.2c-0.5,0-0.9-0.1-0.9-0.5
			c0-0.3,0.4-0.4,1.3-0.4c2.1,0,5.5,0.2,7.1,0.2c1.4,0,4.6-0.2,6.7-0.2c0.7,0,1.1,0.1,1.1,0.4c0,0.4-0.3,0.5-0.9,0.5
			c-0.5,0-1,0.1-1.6,0.2c-1.5,0.3-1.9,1.2-2,3.1c-0.1,1.7-0.1,3.3-0.1,11.6v9.6c0,5.3,0,9.6,0.2,12c0.2,1.5,0.5,2.5,2.2,2.7
			c0.8,0.1,2,0.2,2.8,0.2c0.6,0,0.9,0.2,0.9,0.4c0,0.4-0.4,0.5-1,0.5c-3.6,0-7.1-0.2-8.5-0.2c-1.3,0-4.7,0.2-6.9,0.2
			c-0.7,0-1.1-0.2-1.1-0.5c0-0.3,0.2-0.4,0.9-0.4c0.8,0,1.5-0.1,2-0.2c1.1-0.2,1.4-1.1,1.6-2.7c0.3-2.3,0.3-6.6,0.3-11.9V631.6z"/>
		<path d="M390.6,649.6c0.1,4.3,0.8,5.7,1.9,6.1c0.9,0.3,2,0.4,2.8,0.4c0.6,0,0.9,0.1,0.9,0.4c0,0.4-0.5,0.5-1.3,0.5
			c-3.6,0-5.7-0.2-6.8-0.2c-0.5,0-3.1,0.2-5.9,0.2c-0.7,0-1.2-0.1-1.2-0.5c0-0.3,0.3-0.4,0.9-0.4c0.7,0,1.7-0.1,2.5-0.3
			c1.4-0.4,1.6-2,1.7-6.8l0.5-32.4c0-1.1,0.2-1.9,0.7-1.9c0.6,0,1.1,0.7,2,1.7c0.7,0.7,9,9.6,17,17.6c3.7,3.7,11.1,11.6,12,12.5h0.3
			l-0.5-24.6c-0.1-3.3-0.5-4.4-1.9-4.9c-0.8-0.3-2.1-0.3-2.9-0.3c-0.7,0-0.9-0.2-0.9-0.5c0-0.4,0.6-0.5,1.4-0.5
			c2.8,0,5.5,0.2,6.6,0.2c0.6,0,2.7-0.2,5.4-0.2c0.7,0,1.3,0.1,1.3,0.5c0,0.3-0.3,0.5-1,0.5c-0.5,0-1,0-1.6,0.2
			c-1.5,0.4-2,1.6-2,4.6l-0.6,34.5c0,1.2-0.2,1.7-0.7,1.7c-0.6,0-1.3-0.6-1.9-1.2c-3.4-3.3-10.4-10.4-16.1-16.1
			c-6-5.9-12-12.7-13-13.8H390L390.6,649.6z"/>
		<path d="M436.4,649.6c0.1,4.3,0.8,5.7,1.9,6.1c0.9,0.3,2,0.4,2.8,0.4c0.6,0,0.9,0.1,0.9,0.4c0,0.4-0.5,0.5-1.3,0.5
			c-3.6,0-5.7-0.2-6.8-0.2c-0.5,0-3.1,0.2-5.9,0.2c-0.7,0-1.2-0.1-1.2-0.5c0-0.3,0.3-0.4,0.9-0.4c0.7,0,1.7-0.1,2.5-0.3
			c1.4-0.4,1.6-2,1.7-6.8l0.5-32.4c0-1.1,0.2-1.9,0.7-1.9c0.6,0,1.1,0.7,2,1.7c0.7,0.7,9,9.6,17,17.6c3.7,3.7,11.1,11.6,12,12.5h0.3
			l-0.5-24.6c-0.1-3.3-0.5-4.4-1.9-4.9c-0.8-0.3-2.1-0.3-2.9-0.3c-0.7,0-0.9-0.2-0.9-0.5c0-0.4,0.6-0.5,1.4-0.5
			c2.8,0,5.5,0.2,6.6,0.2c0.6,0,2.7-0.2,5.4-0.2c0.7,0,1.3,0.1,1.3,0.5c0,0.3-0.3,0.5-1,0.5c-0.5,0-1,0-1.6,0.2
			c-1.5,0.4-2,1.6-2,4.6l-0.6,34.5c0,1.2-0.2,1.7-0.7,1.7c-0.6,0-1.3-0.6-1.9-1.2c-3.4-3.3-10.4-10.4-16.1-16.1
			c-6-5.9-12-12.7-13-13.8h-0.2L436.4,649.6z"/>
		<path d="M481.3,631.6c0-8.3,0-9.8-0.1-11.6c-0.1-1.9-0.5-2.7-2.4-3.1c-0.4-0.1-1.4-0.2-2.1-0.2c-0.6,0-0.9-0.1-0.9-0.5
			s0.4-0.5,1.2-0.5c1.5,0,3.1,0.1,4.4,0.1c1.4,0.1,2.7,0.1,3.4,0.1c1.7,0,12.6,0,13.7-0.1c1-0.1,1.9-0.2,2.4-0.3
			c0.3-0.1,0.6-0.2,0.9-0.2c0.3,0,0.3,0.2,0.3,0.5c0,0.4-0.3,1-0.4,3.6c-0.1,0.5-0.2,3-0.3,3.6c-0.1,0.3-0.2,0.6-0.5,0.6
			s-0.5-0.3-0.5-0.8c0-0.4-0.1-1.3-0.3-2c-0.4-1-0.9-1.6-3.7-2c-0.9-0.1-6.7-0.2-7.8-0.2c-0.3,0-0.4,0.2-0.4,0.5V633
			c0,0.4,0.1,0.6,0.4,0.6c1.2,0,7.5,0,8.7-0.1c1.3-0.1,2.1-0.3,2.6-0.8c0.4-0.4,0.6-0.7,0.9-0.7c0.2,0,0.4,0.1,0.4,0.4
			c0,0.3-0.2,1.2-0.4,4c-0.1,1.1-0.2,3.3-0.2,3.7c0,0.4,0,1-0.5,1c-0.4,0-0.5-0.2-0.5-0.5c-0.1-0.5-0.1-1.3-0.2-2
			c-0.3-1.1-1-1.9-3.1-2.1c-1-0.1-6.5-0.2-7.8-0.2c-0.3,0-0.3,0.2-0.3,0.5v4.3c0,1.9-0.1,6.9,0,8.5c0.1,3.8,1,4.6,6.6,4.6
			c1.4,0,3.7,0,5.1-0.7c1.4-0.7,2.1-1.8,2.5-4c0.1-0.6,0.2-0.8,0.6-0.8c0.4,0,0.4,0.4,0.4,1c0,1.3-0.4,5-0.7,6.1
			c-0.4,1.4-0.9,1.4-3,1.4c-4.1,0-7.1-0.1-9.5-0.2c-2.4-0.1-4-0.2-5.7-0.2c-0.6,0-1.8,0-3.1,0.1c-1.3,0-2.7,0.1-3.8,0.1
			c-0.7,0-1.1-0.2-1.1-0.5c0-0.3,0.2-0.4,0.9-0.4c0.8,0,1.5-0.1,2-0.2c1.1-0.2,1.4-1.4,1.6-3c0.3-2.3,0.3-6.6,0.3-11.6V631.6z"/>
		<path d="M512,631.6c0-8.3,0-9.8-0.1-11.6c-0.1-1.9-0.5-2.7-2.4-3.1c-0.4-0.1-1.4-0.2-2.1-0.2c-0.6,0-0.9-0.1-0.9-0.5
			s0.4-0.5,1.2-0.5c2.9,0,6.3,0.2,7.5,0.2c1.9,0,6-0.2,7.7-0.2c3.4,0,7.1,0.3,10.1,2.4c1.5,1,3.7,3.8,3.7,7.5c0,4-1.7,7.8-7.2,12.2
			c4.9,6.1,8.6,11,11.9,14.4c3.1,3.2,5.3,3.6,6.1,3.7c0.6,0.1,1.1,0.2,1.5,0.2c0.4,0,0.7,0.2,0.7,0.4c0,0.4-0.4,0.5-1,0.5h-5.2
			c-3.1,0-4.4-0.3-5.8-1c-2.4-1.3-4.4-3.8-7.5-8c-2.2-3-4.7-6.7-5.4-7.5c-0.3-0.3-0.6-0.4-1-0.4l-4.8-0.1c-0.3,0-0.4,0.1-0.4,0.4
			v0.8c0,5.1,0,9.4,0.3,11.7c0.2,1.6,0.5,2.8,2.1,3c0.8,0.1,2,0.2,2.7,0.2c0.4,0,0.7,0.2,0.7,0.4c0,0.4-0.4,0.5-1.1,0.5
			c-3.2,0-7.2-0.2-8-0.2c-1,0-4.5,0.2-6.7,0.2c-0.7,0-1.1-0.2-1.1-0.5c0-0.3,0.2-0.4,0.9-0.4c0.8,0,1.5-0.1,2-0.2
			c1.1-0.2,1.4-1.4,1.6-3c0.3-2.3,0.3-6.6,0.3-11.6V631.6z M518.4,635.9c0,0.6,0.1,0.8,0.5,1c1.1,0.4,2.8,0.5,4.2,0.5
			c2.2,0,2.9-0.2,3.9-0.9c1.6-1.2,3.2-3.7,3.2-8.2c0-7.8-5.1-10-8.4-10c-1.4,0-2.4,0.1-2.9,0.2c-0.4,0.1-0.5,0.3-0.5,0.8V635.9z"/>
	</g>
	<path class="st36" d="M576.5,474.4c0-6.2-5-11.2-11.2-11.2H274.7c-6.2,0-11.2,5-11.2,11.2v67.1h313V474.4z"/>
	<g>
		<path class="st38" d="M291.1,521.5l7.6-9c4.8,3.9,10.2,5.9,15.9,5.9c3.6,0,5.6-1.3,5.6-3.4v-0.1c0-2-1.6-3.2-8.3-4.7
			c-10.4-2.4-18.5-5.3-18.5-15.4v-0.1c0-9.1,7.2-15.7,19-15.7c8.3,0,14.9,2.2,20.2,6.5l-6.8,9.6c-4.5-3.2-9.4-4.8-13.7-4.8
			c-3.3,0-4.9,1.4-4.9,3.2v0.1c0,2.2,1.7,3.2,8.5,4.8c11.3,2.5,18.3,6.1,18.3,15.3v0.1c0,10-7.9,16-19.8,16
			C305.4,529.6,297.1,526.9,291.1,521.5z"/>
		<path class="st38" d="M340.1,479.7h13.7v49.1h-13.7V479.7z"/>
		<path class="st38" d="M362.2,479.7h13.6v37.2h23.8v11.9h-37.4V479.7z"/>
		<path class="st38" d="M400.8,479.7H416l11.1,31.1l11.1-31.1h14.9l-19.9,49.4h-12.6L400.8,479.7z"/>
		<path class="st38" d="M457.4,479.7h39.5v11.6h-26v7.4h23.6v10.7h-23.6v7.8h26.4v11.6h-39.8V479.7z"/>
		<path class="st38" d="M503.5,479.7h23.2c7.5,0,12.7,2,16,5.3c2.9,2.8,4.3,6.6,4.3,11.4v0.1c0,7.5-4,12.5-10.1,15.1l11.7,17.1
			h-15.7l-9.9-14.9h-0.1h-5.8v14.9h-13.6V479.7z M526.1,503.2c4.6,0,7.3-2.2,7.3-5.8v-0.1c0-3.9-2.8-5.8-7.4-5.8h-8.9v11.8H526.1z"
			/>
	</g>
	<g>
		<path class="st38" d="M349.9,685h5.7l7.6,34.9h-5.4l-1.5-7.8h-7.2l-1.5,7.8h-5.3L349.9,685z M355.5,707.7l-2.8-14l-2.8,14H355.5z"
			/>
		<path class="st38" d="M365.9,685.1h5.5l5.4,14.8l5.4-14.8h5.5v34.8h-5.2v-23.7l-5.7,15.3h-0.2l-5.7-15.3v23.7h-5.1V685.1z"/>
		<path class="st38" d="M392.1,685.1h14.2v4.6h-8.8V700h7.8v4.6h-7.8v10.6h8.9v4.6h-14.3V685.1z"/>
		<path class="st38" d="M409.8,685.1h6.2c6.8,0,11.6,3.4,11.6,10.9v0.3c0,4.6-2.1,7.7-5.1,9.3l5.8,14.3h-5.8l-5.1-12.7
			c-0.2,0-0.5,0-0.7,0h-1.4v12.7h-5.4V685.1z M416.1,702.8c3.6,0,6.1-2,6.1-6.5V696c0-4.8-2.6-6.4-6.2-6.4h-0.8v13.1H416.1z"/>
		<path class="st38" d="M431.2,685.1h5.4v34.8h-5.4V685.1z"/>
		<path class="st38" d="M440.4,703v-1.1c0-12,4.9-17.1,10.9-17.1c1.9,0,2.8,0.2,4.2,0.8v5.1c-1.4-0.7-2.5-1.1-3.7-1.1
			c-3.3,0-5.9,3.2-5.9,12.3v1.2c0,9.4,2.6,12.3,6,12.3c1.2,0,2.4-0.3,3.8-1.1v4.8c-1.4,0.7-2.8,1-4.7,1
			C445,720.1,440.4,715,440.4,703z"/>
		<path class="st38" d="M465,685h5.8l7.6,34.9h-5.4l-1.5-7.8h-7.2l-1.5,7.8h-5.3L465,685z M470.6,707.7l-2.8-14l-2.8,14H470.6z"/>
		<path class="st38" d="M480.9,685.1h5.1l8.3,21.1v-21.1h5.3v34.8h-4.9l-8.6-21.9v21.9h-5.3V685.1z"/>
		<path class="st38" d="M280.2,727.1h5.5c6.4,0,11.8,2.7,11.8,8.8v0.2c0,4.7-3,6.9-6,8.1c3.6,1.1,6.5,3.4,6.5,8v0.3
			c0,6-5.1,9.5-12.4,9.5h-5.4V727.1z M286.2,742.2c3.8,0,6.1-1.9,6.1-5.4v-0.1c0-3.4-2.4-5.1-5.9-5.1h-0.8v10.6H286.2z M286.2,757.4
			c3.9,0,6.5-1.9,6.5-5.3V752c0-3.5-2.5-5.4-6.4-5.4h-0.7v10.9H286.2z"/>
		<path class="st38" d="M301.1,752.2v-25h5.4v25.5c0,3.6,1.5,5.3,3.8,5.3c2.3,0,3.8-1.6,3.8-5.3v-25.5h5.3v25
			c0,6.9-3.8,10.3-9.1,10.3C304.9,762.4,301.1,759,301.1,752.2z"/>
		<path class="st38" d="M322.7,760.7v-5.2c2.4,1.3,4.4,2,6.2,2c2.3,0,4.1-1.2,4.1-3.6v-0.1c0-2-0.7-3.4-4.2-7.3
			c-4.7-5.1-6.4-7.3-6.4-11.2v-0.1c0-5.1,3.8-8.5,8.8-8.5c2.6,0,4.2,0.4,5.9,1.2v5.2c-2.1-1.1-3.6-1.7-5.3-1.7
			c-2.2,0-3.9,1.3-3.9,3.5v0.1c0,1.9,0.7,3,4.2,6.8c5.1,5.5,6.4,7.8,6.4,11.7v0.1c0,5.1-4,8.6-9,8.6
			C326.9,762.3,324.7,761.7,322.7,760.7z"/>
		<path class="st38" d="M341.4,727.1h5.4V762h-5.4V727.1z"/>
		<path class="st38" d="M351.4,727.1h5.1l8.3,21.1v-21.1h5.3V762h-4.9l-8.6-21.9V762h-5.3V727.1z"/>
		<path class="st38" d="M374.4,727.1h14.2v4.6h-8.8v10.4h7.8v4.6h-7.8v10.6h8.9v4.6h-14.3V727.1z"/>
		<path class="st38" d="M391.2,760.7v-5.2c2.4,1.3,4.4,2,6.2,2c2.3,0,4.1-1.2,4.1-3.6v-0.1c0-2-0.7-3.4-4.2-7.3
			c-4.7-5.1-6.4-7.3-6.4-11.2v-0.1c0-5.1,3.8-8.5,8.8-8.5c2.6,0,4.2,0.4,5.9,1.2v5.2c-2.1-1.1-3.6-1.7-5.3-1.7
			c-2.2,0-3.9,1.3-3.9,3.5v0.1c0,1.9,0.7,3,4.2,6.8c5.1,5.5,6.4,7.8,6.4,11.7v0.1c0,5.1-4,8.6-9,8.6
			C395.4,762.3,393.2,761.7,391.2,760.7z"/>
		<path class="st38" d="M408.5,760.7v-5.2c2.4,1.3,4.4,2,6.2,2c2.3,0,4.1-1.2,4.1-3.6v-0.1c0-2-0.7-3.4-4.2-7.3
			c-4.7-5.1-6.4-7.3-6.4-11.2v-0.1c0-5.1,3.8-8.5,8.8-8.5c2.6,0,4.2,0.4,5.9,1.2v5.2c-2.1-1.1-3.6-1.7-5.3-1.7
			c-2.2,0-3.9,1.3-3.9,3.5v0.1c0,1.9,0.7,3,4.2,6.8c5.1,5.5,6.4,7.8,6.4,11.7v0.1c0,5.1-4,8.6-9,8.6
			C412.7,762.3,410.5,761.7,408.5,760.7z"/>
		<path class="st38" d="M438.7,727h5.8L452,762h-5.4l-1.5-7.8h-7.2l-1.5,7.8h-5.3L438.7,727z M444.3,749.8l-2.8-14l-2.8,14H444.3z"
			/>
		<path class="st38" d="M452,727.1h5.6l3.5,24.1l4.2-24.1h5l4.2,24.1l3.6-24.1h5.4l-6,35h-5.6l-4.1-23.6l-4.1,23.6h-5.5L452,727.1z"
			/>
		<path class="st38" d="M491,727h5.7l7.6,34.9h-5.4l-1.5-7.8h-7.2l-1.5,7.8h-5.3L491,727z M496.6,749.8l-2.8-14l-2.8,14H496.6z"/>
		<path class="st38" d="M506.9,727.1h6.2c6.8,0,11.6,3.4,11.6,10.9v0.3c0,4.6-2.1,7.7-5.1,9.3l5.8,14.3h-5.8l-5.1-12.7
			c-0.2,0-0.5,0-0.7,0h-1.4V762h-5.4V727.1z M513.3,744.8c3.6,0,6.1-2,6.1-6.5v-0.3c0-4.8-2.6-6.4-6.2-6.4h-0.8v13.1H513.3z"/>
		<path class="st38" d="M528.2,727.1h5.7c8.1,0,13,5.7,13,16.9v1.1c0,11.2-4.9,16.9-13,16.9h-5.7V727.1z M534.4,757.5
			c3.9,0,7.1-3.3,7.1-12.4V744c0-9.1-3.2-12.4-7.1-12.4h-0.8v25.9H534.4z"/>
		<path class="st38" d="M549.3,760.7v-5.2c2.4,1.3,4.4,2,6.2,2c2.3,0,4.1-1.2,4.1-3.6v-0.1c0-2-0.7-3.4-4.2-7.3
			c-4.7-5.1-6.4-7.3-6.4-11.2v-0.1c0-5.1,3.8-8.5,8.8-8.5c2.6,0,4.2,0.4,5.9,1.2v5.2c-2.1-1.1-3.6-1.7-5.3-1.7
			c-2.2,0-3.9,1.3-3.9,3.5v0.1c0,1.9,0.7,3,4.2,6.8c5.1,5.5,6.4,7.8,6.4,11.7v0.1c0,5.1-4,8.6-9,8.6
			C553.5,762.3,551.3,761.7,549.3,760.7z"/>
	</g>
	<g>
		<path class="st38" d="M565.5,733.8c2.7,0,5.1,1.9,5.1,5c0,3-2.4,5-5.1,5s-5.1-2-5.1-5C560.4,735.7,562.8,733.8,565.5,733.8z
			 M565.5,742.7c2.1,0,3.8-1.7,3.8-3.9c0-2.3-1.7-3.9-3.8-3.9c-2.1,0-3.8,1.6-3.8,3.9C561.8,741,563.4,742.7,565.5,742.7z
			 M563.6,735.9h2.1c1.4,0,2.2,0.4,2.2,1.7c0,1-0.6,1.4-1.5,1.5l1.5,2.4h-1.2l-1.4-2.4h-0.7v2.4h-1.1V735.9z M564.7,738.3h1
			c0.6,0,1.1-0.1,1.1-0.8c0-0.6-0.6-0.7-1.1-0.7h-0.9V738.3z"/>
	</g>
</g>
</svg>
