<?xml version="1.0" encoding="utf-8"?>
<!-- Generator: Adobe Illustrator 19.2.0, SVG Export Plug-In . SVG Version: 6.00 Build 0)  -->
<svg version="1.1" id="Layer_1" xmlns="http://www.w3.org/2000/svg" xmlns:xlink="http://www.w3.org/1999/xlink" x="0px" y="0px"
	 viewBox="0 0 839.1 839.1" style="enable-background:new 0 0 839.1 839.1;" xml:space="preserve">
<style type="text/css">
	.st0{fill:#D0D1D1;}
	.st1{fill:#FFFFFF;}
	.st2{fill:#262424;}
</style>
<g id="g58">
</g>
<g id="g90">
</g>
<g>
	<rect x="3.5" y="39.1" class="st0" width="416.1" height="760.9"/>
	<rect x="419.6" y="39.1" class="st1" width="416.1" height="760.9"/>
	<g>
		<path d="M287.7,188.4c-5.4,0-10.2,0-15.3,0c0-9.8,0-19.2,0-29c28.4,0,56.6,0,85.1,0c0,9.5,0,19,0,29.1c-5.1,0-9.9,0-15.1,0
			c0,22.4,0,44.3,0,66.8c4.9,0,9.7,0,15,0c0,9.3,0,18,0,27.5c-2.1,0-4.2,0-6.3,0c-25.2,0-50.5,0.1-75.7-0.1c-4.8,0-7.4,1.3-9.9,5.6
			c-16.6,29.2-39.6,50.5-73.2,58.6c-18.2,4.4-36.6,2.7-54.9,2c-3.6-0.1-7.3,0-11.6,0c-2.7,13.8-5.3,27.8-8,41.3
			c8.3-4.6,16-10.4,24.9-13.6c27.4-9.8,55-9.4,81.7,3c28.1,13,41.8,40.4,36.8,71.5c-5.7,36-30.2,60.2-68.6,67.3
			c-22,4.1-44,4.3-65.5-2.3c-31.9-9.8-38.1-37.7-31.3-61.9c4.4-15.7,18.1-23.4,33.3-19.9c10.9,2.5,18.1,11.1,18.8,22.3
			c0.8,13.3-3.4,25.4-8.5,37.2c-4.4,10.3-1.2,17.4,9.6,21.2c11.8,4.2,23.1,0.6,31.1-10.3c7-9.6,10.4-20.7,12.4-32.2
			c3.8-22.3,5.1-44.6-0.6-66.9c-5.1-19.6-17.6-29.3-35-27.5c-10.8,1.1-20.2,5.9-27.7,13.6c-5.9,6-10.6,13-16.5,20.2
			c-3.4,0.1-4.1-2.3-3.4-6.3c7.6-39.8,15-79.5,22.7-119.2c1.1-5.7,2.1-6.1,7.1-3.2c12.3,7,25.9,9.4,39.5,11.4
			c22.3,3.3,44.4,2,66.2-4c0.3-0.1,0.8-0.1,1.1-0.2c17.9-5.4,18.7-6.4,18.7-25c0-3.3,0-6.5,0-10.3c8.2,0,15.7,0,23.4,0
			C287.7,233.1,287.7,211.1,287.7,188.4z"/>
		<path d="M607.6,248.1c-0.4,15.5-11.3,29.1-27.6,33.7c-18,5.1-36,4.5-53.6-2.2c-10.4-4-18.6-10.8-25.3-20.1c0,7.4,0,14.8,0,22.8
			c-22.2,0-43.8,0-65.6,0c0-8.8,0-17.4,0-26.4c3.9,0,7.4,0,11.6,0c0-10.8,0.3-21.3-0.2-31.7c-0.1-2.3-2.9-5.3-5.1-6.6
			c-9.5-5.6-23,0.7-24.2,11.6c-1,8.5-0.2,17.1-0.2,26.3c4,0,7.7,0,11.8,0c0,9.3,0,18,0,27.1c-22.1,0-44.1,0-66.5,0
			c0-9,0-17.6,0-26.9c3.8,0,7.4,0,11.4,0c0-13.5,0-26.4,0-39.9c-3.9-0.2-7.5-0.4-11.5-0.7c0-9.1,0-17.6,0-26.5c17.7,0,35,0,52.8,0
			c0,5.5,0,10.7,0,17.2c2-1.7,3.2-2.5,4.2-3.6c14.1-16,42.5-15.3,55.9-8.2c10.7,5.6,14.6,15.1,14.7,26.5c0.1,11.6,0,23.1,0,34.9
			c3.5,0,6.6,0,8.3,0c-0.3-9-1.5-18-0.7-26.7c1.4-13.9,9.5-24.2,21.8-30.7c19.5-10.4,40-11.9,60.9-5.1c16.2,5.4,26.5,19.5,26.7,35.6
			c-11.7,1.3-23.5,2.5-35.6,4c-0.6-3.4-1-6.4-1.7-9.4c-1.8-7.2-5.9-10.8-12.5-11.2c-7.5-0.4-13,2.5-15.1,9.3
			c-3.4,10.6-3.3,21.4,0,32c2.1,6.7,7.4,9.5,15.3,9.3c7.2-0.2,11.9-3.9,13.8-10.5c0.3-1.2,0.8-2.4,1.1-3.6
			C584.2,248.1,595.9,248.1,607.6,248.1z"/>
		<path d="M434,411.2c0-22.9,5.9-44.6,19.1-63.5c15.7-22.4,37.1-34.5,64.9-32.8c28.5,1.7,49.3,16.2,60.5,42.2
			c15.5,36.1,14,72.6-5.6,106.6c-15.1,26.4-39.3,39.7-70.2,36.6c-32.5-3.2-52.2-23-61.7-53C437.1,435.7,434,424,434,411.2z
			 M485.9,416.6c0.6,8.4,1.1,23.5,2.4,38.5c1,11.4,2.8,22.8,8.7,32.7c7.2,12,20.2,12.5,27.2,0.3c3.6-6.3,6.4-13.4,7.7-20.4
			c7.5-38.5,6.9-77.1,1.7-115.8c-1.2-9.1-4.6-18.2-9.2-26.2c-5.6-10.1-17.6-9.9-24.1-0.6c-3.5,5.2-6.2,11.3-7.8,17.5
			C486.5,364.7,486.3,387.3,485.9,416.6z"/>
		<path d="M272.1,411.1c0-24.4,6.4-47.4,21.6-67.1c33.7-44,98.9-38.1,122.1,12c16.7,36,14.9,73.1-4.9,107.6
			c-15.1,26.4-39.2,39.8-70.1,36.8c-33.2-3.2-53-23.5-62.4-54.3C274.9,434.9,272.1,422.7,272.1,411.1z M375.9,406c0-0.3,0-0.6,0-0.9
			c-1-15.1-1.5-30.2-3-45.2c-1-11.2-3-22.3-8.8-32.2c-4.2-7.1-10.9-11.2-16.7-8.5c-4.5,2-9.6,6-11.3,10.3c-4.1,10.2-7.4,20.8-9,31.6
			c-4.4,30.4-4,60.9-1,91.4c1.1,11.1,4.2,22,7.6,32.6c2.1,6.7,7.2,11.7,15,11.9c7.7,0.1,12.2-5,15.1-11.2c2.5-5.3,4.5-10.8,6-16.6
			C374.7,448.4,375.2,427.2,375.9,406z"/>
		<path d="M750.2,404.5c-0.3,26.1-5.7,50.5-23.3,70.7c-35.3,40.4-97,32.6-119.2-16.4c-16.7-36.8-14.7-74.3,6.4-109
			c16.1-26.5,41.1-38.8,72.3-34.4c30.3,4.2,49.1,23.1,58.1,51.5C748.7,377.8,750.2,394.4,750.2,404.5z M647.4,415.6
			c0,0.6,0,1.1,0,1.8c1.3,15.8,2.2,31.7,4.4,47.4c1.1,7.8,3.6,15.9,7.3,22.9c6.6,12.6,20.2,12.7,27.4,0.3c3.1-5.3,5.6-11.3,6.9-17.4
			c8.4-41,8-82.2,1.4-123.3c-1.1-7.3-3.9-14.7-7.7-21c-6.5-10.8-18.8-10.7-25.4,0.1c-3.5,5.6-6.1,12.3-7.7,18.7
			C648.2,368.3,648.1,392,647.4,415.6z"/>
		<path d="M606.1,268.6c0.2-8.4,7-14.8,15.4-14.7c8.6,0.1,15.3,7.1,15,15.7c-0.2,8.7-7,15.1-15.8,14.9
			C612.1,284.3,605.9,277.6,606.1,268.6z"/>
	</g>
	<g>
		<path class="st2" d="M305.3,617.2c0,6.9-2.4,12.3-7.4,16.1c-5,4-11.7,5.9-20.6,5.9c-8.1,0-15.3-1.5-21.4-4.5v-14.9
			c5.1,2.3,9.4,3.9,12.9,4.9c3.5,0.9,6.7,1.4,9.7,1.4c3.5,0,6.2-0.7,8.1-2c1.9-1.3,2.9-3.3,2.9-6c0-1.4-0.4-2.8-1.2-4
			c-0.8-1.1-2.1-2.3-3.6-3.3c-1.7-1.1-4.9-2.8-9.8-5.1c-4.6-2.2-8.1-4.3-10.4-6.3c-2.3-2-4.2-4.3-5.5-7c-1.3-2.7-2.1-5.7-2.1-9.3
			c0-6.7,2.3-11.9,6.9-15.8c4.5-3.9,10.8-5.7,18.8-5.7c4,0,7.7,0.4,11.3,1.4c3.5,0.9,7.3,2.2,11.2,4l-5.2,12.5
			c-4.1-1.7-7.4-2.8-10.1-3.4c-2.7-0.7-5.2-1-7.8-1c-3,0-5.4,0.7-7,2.1c-1.7,1.4-2.4,3.3-2.4,5.5c0,1.4,0.3,2.7,1,3.6
			c0.7,1.1,1.7,2.1,3.1,3.1c1.4,1,4.9,2.8,10.2,5.3c7.1,3.4,11.9,6.7,14.6,10.2C304,608.1,305.3,612.3,305.3,617.2z"/>
		<path class="st2" d="M362.5,638.3H319v-75.7h43.5v13.2H335v16.6h25.6v13.2H335v19.6h27.5V638.3z"/>
		<path class="st2" d="M394.4,609.3v29.1h-16v-75.7h22.1c10.3,0,17.9,1.9,22.9,5.6c5,3.8,7.4,9.4,7.4,17c0,4.4-1.2,8.4-3.6,11.9
			c-2.4,3.4-6,6.2-10.4,8.2c11.4,17,18.8,28,22.2,32.9h-17.8L403,609.3H394.4z M394.4,596.2h5.2c5.1,0,8.8-0.9,11.3-2.5
			c2.4-1.7,3.6-4.3,3.6-8c0-3.5-1.2-6.2-3.6-7.6c-2.4-1.5-6.3-2.3-11.5-2.3h-4.9v20.4H394.4z"/>
		<path class="st2" d="M448.4,638.3v-75.7h16v75.7H448.4z"/>
		<path class="st2" d="M527.1,638.3h-43.5v-75.7h43.5v13.2h-27.5v16.6h25.6v13.2h-25.6v19.6h27.5V638.3z"/>
		<path class="st2" d="M587.5,617.2c0,6.9-2.4,12.3-7.4,16.1c-5,4-11.7,5.9-20.6,5.9c-8.1,0-15.3-1.5-21.4-4.5v-14.9
			c5.1,2.3,9.4,3.9,12.9,4.9c3.5,0.9,6.7,1.4,9.7,1.4c3.5,0,6.2-0.7,8.1-2c1.9-1.3,2.9-3.3,2.9-6c0-1.4-0.4-2.8-1.2-4
			c-0.9-1.1-2.1-2.3-3.6-3.3c-1.7-1.1-4.9-2.8-9.8-5.1c-4.6-2.2-8.1-4.3-10.4-6.3c-2.3-2-4.2-4.3-5.5-7c-1.3-2.7-2.1-5.7-2.1-9.3
			c0-6.7,2.3-11.9,6.9-15.8c4.5-3.9,10.8-5.7,18.8-5.7c4,0,7.7,0.4,11.3,1.4c3.5,0.9,7.3,2.2,11.2,4l-5.2,12.5
			c-4.1-1.7-7.4-2.8-10.1-3.4c-2.7-0.7-5.2-1-7.8-1c-3,0-5.4,0.7-7,2.1c-1.7,1.4-2.4,3.3-2.4,5.5c0,1.4,0.3,2.7,1,3.6
			c0.7,1.1,1.7,2.1,3.1,3.1c1.4,1,4.9,2.8,10.2,5.3c7.1,3.4,11.9,6.7,14.6,10.2C586.2,608.1,587.5,612.3,587.5,617.2z"/>
	</g>
	<g>
		<path class="st2" d="M352.6,715.2c1.3-3.1,4.3-6.3,9.1-9.7c4.2-3,6.9-5.1,8.1-6.4c1.9-2,2.8-4.2,2.8-6.6c0-2-0.6-3.5-1.7-4.9
			c-1.1-1.3-2.7-1.9-4.6-1.9c-2.8,0-4.6,1-5.6,3.1c-0.6,1.2-0.9,3.1-1,5.6h-8.7c0.1-3.9,0.9-7.1,2.1-9.5c2.4-4.5,6.6-6.9,12.8-6.9
			c4.9,0,8.7,1.3,11.6,4c2.9,2.7,4.3,6.3,4.3,10.7c0,3.4-1,6.4-3.1,9.1c-1.3,1.8-3.5,3.6-6.5,5.9l-3.6,2.5c-2.2,1.7-3.8,2.8-4.6,3.4
			s-1.5,1.5-2.1,2.5h20v8h-31.4C350.6,721,351.3,718,352.6,715.2z"/>
		<path class="st2" d="M414.6,684.3c2.3,4.1,3.5,9.9,3.5,17.6c0,7.5-1.2,13.4-3.5,17.5s-6.4,6.2-12.3,6.2c-5.9,0-9.9-2.1-12.3-6.2
			c-2.3-4.1-3.5-9.9-3.5-17.5c0-7.5,1.2-13.4,3.5-17.6s6.4-6.2,12.3-6.2C408.2,678.1,412.3,680.1,414.6,684.3z M397,713.9
			c0.9,2.8,2.7,4.2,5.3,4.2s4.4-1.4,5.3-4.2c0.9-2.8,1.2-6.9,1.2-12c0-5.5-0.4-9.6-1.2-12.3c-0.9-2.7-2.5-4-5.3-4
			c-2.8,0-4.4,1.3-5.3,4c-0.9,2.7-1.3,6.7-1.3,12.3C395.7,707.1,396.1,711,397,713.9z"/>
		<path class="st2" d="M425,692.6v-6.2c2.9-0.1,4.9-0.3,6-0.6c1.8-0.4,3.3-1.2,4.4-2.4c0.8-0.8,1.3-1.9,1.8-3.3
			c0.2-0.8,0.3-1.4,0.3-1.9h7.5v45.9h-9.3v-31.6H425V692.6z"/>
		<path class="st2" d="M462.8,682.6c2.9-3.1,6.5-4.5,11.1-4.5c7,0,11.7,3.1,14.4,9.3c1.4,3.5,2.2,8.1,2.2,13.8
			c0,5.5-0.7,10.2-2.1,13.9c-2.7,7.1-7.6,10.6-14.8,10.6c-3.4,0-6.5-1-9.3-3.1c-2.8-2-4.3-5-4.8-9h9c0.2,1.3,0.8,2.4,1.7,3.3
			s2.2,1.2,3.6,1.2c3,0,5.1-1.7,6.3-5c0.7-1.8,1.1-4.4,1.2-8c-0.8,1-1.7,1.9-2.7,2.3c-1.7,1-3.8,1.5-6.2,1.5c-3.6,0-6.9-1.2-9.7-3.8
			c-2.9-2.5-4.2-6.2-4.2-10.9C458.5,689.6,459.9,685.6,462.8,682.6z M477.9,700.8c2.1-1.3,3.1-3.5,3.1-6.9c0-2.5-0.6-4.6-1.8-6.2
			c-1.2-1.5-2.9-2.3-5-2.3c-1.5,0-2.9,0.4-4,1.3c-1.8,1.3-2.5,3.6-2.5,6.9c0,2.8,0.6,4.8,1.7,6.1c1.1,1.3,2.8,2,5.1,2
			C475.6,701.9,476.8,701.5,477.9,700.8z"/>
	</g>
</g>
</svg>
