<?xml version="1.0" encoding="utf-8"?>
<!-- Generator: Adobe Illustrator 25.1.0, SVG Export Plug-In . SVG Version: 6.00 Build 0)  -->
<svg version="1.1" id="Layer_1" xmlns="http://www.w3.org/2000/svg" xmlns:xlink="http://www.w3.org/1999/xlink" x="0px" y="0px"
	 viewBox="0 0 839.1 839.1" style="enable-background:new 0 0 839.1 839.1;" xml:space="preserve">
<style type="text/css">
	.st0{fill:none;}
</style>
<g>
	<path d="M419,829.9C192.7,829.8,8.9,645.7,9.2,419.4C9.4,191.3,193.7,8.9,423.3,9.2c223.4,0.4,407,185.8,406.6,410.6
		C829.5,646.9,646,830,419,829.9z M419,809.3c215.5,0,389.7-173.7,390.4-389.3c0.6-213.5-174.5-390.1-387-390.1
		C204.6,30,29.6,203.6,29.8,419.5C30,634.5,204.5,809.3,419,809.3z"/>
	<path d="M755,486.1c-2.3,19.2-3.8,38.5-7.3,57.5c-1.8,9.6-6,19.3-11.3,27.5c-10.5,16.1-30.1,15.3-40.6-0.9
		c-8.2-12.7-10.6-27.3-12-42c-3.1-31.5-3.8-63,3.2-94.1c2.2-9.8,5.8-19.8,11-28.4c10.6-17.7,31-17.2,41.9,0.5
		c8.4,13.6,10.6,29.1,12.1,44.6c1.1,11.6,1.4,23.4,2,35.1C754.2,486,754.6,486,755,486.1z"/>
	<path d="M384.2,485.5c-0.3,21.2-1.1,42.3-7.2,62.7c-2.5,8.4-6.1,17-11.2,24.1c-10.1,14.3-28.6,13.6-38.8-0.7
		c-7-9.8-9.9-21.2-11.5-32.9c-4.9-35-5.6-70.1,1.8-104.9c2.1-9.8,5.8-19.8,11-28.3c10.7-17.6,31.1-16.9,41.9,0.8
		c8.2,13.5,10.4,28.8,11.9,44C383.3,462,383.5,473.8,384.2,485.5z"/>
	<path d="M568.9,480.8c-0.5,26.5-1.1,48.3-7.5,69.3c-2,6.5-4.5,13-8,18.7c-11.8,19.2-34.2,18.7-43.9-1.6c-5-10.5-8.2-22.5-9.7-34.1
		c-4.3-33.9-4.9-68,3-101.6c2.1-9,5.6-18,10.4-25.9c10.6-17.3,30.6-16.9,41.6,0.3c7.6,12,10.2,25.7,11.6,39.5
		C567.8,458.7,568.3,472.1,568.9,480.8z"/>
	<g>
		<path class="st0" d="M431.3,451c-19.1-69.3-98.2-76.8-138.1-39.9c-23.5,21.7-32.6,49.2-33.1,79c0.2,25.8,6,48.6,22.1,67.7
			c34.2,40.7,100.4,37.4,132.9-7C437.2,520.5,441.1,486.4,431.3,451z"/>
		<path class="st0" d="M373.8,631.6c2.3,0.5,4.3,0.9,6.6,1.3c0,12.7,0,24.7,0,36.7c-2.5,0.4-4.5,0.7-6.4,1c0,4.4,0,8.3,0,12.2
			c10.7,0,20.8,0,31.3,0c0-4.3,0-8.2,0-12.2c-2.4-0.4-4.5-0.6-6.6-1c0-12.4,0-24.4,0-36.7c2.4-0.4,4.4-0.8,6.6-1.2c0-4.1,0-8,0-12.1
			c-10.8,0-21.1,0-31.5,0C373.8,623.9,373.8,627.7,373.8,631.6z"/>
		<path class="st0" d="M336.9,348.6c23.4,0.2,46.9,0.2,70.3,0c1.3,0,3.8-1.8,3.8-2.8c0.3-9.3,0.2-18.6,0.2-28.7c-5.3,0-9.9,0-14.8,0
			c0-10.3-0.6-19.9,0.1-29.4c1.1-13.4,16.3-21.6,28.2-15.3c2.9,1.5,6.5,5.1,6.6,7.8c0.7,12.2,0.3,24.4,0.3,37.3c-4.8,0-9,0-13.3,0
			c0,10.6,0,20.7,0,30.9c25.4,0,50.2,0,75.9,0c0-9.4,0-18.4,0-27.4c8.3,12.1,18.9,20.2,32.2,24.9c18.6,6.6,37.7,7.7,56.6,2.5
			c8.1-2.3,16.1-6.9,22.7-12.2c8.4-6.6,12.2-16.5,13.1-27.6c-2.3-0.2-4-0.4-5.6-0.4c-11.9,0-23.8,0-35.8,0c-0.3,1.3-0.6,2.1-0.7,2.9
			c-2.1,9-7.4,13.5-16.5,13.9c-9.7,0.5-16.2-3.4-18.5-12.2c-3.1-11.7-3.2-23.7,0.2-35.3c2.4-8.2,8.5-11.7,17.8-11.5
			c7.9,0.2,12.7,4.1,14.9,12.3c1,3.6,1.4,7.4,2.2,11.5c14.1-1.6,27.7-3.1,41.6-4.7c-2.5-21.5-13.5-35.3-33-41.6
			c-23.1-7.5-46-5.6-67.7,5.4c-19.3,9.8-28.6,26.3-28,47.9c0.2,6.7,1.9,13.3,2.9,20.2c-3.1-0.2-6.4-0.2-11-0.2c0-2.9,0-5.2,0-7.4
			c0-11.3,0.2-22.6,0-33.9c-0.3-17.7-8.6-29.5-25-33.4c-22.3-5.2-43.3-3.4-59.7,15.5c-0.3,0.4-1,0.4-2.4,1c0-6.8,0-13,0-19.3
			c-20.9,0-41,0-61.2,0c0,10.4,0,20.3,0,30.9c4.6,0,8.8,0,13.3,0c0,15.9,0,31.1,0,46.7c-4.6,0.2-8.7,0.4-13.7,0.6
			c0,9.7-0.1,19,0.2,28.3C333.1,346.8,335.6,348.6,336.9,348.6z"/>
		<path class="st0" d="M450.8,647.5c-4.9-1.9-10.2-3.1-15.2-4.7c-3.3-1-7.5-2.4-5.9-6.6c0.9-2.4,4.7-4.1,7.5-5.3
			c1.7-0.7,4,0.2,6.1,0.5c0.3,3.3,0.6,6,0.8,8.6c14.8,0.5,16.4-1,15-14.6c0-0.2,0.1-0.5,0-0.6c-0.9-1.2-1.7-3.1-2.9-3.4
			c-10.5-3.4-21.2-4.8-31.9-0.8c-7.9,2.9-12.5,9.5-12.6,17.5c-0.2,7.9,3.7,13.6,12.1,16.8c4.7,1.8,10,2.4,14.6,4.4
			c2.5,1.1,4.3,3.9,6.4,5.9c-2.5,2.1-4.8,5.5-7.6,6.2c-7,1.8-8.3,0.4-8.9-6.8c-0.1-0.8-0.5-1.5-0.9-2.6c-4.8,0.3-9.4,0.7-14.4,1.2
			c0,5.1-0.2,9.5,0.1,13.9c0.1,1.4,1.2,3.5,2.3,3.8c12,3.7,24.2,5.5,36.1-0.1c7.4-3.5,11-9.8,10.8-18
			C462.1,655,457.6,650.1,450.8,647.5z"/>
		<path class="st0" d="M351.5,669.7c-4.4,0-8.6,0-13.2,0c0-12.5,0-24.7,0-37c3.1-0.3,5.8-0.6,8.5-0.9c0-4.4,0-8.3,0-12.3
			c-11.3,0-22,0-33.2,0c0,4.3,0,8.2,0,12.2c2.3,0.5,4.3,0.8,6.6,1.3c0,12.3,0,24.3,0,36.6c-2.3,0.3-4.4,0.6-6.7,1c0,3.9,0,7.7,0,12
			c18.3,0,36,0,54,0c0-8.5,0-16.4,0-25.1c-4.9,0.5-9.9-0.1-13.4,1.9C352,660.7,352.3,666.1,351.5,669.7z"/>
		<path class="st0" d="M465.2,643.3c5.2-0.5,9.9-1,14.8-1.5c0.2-3.4,0.4-6.1,0.7-9.5c2.2,0.1,4.1,0.2,5.9,0.3c0,12.8,0,24.8,0,37
			c-3.1,0.3-5.8,0.6-8.3,0.9c0,4.4,0,8.3,0,12.1c12.2,0,23.7,0,35.3,0c0-4.3,0-8.1,0-12.1c-3-0.3-5.7-0.5-9.2-0.9
			c0-10.9,0.1-21.7,0-32.5c-0.1-5.9,2.8-5.5,6.7-3.9c0.2,3.4,0.4,6.5,0.6,10.2c5.3-0.6,10-1.1,14.6-1.6c0-8,0-15.1,0-22.3
			c-20.6,0-40.7,0-61.1,0C465.2,627.5,465.2,635.1,465.2,643.3z"/>
		<path class="st0" d="M652.4,332.6c-0.2-9.7-7.8-17.3-17.6-17.3c-10,0-17.9,7.8-17.9,17.7c0,9.9,8,17.7,18,17.6
			C644.9,350.5,652.5,342.6,652.4,332.6z"/>
		<path class="st0" d="M465.3,425.2c-20.2,28-24.5,59.6-17.4,92.6c6.6,30.7,23.6,54,54.5,63.8c31.8,10,61.3,4.5,86.3-18.3
			c23-21,31.5-48.4,31.9-76.4c0-28.1-6.1-51.9-23.7-71.4C561.7,376.6,497,381.3,465.3,425.2z"/>
		<path d="M408.8,199.2c2.6,0,4.6-1,6-3.2c1.5-2.3,2.3-5.9,2.3-10.5c0-4.6-0.8-8.2-2.3-10.6c-1.4-2.2-3.4-3.3-6-3.3
			c-2.6,0-4.6,1.1-6,3.3c-1.5,2.4-2.3,5.9-2.3,10.6c0,4.6,0.8,8.2,2.3,10.5C404.3,198.1,406.2,199.2,408.8,199.2z"/>
		<path d="M738.7,391.5c11.8,2.5,22.8,8.5,34.4,13c-1.9-51.7-14.9-101.8-39.3-148.7c-35.9-68.9-88.6-121.2-158-155.9
			c-140.6-70.4-309.6-40.5-418.7,73.4C49.9,285.7,44.7,432.8,74.1,520c1.6-1.1,3.1-2.3,4.7-3.2c10.5-5.9,21.2-6.4,31.7-0.5
			c10.3,5.9,14.3,15.6,11.8,26.7c-2.1,9.4-6,18.5-9.9,27.3c-3.4,7.7-3.6,10.5,3.3,15c15,9.8,36.5,13.7,51.7-7.9
			c8.8-12.5,13.4-26.6,15.8-41.4c3.4-20.8,4.2-41.6-3-61.9c-7.9-22.4-27.3-32.1-50-24.8c-16.8,5.4-30,15.7-40.1,30.2
			c-1.1,1.6-3.4,2.3-5.1,3.4c-0.5-2.2-1.8-4.5-1.4-6.5c8.2-39.2,16.7-78.3,25.1-117.5c2.5-11.6,2.6-11.6,13.5-6.5
			c0.6,0.2,1.2,0.5,1.8,0.7c38,13.4,76.3,14.5,114.7,1.9c3.7-1.2,7-3.3,10.5-5c-0.2-0.6-0.3-1.1-0.5-1.7c-9.9,0-19.8,0-29.8,0
			c0-10.7,0-20.6,0-31.3c9.2,0,18,0,27.1,0c0-26.4,0-52.1,0-78.6c-6.3,0-12.1,0-17.9,0c0-11.6,0-22.4,0-33.3c33.2,0,65.9,0,99,0
			c0,11.2,0,22,0,33.6c-6.1,0-12,0-17.8,0c0,26.6,0,52.2,0,78.5c6.2,0,11.8,0,17.6,0c0,10.7,0,20.7,0,31.3
			c-20.6,0-40.6,0.2-60.6-0.1c-6.1-0.1-9.9,1.5-13.5,6.9c-19.7,29.4-47,48.4-82.3,52.9c-19.7,2.5-39.9,1.3-59.9,1.3
			c-4.6,0-6.8,0.5-7.7,5.5c-2.6,13.8-5.8,27.5-8.8,41.2c-0.7,3.6-1.5,7.2-2.7,12.5c3.5-3.1,5.5-4.9,7.5-6.8
			c11.2-10.5,24.5-16.9,39.5-19.7c16.6-3.1,33.2-2.7,49.6,0.6c15.9,3.2,30.6,9.5,42.4,21c25.7,25,25.3,74.5-0.9,102.4
			c-18.3,19.5-42.1,26.7-67.6,29.6c-19.4,2.2-38.6,1.4-58-3.9c47.4,91.4,162.2,188.2,319.6,184.8c162.9-3.5,269.5-110.1,308.6-191.9
			c-1.9,0.2-3.5,0.4-5.2,0.6c-43.8,5-79.3-17.5-92-59.1c-8.6-27.9-7.1-55.6,4.4-82.5C656.6,403.5,696,382.5,738.7,391.5z
			 M471.3,167.1c0-0.7,0.5-1.4,1.3-1.5c3.1-0.4,5.8-1.5,8.1-3.2c0.3-0.2,0.6-0.3,0.9-0.3h5.9c0.8,0,1.5,0.7,1.5,1.5V207
			c0,0.8-0.7,1.5-1.5,1.5h-7.8c-0.8,0-1.5-0.7-1.5-1.5v-31.7c-1.8,0.6-3.6,0.9-5.3,0.9c-0.8,0-1.5-0.7-1.5-1.5V167.1z M432.3,199.6
			c0-5.7,2.1-9.9,6.2-12.6c1.3-0.8,2.9-1.6,4.6-2.3l8.8-3.4c1.7-0.7,2.9-1.4,3.7-2.4c0.7-0.9,1-1.9,1-3.3c0-1.3-0.4-2.3-1.3-3.1
			c-0.9-0.9-2.3-1.3-4.1-1.3c-1.9,0-3.4,0.4-4.6,1.3c-1.1,0.8-1.7,2-1.9,3.7c-0.1,0.8-0.7,1.3-1.5,1.3h-8.7c-0.4,0-0.8-0.2-1.1-0.5
			s-0.4-0.7-0.4-1.1c0.1-4.7,1.9-8.4,5.4-11.1c3.1-2.4,7.3-3.6,12.5-3.6c4.8,0,8.9,1.3,12,3.9c3.3,2.8,5,6.2,5,10.3
			c0,3.9-1,7.1-3,9.6c-1.9,2.3-5,4.3-8.9,5.8l-9,3.5c-1.5,0.6-2.6,1.2-3.2,1.9c-0.5,0.5-0.7,1.1-0.7,1.9h23.1c0.8,0,1.5,0.7,1.5,1.5
			v7.2c0,0.8-0.7,1.5-1.5,1.5h-32.5c-0.8,0-1.5-0.7-1.5-1.5V199.6z M394.8,167.5c3.4-4,8.1-6,14-6c2.8,0,5.5,0.5,7.8,1.5
			c2.4,1,4.5,2.5,6.2,4.6c3.6,4.2,5.4,10.2,5.4,17.9c0,7.7-1.8,13.7-5.4,17.9c-3.4,4-8.1,6-14,6c-5.9,0-10.7-2-14.1-6
			c-3.5-4.1-5.3-10.1-5.3-17.9S391.2,171.7,394.8,167.5z M350.1,199.6c0-5.7,2.1-9.9,6.2-12.6c1.3-0.8,2.9-1.6,4.6-2.3l8.8-3.4
			c1.7-0.7,2.9-1.4,3.7-2.4c0.7-0.9,1-1.9,1-3.3c0-1.3-0.4-2.3-1.3-3.1c-0.9-0.9-2.3-1.3-4.1-1.3c-1.9,0-3.4,0.4-4.6,1.3
			c-1.1,0.8-1.7,2-1.9,3.7c-0.1,0.8-0.7,1.3-1.5,1.3h-8.7c-0.4,0-0.8-0.2-1.1-0.5s-0.4-0.7-0.4-1.1c0.1-4.7,1.9-8.4,5.4-11.1
			c3.1-2.4,7.3-3.6,12.5-3.6c4.8,0,8.9,1.3,12,3.9c3.3,2.8,5,6.2,5,10.3c0,3.9-1,7.1-3,9.6c-1.9,2.3-5,4.3-8.9,5.8l-9,3.5
			c-1.5,0.6-2.6,1.2-3.2,1.9c-0.5,0.5-0.7,1.1-0.7,1.9h23.1c0.8,0,1.5,0.7,1.5,1.5v7.2c0,0.8-0.7,1.5-1.5,1.5h-32.5
			c-0.8,0-1.5-0.7-1.5-1.5V199.6z M332.9,317.5c5-0.2,9.1-0.4,13.7-0.6c0-15.6,0-30.8,0-46.7c-4.5,0-8.7,0-13.3,0
			c0-10.6,0-20.5,0-30.9c20.2,0,40.3,0,61.2,0c0,6.3,0,12.5,0,19.3c1.4-0.6,2.1-0.6,2.4-1c16.4-18.9,37.4-20.7,59.7-15.5
			c16.4,3.9,24.7,15.7,25,33.4c0.2,11.3,0,22.6,0,33.9c0,2.2,0,4.5,0,7.4c4.6,0,7.9,0,11,0.2c-1-6.9-2.7-13.5-2.9-20.2
			c-0.6-21.6,8.7-38.1,28-47.9c21.7-11,44.6-12.9,67.7-5.4c19.5,6.3,30.5,20.1,33,41.6c-13.9,1.6-27.5,3.1-41.6,4.7
			c-0.8-4.1-1.2-7.9-2.2-11.5c-2.2-8.2-7-12.1-14.9-12.3c-9.3-0.2-15.4,3.3-17.8,11.5c-3.4,11.6-3.3,23.6-0.2,35.3
			c2.3,8.8,8.8,12.7,18.5,12.2c9.1-0.4,14.4-4.9,16.5-13.9c0.1-0.8,0.4-1.6,0.7-2.9c12,0,23.9,0,35.8,0c1.6,0,3.3,0.2,5.6,0.4
			c-0.9,11.1-4.7,21-13.1,27.6c-6.6,5.3-14.6,9.9-22.7,12.2c-18.9,5.2-38,4.1-56.6-2.5c-13.3-4.7-23.9-12.8-32.2-24.9
			c0,9,0,18,0,27.4c-25.7,0-50.5,0-75.9,0c0-10.2,0-20.3,0-30.9c4.3,0,8.5,0,13.3,0c0-12.9,0.4-25.1-0.3-37.3
			c-0.1-2.7-3.7-6.3-6.6-7.8c-11.9-6.3-27.1,1.9-28.2,15.3c-0.7,9.5-0.1,19.1-0.1,29.4c4.9,0,9.5,0,14.8,0c0,10.1,0.1,19.4-0.2,28.7
			c0,1-2.5,2.8-3.8,2.8c-23.4,0.2-46.9,0.2-70.3,0c-1.3,0-3.8-1.8-3.8-2.8C332.8,336.5,332.9,327.2,332.9,317.5z M367.5,682.6
			c-18,0-35.7,0-54,0c0-4.3,0-8.1,0-12c2.3-0.4,4.4-0.7,6.7-1c0-12.3,0-24.3,0-36.6c-2.3-0.5-4.3-0.8-6.6-1.3c0-4,0-7.9,0-12.2
			c11.2,0,21.9,0,33.2,0c0,4,0,7.9,0,12.3c-2.7,0.3-5.4,0.6-8.5,0.9c0,12.3,0,24.5,0,37c4.6,0,8.8,0,13.2,0c0.8-3.6,0.5-9,2.6-10.3
			c3.5-2,8.5-1.4,13.4-1.9C367.5,666.2,367.5,674.1,367.5,682.6z M405.3,631.7c-2.2,0.4-4.2,0.8-6.6,1.2c0,12.3,0,24.3,0,36.7
			c2.1,0.4,4.2,0.6,6.6,1c0,4,0,7.9,0,12.2c-10.5,0-20.6,0-31.3,0c0-3.9,0-7.8,0-12.2c1.9-0.3,3.9-0.6,6.4-1c0-12,0-24,0-36.7
			c-2.3-0.4-4.3-0.8-6.6-1.3c0-3.9,0-7.7,0-12c10.4,0,20.7,0,31.5,0C405.3,623.7,405.3,627.6,405.3,631.7z M282.2,557.8
			c-16.1-19.1-21.9-41.9-22.1-67.7c0.5-29.8,9.6-57.3,33.1-79c39.9-36.9,119-29.4,138.1,39.9c9.8,35.4,5.9,69.5-16.2,99.8
			C382.6,595.2,316.4,598.5,282.2,557.8z M451.5,680.8c-11.9,5.6-24.1,3.8-36.1,0.1c-1.1-0.3-2.2-2.4-2.3-3.8
			c-0.3-4.4-0.1-8.8-0.1-13.9c5-0.5,9.6-0.9,14.4-1.2c0.4,1.1,0.8,1.8,0.9,2.6c0.6,7.2,1.9,8.6,8.9,6.8c2.8-0.7,5.1-4.1,7.6-6.2
			c-2.1-2-3.9-4.8-6.4-5.9c-4.6-2-9.9-2.6-14.6-4.4c-8.4-3.2-12.3-8.9-12.1-16.8c0.1-8,4.7-14.6,12.6-17.5c10.7-4,21.4-2.6,31.9,0.8
			c1.2,0.3,2,2.2,2.9,3.4c0.1,0.1,0,0.4,0,0.6c1.4,13.6-0.2,15.1-15,14.6c-0.2-2.6-0.5-5.3-0.8-8.6c-2.1-0.3-4.4-1.2-6.1-0.5
			c-2.8,1.2-6.6,2.9-7.5,5.3c-1.6,4.2,2.6,5.6,5.9,6.6c5,1.6,10.3,2.8,15.2,4.7c6.8,2.6,11.3,7.5,11.5,15.3
			C462.5,671,458.9,677.3,451.5,680.8z M526.3,641.8c-4.6,0.5-9.3,1-14.6,1.6c-0.2-3.7-0.4-6.8-0.6-10.2c-3.9-1.6-6.8-2-6.7,3.9
			c0.1,10.8,0,21.6,0,32.5c3.5,0.4,6.2,0.6,9.2,0.9c0,4,0,7.8,0,12.1c-11.6,0-23.1,0-35.3,0c0-3.8,0-7.7,0-12.1
			c2.5-0.3,5.2-0.6,8.3-0.9c0-12.2,0-24.2,0-37c-1.8-0.1-3.7-0.2-5.9-0.3c-0.3,3.4-0.5,6.1-0.7,9.5c-4.9,0.5-9.6,1-14.8,1.5
			c0-8.2,0-15.8,0-23.8c20.4,0,40.5,0,61.1,0C526.3,626.7,526.3,633.8,526.3,641.8z M588.7,563.3c-25,22.8-54.5,28.3-86.3,18.3
			c-30.9-9.8-47.9-33.1-54.5-63.8c-7.1-33-2.8-64.6,17.4-92.6c31.7-43.9,96.4-48.6,131.6-9.7c17.6,19.5,23.7,43.3,23.7,71.4
			C620.2,514.9,611.7,542.3,588.7,563.3z M616.9,333c0-9.9,7.9-17.7,17.9-17.7c9.8,0,17.4,7.6,17.6,17.3c0.1,10-7.5,17.9-17.5,18
			C624.9,350.7,616.9,342.9,616.9,333z"/>
	</g>
</g>
</svg>
