<?xml version="1.0" encoding="utf-8"?>
<!-- Generator: Adobe Illustrator 19.2.0, SVG Export Plug-In . SVG Version: 6.00 Build 0)  -->
<svg version="1.1" id="Layer_1" xmlns="http://www.w3.org/2000/svg" xmlns:xlink="http://www.w3.org/1999/xlink" x="0px" y="0px"
	 viewBox="0 0 839.1 839.1" style="enable-background:new 0 0 839.1 839.1;" xml:space="preserve">
<style type="text/css">
	.st0{fill:#F0CA99;}
	.st1{fill:#363636;}
</style>
<g>
	<polygon id="XMLID_3_" class="st0" points="31.5,807.6 807.6,807.6 807.6,31.5 31.5,31.5 	"/>
	<path id="XMLID_20_" class="st1" d="M247.9,604c0,4.4,1.2,5,6.3,5.1v1.6H234v-1.6c4.2-0.2,5.4-0.7,5.4-5.1v-29.3
		c0-4.5-1.2-5-5.3-5.2v-1.6h35.7l0.3,9.5h-1.8c-1.5-4.7-3.2-6.3-11.5-6.3h-6.5c-1.9,0-2.4,0.5-2.4,2.3v13.5h7.3
		c6.8,0,8.1-1.2,8.9-5.6h1.7v15.1h-1.7c-0.9-5.1-3.4-6.3-8.9-6.3h-7.3L247.9,604L247.9,604z M290.1,604c0,4.4,1.2,5,6.3,5.1v1.6
		h-21.1v-1.6c5.1-0.2,6.3-0.7,6.3-5.1v-29.3c0-4.5-1.1-5-6.3-5.2v-1.6h21.1v1.6c-5.1,0.2-6.3,0.7-6.3,5.2V604z M340.5,575.9
		c0-4.2-1.1-5.9-5.7-6.4v-1.6h15.1v1.6c-4.6,0.6-5.7,2.3-5.7,6.4v35.8h-2.1l-29.2-33.7v24.7c0,4.2,1.1,5.7,5.7,6.3v1.7h-15.1v-1.7
		c4.7-0.6,5.7-2.1,5.7-6.3v-28.9c-1.5-2.5-3-3.7-5.7-4.4v-1.6H315l25.5,29.4V575.9L340.5,575.9z M363.4,595.3l6.4-16.9l6.3,16.9
		H363.4z M393.9,610.7v-1.6c-3.3,0.1-4.1-1.4-5.6-5.3l-15-36.7h-2l-15.7,38.1c-1.1,2.6-2.5,3.5-5.2,4.1v1.6H364v-1.6
		c-2.9,0-4.4-0.6-4.4-2.7c0-1.7,1.9-6.5,2.5-7.9h15.4c0.6,1.4,2.6,6.1,2.6,7.9c0,2.1-1.6,2.7-4.5,2.7v1.6L393.9,610.7L393.9,610.7z
		 M435.4,575.9c0-4.2-1.1-5.9-5.7-6.4v-1.6h15.1v1.6c-4.6,0.6-5.7,2.3-5.7,6.4v35.8h-2.1l-29.2-33.7v24.7c0,4.2,1.1,5.7,5.7,6.3v1.7
		h-15.1v-1.7c4.6-0.6,5.7-2.1,5.7-6.3v-28.9c-1.5-2.5-3.2-3.7-5.7-4.4v-1.6h11.6l25.5,29.4V575.9L435.4,575.9z M489.4,600.7
		c-4.5,7.6-10.4,11-19.2,11c-14,0-22.2-9.1-22.2-22.8c0-9.8,7.7-22.1,22.5-22.1c4.5,0,10.8,2.5,11.7,2.5c1.2,0,1.6-0.7,2.6-2.5h2.1
		l0.9,14.3h-1.8c-2.5-6.7-7-11.4-14.4-11.4c-10.1,0-14.4,10.9-14.4,19.2c0,11.5,5,19.3,15.6,19.3c8.2,0,12.8-6.2,14.8-8.8
		L489.4,600.7z M510,604c0,4.4,1.2,5,6.3,5.1v1.6h-21.1v-1.6c5.1-0.2,6.3-0.7,6.3-5.1v-29.3c0-4.5-1.2-5-6.3-5.2v-1.6h21.1v1.6
		c-5.1,0.2-6.3,0.7-6.3,5.2V604z M533.9,595.3l6.4-16.9l6.4,16.9H533.9z M564.6,610.7v-1.6c-3.3,0.1-4.1-1.4-5.6-5.3l-15-36.7h-2.1
		l-15.7,38.1c-1,2.6-2.5,3.5-5.2,4.1v1.6h13.5v-1.6c-2.9,0-4.4-0.6-4.4-2.7c0-1.7,1.9-6.5,2.5-7.9H548c0.6,1.4,2.6,6.1,2.6,7.9
		c0,2.1-1.6,2.7-4.5,2.7v1.6h18.5V610.7z M568.3,610.8v-1.7c4.2-0.2,5.3-0.7,5.3-5.1v-29.3c0-4.5-1.1-5-5.3-5.2v-1.6H588v1.6
		c-4.7,0.2-5.9,0.7-5.9,5.2v30c0,2.6,0.7,3.5,5.5,3.5c7.7,0,12.2-1.4,15.9-8.9h1.7l-2.9,11.5L568.3,610.8L568.3,610.8z M243.3,678.1
		c4.8-0.2,6.1-0.7,6.1-5.1v-32.9h-5.3c-5,0-7,2-8.3,7.8h-1.9l1-10.9h37.5l1,10.9h-1.9c-1.4-5.7-3.4-7.8-8.2-7.8H258V673
		c0,4.4,1.2,5,6,5.1v1.6h-20.6L243.3,678.1L243.3,678.1z M292.7,673c0,4.4,1.2,5,6.3,5.1v1.6h-21.1v-1.6c5.1-0.2,6.3-0.7,6.3-5.1
		v-29.2c0-4.5-1.2-5-6.3-5.2V637H299v1.6c-5.1,0.2-6.3,0.7-6.3,5.2V673z M343.9,636.9h14.7v1.6c-4.1,0.2-5.3,0.7-5.3,5.2v29.2
		c0,4.4,1.2,5,5.3,5.1v1.6h-19.3v-1.6c4.2-0.2,5.4-0.7,5.4-5.1v-30.1h-0.1l-14.3,37.3h-1.9l-14-37.3h-0.2v28.9
		c0,4.2,1.1,5.9,5.7,6.4v1.6h-15.1v-1.6c4.7-0.5,5.7-2.1,5.7-6.4v-29c0-2.9-1.2-4.2-5.7-4.2v-1.6h15.6l11.4,29.6L343.9,636.9z
		 M364.7,679.6v-1.6c4.1-0.2,5.3-0.7,5.3-5.1v-29.2c0-4.5-1.2-5-5.3-5.2V637h35.7l0.2,9.5H399c-1.5-4.8-3.2-6.3-11.5-6.3h-6.4
		c-2,0-2.4,0.5-2.4,2.3V656h7.3c6.7,0,8.1-1.2,8.9-5.6h1.6v15.1h-1.6c-0.9-5.1-3.5-6.3-8.9-6.3h-7.3v14.8c0,2.6,0.8,3.5,8.2,3.5
		c7.7,0,12.2-1.4,15.9-8.9h1.6l-2.8,11.4L364.7,679.6L364.7,679.6z M409.8,666.3h1.7c1.8,5.6,7.2,11.5,13.5,11.5
		c5.4,0,7.4-3.8,7.4-7.1c0-9.8-22.2-11.6-22.2-23.8c0-5.9,5.7-10.9,12.3-10.9c6.4,0,8.6,2.3,11.5,2.3c1.2,0,1.9-1,2.3-2.3h1.7v13.6
		h-1.7c-1.7-6.2-6.1-10.7-11.9-10.7c-4.7,0-6.5,3-6.5,6c0,8.7,22.2,8.9,22.2,24c0,6.8-5.5,11.9-13.2,11.9c-7.6,0-9.6-2.7-12.4-2.7
		c-1.1,0-1.9,0.8-2.1,2.1H410v-14H409.8z"/>
	<polygon id="XMLID_21_" class="st1" points="604.5,541.9 234.6,541.9 234.6,172.2 604.5,172.2 	"/>
	<path id="XMLID_24_" class="st0" d="M323.5,365.2c0,17.5,4.6,19.4,24.6,20.2v6.4h-79.1v-6.4c16.5-0.8,21.1-2.7,21.1-20.2v-114
		c0-17.5-4.6-19.4-20.6-20.2v-6.4h139.5l1,36.9H403c-5.9-18.6-12.3-24.6-45-24.6h-25.4c-7.6,0-9.2,1.8-9.2,8.6v52.8h12.4
		c26,0,31.7-4.6,34.9-22.1h6.4v58.9h-6.4c-3.5-19.6-13.3-24.6-34.9-24.6h-12.4L323.5,365.2L323.5,365.2z M566.8,224.6H420.4
		l-3.4,36.9h8.5c5.3-18,13.2-24.6,30.8-24.6h20.6v128.3c0,17.5-4.6,19.4-23.6,20.2v6.4h80.6v-6.4c-18.9-0.8-23.6-2.7-23.6-20.2
		V236.9H531c17.6,0,25.5,6.5,30.9,24.6h8.3L566.8,224.6L566.8,224.6z"/>
</g>
</svg>
