<?xml version="1.0" encoding="utf-8"?>
<!-- Generator: Adobe Illustrator 19.2.0, SVG Export Plug-In . SVG Version: 6.00 Build 0)  -->
<svg version="1.1" id="Layer_1" xmlns="http://www.w3.org/2000/svg" xmlns:xlink="http://www.w3.org/1999/xlink" x="0px" y="0px"
	 viewBox="0 0 839.1 839.1" style="enable-background:new 0 0 839.1 839.1;" xml:space="preserve">
<style type="text/css">
	.st0{fill:#2B4C8B;}
	.st1{fill:#FFFFFF;}
</style>
<g id="g58">
</g>
<g id="g90">
</g>
<g>
	<rect y="288.4" class="st0" width="839.1" height="262.2"/>
	<g>
		<path class="st1" d="M160.5,411.7c-7.2,0-12.8-2.1-16.6-6.4c-3.8-4.2-5.9-10.1-6.4-17.4L149,385c0.6,11.5,4.4,17.2,11.5,17.2
			c5.7,0,8.6-2.9,8.6-8.6c0-1.7-0.2-3.3-0.7-4.7c-0.5-1.5-1.2-2.8-2.1-4c-1-1.2-1.8-2.2-2.6-2.9c-0.8-0.7-1.8-1.6-3.2-2.7
			l-14.4-11.5c-2.6-2.1-4.7-4.7-6.3-7.9c-1.6-3.2-2.4-6.8-2.4-10.9c0-5.9,1.8-10.6,5.5-14.1c3.7-3.5,8.6-5.3,14.6-5.3
			c6.5,0,11.7,1.6,15.5,4.8c3.8,3.2,6.2,7.7,7.1,13.5c0.1,0.6,0.2,1.5,0.3,2.6l-11.5,2.9c0-0.5-0.1-1.3-0.2-2.3
			c-0.5-3.6-1.7-6.6-3.4-8.8c-1.8-2.2-4.4-3.3-7.8-3.3c-2.8,0-4.9,0.8-6.4,2.3c-1.5,1.5-2.2,3.7-2.2,6.4c0,4.5,1.9,8.3,5.7,11.4
			l14.4,11.5c7.7,6.2,11.5,13.6,11.5,22.2c0,5.9-1.8,10.5-5.5,13.8S166.7,411.7,160.5,411.7z"/>
		<path class="st1" d="M189.2,410.9v-80.4h11.5v80.4H189.2z"/>
		<path class="st1" d="M211.2,410.9v-80.4h11.5v71.8h20.1v8.6H211.2z"/>
		<path class="st1" d="M250,410.9v-80.4h11.5v80.4H250z"/>
		<path class="st1" d="M293.3,411.7c-3.4,0-6.4-0.5-8.9-1.4c-2.6-1-4.7-2.3-6.3-4c-1.6-1.7-3-3.8-4-6.3c-1-2.5-1.8-5.2-2.2-8.1
			c-0.4-2.9-0.6-6.1-0.6-9.7v-22.9c0-3.6,0.2-6.9,0.6-9.7c0.4-2.9,1.1-5.6,2.2-8.1c1-2.5,2.4-4.6,4-6.3c1.6-1.7,3.8-3,6.3-3.9
			c2.6-1,5.5-1.4,8.9-1.4c3.7,0,7,0.6,9.7,1.7c2.7,1.1,4.9,2.7,6.5,4.9c1.6,2.2,2.9,4.7,3.7,7.5c0.8,2.8,1.3,6.2,1.5,10
			c0,0.6,0,1.5,0,2.6h-11.5v-2.6c0-1.6-0.1-2.9-0.2-4.1s-0.3-2.3-0.5-3.5c-0.2-1.2-0.6-2.2-1.1-3c-0.5-0.8-1-1.5-1.8-2.2
			c-0.7-0.7-1.6-1.2-2.7-1.5c-1.1-0.3-2.3-0.5-3.8-0.5c-1.9,0-3.4,0.3-4.8,0.9c-1.3,0.6-2.4,1.4-3.1,2.3c-0.7,0.9-1.3,2.2-1.7,3.8
			c-0.4,1.6-0.7,3.1-0.8,4.6c-0.1,1.5-0.2,3.4-0.2,5.6V385c0,1.9,0.1,3.7,0.2,5.2c0.2,1.6,0.5,3.1,1,4.6c0.5,1.5,1.1,2.8,1.9,3.9
			c0.8,1,1.8,1.9,3.1,2.5c1.3,0.6,2.8,1,4.5,1s3.2-0.3,4.4-1c1.2-0.7,2.2-1.5,2.9-2.5c0.7-1,1.3-2.3,1.7-3.9
			c0.4-1.6,0.7-3.1,0.8-4.6c0.1-1.5,0.2-3.2,0.2-5.2v-2.9h11.5v2.9c0,4.2-0.4,7.8-1.1,10.9c-0.7,3.1-1.9,5.9-3.5,8.3
			c-1.6,2.4-3.8,4.2-6.6,5.5C300.6,411.1,297.2,411.7,293.3,411.7z"/>
		<path class="st1" d="M344.2,411.7c-4,0-7.5-0.6-10.4-1.8c-2.9-1.2-5.2-3-6.9-5.4c-1.7-2.4-2.9-5.1-3.7-8.3
			c-0.8-3.2-1.2-6.9-1.2-11.1v-29.2c0-4.2,0.4-7.9,1.2-11c0.8-3.1,2-5.9,3.7-8.2c1.7-2.3,4-4.1,6.9-5.2c2.9-1.2,6.3-1.8,10.4-1.8
			c7.8,0,13.5,2.2,17,6.7c3.5,4.5,5.2,11,5.2,19.5V385c0,4.2-0.4,7.8-1.2,11c-0.8,3.2-2,6-3.7,8.3s-4,4.2-6.9,5.4
			C351.7,411.1,348.2,411.7,344.2,411.7z M335.9,398.6c1.5,2.4,4.3,3.6,8.4,3.6c4,0,6.8-1.2,8.4-3.6c1.5-2.4,2.3-6,2.3-10.7V353
			c0-4.7-0.8-8.2-2.3-10.5c-1.5-2.3-4.3-3.5-8.4-3.5c-4.1,0-6.9,1.2-8.4,3.5c-1.5,2.3-2.3,5.8-2.3,10.5v34.9
			C333.5,392.6,334.3,396.2,335.9,398.6z"/>
		<path class="st1" d="M375.7,410.9v-80.4h8.6l20.1,49.7v-49.7h11.5v80.4h-8.2l-20.6-53.5v53.5H375.7z"/>
		<path class="st1" d="M461.4,410.9l-17.2-80.4h11.5l8.5,43.1l3,20.1l3.1-20.1l8.5-43.1h11.5l-17.2,80.4H461.4z"/>
		<path class="st1" d="M486.3,410.9l17.2-80.4h11.5l17.2,80.4h-11.5l-4.3-20.1h-14.4l-4.3,20.1H486.3z M503.6,382.2h11.5l-5.7-34.5
			L503.6,382.2z"/>
		<path class="st1" d="M539.8,410.9v-80.4h11.5v71.8h20.1v8.6H539.8z"/>
		<path class="st1" d="M578.3,410.9v-80.4h11.5v71.8h20.1v8.6H578.3z"/>
		<path class="st1" d="M616.9,410.9v-80.4h31.6v8.6h-20.1v25.8h14.4v8.6h-14.4v28.7h20.1v8.6H616.9z"/>
		<path class="st1" d="M669.8,410.9V385l-17.2-54.6H664l11.5,40.2l11.5-40.2h11.5L681.3,385v25.8H669.8z"/>
	</g>
	<g>
		<g>
			<path class="st1" d="M36.9,507.8V427h16.6c3,0,5.6,0.2,7.9,0.5c2.3,0.3,4.5,0.9,6.7,1.8c2.2,0.9,4,2.1,5.4,3.7
				c1.4,1.5,2.6,3.5,3.4,6c0.9,2.5,1.3,5.5,1.3,8.9c0,4.2-1,7.5-3,10c-2,2.4-5.1,4.3-9.3,5.7c9.6,2.3,14.4,9.1,14.4,20.4
				c0,8.1-1.9,14.1-5.8,18c-3.9,3.9-9.8,5.8-17.8,5.8H36.9z M53.1,458.8h2.8c1.5,0,2.8-0.3,3.8-0.9s1.8-1.4,2.3-2.5s0.9-2.3,1.1-3.5
				c0.2-1.3,0.3-2.7,0.3-4.4c0-1.3-0.1-2.5-0.3-3.5c-0.2-1-0.4-1.9-0.7-2.5c-0.2-0.7-0.6-1.2-1.2-1.7c-0.6-0.5-1.1-0.8-1.5-1
				c-0.4-0.2-1.1-0.4-2-0.5c-0.9-0.1-1.6-0.2-2.1-0.2c-0.5,0-1.4,0-2.5,0V458.8z M53.2,496.2h1.5c2.1,0,3.8-0.2,5.2-0.7
				c1.3-0.5,2.3-1.3,3-2.5c0.7-1.2,1.1-2.6,1.4-4.1c0.2-1.5,0.3-3.5,0.3-6.1c0-4.2-0.7-7.5-2.2-9.8c-1.5-2.3-4-3.5-7.6-3.5h-1.6
				V496.2z"/>
			<path class="st1" d="M90.4,477.7V427h16.3v50.3c0,2.9,0,5,0,6.3c0,1.3,0.1,2.9,0.2,4.8c0.1,1.9,0.3,3.2,0.6,3.9
				c0.3,0.7,0.7,1.6,1.2,2.4c0.5,0.9,1.2,1.4,2,1.7c0.8,0.3,1.9,0.4,3.1,0.4c1.2,0,2.2-0.1,3.1-0.4c0.8-0.3,1.5-0.8,2-1.7
				c0.5-0.9,0.9-1.7,1.2-2.4c0.3-0.7,0.5-2,0.6-3.9c0.1-1.8,0.2-3.4,0.2-4.7c0-1.3,0-3.3,0-6.2c0-0.1,0-0.2,0-0.3V427h16.3v50.8
				c0,2.6-0.1,4.9-0.2,7c-0.1,2.1-0.4,4.3-0.9,6.5c-0.4,2.2-1,4.2-1.7,5.9c-0.7,1.7-1.7,3.4-2.9,4.9c-1.2,1.6-2.6,2.9-4.2,3.9
				c-1.6,1-3.6,1.8-5.9,2.4c-2.3,0.6-4.9,0.9-7.8,0.9c-2.9,0-5.5-0.3-7.8-0.9c-2.3-0.6-4.3-1.4-5.9-2.4c-1.6-1-3-2.3-4.2-3.9
				c-1.2-1.6-2.2-3.2-2.9-4.9c-0.7-1.7-1.3-3.7-1.7-5.9c-0.4-2.2-0.7-4.4-0.9-6.5C90.5,482.7,90.4,480.3,90.4,477.7z"/>
			<path class="st1" d="M147.1,484.7l16.6-3.2c0,1.6,0,3.1,0.1,4.4c0.1,1.3,0.2,2.6,0.5,4.1c0.3,1.5,0.6,2.7,1,3.6
				c0.4,0.9,1,1.7,1.8,2.4c0.8,0.6,1.7,1,2.8,1c3.2,0,4.8-2.1,4.8-6.2c0-5.7-3.2-11.3-9.6-16.9l-5.1-4.3c-1.6-1.3-2.9-2.5-3.9-3.4
				c-1-0.9-2.1-2.1-3.4-3.6c-1.3-1.5-2.3-3-3.1-4.4c-0.7-1.4-1.4-3.1-1.9-5.1c-0.5-2-0.8-4.1-0.8-6.4c0-6.6,2.1-11.7,6.2-15.5
				c4.2-3.8,9.7-5.7,16.6-5.7c5.7,0,10.6,2,14.6,6.1c4,4.1,6,9,6,14.7l0,0.6c0,0.4,0,0.8,0,1.3l-16.9,2.3c0-0.3,0-0.8,0.1-1.5
				s0.1-1.3,0.1-1.7c0-1.1-0.1-2.1-0.2-3.1c-0.2-1-0.4-2-0.7-3c-0.3-1-0.9-1.8-1.6-2.4c-0.7-0.6-1.6-0.9-2.6-0.9
				c-1.8,0-3.1,0.7-4,2.1s-1.3,3.1-1.3,5c0,1.7,0.3,3.2,0.8,4.7c0.5,1.5,1.3,2.8,2.4,4.1c1.1,1.3,2,2.3,2.9,3.2
				c0.9,0.8,2.1,1.9,3.6,3.1c1.5,1.2,2.6,2.1,3.2,2.7c2.3,2,4.2,3.9,5.8,5.7c1.6,1.8,3.1,3.8,4.5,6c1.4,2.2,2.5,4.7,3.2,7.3
				c0.7,2.6,1.1,5.4,1.1,8.4c0,5.7-2,10.3-6.1,13.9c-4,3.6-8.9,5.4-14.7,5.4c-3.7,0-7.1-0.7-10-2.1c-2.9-1.4-5.2-3.2-7-5.6
				c-1.8-2.4-3.1-5-4.1-7.9C147.8,491,147.3,488,147.1,484.7z"/>
			<path class="st1" d="M200.3,507.8V427h16.3v80.8H200.3z"/>
			<path class="st1" d="M228.1,507.8V427h11.8l17.7,42.3V427h13.6v80.8h-11.3l-17.7-44.8v44.8H228.1z"/>
			<path class="st1" d="M282.6,507.8V427h33.7v11.2H299v22h12.3v11.5H299v24.9h17.4v11.2H282.6z"/>
			<path class="st1" d="M323.9,484.7l16.6-3.2c0,1.6,0,3.1,0.1,4.4c0.1,1.3,0.2,2.6,0.5,4.1c0.3,1.5,0.6,2.7,1,3.6
				c0.4,0.9,1,1.7,1.8,2.4c0.8,0.6,1.7,1,2.8,1c3.2,0,4.8-2.1,4.8-6.2c0-5.7-3.2-11.3-9.6-16.9l-5.1-4.3c-1.6-1.3-2.9-2.5-3.9-3.4
				c-1-0.9-2.1-2.1-3.4-3.6c-1.3-1.5-2.3-3-3.1-4.4c-0.7-1.4-1.4-3.1-1.9-5.1c-0.5-2-0.8-4.1-0.8-6.4c0-6.6,2.1-11.7,6.2-15.5
				c4.2-3.8,9.7-5.7,16.6-5.7c5.7,0,10.6,2,14.6,6.1c4,4.1,6,9,6,14.7l0,0.6c0,0.4,0,0.8,0,1.3l-16.9,2.3c0-0.3,0-0.8,0.1-1.5
				s0.1-1.3,0.1-1.7c0-1.1-0.1-2.1-0.2-3.1c-0.2-1-0.4-2-0.7-3c-0.3-1-0.9-1.8-1.6-2.4c-0.7-0.6-1.6-0.9-2.6-0.9
				c-1.8,0-3.1,0.7-4,2.1s-1.3,3.1-1.3,5c0,1.7,0.3,3.2,0.8,4.7c0.5,1.5,1.3,2.8,2.4,4.1c1.1,1.3,2,2.3,2.9,3.2
				c0.9,0.8,2.1,1.9,3.6,3.1c1.5,1.2,2.6,2.1,3.2,2.7c2.3,2,4.2,3.9,5.8,5.7c1.6,1.8,3.1,3.8,4.5,6c1.4,2.2,2.5,4.7,3.2,7.3
				c0.7,2.6,1.1,5.4,1.1,8.4c0,5.7-2,10.3-6.1,13.9c-4,3.6-8.9,5.4-14.7,5.4c-3.7,0-7.1-0.7-10-2.1c-2.9-1.4-5.2-3.2-7-5.6
				c-1.8-2.4-3.1-5-4.1-7.9C324.6,491,324,488,323.9,484.7z"/>
			<path class="st1" d="M375.7,484.7l16.6-3.2c0,1.6,0,3.1,0.1,4.4c0.1,1.3,0.2,2.6,0.5,4.1c0.3,1.5,0.6,2.7,1,3.6
				c0.4,0.9,1,1.7,1.8,2.4c0.8,0.6,1.7,1,2.8,1c3.2,0,4.8-2.1,4.8-6.2c0-5.7-3.2-11.3-9.6-16.9l-5.1-4.3c-1.6-1.3-2.9-2.5-3.9-3.4
				c-1-0.9-2.1-2.1-3.4-3.6c-1.3-1.5-2.3-3-3.1-4.4c-0.7-1.4-1.4-3.1-1.9-5.1c-0.5-2-0.8-4.1-0.8-6.4c0-6.6,2.1-11.7,6.2-15.5
				c4.2-3.8,9.7-5.7,16.6-5.7c5.7,0,10.6,2,14.6,6.1c4,4.1,6,9,6,14.7l0,0.6c0,0.4,0,0.8,0,1.3l-16.9,2.3c0-0.3,0-0.8,0.1-1.5
				s0.1-1.3,0.1-1.7c0-1.1-0.1-2.1-0.2-3.1c-0.2-1-0.4-2-0.7-3c-0.3-1-0.9-1.8-1.6-2.4c-0.7-0.6-1.6-0.9-2.6-0.9
				c-1.8,0-3.1,0.7-4,2.1s-1.3,3.1-1.3,5c0,1.7,0.3,3.2,0.8,4.7c0.5,1.5,1.3,2.8,2.4,4.1c1.1,1.3,2,2.3,2.9,3.2
				c0.9,0.8,2.1,1.9,3.6,3.1c1.5,1.2,2.6,2.1,3.2,2.7c2.3,2,4.2,3.9,5.8,5.7c1.6,1.8,3.1,3.8,4.5,6c1.4,2.2,2.5,4.7,3.2,7.3
				c0.7,2.6,1.1,5.4,1.1,8.4c0,5.7-2,10.3-6.1,13.9c-4,3.6-8.9,5.4-14.7,5.4c-3.7,0-7.1-0.7-10-2.1c-2.9-1.4-5.2-3.2-7-5.6
				c-1.8-2.4-3.1-5-4.1-7.9C376.4,491,375.8,488,375.7,484.7z"/>
			<path class="st1" d="M447.8,509.3v-11.5c3.9,0.1,6.6-0.5,7.9-1.8c1.3-1.2,2-3.8,2-7.8V427H474v61.4c0,3-0.1,5.5-0.4,7.6
				c-0.3,2.1-0.8,4-1.6,5.8c-0.8,1.8-1.8,3.2-3.2,4.2c-1.3,1-3.1,1.9-5.2,2.4c-2.1,0.6-4.7,0.9-7.7,0.9H447.8z"/>
			<path class="st1" d="M484.8,481.2v-27.1c0-19.1,7.9-28.6,23.6-28.6c15.8,0,23.6,9.5,23.6,28.6v26.7c0,3.2-0.2,6.2-0.7,9
				c-0.5,2.7-1.3,5.3-2.4,7.8c-1.2,2.5-2.6,4.5-4.4,6.3c-1.8,1.7-4,3.1-6.8,4.1c-2.7,1-5.8,1.5-9.3,1.5c-3.5,0-6.6-0.5-9.3-1.5
				c-2.7-1-5-2.3-6.7-3.9c-1.8-1.7-3.2-3.7-4.4-6.1c-1.2-2.4-2-5-2.5-7.7C485,487.4,484.8,484.4,484.8,481.2z M515.7,484.9V450
				c0-8-2.4-11.9-7.3-11.9c-1.5,0-2.7,0.4-3.7,1.1c-1,0.7-1.8,1.7-2.2,3s-0.8,2.5-1,3.8s-0.3,2.6-0.3,4.1v34.9
				c0,7.9,2.4,11.9,7.3,11.9C513.3,496.8,515.7,492.8,515.7,484.9z"/>
			<path class="st1" d="M542.4,477.7V427h16.3v50.3c0,2.9,0,5,0,6.3c0,1.3,0.1,2.9,0.2,4.8c0.1,1.9,0.3,3.2,0.6,3.9
				c0.3,0.7,0.7,1.6,1.2,2.4c0.5,0.9,1.2,1.4,2,1.7s1.9,0.4,3.1,0.4s2.2-0.1,3.1-0.4c0.8-0.3,1.5-0.8,2-1.7c0.5-0.9,0.9-1.7,1.2-2.4
				c0.3-0.7,0.5-2,0.6-3.9c0.1-1.8,0.2-3.4,0.2-4.7c0-1.3,0-3.3,0-6.2c0-0.1,0-0.2,0-0.3V427h16.3v50.8c0,2.6-0.1,4.9-0.2,7
				c-0.1,2.1-0.4,4.3-0.9,6.5c-0.4,2.2-1,4.2-1.7,5.9c-0.7,1.7-1.7,3.4-2.9,4.9s-2.6,2.9-4.2,3.9c-1.6,1-3.6,1.8-5.9,2.4
				s-4.9,0.9-7.8,0.9s-5.5-0.3-7.8-0.9s-4.3-1.4-5.9-2.4c-1.6-1-3-2.3-4.2-3.9s-2.2-3.2-2.9-4.9c-0.7-1.7-1.3-3.7-1.7-5.9
				c-0.4-2.2-0.7-4.4-0.9-6.5C542.5,482.7,542.4,480.3,542.4,477.7z"/>
			<path class="st1" d="M600.8,507.8V427h17.8c4,0,7.6,0.4,10.7,1.1c3.1,0.8,5.8,2,8.1,3.6s4.1,3.8,5.3,6.6c1.2,2.8,1.8,6.1,1.8,9.9
				c0,1.7-0.1,3.2-0.2,4.5c-0.1,1.3-0.4,2.8-0.8,4.5c-0.4,1.7-1,3.2-1.8,4.5c-0.7,1.3-1.8,2.6-3.2,3.8s-3.1,2.3-5,3.1
				c4.8,15.4,9.1,28.4,12.7,39H629l-9.2-37.2h-2.7v37.2H600.8z M617.1,460.6h4.7c1.3,0,2.3-0.4,3.2-1.3c0.9-0.8,1.5-1.9,2-3.2
				s0.7-2.5,0.9-3.5c0.2-1.1,0.2-2.1,0.2-3.1c0-1-0.1-1.9-0.2-3c-0.1-1-0.4-2.1-0.7-3.4c-0.3-1.2-0.9-2.3-1.7-3.1
				c-0.8-0.8-1.8-1.2-2.9-1.2h-5.4V460.6z"/>
			<path class="st1" d="M654.9,507.8V427h11.8l17.7,42.3V427H698v80.8h-11.3L669,462.9v44.8H654.9z"/>
			<path class="st1" d="M707,507.8l17.5-80.8h14.5l17.4,80.8h-16.1l-3.3-17.3h-10.5l-3.1,17.3H707z M727.5,480.4h8.3l-4.1-30
				L727.5,480.4z"/>
			<path class="st1" d="M765.4,507.8V427h16.3v69.6h16.1v11.2H765.4z"/>
		</g>
	</g>
</g>
</svg>
