<?xml version="1.0" encoding="utf-8"?>
<!-- Generator: Adobe Illustrator 25.1.0, SVG Export Plug-In . SVG Version: 6.00 Build 0)  -->
<svg version="1.1" id="Layer_1" xmlns="http://www.w3.org/2000/svg" xmlns:xlink="http://www.w3.org/1999/xlink" x="0px" y="0px"
	 viewBox="0 0 135.7 135.7" style="enable-background:new 0 0 135.7 135.7;" xml:space="preserve">
<style type="text/css">
	.st0{fill:#FCD76F;}
	.st1{fill:#4D99A9;}
	.st2{fill:#CCA651;}
	.st3{fill:#CCA752;}
	.st4{fill:#A7549D;}
	.st5{fill:#1599B6;}
	.st6{fill:#89BB49;}
	.st7{fill:#E8BF5A;}
	.st8{fill:#55AEC4;}
	.st9{fill:#E8BF5B;}
	.st10{fill:#FAFCFD;}
	.st11{fill:#FEFEFE;}
	.st12{fill:#1B6177;}
	.st13{fill:#463A1D;}
	.st14{fill:#F48722;}
	.st15{enable-background:new    ;}
	.st16{fill:#FFFFFF;}
</style>
<g>
	<g>
		<path class="st0" d="M25.5,31.5c0-0.2,0-0.4,0-0.6c0-6,0-12,0-18.1c0-0.7,0.2-1.2,0.9-1.5c27.7,0,55.3,0,83,0
			c0.6,0.3,0.9,0.8,0.9,1.5c0,5.9,0,11.9,0,17.8c0,0.2,0,0.4,0,0.5c-1.1-1.1-2.3-2.2-3.6-3.1c0-4.1,0-8.2,0-12.2
			c0-0.9,0.1-0.8-0.8-0.8c-25.2,0-50.4,0-75.6,0c-0.1,0-0.2,0-0.3,0c-0.3,0-0.5,0.1-0.5,0.5c0,4.2,0,8.5,0,12.7
			c-0.1,0.1-0.1,0.2-0.2,0.2C27.8,29.3,26.6,30.4,25.5,31.5z"/>
		<path class="st1" d="M10.6,95.4c-2.7,0-5.4,0-8.1,0c-0.7,0-1.4,0-2.1,0c-0.5,0-0.6-0.1-0.3-0.5c1.1-1.8,2.2-3.7,3.2-5.5
			c1-1.6,1.9-3.3,2.9-4.9c0.2-0.3,0.2-0.5,0-0.8c-2-3.4-4-6.9-6-10.3c-0.1-0.2-0.3-0.3-0.2-0.5s0.4-0.1,0.6-0.1c2.2,0,4.4,0,6.5,0
			c1.3,0.1,2.6,0.1,3.8,0c0.3,0,0.6,0,0.9,0c0.2,0.1,0.4,0,0.5,0c0.3,0,0.6,0,0.8,0c1.1,0.1,2.2,0,3.3,0c0.7,0,1.5,0,2.2,0
			c0,0.2,0,0.5,0,0.7c0,4.6,0,9.2,0,13.8c0,0.5,0.1,0.7,0.7,0.7c1.7,0,3.4,0,5.1,0c0,2.1,0,4.2,0,6.3c0,1.2,0,1.2-1.2,1.3
			c0,0,0,0-0.1,0c-0.7,0-1.4,0-2.1,0c-0.3,0-0.5,0-0.8,0c-1.5,0-3,0-4.5,0C14.1,95.4,12.4,95.4,10.6,95.4z"/>
		<path class="st1" d="M128.3,72.6c2.3,0,4.5,0,6.8,0c0.7,0,0.7,0,0.3,0.6c-2,3.4-4,6.9-6,10.3c-0.2,0.3-0.2,0.6,0,0.9
			c2,3.5,4,6.9,6,10.4c0.3,0.5,0.3,0.5-0.3,0.5c-3.2,0-6.5,0-9.7,0c-0.2,0-0.5,0-0.7,0c-1.9,0-3.7,0-5.6,0c-1.4,0-2.7,0-4.1,0
			c-0.3,0-0.5,0-0.8,0c-0.7,0-1.3,0-2,0c-0.2,0-0.3,0-0.5,0c-0.7,0-0.7,0-0.7-0.7c0-2.3,0-4.6,0-6.8c1.8,0,3.6,0,5.4,0
			c0.6,0,0.7-0.2,0.7-0.7c0-4.8,0-9.7,0-14.5c0.7,0,1.4,0,2.1,0c1.1,0,2.1,0.1,3.2,0c0.2,0,0.5,0.1,0.7,0c0.2,0.1,0.4,0.1,0.6,0
			c0.3,0,0.5,0,0.8,0C125.8,72.7,127.1,72.7,128.3,72.6z"/>
		<path class="st2" d="M10.6,95.4c1.7,0,3.5,0,5.2,0c1.6,0.9,3.2,1.9,4.7,2.9c1.3,0.9,2.6,1.7,4,2.6c0,0.1,0.1,0.1,0.2,0.1
			c0.1-0.1,0-0.1-0.1-0.1c-0.1-0.1-0.1-0.2-0.2-0.3c-1.4-1.6-2.8-3.3-4-5.1c0.3,0,0.5,0,0.8,0c0.7,1.1,1.5,2.1,2.3,3
			c0.6,0.7,1.1,1.4,1.8,1.9c0,0,0,0.1,0.1,0.1l0,0l-0.1-0.1c-0.1-0.2-0.2-0.4-0.3-0.6c-0.7-1.4-1.3-2.8-1.6-4.3c0,0,0,0,0.1,0
			c1.2-0.1,1.2-0.1,1.2-1.3c0-2.1,0-4.2,0-6.3c0.4,0,0.9,0,1.3,0c0,0.3,0.1,0.6,0.1,0.9c0.7,3.3,1.1,6.7,1,10.1
			c0,0.9-0.1,1.9-0.1,2.8c0,0.4,0.2,0.8,0.5,1.1c0.3,0.3,0.5,0.5,0.8,0.7l0.1,0.1l0,0c0.1,0.1,0.1,0.2,0.2,0.2
			c2.4,2.1,4.9,4,7.7,5.6c0.3,0.2,0.5,0.4,0.9,0.4c-0.1-0.2-0.3-0.3-0.4-0.4c-0.4-0.3-0.7-0.6-1-1c-0.8-0.8-1.4-1.7-2.1-2.5
			c-0.9-1.6-1.7-3.2-2.2-5c0-0.2,0-0.4-0.1-0.6c-0.4-1.7-0.4-3.5,0-5.3c0.1-0.3,0-0.8,0.3-0.8c0.4-0.1,0.5,0.4,0.7,0.7
			c1.6,2.8,3.2,5.7,4.5,8.7c0.6,1.6,1.2,3.1,1.8,4.7c0.1,0.6,0.3,1.2,0.5,1.8c0.2,0.8,0.8,1.3,1.5,1.6c2.5,1.1,5.1,2,7.7,2.7
			c1,0.2,1.9,0.5,2.9,0.6c-2.3-1-4.5-2.3-6.4-3.9l-0.1-0.1l0,0c-0.6-0.8-1.3-1.4-1.9-2.2c-0.8-1.1-1.3-2.2-1.8-3.4
			c0-0.1,0-0.3-0.1-0.4c-0.3-0.9-0.4-1.9-0.6-2.8c0-0.2-0.1-0.5,0.2-0.6s0.4,0.1,0.6,0.2c0.9,0.8,1.8,1.6,2.7,2.4
			c1.4,1.4,2.8,2.7,4.2,4.1c0.3,0.2,0.4,0.6,0.7,0.8c0.2,0.3,0.4,0.6,0.7,0.8c1.2,1.3,2.4,2.7,3.4,4.2c0.6,0.9,1.2,1.7,2.5,1.6
			c0.3,0,0.6,0.1,0.7,0.5c-0.5,0.3-1,0.1-1.5,0.1s-1,0.2-1.4,0.5c-2.3,1.7-4.9,2.6-7.6,3.2c-1.8,0.4-3.6,0.4-5.4,0.3
			c-2-0.1-3.9-0.5-5.9-1c-1-0.3-2.1-0.6-3.1-1c-0.2-0.1-0.4-0.1-0.4-0.4c0-0.2,0.3-0.2,0.4-0.3c2.4-0.6,4.8-1,7.2-1.2
			c4.2-0.4,8.4-0.4,12.6-0.4c0.1,0,0.2,0,0.3-0.1c-1.1-0.3-2.3-0.5-3.4-0.8c-2.7-0.7-5.3-1.6-7.8-2.7c-0.6-0.3-1.2-0.3-1.9-0.1
			c-2.3,0.9-4.8,1.2-7.2,1c-3.1-0.2-6-1.2-8.7-2.7c-1.5-0.8-3-1.8-4.3-2.9c-0.2-0.1-0.4-0.2-0.3-0.5s0.3-0.2,0.5-0.2
			c2,0,4,0.3,6,0.6c4.2,0.7,8.3,2,12.4,3.2c0,0,0.1,0,0.2,0c-0.1-0.2-0.3-0.3-0.4-0.4c-3.4-1.9-6.5-4.2-9.3-6.9
			c-0.5-0.4-1-0.7-1.6-0.6c-4.6,0.2-8.4-1.5-11.8-4.3C12.5,97.6,11.5,96.6,10.6,95.4z M37.3,110L37.3,110L37.3,110L37.3,110z"/>
		<path class="st2" d="M111.2,87.9c0,2.3,0,4.6,0,6.8c0,0.7,0,0.7,0.7,0.7c0.2,0,0.3,0,0.5,0c-0.1,0.2-0.1,0.3-0.2,0.5
			c-0.4,1.4-1.1,2.7-1.7,4.1c-0.1,0-0.1,0.1-0.1,0.1c0.1,0,0.1-0.1,0.1-0.1c0.1-0.1,0.2-0.1,0.3-0.2c1.3-1.4,2.5-2.9,3.5-4.5
			c0.3,0,0.5,0,0.8,0c0,0.1-0.1,0.2-0.1,0.2c-1.1,1.7-2.5,3.2-3.7,4.8c-0.1,0.1-0.1,0.1-0.2,0.2c0,0-0.1,0,0,0.1v-0.1
			c0.1,0.1,0.2,0,0.2-0.1c2.6-1.7,5.2-3.5,7.9-5.1c1.9,0,3.7,0,5.6,0c-3,3.5-6.6,6-11.3,6.8c-1,0.2-1.9,0.3-2.9,0.2
			c-0.9-0.1-1.6,0.2-2.2,0.8c-2.1,2-4.3,3.7-6.8,5.3c-0.9,0.6-1.8,1.1-2.7,1.8c0.9-0.2,1.7-0.5,2.6-0.7c3-0.8,5.9-1.7,8.9-2.3
			c2.4-0.5,4.7-0.7,7.1-0.8c0.2,0,0.4,0,0.4,0.2c0.1,0.2-0.1,0.3-0.2,0.4c-3.9,3-8.2,5.3-13.2,5.7c-2.5,0.2-4.9-0.1-7.2-1
			c-0.5-0.2-1-0.2-1.5,0c-3.5,1.6-7.1,2.7-10.9,3.5c-0.1,0-0.2,0.1-0.4,0.1c0.2,0.2,0.4,0.1,0.6,0.1c3,0,5.9,0.1,8.9,0.2
			c3.5,0.1,7,0.6,10.4,1.5c0.2,0.1,0.5,0,0.5,0.3s-0.3,0.3-0.5,0.4c-3.4,1.3-7,2.1-10.7,2.1c-4.1-0.1-8-1.1-11.3-3.6
			c-0.5-0.4-1-0.5-1.6-0.4c-0.3,0.1-0.6,0-0.9,0.1c-0.1,0-0.3-0.1-0.3-0.2c0-0.2,0.1-0.2,0.3-0.3c0.2-0.1,0.3-0.1,0.5-0.1
			c0.7-0.1,1.3-0.2,1.7-0.8c1.3-1.8,2.7-3.4,4.1-5.1l0,0l0.1-0.1c0.4-0.3,0.7-0.7,1-1.1c1.6-1.5,3.2-3.1,4.8-4.6
			c0.8-0.8,1.6-1.5,2.5-2.3c0.1-0.1,0.3-0.2,0.5-0.1s0.2,0.3,0.2,0.5c0,0.4-0.1,0.8-0.2,1.2c-0.1,0.9-0.5,1.8-0.7,2.7
			c-0.1,0.1-0.2,0.2-0.2,0.4c-0.9,1.8-2,3.5-3.6,4.8c-0.2,0.1-0.4,0.3-0.4,0.5l0,0l-0.1,0.1c0,0,0,0-0.1,0l-0.1,0.1
			c-1.7,1.3-3.5,2.3-5.6,3.1c0.2,0,0.2,0,0.3,0c3.8-0.7,7.5-1.9,11-3.5c0.4-0.2,0.7-0.5,0.9-0.9c0.2-0.6,0.4-1.3,0.5-1.9
			c0.1-0.4,0.3-0.7,0.4-1.1c0.4-1.2,0.8-2.3,1.3-3.5c0.1-0.1,0.2-0.3,0.2-0.4c1.4-3.2,3-6.2,4.8-9.2c0.1-0.1,0.1-0.3,0.4-0.3
			c0.2,0,0.2,0.2,0.2,0.3c0.4,1.5,0.5,2.9,0.4,4.4c-0.1,0.8-0.3,1.6-0.4,2.5c-0.1,0.2-0.2,0.4-0.2,0.5c-0.4,1.3-1,2.4-1.6,3.5
			c-0.2,0.3-0.5,0.5-0.4,0.9l0,0c-0.1,0-0.2,0-0.2,0.1c-1,1.2-2.1,2.4-3.2,3.5c0,0-0.1,0,0,0.1v-0.1c0.1,0,0.2,0,0.4-0.1
			c1.9-1.1,3.7-2.2,5.4-3.5c0.8-0.6,1.7-1.2,2.4-2l0,0l0.1-0.1c0.7-0.5,1.3-1.1,1.9-1.8c0.2-0.2,0.2-0.5,0.2-0.7
			c0-0.9-0.1-1.7-0.1-2.6c-0.1-1.1,0-2.2,0.1-3.3c0.1-1.5,0.3-3,0.5-4.5c0.1-1,0.4-2,0.5-3.1C110.3,87.9,110.7,87.9,111.2,87.9z"/>
		<path class="st3" d="M123.8,72.7c-0.2,0-0.4,0-0.6,0c0.3-2.5,0.4-5,0.4-7.6c0-0.7-0.3-1.3-0.8-1.7c-3.6-2.7-6.1-6.2-8.4-10
			c-0.1-0.2-0.2-0.3-0.1-0.5s0.3-0.1,0.5,0c1.3,0.4,2.5,1,3.6,1.8c2.3,1.7,3.7,4,4.7,6.6c0.1,0.2,0.1,0.4,0.3,0.6c0-0.2,0-0.3,0-0.4
			c-0.3-3-0.9-5.9-1.7-8.8c-0.1-0.5-0.5-0.8-1-1.1s-1.1-0.5-1.6-0.8c-3.3-1.7-5.9-4.1-8.5-6.7c-0.1-0.1-0.3-0.2-0.2-0.5
			c0.1-0.2,0.3-0.1,0.4-0.1c0.8,0.1,1.7,0.2,2.5,0.5c3.1,1,5.3,3,7.1,5.6c0.1,0.2,0.2,0.4,0.4,0.5c0-0.1,0-0.2,0-0.2
			c-1.1-2.9-2.4-5.7-4-8.4c-0.2-0.3-0.4-0.4-0.6-0.5c-2.1-0.4-4.1-1-6-2c-1.2-0.7-2.3-1.3-3.5-2c-0.3-0.3-0.8-0.5-1.1-0.8
			c-0.1-0.1-0.2-0.2-0.2-0.3c0-0.2,0.2-0.2,0.3-0.2c0.3,0,0.6,0,0.9,0c1.2-0.1,2.4,0.2,3.6,0.5c0.8,0.4,1.7,0.8,2.4,1.2
			c1,0.6,1.9,1.4,2.9,2.1l0.1,0.1c0.1-0.1,0-0.1,0-0.1c-1.1-1.7-2.2-3.4-3.9-4.5c-0.5-0.3-0.9-0.7-1.4-1c-1.2-1-2.4-1.9-3.5-2.9
			c-0.2-0.2-0.3-0.4-0.5-0.6c-1.2-1-2.3-2.2-3.4-3.3c-0.4-0.4-0.7-0.8-1.1-1.2c-0.1-0.1-0.2-0.2-0.1-0.3c0.1-0.2,0.2-0.1,0.3-0.1
			c0.1,0,0.2,0.1,0.3,0.1c1.6,0.5,3,1.3,4.4,2.2c1.3,0.9,2.5,1.9,3.6,3.1c1.1,1.3,2,2.8,2.9,4.3c0.8,1.4,2,2.6,3,4.1
			c0-0.5-0.2-0.7-0.3-1c-0.9-2.5-1.8-5.1-2.2-7.7c-0.1-0.8-0.2-1.7-0.2-2.6c0-0.1,0-0.3,0.1-0.4c0.2-0.1,0.3,0.1,0.4,0.2
			c1.9,2.6,3.3,5.3,3.7,8.5c0.1,1.3,0,2.6-0.3,3.9c-0.1,0.4-0.1,0.7,0.1,1c1.6,2.6,2.9,5.4,4,8.2c0,0.1,0,0.3,0.2,0.4
			c-0.1-1-0.2-2.1-0.3-3.1c-0.3-3.4-0.3-6.9,0.4-10.3c0-0.2,0-0.4,0.2-0.4s0.3,0.2,0.4,0.3c1.1,2.7,1.9,5.4,1.9,8.3
			c0,2.1-0.5,4-1.5,5.8c-0.4,0.7-0.5,1.4-0.2,2.2c0.8,2.8,1.3,5.8,1.6,8.7c0,0.1,0,0.2,0.1,0.4c0.3-1.7,0.6-3.3,0.8-4.9
			c0.6-3.1,1.4-6,2.8-8.8c0-0.1,0.1-0.2,0.1-0.3c0.1-0.1,0.1-0.3,0.4-0.3c0.2,0,0.2,0.2,0.2,0.4c0.1,0.6,0.2,1.2,0.2,1.8
			c0.2,3.1,0.1,6.1-1.1,9.1c-0.6,1.5-1.4,2.8-2.6,4c-0.6,0.6-0.8,1.2-0.8,2C124.2,67.6,124.1,70.1,123.8,72.7z M120.9,50.5
			L120.9,50.5L120.9,50.5L120.9,50.5z"/>
		<path class="st3" d="M12.4,72.6c-0.2,0-0.4,0.1-0.5,0c-0.2-2.5-0.4-5.1-0.3-7.6c0-0.6-0.2-1-0.6-1.4c-2.8-2.9-3.9-6.4-4-10.3
			c0-1.5,0-3.1,0.3-4.6c0-0.2,0-0.5,0.3-0.5c0.2,0,0.3,0.2,0.4,0.4c1.6,3.2,2.5,6.6,3.1,10.1c0.2,1.2,0.4,2.4,0.6,3.8
			c0.2-1.2,0.3-2.3,0.5-3.4c0.3-2,0.7-4,1.3-5.9c0.2-0.6,0.2-1.1-0.1-1.7c-1.9-3.4-2-7-1.1-10.7c0.3-1.3,0.7-2.6,1.3-3.8
			c0.1-0.2,0.1-0.4,0.4-0.4c0.2,0,0.2,0.3,0.3,0.4c0.6,3,0.7,5.9,0.5,9c-0.1,1.4-0.2,2.9-0.4,4.4c0.2-0.1,0.2-0.2,0.2-0.3
			c1.1-2.9,2.3-5.6,3.9-8.2c0.2-0.3,0.3-0.5,0.2-0.8c-1.2-4.4,0.3-8.2,2.7-11.8c0.2-0.3,0.4-0.5,0.6-0.8c0.1-0.1,0.2-0.3,0.4-0.2
			c0.1,0.1,0.2,0.2,0.1,0.4c-0.1,1.1-0.1,2.2-0.3,3.2c-0.5,2.6-1.3,5-2.2,7.4c0,0.1,0,0.2-0.1,0.3s-0.1,0.1,0,0.2l0.1-0.1
			c1.5-2,3-4,4.2-6.2c0.4-0.7,1-1.3,1.5-2c1.1-1.1,2.3-2.2,3.6-3.1c0.1-0.1,0.1-0.2,0.2-0.2c0.3-0.1,0.5-0.2,0.7-0.3
			c1.2-0.7,2.4-1.3,3.7-1.7c0.2,0,0.3-0.2,0.4,0c0.1,0.2-0.1,0.3-0.2,0.4c-0.2,0.2-0.5,0.5-0.7,0.7c-1.3,1.4-2.7,2.8-4,4.1
			c-1.2,1.1-2.5,2.1-3.8,3.1c-2.2,1.4-3.9,3.2-5.2,5.4c0.2,0.1,0.3-0.1,0.5-0.2c0.7-0.6,1.5-1.2,2.4-1.7c0.8-0.5,1.6-0.8,2.4-1.2
			c1.2-0.3,2.5-0.6,3.8-0.5c0.2,0,0.4,0,0.6,0s0.3,0,0.4,0.2c0,0.2-0.1,0.2-0.2,0.3c-0.3,0.2-0.5,0.4-0.7,0.5
			c-1.3,0.7-2.6,1.5-3.8,2.2c-1.6,0.7-3.1,1.5-4.8,1.7c-1.2,0.2-1.9,0.7-2.5,1.8c-1.3,2.4-2.5,4.9-3.4,7.5c0.1,0,0.1,0,0.1,0
			c0.1-0.1,0.2-0.2,0.2-0.3c0.9-1.3,1.9-2.5,3.1-3.5c1.9-1.6,4-2.5,6.5-2.7c0.2,0,0.4-0.1,0.5,0.1c0.1,0.2-0.1,0.3-0.2,0.4
			c-3,3-6.1,5.7-10,7.4c-0.6,0.3-1,0.7-1.2,1.4c-0.6,2.1-1.1,4.3-1.4,6.5c-0.1,0.8-0.3,1.6-0.2,2.5c0.4-1,0.8-1.9,1.2-2.8
			c1.6-3.1,3.9-5.3,7.3-6.3c0.2-0.1,0.4-0.2,0.5,0s0,0.3-0.1,0.5c-2.3,3.7-4.8,7.3-8.3,10c-0.6,0.5-0.9,1.1-0.9,1.8
			C12,67.9,12.2,70.3,12.4,72.6z"/>
		<path class="st2" d="M128.3,72.6c-1.3,0.1-2.5,0.1-3.8,0c1.8-4.3,4-8.5,7-12.1c0.1-0.2,0.3-0.5,0.5-0.4s0.2,0.3,0.1,0.5
			c-0.3,3.3-0.9,6.5-2.4,9.4C129.4,71,128.9,71.9,128.3,72.6z"/>
		<path class="st2" d="M11,72.6c-1.3,0.1-2.6,0.1-3.8,0c-2.3-3.5-3.3-7.3-3.6-11.4c0-0.1,0-0.2,0-0.3s0-0.3,0.1-0.3
			c0.2-0.1,0.3,0,0.4,0.2c0.5,0.6,1,1.3,1.5,1.9C7.8,65.7,9.4,69.1,11,72.6z"/>
		<path class="st4" d="M76.8,117.3c-0.9,1.4-1.7,2.9-2.5,4.3c-0.6,0.9-1,1.9-1.7,2.7c-1.1-1.8-2.1-3.7-3.2-5.5
			c0.5-0.9,1-1.7,1.4-2.6c0.1-0.1,0.1-0.1,0.2-0.2c1.9,0,3.9,0,5.8,0c0.4,0,0.6,0.1,0.3,0.5C77,116.8,76.8,117,76.8,117.3z"/>
		<path class="st5" d="M69.4,118.9c1.1,1.8,2.1,3.7,3.2,5.5c-0.1,0.1-0.2,0.1-0.3,0.1c-3,0-5.9,0-8.9,0c-0.1,0-0.2,0-0.3-0.1
			c1.1-1.8,2.1-3.7,3.2-5.5C67.3,118.9,68.4,118.9,69.4,118.9z"/>
		<path class="st6" d="M66.3,118.9c-1.1,1.8-2.1,3.7-3.2,5.5c-0.7-0.8-1.1-1.8-1.6-2.7c-0.8-1.3-1.5-2.6-2.2-3.8
			c-0.1-0.2-0.2-0.3-0.3-0.5c-0.1-0.5-0.5-0.8-0.6-1.2c2.1,0,4.2,0,6.4,0C65.2,117,65.7,117.9,66.3,118.9z"/>
		<path class="st0" d="M76.8,117.3c0-0.3,0.2-0.5,0.4-0.8c0.3-0.4,0.1-0.5-0.3-0.5c-1.9,0-3.9,0-5.8,0c0.2-0.2,0.5-0.3,0.8-0.4
			c4-1.8,7.9-3.6,11.9-5.4c0.8-0.4,1.6-0.8,2.4-1c-1.4,1.7-2.8,3.3-4.1,5.1c-0.4,0.6-1,0.8-1.7,0.8c-0.2,0-0.4,0-0.5,0.1
			s-0.3,0.1-0.3,0.3c0,0.2,0.2,0.2,0.3,0.2C78.9,116.4,77.9,116.9,76.8,117.3z"/>
		<path class="st0" d="M58.3,116.1c0.1,0.5,0.5,0.8,0.6,1.2c-1-0.3-1.9-0.9-2.9-1.2c0-0.4-0.4-0.5-0.7-0.5c-1.3,0.1-1.9-0.8-2.5-1.6
			c-1.1-1.5-2.2-2.8-3.4-4.2c-0.2-0.3-0.5-0.6-0.7-0.8c0.2-0.2,0.4,0,0.6,0.1c2.8,1.3,5.7,2.6,8.5,3.8c0.6,0.3,1.1,0.6,1.8,0.7
			c-0.1,0.2-0.2,0.4-0.3,0.5C59.1,114.8,58.6,115.4,58.3,116.1z"/>
		<path class="st7" d="M29.3,37.4c0.2-0.2,0.5-0.4,0.7-0.5c0.1-0.1,0.3-0.2,0.2-0.3c0-0.2-0.2-0.2-0.4-0.2c-0.2,0-0.4,0-0.6,0
			c0-1.5,0-3,0-4.5c0-0.1,0-0.3-0.1-0.4c1.4-1.3,2.8-2.6,4-4.1c0.2-0.2,0.5-0.5,0.7-0.7c0.1-0.1,0.3-0.2,0.2-0.4
			c-0.1-0.2-0.3-0.1-0.4,0c-1.3,0.4-2.5,1-3.7,1.7c-0.2,0.1-0.4,0.3-0.7,0.3c0-4.2,0-8.5,0-12.7c0-0.4,0.1-0.5,0.5-0.5
			c0.1,0,0.2,0,0.3,0c25.2,0,50.4,0,75.6,0c0.9,0,0.8-0.1,0.8,0.8c0,4.1,0,8.2,0,12.2c-1.4-0.9-2.8-1.6-4.4-2.2
			c-0.1,0-0.2-0.1-0.3-0.1c-0.1,0-0.3-0.1-0.3,0.1c0,0.1,0,0.2,0.1,0.3c0.4,0.4,0.7,0.8,1.1,1.2c1.1,1.1,2.2,2.3,3.4,3.3
			c0.2,0.2,0.3,0.4,0.5,0.6c-0.1,0.1-0.1,0.3-0.1,0.4c0,1.4,0,2.9,0,4.3c-0.3,0-0.6,0-0.9,0c-0.2,0-0.3,0.1-0.3,0.2
			c0,0.1,0.1,0.2,0.2,0.3c0.4,0.3,0.8,0.4,1.1,0.8c-0.2,0.2-0.1,0.4-0.1,0.6c0,7.5,0,15.1,0,22.6c-0.2,0-0.4,0-0.7,0
			c-25.3,0-50.6,0-75.9,0c-0.2,0-0.4,0-0.7,0C29.3,52.8,29.3,45.1,29.3,37.4z"/>
		<path class="st8" d="M29.3,60.5c0.2,0,0.4,0,0.7,0c25.3,0,50.6,0,75.9,0c0.2,0,0.4,0,0.7,0c1.2,0,2.4,0,3.6,0c2.2,0,4.4,0,6.6,0
			c0.4,0,0.5,0.1,0.5,0.5c0,0.8,0,1.6,0,2.4c0,1.7,0,3.4,0,5.1c0,1.4,0,2.8,0,4.2c0,4.8,0,9.7,0,14.5c0,0.5-0.1,0.7-0.7,0.7
			c-1.8,0-3.6,0-5.4,0c-0.5,0-0.9,0-1.4,0c-1.1,0-2.1,0-3.2,0c-0.2,0-0.4,0-0.7,0c-25.3,0-50.6,0-75.9,0c-0.2,0-0.4,0-0.7,0
			c-1.2,0-2.3,0-3.5,0c-0.4,0-0.9,0-1.3,0c-1.7,0-3.4,0-5.1,0c-0.6,0-0.7-0.2-0.7-0.7c0-4.6,0-9.2,0-13.8c0-0.2,0-0.5,0-0.7
			c0-1.5,0-3.1,0-4.6s0-3.1,0-4.6c0-0.8,0-1.6,0-2.4c0-0.5,0.1-0.6,0.6-0.6c2,0,4.1,0,6.1,0C26.8,60.5,28.1,60.5,29.3,60.5z"/>
		<path class="st2" d="M13.3,72.6c0.5-2.6,1.4-4.9,3.1-7c0.7-0.8,1.5-1.6,2.4-2.2c0,1.5,0,3.1,0,4.6c-0.7,1.5-1.4,3.1-2.2,4.6
			C15.5,72.7,14.4,72.7,13.3,72.6z"/>
		<path class="st2" d="M117.2,63.4c2.8,2.1,4.3,4.9,5,8.3c0.1,0.3,0.1,0.7,0.2,1c-1.1,0.1-2.1,0.1-3.2,0c-0.8-1.3-1.4-2.8-2.1-4.2
			C117.2,66.8,117.2,65.1,117.2,63.4z"/>
		<path class="st9" d="M29.3,87.9c0.2,0,0.4,0,0.7,0c25.3,0,50.6,0,75.9,0c0.2,0,0.4,0,0.7,0c0,3.9,0,7.7,0,11.6
			c0,0.2,0.1,0.5-0.2,0.6c-0.7,0.4-1.5,0.8-2.2,1c0.1-0.8,0.3-1.6,0.4-2.5c0.2-1.5,0-3-0.4-4.4c0-0.1-0.1-0.3-0.2-0.3
			c-0.2,0-0.3,0.1-0.4,0.3c-1.7,3-3.4,6-4.8,9.2c-0.1,0.1-0.2,0.3-0.2,0.4c-1.4,0.6-2.8,1.2-4.2,1.9c0.2-0.9,0.6-1.8,0.7-2.7
			c0.1-0.4,0.1-0.8,0.2-1.2c0-0.2,0-0.4-0.2-0.5s-0.3,0-0.5,0.1c-0.8,0.8-1.7,1.5-2.5,2.3c-1.6,1.5-3.2,3.1-4.8,4.6
			c-0.4,0.3-0.6,0.8-1,1.1l-0.1,0.1l0,0c-0.9,0.2-1.6,0.6-2.4,1c-4,1.8-8,3.6-11.9,5.4c-0.3,0.1-0.6,0.2-0.8,0.4
			c-0.1,0.1-0.1,0.1-0.2,0.2c-0.2-0.2-0.4,0-0.5,0c-0.7,0.3-1.4,0.6-2.1,0.9c-0.2,0.1-0.3,0.1-0.5,0c-1-0.5-2-0.8-3-1.4
			c0.5-0.9,1-1.7,1.4-2.6c0.8,0,1.7,0,2.5,0c0.5,0,0.8-0.2,1-0.6c0.8-1.5,1.7-2.9,2.5-4.4c0.1-0.1,0.3-0.3,0.2-0.4
			c-0.1-0.2-0.3-0.1-0.5-0.1c-2.8,0-5.6,0-8.4,0c-0.2,0-0.4-0.1-0.5,0.1c-0.3,0-0.3,0.3-0.4,0.4c-1,1.7-2,3.5-3.1,5.2
			c-0.7-0.1-1.2-0.4-1.8-0.7c-2.8-1.3-5.7-2.6-8.5-3.8c-0.2-0.1-0.4-0.3-0.6-0.1c-0.3-0.2-0.4-0.5-0.7-0.8c-1.4-1.4-2.8-2.7-4.2-4.1
			c-0.9-0.8-1.8-1.6-2.7-2.4c-0.2-0.2-0.3-0.4-0.6-0.2c-0.3,0.1-0.2,0.4-0.2,0.6c0.1,1,0.3,1.9,0.6,2.8c0,0.1,0,0.3,0.1,0.4
			c-1.3-0.6-2.5-1.2-3.8-1.7c-0.1-0.1-0.2-0.2-0.4,0c-1.3-3-2.9-5.8-4.5-8.7c-0.2-0.3-0.3-0.8-0.7-0.7c-0.3,0-0.3,0.5-0.3,0.8
			c-0.4,1.8-0.4,3.6-0.1,5.3c0,0.2,0.1,0.4,0.1,0.6c-0.5-0.2-1-0.5-1.6-0.7c-0.4-0.2-0.5-0.4-0.5-0.9C29.3,95.6,29.3,91.7,29.3,87.9
			z"/>
		<path class="st0" d="M29.3,87.9c0,3.8,0,7.7,0,11.5c0,0.4,0.1,0.7,0.5,0.9c0.5,0.2,1,0.4,1.6,0.7c0.5,1.8,1.3,3.4,2.2,5
			c-1-0.5-2.1-0.9-3.1-1.4c-0.7-0.3-1.4-0.8-2.2-0.9l0,0l-0.1-0.1c-0.3-0.2-0.6-0.5-0.8-0.7c-0.3-0.3-0.5-0.6-0.5-1.1
			c0-1,0.1-1.9,0.1-2.8c0-3.4-0.3-6.8-1-10.1c-0.1-0.3-0.1-0.6-0.1-0.9C27,87.9,28.2,87.9,29.3,87.9z"/>
		<path class="st0" d="M44.8,111c-0.9-0.3-1.7-0.7-2.6-1.1c-1.2-0.5-2.3-1.1-3.5-1.5c-0.6-1.6-1.2-3.1-1.8-4.7c0.1-0.2,0.3,0,0.4,0
			c1.3,0.6,2.5,1.2,3.8,1.7c0.6,1.2,1.1,2.3,1.8,3.4C43.5,109.5,44.2,110.2,44.8,111z"/>
		<path class="st10" d="M24.5,100.9l0.1,0.1C24.6,101.1,24.5,101,24.5,100.9L24.5,100.9z"/>
		<path class="st10" d="M25.2,100.4l0.1,0.1l0,0C25.2,100.5,25.1,100.5,25.2,100.4C25.1,100.4,25.2,100.4,25.2,100.4z"/>
		<path class="st10" d="M28.2,103.6l0.1,0.1C28.3,103.6,28.2,103.6,28.2,103.6z"/>
		<path class="st10" d="M37.3,110L37.3,110L37.3,110z"/>
		<path class="st0" d="M44.9,111L44.9,111C44.9,111,44.9,111,44.9,111z"/>
		<path class="st0" d="M104.2,101c0.8-0.2,1.5-0.6,2.2-1c0.3-0.1,0.2-0.4,0.2-0.6c0-3.9,0-7.7,0-11.6c1.1,0,2.1,0,3.2,0
			c-0.1,1-0.4,2-0.5,3.1c-0.2,1.5-0.4,3-0.5,4.5c-0.1,1.1-0.1,2.2-0.1,3.3c0,0.9,0.1,1.7,0.1,2.6c0,0.3,0,0.5-0.2,0.7
			c-0.6,0.6-1.1,1.3-1.9,1.8l-0.1,0.1l0,0c-0.4,0-0.8,0.3-1.2,0.5c-1.2,0.5-2.3,1.1-3.5,1.5c0-0.4,0.3-0.6,0.4-0.9
			c0.7-1.1,1.3-2.3,1.6-3.5C104,101.4,104.1,101.2,104.2,101z"/>
		<path class="st0" d="M94.4,105.5c1.4-0.6,2.8-1.2,4.2-1.9c-0.4,1.2-0.8,2.3-1.3,3.5c-0.1,0.4-0.3,0.7-0.4,1.1
			c-1.1,0.5-2.2,1-3.2,1.4c-1.2,0.5-2.3,1.1-3.5,1.5c0.1-0.3,0.3-0.4,0.4-0.5c1.5-1.4,2.7-3,3.6-4.8
			C94.2,105.8,94.3,105.7,94.4,105.5z"/>
		<path class="st10" d="M111.1,100.6c0.1-0.1,0.1-0.1,0.2-0.2l0.1,0.1C111.3,100.6,111.2,100.7,111.1,100.6L111.1,100.6z"/>
		<path class="st10" d="M110.6,100.1C110.6,100.2,110.6,100.3,110.6,100.1C110.4,100.2,110.5,100.1,110.6,100.1
			C110.5,100.1,110.6,100.1,110.6,100.1z"/>
		<path class="st0" d="M101.9,106c0,0.1-0.1,0.1-0.2,0.1C101.7,106,101.8,106,101.9,106z"/>
		<path class="st10" d="M106.6,104L106.6,104L106.6,104z"/>
		<path class="st10" d="M111.1,100.6C111.1,100.6,111.1,100.7,111.1,100.6C111,100.6,111.1,100.6,111.1,100.6L111.1,100.6z"/>
		<path class="st0" d="M86.3,109.3L86.3,109.3C86.3,109.2,86.3,109.3,86.3,109.3z"/>
		<path class="st10" d="M98.4,109.6C98.4,109.6,98.4,109.7,98.4,109.6C98.3,109.6,98.4,109.6,98.4,109.6
			C98.5,109.6,98.4,109.6,98.4,109.6z"/>
		<path class="st0" d="M90.1,111.3L90.1,111.3C90,111.3,90.1,111.3,90.1,111.3z"/>
		<path class="st0" d="M89.9,111.4L89.9,111.4L89.9,111.4z"/>
		<path class="st0" d="M110.2,39.3c0,7.1,0,14.1,0,21.2c-1.2,0-2.4,0-3.6,0c0-7.5,0-15.1,0-22.6c0-0.2-0.1-0.4,0.1-0.6
			C107.9,38,109,38.6,110.2,39.3z"/>
		<path class="st0" d="M106.6,36c0-1.4,0-2.9,0-4.3c0-0.1,0-0.3,0.1-0.4c1.2,1,2.4,1.9,3.5,2.9c0,0.8,0,1.5-0.1,2.3
			C109,36.2,107.8,35.9,106.6,36z"/>
		<path class="st10" d="M115.5,39.7C115.6,39.7,115.6,39.8,115.5,39.7C115.5,39.8,115.5,39.8,115.5,39.7
			C115.5,39.8,115.5,39.7,115.5,39.7z"/>
		<polygon class="st11" points="120.9,50.5 120.9,50.4 120.9,50.4 		"/>
		<path class="st0" d="M25.5,60.5c0-6.7,0-13.4,0-20.1c0-0.3,0-0.5,0-0.8c1.3-0.7,2.6-1.5,3.8-2.2c0,7.7,0,15.4,0,23.1
			C28.1,60.5,26.8,60.5,25.5,60.5z"/>
		<path class="st0" d="M29.2,31.4c0.1,0.1,0.1,0.3,0.1,0.4c0,1.5,0,3,0,4.5c-1.3-0.1-2.5,0.2-3.8,0.5c0-0.8-0.1-1.5-0.1-2.3
			C26.8,33.5,28,32.5,29.2,31.4z"/>
		<path class="st11" d="M19.8,39.7l-0.1,0.1C19.6,39.7,19.7,39.7,19.8,39.7C19.8,39.6,19.8,39.7,19.8,39.7z"/>
		<path class="st0" d="M64.8,116c0.9,0.6,2,0.9,3,1.4c0.2,0.1,0.3,0,0.5,0c0.7-0.3,1.4-0.6,2.1-0.9c0.2-0.1,0.3-0.3,0.5,0
			c-0.5,0.9-1,1.7-1.4,2.6c-1.1,0-2.1,0-3.2,0c-0.5-0.9-1-1.9-1.6-2.8C64.7,116,64.8,116,64.8,116z"/>
		<path class="st12" d="M64.8,116L64.8,116c-2.2,0.1-4.3,0.1-6.5,0.1c0.3-0.7,0.7-1.3,1.1-2c0.1-0.2,0.2-0.4,0.3-0.5
			c1-1.7,2-3.5,3.1-5.2c0.1-0.2,0.1-0.5,0.4-0.4c1,1.8,2.1,3.6,3.1,5.4C65.8,114.2,65.3,115.1,64.8,116z"/>
		<path class="st13" d="M68,32.4c-4,0-7.9,0-11.9,0c-1.8,0-2.9-1.1-2.9-2.9c0-2.5,0-5,0-7.5c0-1.7,1.1-2.8,2.9-2.8
			c7.9,0,15.8,0,23.7,0c1.8,0,2.9,1.1,2.9,2.9c0,2.5,0,5,0,7.5c0,1.7-1.1,2.8-2.9,2.8C75.9,32.4,72,32.4,68,32.4z M76.6,25.9
			c0-0.7-0.1-1.4-0.4-2.1c-0.4-0.7-0.9-0.9-1.7-0.9c-0.7,0-1.3,0.3-1.5,1c-0.5,1.3-0.5,2.5,0,3.8c0.3,0.7,0.9,1.1,1.7,1
			c0.8,0,1.3-0.4,1.6-1.2C76.6,27,76.6,26.4,76.6,25.9z M63.9,25.7c0,0.8,0.1,1.5,0.4,2.2c0.4,0.6,0.9,0.9,1.6,0.8
			c0.7,0,1.3-0.3,1.5-0.9c0.5-1.3,0.5-2.6,0-3.9c-0.3-0.8-1-1-1.8-1c-0.8,0.1-1.3,0.5-1.5,1.2C64,24.6,63.9,25.2,63.9,25.7z
			 M69.8,27.6c0.3-0.3,0.5-0.5,0.7-0.7c0.5-0.5,1.1-1,1.4-1.6c0.5-1.1,0.1-2.1-1.1-2.4c-0.7-0.1-1.3,0-1.9,0.3
			c-0.6,0.4-0.6,0.4-0.1,1c0.2,0.2,0.3,0.2,0.5,0c0.2-0.1,0.4-0.2,0.6-0.3c0.3-0.1,0.6-0.1,0.9,0.1c0.3,0.3,0.2,0.6,0.1,0.9
			s-0.3,0.5-0.5,0.7c-0.6,0.6-1.2,1.3-1.8,1.8c-0.3,0.3-0.2,0.6-0.2,0.9c0.1,0.3,0.4,0.1,0.6,0.1c1,0,2,0,3,0c0.5,0,0.4-0.2,0.4-0.5
			s0.1-0.5-0.4-0.5C71.2,27.7,70.6,27.6,69.8,27.6z M61,27.6c0.3-0.3,0.5-0.5,0.7-0.7c0.5-0.5,1.1-0.9,1.4-1.6
			c0.6-1.1,0.1-2.2-1-2.4c-0.7-0.1-1.3,0-2,0.3c-0.6,0.4-0.6,0.4-0.1,0.9c0.2,0.2,0.3,0.3,0.5,0.1c0.2-0.1,0.4-0.2,0.6-0.3
			c0.3-0.1,0.7-0.2,1,0.1c0.3,0.3,0.2,0.7,0,1s-0.4,0.5-0.6,0.8c-0.5,0.6-1.1,1.1-1.7,1.7c-0.3,0.3-0.2,0.6-0.2,0.9
			c0.1,0.3,0.4,0.1,0.6,0.1c1,0,2,0,3,0c0.5,0,0.4-0.3,0.4-0.5c0-0.3,0.1-0.5-0.4-0.5C62.5,27.7,61.8,27.6,61,27.6z"/>
		<path class="st14" d="M66.3,113.4c-1-1.8-2.1-3.6-3.1-5.4c0.2-0.1,0.3-0.1,0.5-0.1c2.8,0,5.6,0,8.4,0c0.2,0,0.4-0.1,0.5,0.1
			s-0.1,0.3-0.2,0.4c-0.8,1.5-1.7,2.9-2.5,4.4c-0.2,0.4-0.5,0.6-1,0.6C67.9,113.3,67.1,113.4,66.3,113.4z"/>
		<path class="st10" d="M76.6,25.9c0,0.6,0,1.1-0.2,1.7c-0.3,0.8-0.8,1.1-1.6,1.2c-0.8,0-1.4-0.3-1.7-1c-0.5-1.3-0.5-2.5,0-3.8
			c0.3-0.7,0.8-1,1.5-1s1.3,0.2,1.7,0.9C76.6,24.4,76.6,25.1,76.6,25.9z M75.4,25.8c0-0.4,0-0.9-0.1-1.3c-0.1-0.3-0.3-0.6-0.6-0.6
			c-0.4,0-0.6,0.3-0.7,0.6c-0.2,0.9-0.2,1.8,0,2.7c0.1,0.3,0.3,0.6,0.6,0.6c0.4,0,0.5-0.2,0.7-0.6C75.4,26.7,75.4,26.3,75.4,25.8z"
			/>
		<path class="st10" d="M63.9,25.7c0-0.5,0-1.1,0.2-1.6c0.3-0.7,0.7-1.1,1.5-1.2s1.5,0.2,1.8,1c0.6,1.3,0.5,2.6,0,3.9
			c-0.3,0.7-0.9,0.9-1.5,0.9c-0.7,0-1.2-0.2-1.6-0.8C64,27.2,63.9,26.5,63.9,25.7z M65.1,25.8c0,0.5,0,1,0.1,1.4
			c0.1,0.3,0.3,0.5,0.6,0.5c0.3,0,0.5-0.2,0.6-0.5c0.3-1,0.3-1.9,0-2.9c-0.1-0.3-0.3-0.5-0.6-0.5c-0.3,0-0.5,0.2-0.6,0.5
			C65.1,24.8,65.1,25.3,65.1,25.8z"/>
		<path class="st10" d="M69.8,27.6c0.8,0,1.5,0,2.1,0c0.4,0,0.4,0.2,0.4,0.5s0.1,0.5-0.4,0.5c-1,0-2,0-3,0c-0.2,0-0.5,0.1-0.6-0.1
			c-0.1-0.3-0.1-0.6,0.2-0.9c0.6-0.6,1.2-1.2,1.8-1.8c0.2-0.2,0.4-0.4,0.5-0.7c0.1-0.3,0.2-0.7-0.1-0.9c-0.2-0.3-0.6-0.2-0.9-0.1
			c-0.2,0.1-0.4,0.2-0.6,0.3c-0.2,0.1-0.3,0.2-0.5,0c-0.5-0.5-0.5-0.6,0.1-1s1.2-0.4,1.9-0.3c1.1,0.2,1.6,1.3,1.1,2.4
			c-0.2,0.5-0.8,1-1.3,1.5C70.3,27.2,70.1,27.3,69.8,27.6z"/>
		<path class="st10" d="M61,27.6c0.8,0,1.5,0,2.1,0c0.5,0,0.4,0.2,0.4,0.5s0.1,0.5-0.4,0.5c-1,0-2,0-3,0c-0.2,0-0.5,0.1-0.6-0.1
			c-0.1-0.3-0.1-0.6,0.2-0.9c0.6-0.5,1.1-1.1,1.7-1.7c0.2-0.2,0.4-0.5,0.6-0.8c0.2-0.3,0.3-0.7,0-1s-0.6-0.3-1-0.1
			c-0.2,0.1-0.4,0.2-0.6,0.3c-0.2,0.2-0.3,0.1-0.5-0.1c-0.5-0.5-0.5-0.6,0.1-0.9c0.6-0.4,1.3-0.5,2-0.3c1.2,0.2,1.6,1.3,1,2.4
			c-0.3,0.6-0.9,1.1-1.4,1.6C61.5,27.2,61.3,27.4,61,27.6z"/>
		<path class="st8" d="M36.9,74c0,1-0.1,1.9-0.5,2.7c-0.3,0.7-0.7,1.2-1.5,1.2s-1.3-0.5-1.6-1.2c-0.8-1.8-0.8-3.7,0-5.5
			c0.3-0.7,0.7-1.2,1.5-1.2s1.2,0.5,1.6,1.1C36.8,72.2,37,73.1,36.9,74z"/>
		<path class="st13" d="M75.4,25.8c0,0.5,0,0.9-0.2,1.4c-0.1,0.3-0.3,0.6-0.7,0.6c-0.4,0-0.6-0.3-0.6-0.6c-0.2-0.9-0.2-1.8,0-2.7
			c0.1-0.3,0.3-0.6,0.7-0.6c0.4,0,0.5,0.3,0.6,0.6C75.4,24.9,75.4,25.4,75.4,25.8z"/>
		<path class="st13" d="M65.1,25.8c0-0.5,0-1,0.2-1.4c0.1-0.3,0.3-0.5,0.6-0.5c0.3,0,0.6,0.2,0.6,0.5c0.3,1,0.3,1.9,0,2.9
			c-0.1,0.3-0.3,0.5-0.6,0.5c-0.3,0-0.5-0.2-0.6-0.5C65.1,26.7,65.1,26.3,65.1,25.8z"/>
		<g class="st15">
			<path class="st16" d="M23.1,79.3c0.4,0,0.7-0.1,0.9-0.2c0.3-0.2,0.5-0.5,0.5-0.9v-8.1c0-0.4-0.2-0.7-0.5-0.9
				c-0.2-0.1-0.5-0.2-0.9-0.2v-0.4h5c2,0,3.6,0.5,4.6,1.6c1,1,1.5,2.3,1.5,4c0,1.5-0.5,2.8-1.5,3.8c-1.1,1.2-2.6,1.7-4.5,1.7h-5.2
				V79.3z M27.4,79c0.1,0.2,0.3,0.2,0.7,0.2c1,0,1.8-0.3,2.4-1s0.9-2,0.9-4c0-1.2-0.2-2.2-0.5-3c-0.5-1.3-1.5-2-2.8-2
				c-0.4,0-0.7,0.1-0.8,0.3c-0.1,0.1-0.1,0.3-0.1,0.7v8.1C27.2,78.6,27.2,78.8,27.4,79z"/>
			<path class="st16" d="M35.1,79.3c0.5,0,0.8-0.1,1-0.2c0.3-0.2,0.5-0.5,0.5-1v-8c0-0.5-0.2-0.8-0.5-1c-0.2-0.1-0.5-0.2-1-0.2v-0.4
				h5.8V69c-0.5,0-0.9,0.1-1.1,0.2c-0.3,0.2-0.5,0.5-0.5,1v8c0,0.5,0.1,0.8,0.4,0.9c0.3,0.2,0.6,0.2,1.2,0.2v0.4h-5.8V79.3z"/>
			<path class="st16" d="M47,68.6V69c-0.6,0-1,0.1-1.1,0.1c-0.2,0.1-0.3,0.2-0.3,0.5c0,0.1,0,0.2,0,0.2c0,0.1,0,0.2,0.1,0.2l2.6,6.1
				h0l2.2-5.6c0-0.1,0.1-0.2,0.1-0.4c0.1-0.2,0.1-0.4,0.1-0.5c0-0.3-0.1-0.5-0.3-0.6c-0.2-0.1-0.6-0.1-1.1-0.2v-0.4h3.5V69
				c-0.4,0-0.7,0.2-0.9,0.4s-0.4,0.5-0.6,1L47.5,80h-0.4l-4.2-9.9c-0.2-0.4-0.3-0.7-0.5-0.9c-0.2-0.2-0.5-0.3-0.8-0.3v-0.4H47z"/>
			<path class="st16" d="M53.4,79.7v-0.4c0.5,0,0.8-0.1,1-0.2c0.3-0.2,0.5-0.5,0.5-1v-8c0-0.5-0.2-0.8-0.5-1c-0.2-0.1-0.5-0.2-1-0.2
				v-0.4h9.5v3.3h-0.4c-0.2-1.1-0.6-1.8-1.1-2.2c-0.5-0.4-1.4-0.6-2.7-0.6c-0.5,0-0.8,0.1-1,0.2c-0.1,0.1-0.2,0.3-0.2,0.6v3.8
				c0.9,0,1.6-0.2,1.9-0.5c0.3-0.4,0.6-1,0.8-1.9h0.4v5.6h-0.4c-0.1-0.9-0.4-1.6-0.7-2c-0.4-0.4-1-0.6-2-0.6v4
				c0,0.3,0.1,0.6,0.3,0.7s0.5,0.2,1.1,0.2c1.1,0,1.9-0.2,2.6-0.6c0.7-0.4,1.3-1.2,1.8-2.3h0.5L63,79.7H53.4z"/>
			<path class="st16" d="M64.4,79.3c0.6,0,0.9-0.1,1.1-0.3c0.2-0.2,0.3-0.6,0.3-1.2v-7.3c0-0.6-0.1-1-0.4-1.2
				c-0.2-0.1-0.5-0.2-1.1-0.3v-0.4h5.3c1.1,0,2,0.1,2.7,0.3c1.3,0.5,2,1.3,2,2.5c0,0.9-0.3,1.6-1,2.1c-0.5,0.4-1.1,0.6-1.7,0.7
				l3.5,4.7c0.1,0.1,0.2,0.2,0.3,0.3c0.1,0,0.2,0.1,0.4,0.1v0.4h-3.4l-3.8-5.1h0v3.2c0,0.6,0.1,1,0.3,1.2c0.2,0.2,0.6,0.3,1.2,0.3
				v0.4h-5.6V79.3z M70.8,73.6c0.5-0.3,0.7-1,0.7-2c0-0.6-0.1-1.1-0.3-1.5c-0.3-0.6-0.9-0.9-1.7-0.9c-0.4,0-0.7,0.1-0.9,0.2
				c-0.1,0.1-0.2,0.3-0.2,0.5v4.2C69.6,74,70.3,73.9,70.8,73.6z"/>
			<path class="st16" d="M76.6,75.9h0.5c0.3,1.2,0.7,2.1,1.3,2.7c0.6,0.6,1.3,0.8,2,0.8c0.7,0,1.3-0.2,1.6-0.6s0.5-0.8,0.5-1.2
				c0-0.5-0.2-0.9-0.5-1.2c-0.2-0.2-0.6-0.5-1.3-0.8l-1-0.5c-1-0.5-1.8-1-2.2-1.6c-0.4-0.5-0.6-1.2-0.6-1.9c0-0.8,0.3-1.6,0.9-2.3
				c0.6-0.7,1.4-1,2.6-1c0.6,0,1.2,0.1,1.7,0.3c0.6,0.2,0.9,0.3,1,0.3c0.2,0,0.3-0.1,0.4-0.2c0.1-0.1,0.1-0.2,0.2-0.4h0.5v3.6h-0.5
				c-0.2-0.8-0.6-1.5-1.1-2.1c-0.5-0.6-1.2-0.9-2-0.9c-0.5,0-1,0.2-1.3,0.5c-0.3,0.3-0.5,0.7-0.5,1.1c0,0.5,0.1,0.9,0.4,1.2
				c0.3,0.3,0.9,0.6,2,1.2l1.2,0.6c0.5,0.3,1,0.6,1.3,0.9c0.6,0.6,0.9,1.4,0.9,2.3c0,0.8-0.3,1.6-1,2.4S81.7,80,80.3,80
				c-0.3,0-0.7,0-1-0.1s-0.7-0.2-1-0.3L78,79.5c-0.1,0-0.1,0-0.2-0.1c-0.1,0-0.1,0-0.2,0c-0.2,0-0.3,0-0.3,0.1
				c-0.1,0.1-0.1,0.2-0.2,0.4h-0.5V75.9z"/>
			<path class="st16" d="M85.4,79.3c0.5,0,0.8-0.1,1-0.2c0.3-0.2,0.5-0.5,0.5-1v-8c0-0.5-0.2-0.8-0.5-1c-0.2-0.1-0.5-0.2-1-0.2v-0.4
				h5.8V69c-0.5,0-0.9,0.1-1.1,0.2c-0.3,0.2-0.5,0.5-0.5,1v8c0,0.5,0.1,0.8,0.4,0.9c0.3,0.2,0.6,0.2,1.2,0.2v0.4h-5.8V79.3z"/>
			<path class="st16" d="M92,68.6h9.9l0,3.3h-0.5c-0.2-1.2-0.6-2-1.3-2.4c-0.4-0.2-1-0.4-1.8-0.4v8.7c0,0.6,0.1,1,0.3,1.2
				c0.2,0.2,0.7,0.3,1.3,0.3v0.4h-5.9v-0.4c0.6,0,1.1-0.1,1.3-0.3c0.2-0.2,0.3-0.6,0.3-1.2v-8.7c-0.8,0-1.4,0.1-1.9,0.4
				c-0.8,0.4-1.2,1.2-1.3,2.4H92L92,68.6z"/>
			<path class="st16" d="M108.3,68.6V69c-0.6,0-0.9,0.1-1.1,0.1s-0.2,0.2-0.2,0.3c0,0.1,0,0.2,0,0.2c0,0.1,0.1,0.2,0.2,0.5l2.2,4h0
				l1.8-2.9c0.1-0.2,0.2-0.4,0.4-0.7c0.2-0.4,0.3-0.7,0.3-0.9c0-0.3-0.1-0.5-0.3-0.6c-0.2-0.1-0.5-0.1-1-0.2v-0.4h3.6V69
				c-0.3,0-0.5,0.1-0.6,0.2c-0.2,0.1-0.4,0.3-0.5,0.5l-3.1,5.1v3c0,0.6,0.1,1,0.3,1.2s0.6,0.3,1.2,0.3v0.4h-5.7v-0.4
				c0.6,0,1-0.1,1.2-0.3c0.2-0.2,0.3-0.6,0.3-1.2v-2.4l-3-5.5c-0.2-0.4-0.4-0.6-0.7-0.8c-0.2-0.1-0.4-0.1-0.6-0.1v-0.4H108.3z"/>
		</g>
	</g>
	<g class="st15">
		<path d="M34.3,43.9c0.2,0,0.4-0.1,0.5-0.2c0.2-0.1,0.3-0.3,0.4-0.7l1.4-5.1c0-0.2,0.1-0.3,0.1-0.4c0-0.1,0-0.2,0-0.2
			c0-0.2-0.1-0.3-0.2-0.4C36.4,37,36.2,37,35.9,37v-0.3h3.1c0.8,0,1.5,0.1,2,0.4c0.5,0.3,0.7,0.7,0.7,1.3c0,0.6-0.3,1-0.9,1.4
			c-0.3,0.2-0.7,0.3-1.2,0.5c0.5,0.2,0.8,0.3,1,0.5c0.3,0.3,0.5,0.7,0.5,1.2c0,0.6-0.3,1.2-0.8,1.6c-0.5,0.5-1.4,0.7-2.6,0.7h-3.4
			V43.9z M37,43.8c0.1,0,0.2,0,0.4,0c0.7,0,1.2-0.3,1.5-1c0.2-0.4,0.3-0.8,0.3-1.2c0-0.5-0.2-0.9-0.5-1c-0.2-0.1-0.6-0.2-1.2-0.2
			l-0.7,2.8c0,0,0,0.1,0,0.2s0,0.1,0,0.2C36.8,43.7,36.9,43.8,37,43.8z M38.8,40c0.2,0,0.4-0.1,0.6-0.3c0.2-0.2,0.4-0.5,0.5-0.8
			c0.1-0.2,0.1-0.4,0.1-0.7c0-0.3-0.1-0.6-0.2-0.8c-0.1-0.2-0.4-0.3-0.8-0.3c-0.2,0-0.3,0-0.4,0.1c-0.1,0.1-0.1,0.2-0.2,0.4
			l-0.7,2.5C38.2,40,38.6,40,38.8,40z"/>
		<path d="M43.3,40.2c0.7-0.8,1.4-1.2,2.2-1.2c0.3,0,0.6,0.1,0.9,0.3c0.2,0.2,0.3,0.4,0.3,0.7c0,0.5-0.3,0.9-0.8,1.4
			c-0.5,0.4-1.2,0.7-2.1,0.8c0,0.1,0,0.2,0,0.3c0,0.1,0,0.2,0,0.2c0,0.2,0,0.4,0.1,0.5c0.1,0.2,0.3,0.4,0.7,0.4
			c0.3,0,0.5-0.1,0.8-0.4c0.1-0.1,0.3-0.4,0.5-0.6l0.3,0.2c-0.3,0.5-0.5,0.8-0.8,1c-0.4,0.4-0.9,0.5-1.4,0.5c-0.4,0-0.8-0.1-1.1-0.4
			c-0.4-0.3-0.5-0.7-0.5-1.3C42.4,41.8,42.7,41,43.3,40.2z M45.7,39.5c0-0.1-0.1-0.1-0.3-0.1c-0.3,0-0.5,0.2-0.8,0.6
			c-0.3,0.4-0.5,1-0.7,1.8c0.6-0.1,1.1-0.4,1.4-0.8s0.4-0.8,0.4-1.1C45.8,39.7,45.7,39.6,45.7,39.5z"/>
		<path d="M47.5,42.5l0.3,0c0.1,0.6,0.2,0.9,0.4,1.2c0.2,0.2,0.5,0.3,0.7,0.3c0.2,0,0.3-0.1,0.5-0.2s0.2-0.3,0.2-0.4
			c0-0.2-0.1-0.3-0.2-0.5s-0.2-0.4-0.4-0.5l-0.4-0.5c-0.2-0.2-0.3-0.4-0.5-0.7C48,40.9,48,40.7,48,40.4c0-0.4,0.1-0.7,0.4-1
			s0.7-0.4,1.1-0.4c0.2,0,0.4,0,0.6,0.1c0.2,0.1,0.4,0.1,0.4,0.1c0.1,0,0.2,0,0.2-0.1c0,0,0.1-0.1,0.1-0.2h0.3L51,40.8l-0.3,0
			c-0.1-0.5-0.2-0.8-0.4-1c-0.2-0.2-0.4-0.3-0.6-0.3c-0.2,0-0.4,0.1-0.5,0.2s-0.1,0.3-0.1,0.4c0,0.1,0,0.3,0.1,0.4
			c0.1,0.1,0.2,0.3,0.4,0.6l0.6,0.7c0.1,0.2,0.2,0.3,0.3,0.6c0.1,0.2,0.1,0.4,0.1,0.7c0,0.5-0.2,0.8-0.5,1.1
			c-0.3,0.3-0.7,0.4-1.2,0.4c-0.2,0-0.4,0-0.6-0.1c-0.2-0.1-0.4-0.1-0.4-0.1c-0.1,0-0.2,0-0.2,0.1c0,0.1-0.1,0.1-0.1,0.2h-0.3
			L47.5,42.5z"/>
		<path d="M51.7,43.3c0-0.1,0.1-0.3,0.1-0.6l0.8-3.1h-0.6v-0.4c0.4-0.2,0.7-0.3,0.9-0.5c0.5-0.3,0.8-0.7,1.1-1.2h0.4l-0.4,1.6H55
			v0.5H54l-0.7,2.6c-0.1,0.2-0.1,0.4-0.2,0.6c-0.1,0.3-0.1,0.4-0.1,0.5c0,0.1,0,0.1,0.1,0.1c0,0,0.1,0,0.1,0c0.1,0,0.2-0.1,0.4-0.3
			c0.2-0.2,0.3-0.4,0.5-0.6l0.2,0.2c-0.3,0.5-0.6,0.9-0.8,1.1c-0.3,0.3-0.7,0.5-1.1,0.5c-0.2,0-0.4-0.1-0.6-0.2
			c-0.1-0.1-0.2-0.3-0.2-0.6C51.7,43.5,51.7,43.4,51.7,43.3z"/>
		<path d="M63.4,36.7c0.4,0.1,0.7,0.2,0.7,0.2c0.1,0,0.2,0,0.3-0.1c0.1-0.1,0.1-0.1,0.2-0.2H65l-0.6,2.6L64,39.1c0-0.2,0-0.3,0-0.3
			s0-0.1,0-0.1c0-0.6-0.1-1-0.4-1.3c-0.3-0.3-0.6-0.4-1.1-0.4c-0.9,0-1.6,0.6-2.3,1.7c-0.6,1-0.9,2.1-0.9,3.2c0,0.8,0.2,1.3,0.5,1.6
			c0.4,0.3,0.7,0.4,1.2,0.4c0.6,0,1.1-0.2,1.6-0.5c0.3-0.2,0.5-0.5,0.8-0.8l0.3,0.2c-0.4,0.6-0.9,1-1.4,1.3
			c-0.5,0.3-1.1,0.4-1.6,0.4c-0.9,0-1.6-0.3-2.2-0.8c-0.6-0.5-0.9-1.2-0.9-2.1c0-1.4,0.5-2.5,1.4-3.5c0.9-1,2-1.5,3.2-1.5
			C62.6,36.5,63,36.6,63.4,36.7z"/>
		<path d="M69.5,39.3c0.5,0.3,0.8,0.8,0.8,1.5c0,0.8-0.3,1.6-0.9,2.3c-0.7,0.8-1.4,1.2-2.3,1.2c-0.4,0-0.9-0.1-1.2-0.4
			c-0.4-0.3-0.6-0.7-0.6-1.4c0-0.8,0.3-1.6,0.9-2.3c0.7-0.8,1.4-1.2,2.3-1.2C68.9,39,69.2,39.1,69.5,39.3z M66.7,43.7
			c0.1,0.2,0.3,0.3,0.5,0.3c0.5,0,0.9-0.5,1.3-1.6c0.3-0.9,0.5-1.7,0.5-2.4c0-0.2,0-0.3-0.1-0.4c-0.1-0.2-0.2-0.3-0.5-0.3
			c-0.5,0-1,0.6-1.4,1.7c-0.3,0.9-0.4,1.6-0.4,2.2C66.6,43.5,66.6,43.6,66.7,43.7z"/>
		<path d="M70.8,44.2l1-3.6c0.1-0.2,0.1-0.4,0.1-0.4s0-0.2,0-0.2c0-0.1,0-0.2-0.1-0.2s-0.2-0.1-0.5-0.1v-0.3c0.5,0,0.9-0.1,1.2-0.1
			c0.2,0,0.6-0.1,1.1-0.2l-0.7,2.1l0,0c0.5-0.7,0.9-1.2,1.1-1.5c0.4-0.4,0.8-0.6,1.3-0.6c0.2,0,0.4,0.1,0.5,0.2s0.2,0.3,0.2,0.5
			c0,0.2,0,0.4-0.1,0.6c0,0.1-0.1,0.3-0.1,0.5c0.5-0.6,0.9-1,1.1-1.2c0.5-0.4,1-0.6,1.5-0.6c0.3,0,0.6,0.1,0.8,0.2
			c0.2,0.2,0.3,0.4,0.3,0.7c0,0.2,0,0.4-0.1,0.7c0,0,0,0.2-0.1,0.4l-0.6,1.8c0,0.1-0.1,0.2-0.1,0.3c0,0.1-0.1,0.2-0.1,0.2
			c0,0,0,0.1,0.1,0.1s0.1,0,0.1,0c0.1,0,0.3-0.1,0.4-0.4c0.1-0.1,0.2-0.3,0.3-0.5l0.2,0.2c-0.3,0.5-0.5,0.8-0.7,1
			c-0.3,0.3-0.7,0.5-1.1,0.5c-0.2,0-0.4-0.1-0.5-0.2c-0.2-0.1-0.2-0.3-0.2-0.5c0-0.2,0-0.5,0.1-0.8c0.1-0.2,0.1-0.5,0.2-0.7l0.5-1.7
			c0,0,0-0.1,0-0.1c0,0,0-0.1,0-0.1c0-0.1,0-0.2-0.1-0.2c-0.1-0.1-0.1-0.1-0.2-0.1c-0.3,0-0.6,0.2-1,0.6c-0.4,0.4-0.7,0.8-0.9,1.2
			c-0.1,0.2-0.2,0.3-0.3,0.6c-0.1,0.2-0.3,0.9-0.7,2h-1.4l1-3.7c0-0.1,0.1-0.2,0.1-0.2s0-0.1,0-0.2c0-0.1,0-0.2-0.1-0.2
			c0,0-0.1,0-0.1,0c-0.2,0-0.4,0.2-0.7,0.5c-0.3,0.3-0.5,0.8-0.8,1.3c-0.1,0.3-0.3,0.7-0.4,1.2c-0.1,0.3-0.2,0.8-0.4,1.4H70.8z"/>
		<path d="M78.5,46.3c0.3,0,0.4-0.1,0.5-0.1c0.1-0.1,0.2-0.3,0.3-0.6l1.3-4.9c0-0.1,0-0.2,0.1-0.3c0-0.2,0.1-0.3,0.1-0.3
			c0-0.1,0-0.2-0.1-0.3c-0.1,0-0.3-0.1-0.5-0.1v-0.3l0.5-0.1c0.1,0,0.4,0,0.7-0.1c0.3,0,0.6-0.1,0.9-0.2l-0.4,1.2l0,0
			c0.2-0.3,0.5-0.6,0.7-0.7c0.3-0.3,0.7-0.4,1.1-0.4c0.3,0,0.6,0.1,0.9,0.3s0.4,0.6,0.4,1.1c0,0.9-0.3,1.8-1,2.6
			c-0.7,0.9-1.4,1.3-2.1,1.3c-0.2,0-0.3,0-0.4-0.1c-0.1,0-0.2-0.1-0.4-0.2l-0.2,0.7c-0.1,0.2-0.1,0.4-0.2,0.6c0,0.2-0.1,0.3-0.1,0.4
			c0,0.2,0,0.2,0.1,0.3c0.1,0,0.3,0.1,0.6,0.1v0.3h-2.8V46.3z M81.2,43.9c0.1,0.1,0.2,0.1,0.3,0.1c0.5,0,0.9-0.5,1.3-1.5
			c0.4-0.8,0.5-1.5,0.5-2c0-0.2,0-0.3-0.1-0.4c-0.1-0.2-0.2-0.3-0.4-0.3c-0.2,0-0.4,0.1-0.6,0.3c-0.2,0.2-0.4,0.5-0.6,0.9
			c-0.1,0.3-0.3,0.8-0.4,1.4c-0.2,0.6-0.3,1-0.3,1.1C81.1,43.7,81.1,43.8,81.2,43.9z"/>
		<path d="M86.1,40.4c0.7-0.9,1.4-1.3,2.1-1.3c0.3,0,0.5,0.1,0.6,0.3c0.1,0.1,0.2,0.3,0.2,0.5l0.2-0.6l1.2-0.1l-0.7,2.6
			c-0.1,0.4-0.2,0.7-0.2,0.9c-0.1,0.4-0.1,0.6-0.1,0.8c0,0.1,0,0.1,0,0.1c0,0,0.1,0,0.1,0c0.1,0,0.1,0,0.2-0.1s0.1-0.1,0.2-0.2
			c0,0,0.1-0.1,0.2-0.2c0.1-0.1,0.2-0.2,0.2-0.3l0.2,0.2c-0.3,0.4-0.6,0.8-0.9,1.1c-0.3,0.3-0.6,0.4-0.8,0.4c-0.2,0-0.3-0.1-0.5-0.2
			c-0.2-0.1-0.2-0.3-0.2-0.6c0-0.1,0-0.3,0.1-0.7c0,0,0,0,0,0.1c0,0.1-0.1,0.2-0.2,0.3c-0.2,0.3-0.4,0.6-0.7,0.8
			c-0.3,0.2-0.6,0.3-0.9,0.3c-0.3,0-0.6-0.1-0.8-0.3c-0.3-0.2-0.4-0.6-0.4-1.1C85.1,42.1,85.5,41.2,86.1,40.4z M88.7,39.8
			c-0.1-0.2-0.2-0.3-0.4-0.3c-0.4,0-0.8,0.5-1.3,1.4c-0.4,0.9-0.6,1.5-0.6,2c0,0.2,0,0.3,0.1,0.5c0.1,0.1,0.2,0.2,0.4,0.2
			c0.4,0,0.8-0.5,1.3-1.5c0.3-0.8,0.5-1.5,0.5-2C88.8,40,88.8,39.9,88.7,39.8z"/>
		<path d="M90.9,44.2l1-3.6c0-0.1,0.1-0.3,0.1-0.3c0-0.2,0.1-0.3,0.1-0.3c0-0.1,0-0.2-0.1-0.3c-0.1,0-0.2-0.1-0.5-0.1v-0.3
			c0.5,0,0.8-0.1,1.1-0.1c0.3,0,0.6-0.1,1.2-0.2L93,41.1l0,0c0,0,0.1-0.1,0.3-0.5c0.2-0.4,0.5-0.6,0.7-0.9c0.2-0.2,0.4-0.4,0.7-0.5
			c0.2-0.1,0.5-0.2,0.7-0.2c0.2,0,0.4,0.1,0.6,0.2c0.2,0.1,0.3,0.4,0.3,0.7c0,0.3-0.2,0.9-0.5,1.9c-0.3,1-0.5,1.5-0.5,1.6
			c0,0.1,0,0.1,0.1,0.2c0,0,0.1,0.1,0.1,0.1c0.1,0,0.2-0.1,0.4-0.4c0.1-0.1,0.2-0.3,0.3-0.5l0.2,0.2c-0.3,0.5-0.5,0.8-0.7,1
			c-0.3,0.3-0.7,0.5-1.1,0.5c-0.2,0-0.4-0.1-0.5-0.2c-0.2-0.1-0.2-0.3-0.2-0.6c0-0.2,0-0.4,0.1-0.7c0.1-0.3,0.2-0.6,0.3-1l0.5-1.7
			c0,0,0-0.1,0-0.1c0,0,0-0.1,0-0.1c0-0.1,0-0.1-0.1-0.2s-0.1,0-0.2,0c-0.2,0-0.5,0.2-0.8,0.5c-0.3,0.4-0.5,0.7-0.7,1.1
			c-0.2,0.4-0.4,0.8-0.5,1.2c-0.1,0.4-0.3,0.9-0.5,1.6H90.9z"/>
		<path d="M98.6,45.2c0.3-0.3,0.4-0.6,0.4-0.9c0-0.3-0.1-0.8-0.2-1.6c-0.1-0.5-0.2-1-0.3-1.5c-0.2-0.8-0.3-1.3-0.4-1.5
			c-0.1-0.2-0.3-0.2-0.5-0.2v-0.3c0.3,0,0.7-0.1,1.1-0.2c0.4-0.1,0.6-0.1,0.5-0.1l0.1,0c0.1,0.3,0.2,0.8,0.4,1.6
			c0.2,0.8,0.3,1.5,0.4,2.1l0,0.3l0.2-0.4c0.2-0.3,0.3-0.6,0.5-1.1c0.2-0.4,0.3-0.7,0.3-0.8c0-0.1,0-0.1-0.1-0.2
			c0-0.1-0.1-0.1-0.2-0.2l-0.1-0.1c-0.1,0-0.1-0.1-0.2-0.2c-0.1-0.1-0.1-0.2-0.1-0.4c0-0.2,0.1-0.3,0.2-0.5c0.1-0.1,0.3-0.2,0.5-0.2
			c0.2,0,0.3,0.1,0.5,0.2c0.2,0.1,0.2,0.3,0.2,0.6c0,0.4-0.2,1.1-0.6,2c-0.3,0.7-0.7,1.3-1.1,2c-0.6,0.9-1.1,1.6-1.6,2.1
			c-0.5,0.4-1,0.7-1.4,0.7c-0.2,0-0.4-0.1-0.5-0.2s-0.2-0.3-0.2-0.5c0-0.2,0.1-0.3,0.2-0.4s0.3-0.2,0.4-0.2c0.2,0,0.4,0.1,0.6,0.2
			c0.2,0.1,0.4,0.2,0.4,0.2C98.1,45.7,98.3,45.5,98.6,45.2z"/>
	</g>
	<g class="st15">
		<path d="M61.4,55.9c-0.2-0.2-0.3-0.4-0.3-0.6c0-0.2,0.1-0.3,0.2-0.4s0.3-0.2,0.4-0.2c0.1,0,0.3,0,0.4,0.2c0.1,0.1,0.2,0.2,0.2,0.4
			c0,0.1,0,0.2-0.1,0.3c-0.1,0.1-0.1,0.2-0.1,0.2c0,0,0,0.1,0.1,0.1c0,0,0.1,0,0.1,0c0.3,0,0.5-0.2,0.6-0.7c0.1-0.4,0.5-1.8,0.9-3.9
			l0.5-2h-0.8l0.1-0.5h0.8c0.1-0.3,0.2-0.7,0.4-1.1c0.2-0.5,0.5-0.9,0.8-1.2c0.4-0.3,0.8-0.5,1.2-0.5c0.3,0,0.6,0.1,0.8,0.2
			s0.3,0.4,0.3,0.7c0,0.2-0.1,0.3-0.2,0.4c-0.1,0.1-0.2,0.2-0.4,0.2c-0.2,0-0.3-0.1-0.4-0.2c-0.1-0.1-0.2-0.2-0.2-0.4
			c0-0.1,0-0.2,0.1-0.3c0.1-0.1,0.1-0.2,0.1-0.2c0,0,0-0.1,0-0.1c0,0-0.1-0.1-0.2-0.1c-0.2,0-0.4,0.1-0.6,0.4
			C66.2,47,66,47.4,65.9,48l-0.2,0.8h1l-0.1,0.5h-1c-0.5,2.6-1,4.4-1.3,5.2c-0.5,1.2-1.2,1.7-2.1,1.7C61.8,56.2,61.6,56.1,61.4,55.9
			z"/>
		<path d="M71,48.9c0.5,0.3,0.8,0.8,0.8,1.5c0,0.8-0.3,1.6-0.9,2.3c-0.7,0.8-1.4,1.2-2.3,1.2c-0.4,0-0.9-0.1-1.2-0.4
			s-0.6-0.7-0.6-1.4c0-0.8,0.3-1.6,0.9-2.3c0.7-0.8,1.4-1.2,2.3-1.2C70.4,48.6,70.7,48.7,71,48.9z M68.2,53.3
			c0.1,0.2,0.3,0.3,0.5,0.3c0.5,0,0.9-0.5,1.3-1.6c0.3-0.9,0.5-1.7,0.5-2.4c0-0.2,0-0.3-0.1-0.4c-0.1-0.2-0.2-0.3-0.5-0.3
			c-0.5,0-1,0.6-1.4,1.7c-0.3,0.9-0.4,1.6-0.4,2.2C68.2,53.1,68.2,53.2,68.2,53.3z"/>
		<path d="M72.3,53.8c0.3-1.1,0.6-2,0.8-2.8c0.2-0.8,0.3-1.3,0.3-1.5c0-0.1,0-0.2-0.1-0.3c-0.1,0-0.2-0.1-0.5-0.1v-0.3
			c0.5,0,0.9-0.1,1.2-0.1c0.2,0,0.6-0.1,1.1-0.2l-0.6,2l0,0c0.3-0.6,0.6-1.1,0.8-1.3c0.3-0.5,0.7-0.7,1-0.7c0.2,0,0.4,0.1,0.5,0.2
			c0.1,0.1,0.2,0.3,0.2,0.5c0,0.2-0.1,0.4-0.2,0.6c-0.1,0.2-0.3,0.3-0.5,0.3c-0.1,0-0.2,0-0.3-0.1c-0.1,0-0.1-0.1-0.2-0.2l-0.1-0.1
			c0,0,0,0-0.1-0.1c0,0,0,0-0.1,0c-0.1,0-0.3,0.2-0.6,0.6c-0.2,0.4-0.4,0.8-0.6,1.2c-0.1,0.3-0.2,0.7-0.4,1.2
			c-0.2,0.5-0.3,0.9-0.4,1.1H72.3z"/>
	</g>
</g>
</svg>
