<?xml version="1.0" encoding="utf-8"?>
<!-- Generator: Adobe Illustrator 19.2.0, SVG Export Plug-In . SVG Version: 6.00 Build 0)  -->
<svg version="1.1" id="Layer_1" xmlns="http://www.w3.org/2000/svg" xmlns:xlink="http://www.w3.org/1999/xlink" x="0px" y="0px"
	 viewBox="0 0 839.1 839.1" style="enable-background:new 0 0 839.1 839.1;" xml:space="preserve">
<style type="text/css">
	.st0{fill:#0E223D;}
	.st1{fill:#FFFFFF;}
</style>
<path class="st0" d="M0,498.6c0-52.8,0-105.4,0-158c279.7,0,559.4,0,839.1,0c0,52.7,0,105.4,0,158C559.4,498.6,279.7,498.6,0,498.6z
	 M118.8,458.6c0-0.2-0.1-0.4-0.1-0.6c-0.5-0.2-1-0.4-1.5-0.5c-1.4-0.1-2.8-0.2-4.2-0.3c-1.5-0.1-2.6-0.6-3.6-1.8
	c-1.4-1.8-1.5-3.7-1.5-5.7c0-21.4-0.1-42.7-0.1-64.1c0-0.2-0.1-0.6,0-0.7c0.5-0.6,1-1.4,1.7-1.5c2.9-0.5,5.5,0.7,7.1,3
	c3.3,4.6,6.5,9.3,9.3,14.3c2.3,4.1,4,8.7,6,13c0.2,0.5,1.1,1.1,1.6,1c0.5-0.1,1-0.9,1.2-1.5c0.2-0.5,0.1-1.1,0.1-1.6
	c0-8.4,0-16.9,0-25.3c0-3,0.4-3.3,3.4-3.1c1,0.1,2,0.3,2.9,0.2c3-0.2,5.5,2.5,5.5,5.5c0,2.8,0.3,5.7,0.3,8.5c0,14.5,0,29,0,43.6
	c0,3.7-0.3,7.4-0.3,11.1c0,3-2.5,5.5-5.5,5.4c-1.3-0.1-2.7,0.1-4,0.3c-0.4,0-0.7,0.4-1,0.6c0.3,0.3,0.5,0.9,0.9,1
	c0.7,0.2,1.5,0.2,2.2,0.2c23.9,0,47.9,0.1,71.8,0.1c2,0,2.5-0.6,2.5-2.6c0-9.5,0-19,0-28.4c0-0.3,0.1-0.7-0.1-0.9
	c-0.3-0.6-0.8-1.1-1.1-1.7c-0.4,0.5-0.9,0.9-1.2,1.4c-0.8,1.9-1.4,3.9-2.3,5.8c-3,6.2-6.7,12-11.1,17.3c-3.2,3.8-7,6.5-12.2,6.6
	c-3.6,0.1-7.3,0.2-10.9,0.2c-2.2,0-2.6-0.4-2.6-2.6c0-10.3,0-20.7,0-31c0-0.5-0.1-1.1,0.1-1.5c0.4-0.6,1-1.6,1.6-1.6
	c2.9-0.3,5.7,0.7,7.8,2.6c3.5,3,4.7,7.2,5.5,11.5c0.2,0.8,0,1.7,0.2,2.6c0.1,0.6,0.6,1,1,1.5c0.3-0.5,0.8-1,1-1.6
	c0.2-0.7,0.1-1.5,0.1-2.2c0-10.2,0-20.4,0-30.6c0-1,0-2-0.2-2.9c-0.1-0.5-0.7-0.8-1.1-1.3c-0.3,0.4-0.8,0.8-0.8,1.3
	c0,2.9-0.9,5.7-1.8,8.4c-1.5,4.4-5.5,7.9-10.1,8.3c-2.9,0.3-3.4-0.1-3.4-3c0-9.8,0-19.6,0.1-29.4c0-2,0.5-2.5,2.5-2.5
	c2.9,0,5.8,0.2,8.7,0.3c3.7,0.1,6.7,1.8,9.4,4.2c7.4,6.6,12.6,14.8,16.6,23.8c0.2,0.5,0.8,0.8,1.2,1.2c0.4-0.5,0.8-1,1-1.5
	c0.2-0.5,0.1-1.1,0.1-1.6c0-8.4,0-16.9,0-25.3c0-2.9-0.5-3.3-3.3-3.3c-13.5,0-27.1,0.1-40.6,0c-12.8-0.2-25.6,0.5-38.5,0.1
	c-7.6-0.3-15.3,0-22.9,0c-16,0-32,0-48,0c-1.7,0-2.2,0.6-2.2,2.2c0.1,10.1,0,20.2,0,30.3c0,0.7,0.1,1.4,0.2,2.1
	c0.2,0.1,0.4,0.2,0.6,0.3c0.8-1.1,1.8-2,2.4-3.2c1.4-2.7,2.6-5.5,3.9-8.3c2.6-5.8,5.6-11.3,9.5-16.3c1.9-2.4,3.9-4.8,7.5-4.6
	c2.3,0.1,2.8,0.5,2.8,2.8c0,19.6,0,39.3,0,58.9c0,2.9-0.5,5.9-1,8.8c-0.3,2.1-1.6,3.2-3.8,3.4c-1.2,0.1-2.5,0-3.7,0.3
	c-1.1,0.2-2.5-0.7-3.2,0.9c1.1,0.3,2.2,0.9,3.3,0.9c10.8,0.1,21.7,0.1,32.5,0.2c3.1,0,6.3,0,9.4-0.2
	C117.4,459.3,118.1,458.8,118.8,458.6z M388.4,458.6c0-0.3-0.1-0.6-0.1-0.9c-1.2-0.2-2.4-0.5-3.6-0.5c-3,0.1-5.6-1.8-5.6-5.4
	c0-2.4-0.3-4.8-0.3-7.2c0-16.3,0-32.6,0-48.9c0-2.8,0.3-5.5,0.5-8.3c0.2-2.2,1.9-3.8,4.1-4.1c1.1-0.1,2.2-0.2,3.3-0.3
	c0.6-0.1,1.2-0.4,1.7-0.6c0-0.2,0-0.4,0-0.6c-0.6-0.3-1.2-0.7-1.9-0.7c-1.7-0.2-3.4-0.3-5.2-0.3c-10,0-19.9,0-29.9,0
	c-1.4,0-2.7,0.1-4,0.3c-0.7,0.1-1.3,0.6-1.9,0.9c0,0.2,0.1,0.4,0.1,0.6c1,0.2,2,0.4,3,0.5c3.2,0.4,4.4,1.6,4.7,4.8
	c0.2,1.8,0.3,3.6,0.3,5.3c0,7.3,0.1,14.5,0,21.8c0,2.6-0.5,2.9-3.1,2.9c-5,0-10.1,0-15.1,0c-3.1,0-3.6-0.5-3.7-3.7
	c0-6-0.1-12.1,0-18.1c0.1-3.1,0.3-6.1,0.8-9.2c0.4-2.9,1.3-3.6,4.2-3.9c1.1-0.1,2.2-0.4,3.3-0.5c0-0.2,0.1-0.5,0.1-0.7
	c-0.6-0.3-1.1-0.8-1.7-0.9c-1.5-0.2-2.9-0.3-4.4-0.3c-9.9,0-19.8,0-29.7,0c-1.7,0-3.3,0.1-5,0.3c-0.8,0.1-1.5,0.6-2.7,1
	c0.8,0.4,1,0.6,1.2,0.6c1.2,0.2,2.3,0.3,3.5,0.4c3.7,0.3,5.3,2,5.6,5.7c0.2,2.2,0.2,4.4,0.2,6.6c0,16.4,0,32.7,0,49.1
	c0,2.2-0.1,4.4-0.2,6.6c-0.3,3.8-2.2,5.6-6,5.9c-1.2,0.1-2.5,0.3-3.7,0.5c0,0.3,0,0.6-0.1,0.9c1.1,0.3,2.1,0.7,3.2,0.7
	c8.2,0.1,16.4,0.1,24.6,0.1c4.3,0,8.6,0,12.9-0.1c0.8,0,1.7-0.5,2.5-0.8c0-0.2-0.1-0.5-0.1-0.7c-0.7-0.2-1.3-0.5-2-0.5
	c-4.8-0.6-5.4-1.1-6.1-5.9c-0.1-0.5-0.1-1-0.1-1.5c-0.1-8.7-0.2-17.5-0.3-26.2c0-2.8,0.6-3.3,3.4-3.3c5.2,0,10.3,0,15.5,0
	c2.5,0,2.9,0.3,2.9,2.7c0,9.8-0.1,19.6-0.3,29.3c-0.1,3.2-1.5,4.4-4.7,4.8c-1.1,0.1-2.2,0.4-3.3,0.6c0,0.3,0,0.6-0.1,0.8
	c1.1,0.3,2.1,0.7,3.2,0.7c7,0.1,13.9,0.1,20.9,0.1c5.5,0,11.1,0,16.6-0.1C386.7,459.4,387.5,458.9,388.4,458.6z M556.9,396.7
	c0.3-0.1,0.5-0.1,0.8-0.2c1.4,3.3,2.8,6.6,4.1,9.9c0.9,2.3,1.6,4.6,2.5,6.9c1.5,4,3.2,8,4.7,12c1.5,4.1,2.9,8.3,4.4,12.5
	c0.7,1.9,1.4,3.8,2.1,5.7c1.6,4.4,3.4,8.7,4.9,13.1c0.6,1.7,1.4,2.9,3.3,3c2,0.1,4.2,0.5,5.1-2.1c0.9-2.7,1.8-5.5,2.7-8.2
	c0.9-2.8,1.6-5.7,2.5-8.5c0.7-2.2,1.4-4.3,2.1-6.5c0.9-2.9,1.9-5.7,2.8-8.5c0.9-2.9,1.6-5.8,2.5-8.7c0.6-2.1,1.3-4.2,2-6.3
	c0.9-2.8,2-5.7,2.8-8.5c0.9-3.1,1.7-6.2,2.5-9.4c0-0.1,0.2-0.2,0.6-0.5c0.2,1.3,0.5,2.3,0.5,3.3c0,2-0.2,3.9-0.2,5.9
	c0,14,0,28.1-0.1,42.1c0,2.9-0.2,5.9-0.7,8.8c-0.7,4.1-1.4,4.6-5.6,4.9c-1.2,0.1-2.3,0.3-3.5,0.5c0,0.3,0,0.6-0.1,0.9
	c1.1,0.2,2.2,0.6,3.3,0.7c6,0.1,11.9,0.1,17.9,0.1c6.7,0,13.4,0,20.1-0.1c1,0,2.1-0.5,3.1-0.7c0-0.3-0.1-0.6-0.1-0.9
	c-1.4-0.2-2.7-0.4-4.1-0.5c-3.3-0.3-5.3-2.1-5.6-5.4c-0.2-2-0.3-4.1-0.3-6.1c0-17,0-34,0-51c0-2.1,0.1-4.2,0.3-6.3
	c0.4-3.1,2.4-4.9,5.5-5.2c1.8-0.2,3.6-0.4,5.4-0.6c0-0.2,0.1-0.4,0.1-0.6c-0.7-0.3-1.3-0.9-2-0.9c-10.4-0.1-20.8-0.2-31.2-0.3
	c-0.2,0-0.5,0-0.7,0.1c-0.4,0.3-1.1,0.6-1.2,1c-0.7,1.8-1.4,3.5-1.9,5.4c-0.8,2.7-1.5,5.5-2.4,8.3c-1.5,4.6-3.3,9.2-4.8,13.9
	c-1.5,4.8-2.9,9.6-4.4,14.4c-0.1,0.3-0.3,0.6-0.7,1.3c-0.8-0.8-1.7-1.3-2-2.1c-1.4-3.6-2.7-7.4-4-11.1c-1.5-4.3-2.9-8.7-4.4-13
	c-1.7-4.9-3.5-9.8-5.2-14.7c-0.9-2.6-2-3.5-4.6-3.5c-7.4,0-14.8,0-22.2,0c-2.9,0-5.8,0.1-8.7,0.3c-0.8,0.1-1.6,0.6-2.4,0.9
	c0.1,0.3,0.1,0.5,0.2,0.8c1.8,0.2,3.6,0.2,5.4,0.6c1.2,0.2,2.5,0.5,3.3,1.2c2.1,1.7,3.3,4,3.3,6.9c0,17.1,0.1,34.2,0.1,51.3
	c0,2.6-0.1,5.2-0.2,7.8c-0.3,3.9-3,6.5-6.8,6.7c-1.3,0.1-2.6,0.1-3.9,0.3c-0.6,0.1-1.1,0.5-1.7,0.7c0.6,0.4,1.1,1,1.7,1
	c7.8,0.1,15.6,0.1,23.4,0.1c0.7,0,1.4-0.5,2.2-0.8c0-0.2-0.1-0.4-0.1-0.6c-0.6-0.2-1.2-0.4-1.9-0.5c-1.3-0.1-2.6-0.1-3.9-0.2
	c-3.2-0.2-5-1.5-5.6-4.6c-0.6-3.1-1.1-6.3-1.2-9.5c-0.1-14.8-0.1-29.5,0-44.3C556.7,398.1,556.8,397.4,556.9,396.7z M700.8,438.9
	c0.3,0,0.6,0,0.9,0c0.2-0.9,0.5-1.8,0.5-2.6c0-11.3,0-22.5,0-33.8c0-0.4,0.1-0.9-0.1-1.3c-0.2-0.4-0.6-0.8-1-1.2
	c-0.3,0.4-0.8,0.8-0.9,1.2c-0.7,2.7-1,5.6-1.9,8.2c-1.7,5.3-4.8,7.8-10.3,8.6c-2.7,0.4-3.3-0.2-3.3-3c0.1-9.8,0.2-19.6,0.3-29.4
	c0-2.1,0.5-2.6,2.7-2.5c3,0.1,6.1,0,9,0.4c2.2,0.3,4.6,0.9,6.3,2.2c5.6,4,10,9.4,13.6,15.3c2.1,3.4,3.7,7,5.6,10.5
	c0.2,0.4,0.7,0.7,1.1,1.1c0.3-0.5,0.8-0.9,1-1.4c0.2-0.6,0.1-1.3,0.1-2c0-8.4,0-16.7,0-25.1c0-3-0.4-3.4-3.4-3.4
	c-11.1,0.1-22.3,0.2-33.4,0.2c-10.3,0-20.7-0.1-31-0.2c-2.1,0-4.2,0.1-6.3,0.4c-0.5,0-0.9,0.7-1.3,1c0.4,0.3,0.8,0.7,1.3,0.7
	c1.4,0.2,2.9,0.1,4.2,0.4c1.2,0.3,2.4,1,3.5,1.7c1.8,1.4,1.6,3.5,1.6,5.4c0.1,18.2,0.1,36.4,0.2,54.7c0,2.4-0.1,4.8-0.3,7.2
	c-0.3,2.9-2.1,4.5-4.9,4.8c-1,0.1-2.1,0.1-3.1,0.3c-0.8,0.2-1.6,0.5-2.4,0.8c0.9,0.4,1.7,1.1,2.6,1.1c8.4,0.1,16.9,0.2,25.3,0.2
	c15.5,0,31,0,46.5,0c2.3,0,3-0.4,3-2.3c0-9.8,0-19.7,0-29.5c0-0.7-0.7-1.3-1-2c-0.4,0.5-1,0.9-1.3,1.5c-1.4,3.1-2.4,6.3-4.1,9.2
	c-2.6,4.5-5.6,8.8-8.7,12.9c-2.7,3.6-5.9,6.8-10.6,7.3c-4.5,0.4-9.1,0.4-13.6,0.5c-1.6,0-2.3-0.7-2.3-2.4c0.1-4.1,0-8.2,0-12.4
	c0-6.5,0-12.9,0-19.4c0-1.4,0.3-2.5,1.9-2.6c3.9-0.1,7.4,1.3,9.6,4.6c2.4,3.5,3.7,7.6,4,11.9C700.2,437.6,700.6,438.3,700.8,438.9z
	 M490.5,415.4c0.3,0,0.6-0.1,0.8-0.1c0.2-1,0.5-2.1,0.5-3.1c0-9.2,0-18.3,0-27.5c0-3.7-0.1-3.8-3.8-3.8c-14.8,0-29.7,0-44.5,0
	c-1.8,0-3.6,0.1-5.3,0.1c-7.3,0-14.5-0.1-21.8-0.1c-2.7,0-3.5,0.8-3.5,3.5c0,9.2,0,18.3,0,27.5c0,0.5-0.1,1.1,0.1,1.5
	c0.3,0.6,0.9,1.2,1.5,1.3c0.4,0.1,1.2-0.5,1.4-1c1.2-2.4,2.2-4.9,3.5-7.3c2.5-4.9,5-10,7.9-14.7c1.7-2.7,4-5,6.3-7.3
	c1.5-1.5,3.7-1.5,5.6-0.9c1.7,0.6,0.9,2.5,0.9,3.8c0,18.8,0,37.7,0,56.5c0,2.8-0.1,5.7-0.3,8.5c-0.2,3.2-1.9,4.8-5,5
	c-1,0.1-2,0.1-2.9,0.2c-0.9,0.1-1.9,0.2-2.9,0.3c0.6,1.7,1.8,1.6,2.9,1.6c13,0,26.1,0.1,39.1,0.1c1.3,0,2.6-0.1,3.9-0.3
	c0.5-0.1,1-0.5,1.5-0.8c0-0.2-0.1-0.4-0.1-0.7c-2.1-0.2-4.2-0.3-6.3-0.5c-2.3-0.2-3.8-1.5-4.1-3.7c-0.4-2.9-0.8-5.7-0.8-8.6
	c-0.1-10.5,0-20.9,0-31.4c0-9.1,0-18.2,0-27.3c0-2.3,0.6-2.7,2.8-2.8c2.3-0.1,4,1.1,5.5,2.6c4.8,4.8,7.7,10.9,10.8,16.7
	c1.7,3.2,2.9,6.6,4.5,9.9C489,413.5,489.9,414.4,490.5,415.4z M789.4,408.3c0.2-0.1,0.5-0.1,0.7-0.2c0.2-0.8,0.5-1.6,0.5-2.4
	c0-8.2,0-16.4,0-24.6c0-0.5-0.7-1-1-1.5c-0.4,0.5-0.9,1-1.1,1.6c-0.6,1.9-1,3.9-1.8,5.8c-0.8,1.8-2.3,2-4,1c-3.3-2-6.7-4.1-10.1-6
	c-1.5-0.9-3.2-2.1-4.7-2.1c-4.7,0-9.3-1.1-14,1.1c-3.8,1.8-7.3,3.7-10.3,6.6c-3.2,3.1-5.8,6.9-6.4,11.3c-0.5,3.8-0.4,7.7-0.3,11.6
	c0.3,7.2,4.4,12,10.5,15.3c4,2.2,8.1,4.2,12.3,6.2c3.9,1.8,7.9,3.4,11.7,5.2c3.7,1.8,7.3,3.7,9,7.9c1.3,3.2,0.4,8.1-2.1,10.4
	c-2.7,2.4-5.7,3.6-9.3,3.2c-1.9-0.2-3.8-0.8-5.8-1.1c-4.7-0.8-8.2-3.6-11.5-6.8c-3.3-3.2-5.8-6.9-7.8-11c-2.3-4.6-4.3-9.2-5.3-14.2
	c-0.1-0.5-0.2-1.2-0.5-1.6c-0.5-0.5-1.2-0.9-1.8-1.3c-0.3,0.6-0.8,1.2-0.8,1.8c-0.1,3.1,0,6.3,0,9.4c0,8.4,0,16.7,0,25.1
	c0,0.6,0.4,1.2,0.7,1.9c0.5-0.5,1.2-0.9,1.4-1.6c0.5-1.9,0.9-3.8,1.2-5.8c0.6-3.6,3.7-5.1,6.8-3.1c4.1,2.6,8.2,5.4,12.4,7.9
	c1.7,1,3.6,2.4,5.4,2.3c4.9,0,9.8,1.2,14.8-1c3.7-1.7,7.4-3.4,10.3-6.2c4.6-4.4,8.1-9.4,7.6-16.2c-0.2-2.3-0.1-4.6-0.1-6.8
	c0-0.5,0-1-0.2-1.5c-1-2.1-2.1-4.2-3.2-6.3c-2.3-4.3-5.6-7.6-9.8-9.9c-2.7-1.5-5.6-2.8-8.4-4.1c-3.9-1.8-7.8-3.4-11.7-5.2
	c-3.8-1.7-7.6-3.3-10.1-6.8c-1.4-2.1-2.5-4.4-1.9-7.1c1.1-4.6,4.6-6.7,8.6-7.5c5.4-1.1,10.5,0.5,14.8,4c6.2,5.1,11,11.2,13.1,19.1
	C787.8,406.3,788.8,407.3,789.4,408.3z M291.4,430.6c-0.5,0.9-0.8,1.4-1,1.9c-1.4,4.6-2.6,9.3-5.1,13.5c-3.6,5.9-8.3,9.7-15.5,9.9
	c-5.3,0.1-9.7-1.6-12.6-6.1c-1.6-2.6-3.1-5.3-4.1-8.2c-1.3-3.7-2.6-7.5-3-11.3c-0.6-5.9-0.6-11.9-0.4-17.9
	c0.1-7.7,1.8-15.1,5.5-21.9c5.2-9.6,16-8.7,22.2-2.3c2.8,2.9,5,6.3,6.3,10.3c1.5,4.7,3.3,9.2,5,13.8c0.2,0.7,0.8,1.2,1.2,1.8
	c0.4-0.7,0.8-1.3,1.1-2c0.1-0.3,0.1-0.6,0.1-0.9c0-9.2,0-18.5,0-27.7c0-1.3-0.6-2.5-0.9-3.8c-0.2,0-0.4,0-0.7,0
	c-0.3,1-0.5,2.1-0.8,3.1c-0.6,1.6-1.2,3.2-2,4.6c-0.8,1.3-2.2,1.4-3.4,0.7c-3.3-1.9-6.4-4.2-9.8-5.8c-2.5-1.2-5-2.9-8-2.7
	c-5.8,0.3-11.7-1.1-17.3,1.6c-2.1,1-4.6,1.4-6.6,2.6c-5.1,2.9-9.5,6.6-12.9,11.5c-3,4.4-5.3,9.1-6.1,14.3
	c-1.6,10.3-1.8,20.7,3.4,30.2c1.9,3.5,4.2,6.8,6.8,9.7c3.2,3.7,7.2,6.4,11.8,8.2c4.1,1.6,8.1,3.5,12.8,3.1c5.1-0.4,10.4,1,15.3-1.7
	c2.6-1.4,5.4-2.3,7.8-4c3.8-2.6,6.4-6.4,8.3-10.5c1.3-2.8,2.2-5.7,3.1-8.6C292.2,434.5,292.9,432.8,291.4,430.6z M539.4,458.6
	c-0.1-0.3-0.1-0.7-0.2-1c-1.4-0.1-2.9-0.3-4.3-0.4c-3.5-0.3-4.5-1.1-5.5-4.4c-0.3-1-0.5-2.2-0.5-3.3c0-19.6,0-39.1,0-58.7
	c0-1.3,0.2-2.6,0.5-3.8c0.6-2.3,1.9-4,4.6-3.9c1.1,0,2.2-0.1,3.3-0.3c0.6-0.1,1.1-0.6,1.7-0.9c-0.5-0.3-1.1-0.8-1.6-0.9
	c-1.8-0.2-3.7-0.3-5.5-0.3c-10.5,0-20.9,0-31.4,0c-1.8,0-3.6,0.2-5.3,0.4c-0.4,0.1-0.8,0.6-1.2,0.9c0.4,0.3,0.8,0.7,1.2,0.8
	c1.2,0.2,2.4,0.3,3.7,0.3c2.4,0.1,4,1.2,4.4,3.5c0.5,3.2,1.1,6.4,1.1,9.7c0.1,15.9,0.1,31.7,0,47.6c0,2,0,4.1-0.3,6.1
	c-0.8,5.5-2.3,7.3-7,7.2c-1.1,0-2.2,0.3-3.2,0.5c0,0.3,0,0.6-0.1,0.8c0.9,0.2,1.7,0.6,2.6,0.7c7.6,0.1,15.3,0.1,22.9,0.1
	c5.9,0,11.8-0.1,17.7-0.2C537.8,459.3,538.6,458.9,539.4,458.6z"/>
<path class="st1" d="M118.8,458.6c-0.7,0.3-1.4,0.7-2.1,0.8c-3.1,0.1-6.3,0.2-9.4,0.2c-10.8,0-21.7-0.1-32.5-0.2
	c-1.1,0-2.2-0.6-3.3-0.9c0.6-1.7,2.1-0.7,3.2-0.9c1.2-0.3,2.5-0.1,3.7-0.3c2.2-0.2,3.5-1.3,3.8-3.4c0.5-2.9,1-5.9,1-8.8
	c0.1-19.6,0-39.3,0-58.9c0-2.3-0.5-2.7-2.8-2.8c-3.6-0.2-5.6,2.2-7.5,4.6c-3.9,5-7,10.5-9.5,16.3c-1.2,2.8-2.5,5.6-3.9,8.3
	c-0.6,1.2-1.6,2.1-2.4,3.2c-0.2-0.1-0.4-0.2-0.6-0.3c-0.1-0.7-0.2-1.4-0.2-2.1c0-10.1,0-20.2,0-30.3c0-1.6,0.4-2.2,2.2-2.2
	c16,0.1,32,0,48,0c7.6,0,15.3-0.2,22.9,0c12.8,0.4,25.6-0.3,38.5-0.1c13.5,0.2,27.1,0,40.6,0c2.9,0,3.3,0.5,3.3,3.3
	c0,8.4,0,16.9,0,25.3c0,0.6,0.1,1.2-0.1,1.6c-0.2,0.6-0.7,1-1,1.5c-0.4-0.4-1-0.7-1.2-1.2c-4-9-9.2-17.1-16.6-23.8
	c-2.6-2.4-5.6-4.1-9.4-4.2c-2.9,0-5.8-0.2-8.7-0.3c-2.1,0-2.5,0.4-2.5,2.5c0,9.8-0.1,19.6-0.1,29.4c0,2.9,0.5,3.3,3.4,3
	c4.6-0.4,8.6-3.9,10.1-8.3c0.9-2.8,1.8-5.5,1.8-8.4c0-0.4,0.5-0.8,0.8-1.3c0.4,0.4,1,0.8,1.1,1.3c0.2,1,0.2,2,0.2,2.9
	c0,10.2,0,20.4,0,30.6c0,0.7,0.1,1.5-0.1,2.2c-0.2,0.6-0.6,1.1-1,1.6c-0.3-0.5-0.8-1-1-1.5c-0.2-0.8,0-1.7-0.2-2.6
	c-0.8-4.3-2-8.6-5.5-11.5c-2.2-1.9-4.9-2.9-7.8-2.6c-0.6,0.1-1.2,1-1.6,1.6c-0.2,0.4-0.1,1-0.1,1.5c0,10.3,0,20.7,0,31
	c0,2.2,0.4,2.6,2.6,2.6c3.6,0,7.3-0.2,10.9-0.2c5.2-0.1,9.1-2.7,12.2-6.6c4.4-5.3,8-11.1,11.1-17.3c0.9-1.9,1.5-3.9,2.3-5.8
	c0.2-0.5,0.8-1,1.2-1.4c0.4,0.6,0.8,1.1,1.1,1.7c0.1,0.2,0.1,0.6,0.1,0.9c0,9.5,0,19,0,28.4c0,2-0.6,2.6-2.5,2.6
	c-23.9,0-47.9-0.1-71.8-0.1c-0.7,0-1.5,0-2.2-0.2c-0.4-0.1-0.6-0.6-0.9-1c0.3-0.2,0.6-0.6,1-0.6c1.3-0.2,2.7-0.4,4-0.3
	c3,0.1,5.5-2.4,5.5-5.4c0-3.7,0.3-7.4,0.3-11.1c0-14.5,0-29,0-43.6c0-2.8-0.3-5.7-0.3-8.5c0-3-2.5-5.6-5.5-5.5c-1,0.1-2-0.2-2.9-0.2
	c-3-0.2-3.4,0.2-3.4,3.1c0,8.4,0,16.9,0,25.3c0,0.6,0.1,1.2-0.1,1.6c-0.3,0.6-0.7,1.4-1.2,1.5c-0.5,0.1-1.4-0.5-1.6-1
	c-2.1-4.3-3.7-8.8-6-13c-2.8-4.9-6-9.7-9.3-14.3c-1.6-2.3-4.2-3.5-7.1-3c-0.6,0.1-1.1,1-1.7,1.5c-0.1,0.1,0,0.5,0,0.7
	c0,21.4,0,42.7,0.1,64.1c0,2,0.1,4,1.5,5.7c1,1.2,2.1,1.7,3.6,1.8c1.4,0.1,2.8,0.2,4.2,0.3c0.5,0.1,1,0.3,1.5,0.5
	C118.8,458.1,118.8,458.4,118.8,458.6z"/>
<path class="st1" d="M388.4,458.6c-0.8,0.3-1.7,0.8-2.5,0.8c-5.5,0.1-11.1,0.1-16.6,0.1c-7,0-13.9,0-20.9-0.1
	c-1.1,0-2.1-0.5-3.2-0.7c0-0.3,0-0.6,0.1-0.8c1.1-0.2,2.2-0.5,3.3-0.6c3.2-0.3,4.6-1.6,4.7-4.8c0.2-9.8,0.3-19.6,0.3-29.3
	c0-2.4-0.4-2.7-2.9-2.7c-5.2,0-10.3,0-15.5,0c-2.8,0-3.4,0.5-3.4,3.3c0,8.7,0.2,17.5,0.3,26.2c0,0.5,0.1,1,0.1,1.5
	c0.7,4.8,1.3,5.4,6.1,5.9c0.7,0.1,1.3,0.4,2,0.5c0,0.2,0.1,0.5,0.1,0.7c-0.8,0.3-1.7,0.8-2.5,0.8c-4.3,0.1-8.6,0.1-12.9,0.1
	c-8.2,0-16.4,0-24.6-0.1c-1.1,0-2.1-0.5-3.2-0.7c0-0.3,0-0.6,0.1-0.9c1.2-0.2,2.4-0.4,3.7-0.5c3.7-0.3,5.7-2.1,6-5.9
	c0.2-2.2,0.2-4.4,0.2-6.6c0-16.4,0-32.7,0-49.1c0-2.2-0.1-4.4-0.2-6.6c-0.3-3.8-1.9-5.4-5.6-5.7c-1.2-0.1-2.3-0.3-3.5-0.4
	c-0.2,0-0.4-0.2-1.2-0.6c1.2-0.5,1.9-0.9,2.7-1c1.6-0.2,3.3-0.3,5-0.3c9.9,0,19.8,0,29.7,0c1.5,0,3,0.1,4.4,0.3
	c0.6,0.1,1.2,0.6,1.7,0.9c0,0.2-0.1,0.5-0.1,0.7c-1.1,0.2-2.2,0.4-3.3,0.5c-3,0.4-3.8,1-4.2,3.9c-0.4,3-0.7,6.1-0.8,9.2
	c-0.1,6,0,12.1,0,18.1c0,3.1,0.5,3.6,3.7,3.7c5,0,10.1,0,15.1,0c2.6,0,3.1-0.3,3.1-2.9c0.1-7.3,0-14.5,0-21.8c0-1.8-0.1-3.6-0.3-5.3
	c-0.3-3.2-1.5-4.4-4.7-4.8c-1-0.1-2-0.4-3-0.5c0-0.2-0.1-0.4-0.1-0.6c0.6-0.3,1.2-0.8,1.9-0.9c1.3-0.2,2.7-0.3,4-0.3
	c10,0,19.9,0,29.9,0c1.7,0,3.4,0.1,5.2,0.3c0.6,0.1,1.2,0.5,1.9,0.7c0,0.2,0,0.4,0,0.6c-0.6,0.2-1.1,0.5-1.7,0.6
	c-1.1,0.2-2.2,0.2-3.3,0.3c-2.2,0.3-3.9,1.9-4.1,4.1c-0.3,2.8-0.5,5.5-0.5,8.3c0,16.3,0,32.6,0,48.9c0,2.4,0.3,4.8,0.3,7.2
	c0,3.6,2.6,5.5,5.6,5.4c1.2,0,2.4,0.3,3.6,0.5C388.3,458,388.3,458.3,388.4,458.6z"/>
<path class="st1" d="M556.9,396.7c-0.1,0.7-0.2,1.4-0.2,2.1c0,14.8-0.1,29.5,0,44.3c0,3.2,0.6,6.4,1.2,9.5c0.6,3.1,2.4,4.4,5.6,4.6
	c1.3,0.1,2.6,0.1,3.9,0.2c0.6,0.1,1.2,0.3,1.9,0.5c0,0.2,0.1,0.4,0.1,0.6c-0.7,0.3-1.4,0.8-2.2,0.8c-7.8,0-15.6,0-23.4-0.1
	c-0.6,0-1.1-0.7-1.7-1c0.6-0.3,1.1-0.7,1.7-0.7c1.3-0.2,2.6-0.2,3.9-0.3c3.8-0.2,6.5-2.8,6.8-6.7c0.2-2.6,0.2-5.2,0.2-7.8
	c0-17.1-0.1-34.2-0.1-51.3c0-2.9-1.2-5.1-3.3-6.9c-0.9-0.7-2.2-1-3.3-1.2c-1.8-0.3-3.6-0.4-5.4-0.6c-0.1-0.3-0.1-0.5-0.2-0.8
	c0.8-0.3,1.6-0.8,2.4-0.9c2.9-0.2,5.8-0.3,8.7-0.3c7.4,0,14.8,0,22.2,0c2.7,0,3.8,1,4.6,3.5c1.7,4.9,3.5,9.8,5.2,14.7
	c1.5,4.3,2.9,8.7,4.4,13c1.3,3.7,2.5,7.4,4,11.1c0.3,0.8,1.3,1.3,2,2.1c0.4-0.7,0.6-1,0.7-1.3c1.5-4.8,2.8-9.6,4.4-14.4
	c1.5-4.7,3.2-9.2,4.8-13.9c0.9-2.7,1.6-5.5,2.4-8.3c0.6-1.8,1.2-3.6,1.9-5.4c0.2-0.4,0.8-0.7,1.2-1c0.2-0.1,0.5-0.1,0.7-0.1
	c10.4,0.1,20.8,0.1,31.2,0.3c0.7,0,1.3,0.6,2,0.9c0,0.2-0.1,0.4-0.1,0.6c-1.8,0.2-3.6,0.4-5.4,0.6c-3.1,0.3-5.1,2.2-5.5,5.2
	c-0.3,2.1-0.3,4.2-0.3,6.3c0,17,0,34,0,51c0,2,0.1,4.1,0.3,6.1c0.3,3.3,2.3,5.1,5.6,5.4c1.4,0.1,2.7,0.3,4.1,0.5
	c0,0.3,0.1,0.6,0.1,0.9c-1,0.3-2.1,0.7-3.1,0.7c-6.7,0.1-13.4,0.1-20.1,0.1c-6,0-11.9,0-17.9-0.1c-1.1,0-2.2-0.4-3.3-0.7
	c0-0.3,0-0.6,0.1-0.9c1.2-0.2,2.3-0.4,3.5-0.5c4.2-0.4,4.9-0.8,5.6-4.9c0.5-2.9,0.7-5.9,0.7-8.8c0.1-14,0.1-28.1,0.1-42.1
	c0-2,0.2-3.9,0.2-5.9c0-1-0.3-2.1-0.5-3.3c-0.4,0.4-0.6,0.4-0.6,0.5c-0.8,3.1-1.6,6.3-2.5,9.4c-0.9,2.9-1.9,5.7-2.8,8.5
	c-0.7,2.1-1.4,4.2-2,6.3c-0.9,2.9-1.6,5.8-2.5,8.7c-0.9,2.9-1.9,5.7-2.8,8.5c-0.7,2.2-1.4,4.3-2.1,6.5c-0.8,2.8-1.6,5.7-2.5,8.5
	c-0.8,2.8-1.7,5.5-2.7,8.2c-0.9,2.6-3.1,2.2-5.1,2.1c-1.8-0.1-2.7-1.2-3.3-3c-1.5-4.4-3.2-8.7-4.9-13.1c-0.7-1.9-1.4-3.8-2.1-5.7
	c-1.5-4.2-2.9-8.3-4.4-12.5c-1.5-4-3.1-8-4.7-12c-0.9-2.3-1.6-4.6-2.5-6.9c-1.3-3.3-2.7-6.6-4.1-9.9
	C557.4,396.6,557.2,396.6,556.9,396.7z"/>
<path class="st1" d="M700.8,438.9c-0.2-0.7-0.5-1.3-0.6-2c-0.3-4.3-1.6-8.4-4-11.9c-2.2-3.2-5.6-4.6-9.6-4.6c-1.6,0-1.9,1.2-1.9,2.6
	c0,6.5,0,12.9,0,19.4c0,4.1,0,8.2,0,12.4c0,1.7,0.8,2.4,2.3,2.4c4.6-0.1,9.1-0.1,13.6-0.5c4.8-0.5,8-3.7,10.6-7.3
	c3.1-4.2,6-8.5,8.7-12.9c1.7-2.9,2.7-6.1,4.1-9.2c0.3-0.6,0.9-1,1.3-1.5c0.4,0.7,1,1.3,1,2c0.1,9.8,0.1,19.7,0,29.5
	c0,1.8-0.7,2.3-3,2.3c-15.5,0-31,0-46.5,0c-8.4,0-16.9,0-25.3-0.2c-0.9,0-1.7-0.7-2.6-1.1c0.8-0.3,1.6-0.7,2.4-0.8
	c1-0.2,2.1-0.2,3.1-0.3c2.9-0.3,4.7-1.9,4.9-4.8c0.2-2.4,0.3-4.8,0.3-7.2c0-18.2-0.1-36.4-0.2-54.7c0-1.9,0.2-4.1-1.6-5.4
	c-1-0.8-2.2-1.4-3.5-1.7c-1.3-0.4-2.8-0.2-4.2-0.4c-0.5-0.1-0.9-0.5-1.3-0.7c0.4-0.4,0.8-1,1.3-1c2.1-0.2,4.2-0.4,6.3-0.4
	c10.3,0,20.7,0.2,31,0.2c11.1,0,22.3-0.1,33.4-0.2c3.1,0,3.4,0.3,3.4,3.4c0,8.4,0,16.7,0,25.1c0,0.7,0.1,1.4-0.1,2
	c-0.1,0.5-0.6,0.9-1,1.4c-0.4-0.4-0.9-0.6-1.1-1.1c-1.9-3.5-3.5-7.1-5.6-10.5c-3.6-5.9-7.9-11.2-13.6-15.3c-1.8-1.3-4.1-1.9-6.3-2.2
	c-3-0.4-6-0.3-9-0.4c-2.2,0-2.7,0.4-2.7,2.5c-0.1,9.8-0.3,19.6-0.3,29.4c0,2.7,0.6,3.4,3.3,3c5.6-0.8,8.6-3.3,10.3-8.6
	c0.9-2.7,1.2-5.5,1.9-8.2c0.1-0.5,0.6-0.8,0.9-1.2c0.3,0.4,0.8,0.7,1,1.2c0.2,0.4,0.1,0.8,0.1,1.3c0,11.3,0,22.5,0,33.8
	c0,0.9-0.3,1.8-0.5,2.6C701.4,438.9,701.1,438.9,700.8,438.9z"/>
<path class="st1" d="M490.5,415.4c-0.7-1-1.5-1.9-2-3c-1.5-3.3-2.7-6.7-4.5-9.9c-3.2-5.9-6.1-11.9-10.8-16.7
	c-1.5-1.5-3.1-2.7-5.5-2.6c-2.3,0.1-2.8,0.5-2.8,2.8c0,9.1,0,18.2,0,27.3c0,10.5-0.1,20.9,0,31.4c0,2.9,0.4,5.8,0.8,8.6
	c0.3,2.2,1.8,3.5,4.1,3.7c2.1,0.2,4.2,0.4,6.3,0.5c0,0.2,0.1,0.4,0.1,0.7c-0.5,0.3-1,0.7-1.5,0.8c-1.3,0.2-2.6,0.3-3.9,0.3
	c-13,0-26.1-0.1-39.1-0.1c-1.1,0-2.3,0.1-2.9-1.6c1.1-0.1,2-0.3,2.9-0.3c1-0.1,2-0.1,2.9-0.2c3.1-0.2,4.8-1.8,5-5
	c0.2-2.8,0.3-5.7,0.3-8.5c0-18.8,0-37.7,0-56.5c0-1.3,0.8-3.2-0.9-3.8c-1.8-0.6-4.1-0.6-5.6,0.9c-2.3,2.3-4.6,4.6-6.3,7.3
	c-2.9,4.7-5.3,9.7-7.9,14.7c-1.2,2.4-2.2,4.9-3.5,7.3c-0.2,0.5-1,1.1-1.4,1c-0.6-0.1-1.1-0.8-1.5-1.3c-0.2-0.4-0.1-1-0.1-1.5
	c0-9.2,0-18.3,0-27.5c0-2.7,0.8-3.5,3.5-3.5c7.3,0,14.5,0.1,21.8,0.1c1.8,0,3.6-0.1,5.3-0.1c14.8,0,29.7,0,44.5,0
	c3.7,0,3.8,0.1,3.8,3.8c0,9.2,0,18.3,0,27.5c0,1-0.3,2.1-0.5,3.1C491.1,415.3,490.8,415.3,490.5,415.4z"/>
<path class="st1" d="M789.4,408.3c-0.7-1.1-1.7-2-2-3.2c-2.1-8-6.9-14-13.1-19.1c-4.3-3.5-9.4-5.1-14.8-4c-4,0.8-7.6,3-8.6,7.5
	c-0.6,2.7,0.4,5,1.9,7.1c2.5,3.5,6.3,5.2,10.1,6.8c3.9,1.7,7.8,3.4,11.7,5.2c2.8,1.3,5.7,2.6,8.4,4.1c4.2,2.3,7.5,5.6,9.8,9.9
	c1.1,2.1,2.2,4.2,3.2,6.3c0.2,0.4,0.2,1,0.2,1.5c0,2.3-0.1,4.6,0.1,6.8c0.5,6.9-3,11.9-7.6,16.2c-2.9,2.8-6.6,4.5-10.3,6.2
	c-5,2.2-9.9,1-14.8,1c-1.8,0-3.7-1.3-5.4-2.3c-4.2-2.5-8.2-5.3-12.4-7.9c-3.1-2-6.3-0.5-6.8,3.1c-0.3,1.9-0.7,3.9-1.2,5.8
	c-0.2,0.6-0.9,1-1.4,1.6c-0.2-0.6-0.7-1.2-0.7-1.9c0-8.4,0-16.7,0-25.1c0-3.1,0-6.3,0-9.4c0-0.6,0.5-1.2,0.8-1.8
	c0.6,0.4,1.3,0.8,1.8,1.3c0.3,0.4,0.4,1,0.5,1.6c1,5,3,9.7,5.3,14.2c2.1,4.1,4.5,7.8,7.8,11c3.3,3.1,6.8,5.9,11.5,6.8
	c1.9,0.3,3.8,1,5.8,1.1c3.5,0.3,6.6-0.9,9.3-3.2c2.5-2.3,3.4-7.2,2.1-10.4c-1.8-4.2-5.3-6.1-9-7.9c-3.9-1.8-7.9-3.4-11.7-5.2
	c-4.1-2-8.2-4-12.3-6.2c-6.1-3.3-10.2-8.1-10.5-15.3c-0.2-3.9-0.3-7.8,0.3-11.6c0.6-4.5,3.2-8.2,6.4-11.3c3-2.9,6.5-4.8,10.3-6.6
	c4.7-2.2,9.4-1,14-1.1c1.6,0,3.2,1.2,4.7,2.1c3.4,1.9,6.7,4,10.1,6c1.7,1,3.2,0.8,4-1c0.8-1.8,1.1-3.9,1.8-5.8
	c0.2-0.6,0.7-1,1.1-1.6c0.4,0.5,1,1,1,1.5c0.1,8.2,0.1,16.4,0,24.6c0,0.8-0.3,1.6-0.5,2.4C789.9,408.2,789.7,408.3,789.4,408.3z"/>
<path class="st1" d="M291.4,430.6c1.5,2.1,0.8,3.9,0.3,5.5c-0.9,2.9-1.8,5.9-3.1,8.6c-1.9,4.1-4.6,7.9-8.3,10.5
	c-2.4,1.7-5.2,2.6-7.8,4c-4.9,2.6-10.2,1.3-15.3,1.7c-4.6,0.3-8.6-1.5-12.8-3.1c-4.6-1.8-8.6-4.5-11.8-8.2c-2.6-3-4.9-6.3-6.8-9.7
	c-5.2-9.6-4.9-19.9-3.4-30.2c0.8-5.1,3.1-9.9,6.1-14.3c3.4-4.9,7.8-8.7,12.9-11.5c2.1-1.1,4.5-1.6,6.6-2.6
	c5.6-2.7,11.5-1.3,17.3-1.6c3-0.2,5.5,1.5,8,2.7c3.4,1.6,6.5,3.9,9.8,5.8c1.2,0.7,2.6,0.6,3.4-0.7c0.8-1.4,1.4-3,2-4.6
	c0.4-1,0.6-2.1,0.8-3.1c0.2,0,0.4,0,0.7,0c0.3,1.3,0.9,2.5,0.9,3.8c0.1,9.2,0,18.5,0,27.7c0,0.3,0.1,0.7-0.1,0.9
	c-0.3,0.7-0.7,1.3-1.1,2c-0.4-0.6-1-1.1-1.2-1.8c-1.7-4.6-3.5-9.2-5-13.8c-1.3-4-3.4-7.3-6.3-10.3c-6.1-6.4-17-7.3-22.2,2.3
	c-3.7,6.8-5.4,14.2-5.5,21.9c-0.1,6-0.1,12,0.4,17.9c0.4,3.8,1.7,7.6,3,11.3c1,2.8,2.4,5.6,4.1,8.2c2.9,4.6,7.3,6.3,12.6,6.1
	c7.2-0.2,11.9-4,15.5-9.9c2.5-4.2,3.7-8.9,5.1-13.5C290.6,432,290.9,431.5,291.4,430.6z"/>
<path class="st1" d="M539.4,458.6c-0.8,0.2-1.6,0.7-2.5,0.7c-5.9,0.1-11.8,0.2-17.7,0.2c-7.6,0-15.3-0.1-22.9-0.1
	c-0.9,0-1.7-0.4-2.6-0.7c0-0.3,0-0.6,0.1-0.8c1.1-0.2,2.2-0.5,3.2-0.5c4.7,0.1,6.2-1.7,7-7.2c0.3-2,0.3-4.1,0.3-6.1
	c0-15.9,0.1-31.7,0-47.6c0-3.2-0.5-6.5-1.1-9.7c-0.4-2.3-2-3.4-4.4-3.5c-1.2,0-2.5-0.1-3.7-0.3c-0.4-0.1-0.8-0.5-1.2-0.8
	c0.4-0.3,0.8-0.9,1.2-0.9c1.8-0.2,3.6-0.4,5.3-0.4c10.5,0,20.9,0,31.4,0c1.8,0,3.7,0.1,5.5,0.3c0.6,0.1,1.1,0.6,1.6,0.9
	c-0.6,0.3-1.1,0.8-1.7,0.9c-1.1,0.2-2.2,0.3-3.3,0.3c-2.7-0.1-4,1.6-4.6,3.9c-0.3,1.2-0.5,2.5-0.5,3.8c0,19.6,0,39.1,0,58.7
	c0,1.1,0.2,2.2,0.5,3.3c1,3.3,2.1,4.1,5.5,4.4c1.4,0.1,2.9,0.3,4.3,0.4C539.3,458,539.4,458.3,539.4,458.6z"/>
</svg>
