<svg viewBox="0 -17 220 73" fill="none" xmlns="http://www.w3.org/2000/svg">
<g clip-path="url(#clip0)">
<path d="M106.5 1.89999H116.8V15H127.5V1.89999H137.8V36.9H127.5V22.6H116.8V36.9H106.5V1.89999Z" fill="#1C1C1C"/>
<path d="M167.7 23.5C167.7 31.8 162.6 37.5 153.4 37.5C143.9 37.5 139.3 31.3 139.3 23.6C139.3 15.6 144.2 9.60001 153.7 9.60001C162.5 9.60001 167.7 15.4 167.7 23.5ZM149.4 23.6C149.4 28.7 150.9 30.9 153.6 30.9C156.2 30.9 157.6 28.6 157.6 23.7C157.6 18.2 156.2 16.3 153.5 16.3C151.1 16.3 149.4 18.1 149.4 23.6Z" fill="#1C1C1C"/>
<path d="M169.3 36.8V0H179.2V36.8H169.3Z" fill="#1C1C1C"/>
<path d="M182.2 36.8V0H192.1V36.8H182.2Z" fill="#1C1C1C"/>
<path d="M219.7 28.9C219.7 31.9 219.9 35.9 220 36.8H210.8C210.6 36.2 210.4 35 210.4 34.4C209.1 36 207.2 37.5 202.9 37.5C197 37.5 193.7 33.8 193.7 29C193.7 22.7 198.7 20 206.9 20H210.2V18.5C210.2 16.8 209.6 15.6 207.2 15.6C205 15.6 204.4 16.6 204.2 18.3H195C195.4 13.8 198 9.5 207.4 9.5C216.1 9.5 219.7 12.9 219.7 19.3V28.9ZM210.2 24.9H208C204.6 24.9 203.5 26.1 203.5 28.1C203.5 29.6 204.4 30.9 206.4 30.9C209.8 30.9 210.2 28.6 210.2 25.7V24.9Z" fill="#1C1C1C"/>
<path d="M53.9 33.6H53.8V37H44.5V0.100006H54.3V13.4H54.5C56.4 11.1 58.7 9.80002 62.2 9.80002C69.3 9.80002 73.4 16.1 73.4 23.7C73.4 32.7 69.1 37.8 62.2 37.8C58.8 37.9 55.7 36.6 53.9 33.6ZM63.4 23.7C63.4 19.6 61.8 16.9 58.9 16.9C55.9 16.9 53.9 19.8 54 23.7C54 27.6 56 30.5 59 30.5C61.9 30.5 63.4 27.8 63.4 23.7Z" fill="#1C1C1C"/>
<path d="M75.7 10.7H85.5V37H75.7V10.7ZM75.7 2.20001H85.5V7.5H75.7V2.20001Z" fill="#1C1C1C"/>
<path d="M98.4 16.5V27.2C98.4 29.8 100.3 29.9 103.3 29.7V36.9C101.8 37.3 100.3 37.5 98.5 37.5C92.1 37.5 88.8 35.7 88.8 29.4V16.6H83.2V10.7H88.8V2.20001H98.3V10.7" fill="#1C1C1C"/>
<path d="M98.1 10.6H103.3V16.5H98.1" fill="#1C1C1C"/>
<path d="M0 0.100006V36.9H36.5V0.100006H16.3V10.4H26.2V26.7H10.3V0.100006H0Z" fill="#1C1C1C"/>
</g>
<defs>
<clipPath id="clip0">
<rect width="220" height="37.805" fill="white"/>
</clipPath>
</defs>
</svg>
