<svg width="350" height="166" viewBox="0 0 350 166" fill="none" xmlns="http://www.w3.org/2000/svg">
<path d="M345.097 154.534C345.049 154.681 344.999 154.828 344.95 154.977C344.522 156.233 344.051 157.508 343.535 158.802C343.463 158.982 343.389 159.163 343.316 159.343C342.689 160.884 341.996 162.453 341.235 164.049C341.235 164.051 341.235 164.051 341.233 164.052C341.225 164.07 341.217 164.091 341.207 164.109L18.308 164.547C18.3842 163.255 -11.1835 121.511 19.7546 80.8814C50.6928 40.2545 86.8687 62.1481 94.2914 33.5605C95.8951 27.3838 98.4753 22.1763 101.788 17.8449C101.963 17.6129 102.142 17.3833 102.324 17.1585C102.789 16.576 103.267 16.0116 103.758 15.4629C103.894 15.3107 104.031 15.1596 104.169 15.0097C105.419 13.6562 106.749 12.4029 108.148 11.2476C108.43 11.0156 108.713 10.7859 109.002 10.5624H109.003C126.19 -2.88606 153.207 -2.31201 172.506 5.68598C198.136 16.3065 245.046 -2.1537 285.13 11.3358C285.795 11.5582 286.457 11.7902 287.117 12.0331H287.118C288.507 12.5395 289.885 13.0858 291.253 13.6767C294.233 14.9602 296.837 16.4189 299.113 18.0238C299.437 18.2522 299.753 18.4842 300.064 18.7175H300.066C327.835 39.6672 303.148 83.5958 317.491 90.3889C326.49 94.6513 339.775 104.222 345.521 119.76C345.594 119.957 345.666 120.155 345.736 120.354C345.815 120.575 345.891 120.798 345.966 121.02C346.034 121.221 346.1 121.422 346.163 121.623C349.061 130.645 349.412 141.578 345.097 154.534Z" fill="#DAE3FE"/>
<g opacity="0.4">
<g opacity="0.4">
<path opacity="0.4" d="M159.079 50.4941H184.051V29.9033L159.079 29.9033V50.4941Z" fill="#C3DAFC"/>
<path opacity="0.4" d="M171.564 50.4941H196.535V29.9033L171.564 29.9033V50.4941Z" fill="#D4E4F8"/>
<path opacity="0.4" d="M159.094 45.2723H163.05L162.701 44.1592L163.05 43.3628H159.094V45.2723Z" fill="#9DC3F3"/>
<path opacity="0.4" d="M171.564 36.2762H175.521L175.173 35.1619L175.521 34.3667H171.564V36.2762Z" fill="#E3F0FF"/>
<path opacity="0.4" d="M171.564 34.3667H167.607L167.955 35.4797L167.607 36.2762H171.564V34.3667Z" fill="#9DC3F3"/>
<path opacity="0.4" d="M196.537 45.4937H192.58L192.928 46.6067L192.58 47.4031H196.537V45.4937Z" fill="#E3F0FF"/>
<path opacity="0.4" d="M194.901 31.2993H187.715V34.0946H194.901V31.2993Z" fill="white"/>
</g>
<g opacity="0.4">
<path opacity="0.4" d="M114.978 50.4941H139.949V29.9033L114.978 29.9033V50.4941Z" fill="#C3DAFC"/>
<path opacity="0.4" d="M127.464 50.4941H152.436V29.9033L127.464 29.9033V50.4941Z" fill="#D4E4F8"/>
<path opacity="0.4" d="M114.992 45.2723H118.949L118.601 44.1592L118.949 43.3628H114.992V45.2723Z" fill="#9DC3F3"/>
<path opacity="0.4" d="M127.463 36.2762H131.42L131.072 35.1619L131.42 34.3667H127.463V36.2762Z" fill="#E3F0FF"/>
<path opacity="0.4" d="M127.464 34.3667H123.506L123.855 35.4797L123.506 36.2762H127.464V34.3667Z" fill="#9DC3F3"/>
<path opacity="0.4" d="M152.436 45.4937H148.479L148.828 46.6067L148.479 47.4031H152.436V45.4937Z" fill="#E3F0FF"/>
<path opacity="0.4" d="M150.801 31.2993H143.615V34.0946H150.801V31.2993Z" fill="white"/>
</g>
<g opacity="0.4">
<path opacity="0.4" d="M108.43 50.4941H98.8242V165.057H108.43V50.4941Z" fill="#C3DAFC"/>
<path opacity="0.4" d="M212.112 50.4941H204.129V165.057H212.112V50.4941Z" fill="#C3DAFC"/>
<path opacity="0.4" d="M212.114 50.4941H108.43V53.4756H212.114V50.4941Z" fill="#C3DAFC"/>
<path opacity="0.4" d="M212.114 104.794H108.43V107.776H212.114V104.794Z" fill="#C3DAFC"/>
<path opacity="0.4" d="M212.114 150.336H108.43V153.318H212.114V150.336Z" fill="#C3DAFC"/>
<g opacity="0.4">
<path opacity="0.4" d="M160.809 104.794H186.627V83.5063H160.809V104.794Z" fill="#A9C8ED"/>
<path opacity="0.4" d="M173.718 104.794H199.535V83.5063H173.718V104.794Z" fill="#D4E4F8"/>
<path opacity="0.4" d="M160.824 99.3945H164.915L164.555 98.2439L164.915 97.4209H160.824V99.3945Z" fill="#9DC3F3"/>
<path opacity="0.4" d="M173.717 90.0939H177.808L177.447 88.9422L177.808 88.1204H173.717V90.0939Z" fill="#E3F0FF"/>
<path opacity="0.4" d="M173.718 88.1204H169.627L169.987 89.2709L169.627 90.0939H173.718V88.1204Z" fill="#9DC3F3"/>
<path opacity="0.4" d="M199.536 99.623H195.445L195.805 100.775L195.445 101.598H199.536V99.623Z" fill="#E3F0FF"/>
<path opacity="0.4" d="M197.846 84.949H190.416V87.8398H197.846V84.949Z" fill="white"/>
</g>
<g opacity="0.4">
<path opacity="0.4" d="M127.675 104.794H153.492V83.5063H127.675V104.794Z" fill="#C3DAFC"/>
<path opacity="0.4" d="M140.583 104.794H166.4V83.5063H140.583V104.794Z" fill="#D4E4F8"/>
<path opacity="0.4" d="M127.689 99.3945H131.78L131.42 98.2439L131.78 97.4209H127.689V99.3945Z" fill="#9DC3F3"/>
<path opacity="0.4" d="M140.584 90.0939H144.675L144.315 88.9422L144.675 88.1204H140.584V90.0939Z" fill="#E3F0FF"/>
<path opacity="0.4" d="M140.583 88.1204H136.492L136.852 89.2709L136.492 90.0939H140.583V88.1204Z" fill="#9DC3F3"/>
<path opacity="0.4" d="M166.401 99.623H162.311L162.671 100.775L162.311 101.598H166.401V99.623Z" fill="#E3F0FF"/>
<path opacity="0.4" d="M166.401 87.8384H162.311L162.671 88.9901L162.311 89.8131H166.401V87.8384Z" fill="#E3F0FF"/>
<path opacity="0.4" d="M155.301 97.803H143.191V102.514H155.301V97.803Z" fill="white"/>
</g>
<g opacity="0.4">
<path opacity="0.4" d="M160.808 150.267H183.123V131.868H160.808V150.267Z" fill="#C3DAFC"/>
<path opacity="0.4" d="M171.966 150.267H194.281V131.868H171.966V150.267Z" fill="#D4E4F8"/>
<path opacity="0.4" d="M160.822 145.601H164.358L164.047 144.606L164.358 143.895H160.822V145.601Z" fill="#9DC3F3"/>
<path opacity="0.4" d="M171.967 137.563H175.503L175.191 136.567L175.503 135.856H171.967V137.563Z" fill="#E3F0FF"/>
<path opacity="0.4" d="M171.966 135.856H168.43L168.741 136.851L168.43 137.563H171.966V135.856Z" fill="#9DC3F3"/>
<path opacity="0.4" d="M194.282 145.799H190.746L191.058 146.794L190.746 147.505H194.282V145.799Z" fill="#E3F0FF"/>
<path opacity="0.4" d="M192.819 133.115H186.398V135.613H192.819V133.115Z" fill="white"/>
</g>
<g opacity="0.4">
<path opacity="0.4" d="M118.426 150.267H144.244V128.979H118.426V150.267Z" fill="#C3DAFC"/>
<path opacity="0.4" d="M131.335 150.267H157.152V128.979H131.335V150.267Z" fill="#D4E4F8"/>
<path opacity="0.4" d="M118.439 144.869H122.532L122.17 143.717L122.532 142.894H118.439V144.869Z" fill="#2A4E96"/>
<path opacity="0.4" d="M131.336 135.567H135.427L135.067 134.415L135.427 133.593H131.336V135.567Z" fill="#618DC1"/>
<path opacity="0.4" d="M131.334 133.593H127.242L127.604 134.744L127.242 135.567H131.334V133.593Z" fill="#2A4E96"/>
<path opacity="0.4" d="M157.153 145.097H153.062L153.423 146.248L153.062 147.071H157.153V145.097Z" fill="#618DC1"/>
<path opacity="0.4" d="M155.463 130.422H148.033V133.313H155.463V130.422Z" fill="white"/>
</g>
<g opacity="0.4">
<path opacity="0.4" d="M125.694 83.4075H145.432V67.1323H125.694V83.4075Z" fill="#C3DAFC"/>
<path opacity="0.4" d="M135.563 83.4075H155.301V67.1323H135.563V83.4075Z" fill="#D4E4F8"/>
<path opacity="0.4" d="M125.707 79.2797H128.835L128.559 78.3999L128.835 77.7715H125.707V79.2797Z" fill="#9DC3F3"/>
<path opacity="0.4" d="M135.562 72.1689H138.69L138.415 71.2891L138.69 70.6606H135.562V72.1689Z" fill="#E3F0FF"/>
<path opacity="0.4" d="M135.561 70.6606H132.434L132.709 71.5404L132.434 72.1689H135.561V70.6606Z" fill="#9DC3F3"/>
<path opacity="0.4" d="M155.3 79.4551H152.172L152.447 80.3349L152.172 80.9645H155.3V79.4551Z" fill="#E3F0FF"/>
<path opacity="0.4" d="M154.008 68.2366H148.328V70.4457H154.008V68.2366Z" fill="white"/>
</g>
<g opacity="0.4">
<path opacity="0.4" d="M160.96 83.4075H180.697V67.1323H160.96V83.4075Z" fill="#C3DAFC"/>
<path opacity="0.4" d="M170.827 83.4075H190.564V67.1323H170.827V83.4075Z" fill="#D4E4F8"/>
<path opacity="0.4" d="M160.971 79.2797H164.098L163.823 78.3999L164.098 77.7715H160.971V79.2797Z" fill="#9DC3F3"/>
<path opacity="0.4" d="M170.826 72.1689H173.954L173.678 71.2891L173.954 70.6606H170.826V72.1689Z" fill="#E3F0FF"/>
<path opacity="0.4" d="M170.827 70.6606H167.699L167.975 71.5404L167.699 72.1689H170.827V70.6606Z" fill="#9DC3F3"/>
<path opacity="0.4" d="M190.565 79.4551H187.438L187.713 80.3349L187.438 80.9645H190.565V79.4551Z" fill="#E3F0FF"/>
<path opacity="0.4" d="M189.274 68.2366H183.594V70.4457H189.274V68.2366Z" fill="white"/>
</g>
</g>
</g>
<path d="M319.034 133.241L318.543 133.096C319.841 128.686 317.486 124.095 313.295 122.861L302.736 119.754C300.563 119.114 299.342 116.733 300.014 114.447C302.189 107.058 298.243 99.3646 291.219 97.298L291.371 96.7808C298.666 98.9271 302.764 106.918 300.506 114.592C299.918 116.593 300.986 118.677 302.888 119.236L313.447 122.343C317.908 123.658 320.415 128.546 319.034 133.241Z" fill="#2B478B"/>
<path d="M317.968 136.865L317.477 136.72C318.775 132.31 316.419 127.719 312.228 126.485L301.67 123.378C299.497 122.739 298.276 120.358 298.948 118.073C301.122 110.684 297.176 102.99 290.152 100.923L290.305 100.405C297.599 102.552 301.697 110.542 299.44 118.216C298.851 120.218 299.92 122.301 301.822 122.861L312.381 125.968C316.842 127.283 319.349 132.17 317.968 136.865Z" fill="#2B478B"/>
<path d="M263.109 83.3276H240.877V101.66H263.109V83.3276Z" fill="#ED823A"/>
<path d="M251.994 83.3276H229.762V101.66H251.994V83.3276Z" fill="#FF9E55"/>
<path d="M263.097 97.0106H259.574L259.885 96.0185L259.574 95.3103H263.097V97.0106Z" fill="#DD732C"/>
<path d="M251.994 89.0006H248.471L248.781 88.0097L248.471 87.3015H251.994V89.0006Z" fill="#FFB27D"/>
<path d="M251.994 87.3015H255.517L255.208 88.2925L255.517 89.0006H251.994V87.3015Z" fill="#DD732C"/>
<path d="M229.762 97.2075H233.284L232.974 98.1985L233.284 98.9066H229.762V97.2075Z" fill="#FFB27D"/>
<path d="M231.217 87.0591H237.615V84.5696H231.217V87.0591Z" fill="white"/>
<path d="M263.91 33.4772C260.722 33.4772 257.38 32.9708 255.525 31.9013C252.573 30.1984 248.829 30.9199 248.792 30.9272L248.701 30.4752C248.861 30.4426 252.651 29.709 255.755 31.5012C258.815 33.2669 266.418 33.424 269.86 32.2517C273.251 31.0976 277.753 29.8552 279.625 29.8552V30.3169C277.805 30.3169 273.365 31.5459 270.009 32.6892C268.488 33.2065 266.24 33.4772 263.91 33.4772Z" fill="#2B478B"/>
<path d="M245.586 66.4299H244.127V75.941H245.586V66.4299Z" fill="#2B478B"/>
<path d="M248.472 66.4299H247.014V75.941H248.472V66.4299Z" fill="#2B478B"/>
<path d="M263.91 32.4525C260.722 32.4525 257.38 31.9461 255.525 30.8766C252.573 29.1738 248.829 29.8953 248.792 29.9025L248.701 29.4505C248.861 29.4179 252.651 28.6855 255.755 30.4766C258.815 32.2422 266.418 32.3993 269.86 31.227C273.251 30.0729 277.753 28.8306 279.625 28.8306V29.2922C277.805 29.2922 273.365 30.5213 270.009 31.6645C268.488 32.183 266.24 32.4525 263.91 32.4525Z" fill="#2B478B"/>
<path d="M294.613 88.0493H294.008V87.5876H294.613C297.417 87.5876 299.699 85.3059 299.699 82.5021V29.8638C299.699 27.06 297.417 24.7783 294.613 24.7783H290.125V24.3167H294.613C297.672 24.3167 300.161 26.805 300.161 29.8626V82.5009C300.161 85.5609 297.672 88.0493 294.613 88.0493Z" fill="#2B478B"/>
<path d="M294.01 83.592V83.1304C295.961 83.1304 297.546 81.5436 297.546 79.5942V30.6637C297.546 28.7723 296.008 27.2339 294.116 27.2339H290.559V26.7722H294.116C296.262 26.7722 298.008 28.5173 298.008 30.6637V79.593C298.009 81.7974 296.214 83.592 294.01 83.592Z" fill="#2B478B"/>
<path d="M252.394 68.5413H239.798C238.005 68.5413 236.553 67.0887 236.553 65.2964V37.156C236.553 35.3638 238.005 33.9111 239.798 33.9111H252.394C254.186 33.9111 255.639 35.3638 255.639 37.156V65.2964C255.639 67.0887 254.186 68.5413 252.394 68.5413Z" fill="#AEC3FF"/>
<path d="M241.786 40.499C242.703 40.499 243.446 39.7556 243.446 38.8385C243.446 37.9214 242.703 37.178 241.786 37.178C240.868 37.178 240.125 37.9214 240.125 38.8385C240.125 39.7556 240.868 40.499 241.786 40.499Z" fill="#DDE7FE"/>
<path d="M240.125 62.5206C240.125 61.6034 240.868 60.8601 241.786 60.8601C242.703 60.8601 243.446 61.6034 243.446 62.5206C243.446 63.4379 242.703 64.1812 241.786 64.1812C240.868 64.1812 240.125 63.4379 240.125 62.5206Z" fill="#DDE7FE"/>
<path d="M248.746 38.8385C248.746 37.9212 249.489 37.178 250.408 37.178C251.326 37.178 252.068 37.9212 252.068 38.8385C252.068 39.7558 251.325 40.499 250.408 40.499C249.491 40.499 248.746 39.7558 248.746 38.8385Z" fill="#DDE7FE"/>
<path d="M248.746 62.5206C248.746 61.6034 249.489 60.8601 250.408 60.8601C251.326 60.8601 252.068 61.6034 252.068 62.5206C252.068 63.4379 251.325 64.1812 250.408 64.1812C249.491 64.1812 248.746 63.4379 248.746 62.5206Z" fill="#DDE7FE"/>
<path d="M253.185 77.5748C253.185 77.9168 253.109 78.2492 252.967 78.5646H239.923C239.781 78.2479 239.705 77.9168 239.705 77.5748C239.705 75.414 242.724 73.6604 246.445 73.6604C250.166 73.6604 253.185 75.4128 253.185 77.5748Z" fill="#FF9E55"/>
<path d="M264.482 82.0369V99.7647C264.482 101.187 263.783 102.519 262.613 103.325L257.206 107.053C256.818 107.32 256.287 107.224 256.02 106.836C255.753 106.448 255.85 105.917 256.238 105.65L261.645 101.922C262.353 101.432 262.777 100.628 262.777 99.7647V82.0369C262.777 80.119 261.223 78.5648 259.305 78.5648H233.584C231.666 78.5648 230.112 80.119 230.112 82.0369V99.6632C230.112 100.572 230.572 101.402 231.343 101.884L237.384 105.661C237.782 105.91 237.903 106.436 237.654 106.835C237.405 107.233 236.878 107.355 236.48 107.106L230.438 103.331C229.164 102.535 228.404 101.164 228.404 99.6632V82.0369C228.404 79.1776 230.722 76.8596 233.582 76.8596H259.303C262.164 76.8596 264.482 79.1776 264.482 82.0369Z" fill="#2B478B"/>
<path d="M281.022 23.2507H245.58V24.3179H281.022V23.2507Z" fill="#2B478B"/>
<path d="M281.022 26.2393H245.58V27.3064H281.022V26.2393Z" fill="#2B478B"/>
<path d="M250.692 33.911H240.123V26.4968C240.123 23.4839 242.565 21.0403 245.58 21.0403C248.592 21.0403 251.036 23.4827 251.036 26.4968V33.5666C251.036 33.7563 250.883 33.911 250.692 33.911Z" fill="#FF9E55"/>
<path d="M288.21 21.0403H282.824C280.29 21.0403 278.236 23.0948 278.236 25.6278V121.761C278.236 124.295 280.291 126.348 282.824 126.348H288.21C290.745 126.348 292.798 124.294 292.798 121.761V25.6278C292.799 23.0948 290.745 21.0403 288.21 21.0403Z" fill="#AEC3FF"/>
<path d="M285.517 27.0032C285.985 27.0032 286.364 26.6239 286.364 26.156C286.364 25.6881 285.985 25.3088 285.517 25.3088C285.049 25.3088 284.67 25.6881 284.67 26.156C284.67 26.6239 285.049 27.0032 285.517 27.0032Z" fill="#2B478B"/>
<path d="M291.767 106.124H278.738C277.499 106.124 276.496 105.121 276.496 103.882V38.1205C276.496 36.8817 277.5 35.8787 278.738 35.8787H291.767C293.006 35.8787 294.009 36.8829 294.009 38.1205V103.882C294.009 105.121 293.006 106.124 291.767 106.124Z" fill="#98B5F4"/>
<path d="M295.028 131.673H278.665C277.468 131.673 276.496 130.702 276.496 129.504V122.02C276.496 120.822 277.468 119.85 278.665 119.85H292.858C294.056 119.85 295.028 120.822 295.028 122.02V131.673Z" fill="#98B5F4"/>
<path d="M248.802 26.3227C248.842 24.5419 247.431 23.0654 245.65 23.0249C243.869 22.9845 242.393 24.3954 242.353 26.1763C242.312 27.9572 243.723 29.4337 245.504 29.4741C247.285 29.5145 248.761 28.1036 248.802 26.3227Z" fill="#FF9E55"/>
<path d="M245.58 29.5653C243.746 29.5653 242.254 28.074 242.254 26.2394C242.254 24.4061 243.745 22.9136 245.58 22.9136C247.414 22.9136 248.906 24.4049 248.906 26.2394C248.906 28.0728 247.414 29.5653 245.58 29.5653ZM245.58 23.113C243.856 23.113 242.455 24.5149 242.455 26.2382C242.455 27.9616 243.856 29.3635 245.58 29.3635C247.303 29.3635 248.705 27.9616 248.705 26.2382C248.706 24.5161 247.303 23.113 245.58 23.113Z" fill="#2B478B"/>
<path d="M247.507 26.7057C247.757 25.6476 247.102 24.5872 246.044 24.3373C244.985 24.0875 243.925 24.7427 243.675 25.8009C243.425 26.859 244.08 27.9193 245.139 28.1692C246.197 28.4191 247.257 27.7638 247.507 26.7057Z" fill="#ED823A"/>
<path d="M322.147 131.114L334.766 125.38L330.037 114.975L317.419 120.709L322.147 131.114Z" fill="#C3DAFC"/>
<path d="M328.454 128.244L341.072 122.51L336.344 112.105L323.726 117.839L328.454 128.244Z" fill="#D4E4F8"/>
<path d="M325.186 121.074L327.186 120.165L326.754 119.683L326.747 119.201L324.748 120.11L325.186 121.074Z" fill="#618DC1"/>
<path d="M324.748 120.11L322.748 121.019L323.179 121.501L323.187 121.983L325.186 121.074L324.748 120.11Z" fill="#2A4E96"/>
<path d="M339.922 119.998L337.922 120.906L338.355 121.389L338.361 121.871L340.361 120.962L339.922 119.998Z" fill="#618DC1"/>
<path d="M335.832 113.211L332.201 114.861L332.843 116.274L336.474 114.624L335.832 113.211Z" fill="white"/>
<path d="M345.096 154.533C345.048 154.681 344.998 154.828 344.949 154.977C344.521 156.233 344.05 157.508 343.534 158.802C343.462 158.982 343.389 159.163 343.315 159.343C342.688 160.884 341.995 162.453 341.234 164.049H324.266L323.295 154.977L323.248 154.533L323.21 154.185L320.795 131.672L320.777 131.498L322.054 130.929L328.38 128.101L334.708 125.274L341.034 122.448L345.736 120.349C345.814 120.57 345.89 120.793 345.965 121.015C346.033 121.216 346.099 121.417 346.162 121.618C349.06 130.645 349.411 141.578 345.096 154.533Z" fill="#2B478B"/>
<path d="M345.097 154.533C345.048 154.681 344.999 154.828 344.949 154.977H324.989L324.946 154.533L324.911 154.185L322.73 132.123L323.737 131.672L346.162 121.618C349.06 130.645 349.411 141.578 345.097 154.533Z" fill="#D2E0FF"/>
<path d="M324.991 154.977H154.194C147.759 154.977 142.543 149.761 142.543 143.326C142.543 136.89 147.76 131.674 154.194 131.674H324.992C331.428 131.674 336.644 136.892 336.644 143.326C336.642 149.76 331.426 154.977 324.991 154.977Z" fill="#AEC3FF"/>
<path d="M336.641 143.325C336.641 146.543 335.337 149.456 333.228 151.564C331.12 153.672 328.206 154.977 324.989 154.977H296.028C295.407 154.977 294.904 154.474 294.904 153.853V132.797C294.904 132.176 295.407 131.673 296.028 131.673H324.989C331.425 131.673 336.641 136.891 336.641 143.325Z" fill="#C5D7FF"/>
<path d="M345.097 154.533C345.049 154.681 344.999 154.828 344.95 154.977C344.522 156.233 344.05 157.508 343.534 158.802C343.463 158.982 343.389 159.163 343.316 159.343C342.688 160.884 341.996 162.453 341.235 164.049C341.235 164.051 341.235 164.051 341.233 164.052L322.747 164.06L153.025 164.139V154.535H345.097V154.533Z" fill="#C5D7FF"/>
<path d="M204.237 142.067L202.923 141.456C202.814 141.404 202.743 141.297 202.741 141.177C202.737 141.024 202.726 140.868 202.709 140.713C202.679 140.424 202.627 140.143 202.553 139.872C202.518 139.746 202.564 139.612 202.668 139.533L203.872 138.616C204 138.52 204.034 138.338 203.945 138.199L203.205 137.029C203.121 136.897 202.951 136.851 202.811 136.918L201.56 137.532C201.439 137.595 201.29 137.568 201.194 137.467C200.785 137.042 200.309 136.683 199.786 136.405C199.659 136.337 199.594 136.188 199.627 136.049L199.83 135.226C199.868 135.07 199.783 134.908 199.63 134.85L198.338 134.384C198.311 134.373 198.285 134.367 198.257 134.366C198.129 134.353 198.001 134.423 197.946 134.545L197.488 135.526L197.378 135.767C197.121 135.757 196.859 135.767 196.596 135.796C196.242 135.834 195.899 135.904 195.573 136.003C195.448 136.041 195.313 136 195.234 135.895L194.497 134.924C194.396 134.791 194.211 134.759 194.071 134.848L193.176 135.412L192.92 135.576C192.78 135.664 192.728 135.845 192.802 135.993L193.314 137.039C193.374 137.16 193.353 137.306 193.257 137.398C192.979 137.682 192.729 137.994 192.518 138.327C192.496 138.355 192.48 138.383 192.463 138.411C192.458 138.422 192.451 138.43 192.444 138.439C192.368 138.541 192.238 138.586 192.114 138.555L190.776 138.227C190.762 138.223 190.746 138.222 190.731 138.219C190.59 138.205 190.453 138.29 190.403 138.426L189.935 139.715C189.879 139.869 189.949 140.042 190.101 140.114L191.472 140.749C191.589 140.801 191.66 140.921 191.652 141.049C191.64 141.331 191.649 141.617 191.68 141.907C191.697 142.062 191.72 142.213 191.749 142.363C191.772 142.484 191.724 142.608 191.626 142.682L190.468 143.565C190.341 143.661 190.307 143.841 190.394 143.977L191.129 145.134C191.218 145.273 191.397 145.326 191.548 145.252L192.538 144.766C192.672 144.701 192.829 144.735 192.924 144.847C193.292 145.292 193.727 145.676 194.213 145.988C194.33 146.06 194.386 146.2 194.352 146.333L194.056 147.538C194.017 147.699 194.107 147.865 194.262 147.923L195.545 148.39C195.698 148.445 195.871 148.373 195.938 148.225L195.964 148.168L196.495 147.028C196.552 146.905 196.675 146.834 196.81 146.843H196.812C197.134 146.863 197.463 146.858 197.795 146.822C197.973 146.804 198.146 146.775 198.319 146.74C198.438 146.715 198.56 146.76 198.634 146.857L199.383 147.842C199.486 147.977 199.676 148.011 199.817 147.922L200.968 147.191C201 147.169 201.027 147.142 201.05 147.115C201.121 147.02 201.137 146.891 201.085 146.781L200.673 145.946C200.623 145.844 200.633 145.722 200.695 145.629C200.711 145.605 200.732 145.583 200.754 145.563C201.323 145.087 201.789 144.504 202.129 143.846C202.186 143.733 202.305 143.669 202.429 143.676C202.447 143.678 202.465 143.68 202.483 143.686L203.565 143.951C203.723 143.989 203.883 143.905 203.941 143.751L203.952 143.721L204.41 142.467C204.463 142.311 204.389 142.139 204.237 142.067ZM199.979 142.482C199.846 142.853 199.513 143.308 199.171 143.604C199.091 143.671 199.011 143.732 198.936 143.779C198.581 144.001 198.217 144.149 197.858 144.23C195.805 144.685 193.888 142.962 194.245 140.773C194.281 140.555 194.339 140.33 194.422 140.104C194.583 139.67 195.033 139.108 195.422 138.862C195.463 138.835 195.505 138.81 195.546 138.784C198.107 137.282 200.993 139.646 199.979 142.482Z" fill="#98B5F4"/>
<path d="M213.131 147.722L212.186 147.284C212.107 147.246 212.058 147.168 212.054 147.082C212.052 146.971 212.043 146.861 212.031 146.747C212.008 146.539 211.972 146.337 211.919 146.144C211.895 146.052 211.927 145.956 212.001 145.9L212.867 145.24C212.962 145.171 212.983 145.04 212.922 144.94L212.389 144.099C212.328 144.004 212.208 143.971 212.105 144.018L211.206 144.462C211.119 144.505 211.012 144.487 210.943 144.415C210.649 144.11 210.307 143.852 209.929 143.651C209.839 143.603 209.792 143.496 209.817 143.396L209.963 142.803C209.99 142.69 209.928 142.573 209.82 142.532L208.89 142.196C208.871 142.187 208.851 142.184 208.832 142.183C208.739 142.173 208.647 142.224 208.609 142.311L208.281 143.018L208.201 143.189C208.015 143.184 207.828 143.19 207.638 143.211C207.384 143.239 207.137 143.29 206.902 143.361C206.814 143.387 206.715 143.358 206.659 143.282L206.129 142.585C206.055 142.49 205.922 142.465 205.822 142.529L205.179 142.937L204.996 143.055C204.896 143.119 204.859 143.248 204.91 143.355L205.279 144.107C205.323 144.194 205.307 144.299 205.239 144.365C205.037 144.569 204.859 144.794 204.706 145.033C204.692 145.054 204.68 145.073 204.666 145.094C204.664 145.1 204.658 145.107 204.653 145.114C204.599 145.187 204.504 145.22 204.416 145.197L203.453 144.962C203.442 144.959 203.43 144.957 203.42 144.955C203.32 144.945 203.22 145.007 203.185 145.105L202.848 146.031C202.808 146.143 202.858 146.266 202.967 146.318L203.953 146.774C204.037 146.812 204.087 146.898 204.084 146.99C204.074 147.192 204.081 147.399 204.104 147.608C204.116 147.718 204.132 147.828 204.154 147.935C204.17 148.022 204.137 148.112 204.066 148.165L203.234 148.8C203.141 148.869 203.118 149 203.18 149.098L203.709 149.929C203.772 150.03 203.901 150.067 204.009 150.014L204.722 149.665C204.817 149.617 204.93 149.642 204.999 149.723C205.262 150.042 205.576 150.318 205.926 150.542C206.009 150.594 206.049 150.694 206.025 150.791L205.813 151.657C205.785 151.775 205.849 151.893 205.962 151.934L206.885 152.27C206.995 152.311 207.118 152.259 207.167 152.154L207.186 152.113L207.568 151.292C207.608 151.205 207.699 151.153 207.795 151.159H207.796C208.027 151.175 208.263 151.172 208.503 151.145C208.63 151.132 208.755 151.11 208.88 151.087C208.966 151.069 209.056 151.1 209.109 151.17L209.648 151.88C209.722 151.976 209.857 152.001 209.96 151.935L210.789 151.41C210.812 151.395 210.831 151.375 210.847 151.355C210.899 151.288 210.91 151.193 210.872 151.115L210.575 150.514C210.54 150.44 210.546 150.352 210.591 150.286C210.603 150.269 210.616 150.251 210.633 150.239C211.043 149.897 211.377 149.477 211.623 149.002C211.664 148.921 211.75 148.877 211.839 148.881C211.851 148.881 211.864 148.884 211.878 148.886L212.656 149.077C212.768 149.105 212.884 149.045 212.925 148.933L212.934 148.913L213.263 148.01C213.293 147.898 213.241 147.773 213.131 147.722ZM210.068 148.021C209.973 148.288 209.731 148.616 209.486 148.827C209.429 148.877 209.372 148.92 209.317 148.953C209.061 149.113 208.801 149.22 208.542 149.278C207.065 149.605 205.686 148.365 205.943 146.791C205.968 146.635 206.01 146.473 206.069 146.31C206.185 145.998 206.508 145.593 206.789 145.415C206.819 145.397 206.849 145.378 206.879 145.36C208.722 144.282 210.798 145.981 210.068 148.021Z" fill="#D2E0FF"/>
<path d="M254.642 142.067L253.329 141.456C253.22 141.404 253.15 141.297 253.146 141.177C253.142 141.024 253.133 140.868 253.116 140.713C253.084 140.424 253.034 140.143 252.96 139.872C252.925 139.746 252.97 139.612 253.074 139.533L254.277 138.616C254.408 138.52 254.44 138.338 254.351 138.199L253.611 137.029C253.527 136.897 253.358 136.851 253.217 136.918L251.965 137.532C251.845 137.595 251.697 137.568 251.6 137.467C251.192 137.042 250.716 136.683 250.191 136.405C250.066 136.337 249.999 136.188 250.033 136.049L250.237 135.226C250.273 135.07 250.189 134.908 250.037 134.85L248.743 134.384C248.717 134.373 248.691 134.367 248.664 134.366C248.536 134.353 248.407 134.423 248.352 134.545L247.895 135.526L247.785 135.767C247.528 135.757 247.265 135.767 247.003 135.796C246.649 135.834 246.306 135.904 245.98 136.003C245.855 136.041 245.72 136 245.641 135.895L244.903 134.924C244.802 134.791 244.616 134.759 244.477 134.848L243.582 135.412L243.327 135.576C243.187 135.664 243.135 135.845 243.207 135.993L243.721 137.039C243.78 137.16 243.759 137.306 243.664 137.398C243.384 137.682 243.135 137.994 242.924 138.327C242.903 138.355 242.887 138.383 242.87 138.411C242.865 138.422 242.857 138.43 242.851 138.439C242.774 138.541 242.644 138.586 242.521 138.555L241.183 138.227C241.168 138.223 241.153 138.222 241.138 138.219C240.997 138.205 240.86 138.29 240.809 138.426L240.342 139.715C240.285 139.869 240.356 140.042 240.507 140.114L241.879 140.749C241.995 140.801 242.066 140.921 242.059 141.049C242.046 141.331 242.055 141.617 242.087 141.907C242.103 142.062 242.127 142.213 242.155 142.363C242.177 142.484 242.13 142.608 242.032 142.682L240.875 143.565C240.748 143.661 240.714 143.841 240.8 143.977L241.535 145.134C241.622 145.273 241.802 145.326 241.953 145.252L242.944 144.766C243.077 144.701 243.234 144.735 243.329 144.847C243.697 145.292 244.133 145.676 244.619 145.988C244.734 146.06 244.792 146.2 244.758 146.333L244.462 147.538C244.422 147.699 244.512 147.865 244.667 147.923L245.949 148.39C246.104 148.445 246.276 148.373 246.342 148.225L246.37 148.168L246.9 147.028C246.956 146.905 247.08 146.834 247.215 146.843H247.217C247.539 146.863 247.867 146.858 248.2 146.822C248.377 146.804 248.551 146.775 248.723 146.74C248.844 146.715 248.966 146.76 249.04 146.857L249.789 147.842C249.89 147.977 250.08 148.011 250.223 147.922L251.373 147.191C251.405 147.169 251.432 147.142 251.455 147.115C251.525 147.02 251.542 146.891 251.488 146.781L251.077 145.946C251.028 145.844 251.037 145.722 251.099 145.629C251.115 145.605 251.135 145.583 251.158 145.563C251.727 145.087 252.193 144.504 252.533 143.846C252.589 143.733 252.71 143.669 252.833 143.676C252.85 143.678 252.869 143.68 252.886 143.686L253.97 143.951C254.126 143.989 254.287 143.905 254.344 143.751L254.355 143.721L254.813 142.467C254.867 142.311 254.795 142.139 254.642 142.067ZM250.385 142.482C250.25 142.853 249.918 143.308 249.576 143.604C249.496 143.671 249.417 143.732 249.342 143.779C248.985 144.001 248.623 144.149 248.262 144.23C246.209 144.685 244.294 142.962 244.649 140.773C244.686 140.555 244.744 140.33 244.828 140.104C244.989 139.67 245.437 139.108 245.826 138.862C245.868 138.835 245.909 138.81 245.952 138.784C248.514 137.282 251.399 139.646 250.385 142.482Z" fill="#98B5F4"/>
<path d="M263.537 147.722L262.592 147.284C262.514 147.246 262.462 147.168 262.46 147.082C262.457 146.971 262.45 146.861 262.437 146.747C262.414 146.539 262.378 146.337 262.325 146.144C262.3 146.052 262.331 145.956 262.407 145.9L263.274 145.24C263.367 145.171 263.39 145.04 263.327 144.94L262.795 144.099C262.735 144.004 262.613 143.971 262.511 144.018L261.611 144.462C261.525 144.505 261.419 144.487 261.349 144.415C261.055 144.11 260.712 143.852 260.336 143.651C260.244 143.603 260.198 143.496 260.222 143.396L260.37 142.803C260.396 142.69 260.335 142.573 260.225 142.532L259.295 142.196C259.277 142.187 259.258 142.184 259.239 142.183C259.145 142.173 259.055 142.224 259.015 142.311L258.686 143.018L258.606 143.189C258.422 143.184 258.233 143.19 258.044 143.211C257.79 143.239 257.543 143.29 257.309 143.361C257.218 143.387 257.121 143.358 257.066 143.282L256.534 142.585C256.461 142.49 256.328 142.465 256.227 142.529L255.584 142.937L255.399 143.055C255.299 143.119 255.261 143.248 255.314 143.355L255.683 144.107C255.727 144.194 255.711 144.299 255.642 144.365C255.441 144.569 255.263 144.794 255.11 145.033C255.095 145.054 255.084 145.073 255.07 145.094C255.067 145.1 255.061 145.107 255.057 145.114C255.001 145.187 254.908 145.22 254.819 145.197L253.857 144.962C253.846 144.959 253.834 144.957 253.823 144.955C253.722 144.945 253.623 145.007 253.588 145.105L253.25 146.031C253.209 146.143 253.261 146.266 253.37 146.318L254.355 146.774C254.44 146.812 254.49 146.898 254.485 146.99C254.476 147.192 254.483 147.399 254.505 147.608C254.517 147.718 254.534 147.828 254.556 147.935C254.571 148.022 254.537 148.112 254.466 148.165L253.633 148.8C253.542 148.869 253.517 149 253.58 149.098L254.108 149.929C254.172 150.03 254.301 150.067 254.409 150.014L255.121 149.665C255.217 149.617 255.33 149.642 255.398 149.723C255.663 150.042 255.976 150.318 256.326 150.542C256.408 150.594 256.449 150.694 256.425 150.791L256.212 151.657C256.183 151.775 256.249 151.893 256.36 151.934L257.283 152.27C257.394 152.311 257.518 152.259 257.566 152.154L257.586 152.113L257.967 151.292C258.008 151.205 258.098 151.153 258.194 151.159H258.196C258.428 151.175 258.663 151.172 258.904 151.145C259.031 151.132 259.155 151.11 259.281 151.087C259.367 151.069 259.455 151.1 259.508 151.17L260.048 151.88C260.121 151.976 260.257 152.001 260.36 151.935L261.188 151.41C261.212 151.395 261.231 151.375 261.247 151.355C261.298 151.288 261.31 151.193 261.271 151.115L260.975 150.514C260.939 150.44 260.946 150.352 260.99 150.286C261.002 150.269 261.016 150.251 261.033 150.239C261.442 149.897 261.778 149.477 262.023 149.002C262.063 148.921 262.149 148.877 262.238 148.881C262.251 148.881 262.263 148.884 262.277 148.886L263.056 149.077C263.169 149.105 263.285 149.045 263.326 148.933L263.334 148.913L263.662 148.01C263.698 147.898 263.645 147.773 263.537 147.722ZM260.474 148.021C260.378 148.288 260.138 148.616 259.892 148.827C259.834 148.877 259.778 148.92 259.723 148.953C259.467 149.113 259.206 149.22 258.947 149.278C257.472 149.605 256.092 148.365 256.348 146.791C256.374 146.635 256.417 146.473 256.476 146.31C256.592 145.998 256.913 145.593 257.195 145.415C257.224 145.397 257.254 145.378 257.286 145.36C259.129 144.282 261.202 145.981 260.474 148.021Z" fill="#D2E0FF"/>
<path d="M226.37 140.859L224.943 140.608C224.825 140.585 224.728 140.499 224.695 140.384C224.652 140.236 224.601 140.088 224.546 139.943C224.44 139.672 224.321 139.414 224.179 139.171C224.113 139.057 224.123 138.917 224.204 138.814L225.133 137.619C225.232 137.492 225.217 137.309 225.097 137.197L224.08 136.256C223.964 136.15 223.79 136.148 223.672 136.249L222.619 137.164C222.52 137.254 222.37 137.266 222.251 137.193C221.747 136.888 221.196 136.662 220.615 136.528C220.476 136.495 220.375 136.367 220.373 136.225L220.358 135.377C220.354 135.215 220.231 135.08 220.069 135.064L218.7 134.943C218.672 134.941 218.646 134.941 218.618 134.946C218.491 134.968 218.386 135.068 218.363 135.201L218.173 136.266L218.128 136.525C217.878 136.582 217.626 136.66 217.379 136.754C217.048 136.882 216.734 137.039 216.442 137.218C216.331 137.286 216.191 137.281 216.088 137.2L215.125 136.451C214.993 136.349 214.806 136.363 214.694 136.487L213.973 137.263L213.768 137.485C213.656 137.607 213.651 137.794 213.76 137.919L214.523 138.8C214.614 138.9 214.628 139.046 214.561 139.16C214.364 139.506 214.203 139.871 214.083 140.249C214.07 140.28 214.062 140.312 214.052 140.343C214.051 140.355 214.046 140.365 214.041 140.375C213.994 140.493 213.878 140.569 213.751 140.57L212.373 140.597C212.359 140.596 212.343 140.598 212.329 140.601C212.188 140.625 212.078 140.741 212.063 140.886L211.941 142.25C211.926 142.415 212.039 142.563 212.203 142.592L213.691 142.856C213.816 142.876 213.914 142.974 213.941 143.099C214 143.374 214.082 143.648 214.187 143.922C214.243 144.067 214.305 144.207 214.37 144.345C214.423 144.456 214.41 144.589 214.334 144.685L213.439 145.835C213.341 145.96 213.356 146.142 213.474 146.253L214.481 147.182C214.602 147.295 214.787 147.299 214.915 147.191L215.748 146.467C215.86 146.37 216.021 146.362 216.142 146.445C216.61 146.782 217.131 147.041 217.68 147.218C217.81 147.258 217.901 147.379 217.902 147.517L217.926 148.758C217.929 148.924 218.058 149.06 218.224 149.076L219.583 149.199C219.747 149.214 219.894 149.1 219.922 148.941L219.934 148.878L220.154 147.64C220.177 147.507 220.278 147.406 220.411 147.38L220.412 147.379C220.729 147.318 221.044 147.229 221.357 147.108C221.524 147.044 221.685 146.973 221.843 146.895C221.952 146.839 222.081 146.852 222.179 146.926L223.157 147.687C223.29 147.792 223.482 147.777 223.596 147.652L224.521 146.65C224.548 146.621 224.566 146.588 224.581 146.556C224.625 146.447 224.607 146.316 224.527 146.223L223.916 145.522C223.841 145.436 223.819 145.315 223.855 145.21C223.866 145.182 223.88 145.155 223.897 145.13C224.323 144.526 224.627 143.843 224.786 143.118C224.811 142.995 224.911 142.902 225.031 142.877C225.048 142.874 225.068 142.873 225.086 142.871L226.201 142.851C226.363 142.848 226.496 142.724 226.512 142.562L226.514 142.531L226.635 141.2C226.651 141.038 226.537 140.889 226.37 140.859ZM222.362 142.352C222.327 142.743 222.12 143.268 221.867 143.642C221.807 143.728 221.745 143.807 221.685 143.872C221.399 144.179 221.086 144.415 220.758 144.584C218.891 145.551 216.597 144.375 216.38 142.169C216.36 141.948 216.358 141.716 216.381 141.476C216.424 141.016 216.714 140.358 217.03 140.019C217.062 139.982 217.096 139.948 217.13 139.912C219.222 137.804 222.616 139.35 222.362 142.352Z" fill="#98B5F4"/>
<path d="M345.096 154.533C345.048 154.681 344.999 154.828 344.949 154.977C344.521 156.233 344.05 157.508 343.534 158.802C343.463 158.982 343.389 159.163 343.315 159.343C342.688 160.884 341.995 162.453 341.234 164.049C341.234 164.051 341.234 164.051 341.233 164.052L322.746 164.06V154.535H345.096V154.533Z" fill="#D2E0FF"/>
<path d="M324.99 155.5H154.193C147.48 155.5 142.018 150.038 142.018 143.325C142.018 140.074 143.284 137.016 145.584 134.716C147.884 132.416 150.94 131.151 154.192 131.151H324.989C331.702 131.151 337.163 136.612 337.163 143.326C337.163 146.577 335.897 149.635 333.598 151.935C331.3 154.234 328.242 155.5 324.99 155.5ZM154.193 132.195C151.22 132.195 148.426 133.353 146.324 135.455C144.221 137.557 143.063 140.352 143.063 143.325C143.063 149.461 148.055 154.454 154.193 154.454H324.99C327.963 154.454 330.757 153.296 332.86 151.194C334.962 149.092 336.119 146.296 336.119 143.323C336.119 137.186 331.127 132.195 324.991 132.195H154.193Z" fill="#2B478B"/>
<path d="M59.7822 83.4678H48.4692C47.9496 83.4678 47.5254 83.0424 47.5254 82.5239V71.605C47.5254 71.0853 47.9508 70.6611 48.4692 70.6611H59.7822C60.3019 70.6611 60.7261 71.0865 60.7261 71.605V82.5239C60.7273 83.0436 60.3019 83.4678 59.7822 83.4678Z" fill="#C0D8FB"/>
<path d="M59.2914 82.9131H48.9586C48.4836 82.9131 48.0957 82.5252 48.0957 82.0502V72.0775C48.0957 71.6025 48.4836 71.2146 48.9586 71.2146H59.2914C59.7664 71.2146 60.1543 71.6025 60.1543 72.0775V82.0502C60.1531 82.5252 59.7652 82.9131 59.2914 82.9131Z" fill="#DFEBFD"/>
<path d="M54.1247 72.6576C54.2755 72.6576 54.3978 72.5353 54.3978 72.3844C54.3978 72.2336 54.2755 72.1113 54.1247 72.1113C53.9738 72.1113 53.8516 72.2336 53.8516 72.3844C53.8516 72.5353 53.9738 72.6576 54.1247 72.6576Z" fill="#B7D3F3"/>
<path d="M56.0574 72.7713C56.1312 72.6395 56.2967 72.5912 56.4297 72.6649C56.5614 72.7386 56.6097 72.9042 56.536 73.0371C56.4623 73.1689 56.2967 73.2172 56.1638 73.1435C56.0321 73.0698 55.9849 72.903 56.0574 72.7713Z" fill="#B7D3F3"/>
<path d="M57.9492 74.2733C58.0761 74.1911 58.2453 74.2273 58.3274 74.3542C58.4096 74.4811 58.3734 74.6503 58.2465 74.7325C58.1196 74.8147 57.9504 74.7784 57.8682 74.6515C57.786 74.5234 57.8223 74.3542 57.9492 74.2733Z" fill="#B7D3F3"/>
<path d="M58.8845 76.5972C59.0355 76.5972 59.1576 76.7192 59.1576 76.8703C59.1576 77.0214 59.0355 77.1434 58.8845 77.1434C58.7334 77.1434 58.6113 77.0214 58.6113 76.8703C58.6101 76.7192 58.7334 76.5972 58.8845 76.5972Z" fill="#B7D3F3"/>
<path d="M58.4059 79.2946C58.5123 79.401 58.5123 79.575 58.4059 79.6813C58.2996 79.7877 58.1256 79.7877 58.0192 79.6813C57.9129 79.575 57.9129 79.401 58.0192 79.2946C58.1256 79.1883 58.2996 79.1883 58.4059 79.2946Z" fill="#B7D3F3"/>
<path d="M56.6891 81.0168C56.7955 81.1231 56.7955 81.2971 56.6891 81.4035C56.5828 81.5098 56.4088 81.5098 56.3024 81.4035C56.1961 81.2971 56.1961 81.1231 56.3024 81.0168C56.4088 80.9104 56.5828 80.9104 56.6891 81.0168Z" fill="#B7D3F3"/>
<path d="M53.8516 81.904C53.8516 81.7529 53.9736 81.6309 54.1247 81.6309C54.2758 81.6309 54.3978 81.7529 54.3978 81.904C54.3978 82.0551 54.2758 82.1771 54.1247 82.1771C53.9736 82.1783 53.8516 82.0551 53.8516 81.904Z" fill="#B7D3F3"/>
<path d="M52.183 72.7713C52.1093 72.6395 51.9438 72.5912 51.8108 72.6649C51.6791 72.7386 51.6307 72.9042 51.7045 73.0371C51.7782 73.1689 51.9438 73.2172 52.0767 73.1435C52.2096 73.0698 52.2568 72.903 52.183 72.7713Z" fill="#B7D3F3"/>
<path d="M50.2934 74.2737C50.1665 74.1916 49.9973 74.2278 49.9151 74.3547C49.8329 74.4816 49.8692 74.6508 49.9961 74.733C50.123 74.8152 50.2922 74.7789 50.3744 74.652C50.4565 74.5239 50.4203 74.3547 50.2934 74.2737Z" fill="#B7D3F3"/>
<path d="M49.3571 77.1439C49.508 77.1439 49.6303 77.0216 49.6303 76.8708C49.6303 76.7199 49.508 76.5977 49.3571 76.5977C49.2063 76.5977 49.084 76.7199 49.084 76.8708C49.084 77.0216 49.2063 77.1439 49.3571 77.1439Z" fill="#B7D3F3"/>
<path d="M49.8356 79.2948C49.7293 79.4012 49.7293 79.5752 49.8356 79.6816C49.942 79.7879 50.116 79.7879 50.2223 79.6816C50.3287 79.5752 50.3287 79.4012 50.2223 79.2948C50.1148 79.1885 49.942 79.1885 49.8356 79.2948Z" fill="#B7D3F3"/>
<path d="M51.5544 81.017C51.448 81.1234 51.448 81.2974 51.5544 81.4037C51.6607 81.5101 51.8348 81.5101 51.9411 81.4037C52.0475 81.2974 52.0475 81.1234 51.9411 81.017C51.8336 80.9107 51.6607 80.9107 51.5544 81.017Z" fill="#B7D3F3"/>
<path d="M54.3259 77.1434C54.4767 77.1434 54.599 77.0211 54.599 76.8703C54.599 76.7195 54.4767 76.5972 54.3259 76.5972C54.175 76.5972 54.0527 76.7195 54.0527 76.8703C54.0527 77.0211 54.175 77.1434 54.3259 77.1434Z" fill="#B7D3F3"/>
<path d="M54.364 73.4551H54.2891V76.8716H54.364V73.4551Z" fill="#B7D3F3"/>
<path d="M56.0335 75.3596L54.2227 76.7812L54.3607 76.9571L56.1716 75.5355L56.0335 75.3596Z" fill="#B7D3F3"/>
<path d="M169.968 112.83H186.857V98.9043H169.968V112.83Z" fill="#D8702A"/>
<path d="M178.414 112.83H195.303V98.9043H178.414V112.83Z" fill="#FF9E55"/>
<path d="M169.979 109.298H172.655L172.42 108.545L172.655 108.007H169.979V109.298Z" fill="#C15E1B"/>
<path d="M178.414 103.213H181.09L180.854 102.46L181.09 101.922H178.414V103.213Z" fill="#FFB27D"/>
<path d="M178.413 101.922H175.736L175.972 102.675L175.736 103.213H178.413V101.922Z" fill="#C15E1B"/>
<path d="M195.302 109.448H192.625L192.861 110.2L192.625 110.738H195.302V109.448Z" fill="#FFB27D"/>
<path d="M194.197 99.8479H189.338V101.739H194.197V99.8479Z" fill="white"/>
<path d="M187.334 112.236C187.744 111.97 188.673 111.385 188.714 111.524C188.744 111.625 188.689 111.792 188.574 111.963C189.13 111.779 189.691 111.667 190.995 111.97C191.256 112.031 191.489 112.19 191.624 112.421C191.75 112.635 191.79 112.897 191.447 113.093C190.76 113.485 190.964 113.242 190.009 113.813C189.053 114.385 187.906 114.495 187.24 114.043L186.331 113.856L186.275 112.346C186.277 112.346 186.801 112.305 187.334 112.236Z" fill="#FFC299"/>
<path d="M168.761 97.253C166.256 98.812 163.662 96.6935 163.662 96.6935C163.662 96.6935 164.656 94.1496 164.034 90.7947C164.009 90.6581 168.404 92.4697 168.536 92.4987C168.537 92.4987 168.539 92.4987 168.539 92.4987C168.539 92.4987 168.54 92.5096 168.542 92.5289C168.545 92.5507 168.547 92.5712 168.551 92.593C168.62 93.1839 168.668 93.7713 168.699 94.32C168.796 95.9587 168.761 97.253 168.761 97.253Z" fill="#FFB27D"/>
<path d="M168.698 94.32C166.702 94.14 165.168 93.0209 164.659 92.3901C164.504 92.2004 168.418 92.4892 168.534 92.4989C168.536 92.4989 168.537 92.4989 168.537 92.4989C168.537 92.4989 168.538 92.5097 168.541 92.5291C168.543 92.5448 168.545 92.5665 168.549 92.5931C168.618 93.1841 168.666 93.7714 168.698 94.32Z" fill="#ED975D"/>
<path d="M169.356 92.2196C169.356 92.2196 165.048 94.1242 163.902 91.4231C162.758 88.7221 161.43 87.1474 164.133 85.818C166.835 84.4874 167.811 85.2899 168.413 86.0996C169.014 86.9069 170.448 91.654 169.356 92.2196Z" fill="#FFB27D"/>
<path d="M164.2 92.1614C164.146 92.2122 163.232 92.692 160.709 89.377C160.312 88.8561 159.883 87.6512 160.35 86.4269C160.816 85.2027 163.038 83.8926 164.947 83.1458C165.844 82.7953 166.697 82.863 167.351 83.0346C168.156 83.2449 168.629 84.0896 168.401 84.8897C168.04 86.1538 167.144 86.9309 166.01 86.8958C165.25 86.8729 165.299 88.4234 165.313 88.7932C165.328 89.163 165.301 89.4773 164.345 89.3238C163.526 89.192 163.987 90.2737 164.263 90.7607C164.398 91.0012 164.474 91.2731 164.458 91.5487C164.445 91.7626 164.381 91.991 164.2 92.1614Z" fill="#2A4E96"/>
<path d="M157.606 164.121H154.829C154.246 164.121 153.599 163.538 153.438 162.471C153.276 161.403 152.079 160.821 151.821 159.948C151.562 159.074 152.889 157.845 152.889 157.845L153.111 157.559L153.342 157.262L155.542 157.779C155.542 157.779 155.596 158.303 155.63 158.97C155.653 159.452 155.666 160.008 155.638 160.496C155.573 161.661 155.965 162.916 156.999 163.142C158.033 163.369 157.606 164.121 157.606 164.121Z" fill="#2C3A64"/>
<path d="M176.938 164.121H169.577C169.506 164.107 169.453 164.092 169.421 164.075C168.929 163.828 169.083 161.946 169.143 161.365C169.154 161.258 169.162 161.195 169.162 161.195C169.162 161.195 171.751 159.125 172.106 160.71C172.117 160.76 172.13 160.808 172.143 160.856V160.858C172.593 162.34 174.602 163.015 175.762 163.202C176.649 163.346 176.878 163.862 176.938 164.121Z" fill="#2C3A64"/>
<path d="M175.452 121.672C175.452 121.672 175.059 126.577 174.596 132.472C173.968 140.481 173.214 150.317 173.139 152.18C173.009 155.417 172.491 160.593 172.491 160.593C172.491 160.593 171.262 161.822 168.802 161.305C168.802 161.305 166.611 153.916 165.985 146.098C165.976 145.97 165.966 145.84 165.956 145.711C165.374 137.752 164.469 120.993 164.469 120.993L175.452 121.672Z" fill="#FF9E55"/>
<path d="M174.363 120.993C173.325 121.056 162.377 120.642 162.374 120.03C162.365 117.903 161.92 114.461 161.365 110.28C161.264 109.5 161.184 108.727 161.125 107.963C160.971 105.973 160.965 104.057 161.113 102.325C161.388 99.1093 162.225 97.044 163.618 95.8342C163.618 95.8342 164.929 95.9418 166.138 96.1243C167.506 96.3297 168.011 96.2439 168.951 95.9817L170.623 97.421C171.622 98.3528 172.423 99.3256 172.746 100.672C172.745 100.672 174.456 120.987 174.363 120.993Z" fill="#2A4E96"/>
<path d="M162.926 106.284C162.926 106.284 164.079 109.935 167.924 111.703C171.77 113.471 169.471 108.344 169.471 108.344L162.926 106.284Z" fill="#1B407A"/>
<path d="M172.743 100.672L169.753 101.367L165.638 112.512C165.047 114.112 163.685 115.101 161.979 115.101L161.973 115.367L162.176 120.678L175.437 121.883C175.437 121.883 175.5 115.236 175.262 113.107C174.91 109.955 172.743 100.672 172.743 100.672Z" fill="#FF9E55"/>
<path d="M187.084 113.081C187.178 112.21 186.732 112.048 186.732 112.048C186.732 112.048 177.918 110.096 177.172 109.829C176.427 109.562 170.234 102.601 170.234 102.601C170.234 102.601 167.869 99.716 165.821 100.254C164.041 100.722 163.3 102.067 163.015 103.366C162.675 104.913 161.609 105.405 162.926 106.284C165.884 108.259 173.53 113.259 174.943 113.732C178.085 114.788 186.659 114.261 186.659 114.261C186.659 114.261 187.01 113.765 187.084 113.081Z" fill="#2A4E96"/>
<path d="M166.653 98.1386C165.957 97.4921 163.615 95.8352 163.615 95.8352C163.615 95.8352 163.71 95.6781 163.847 95.5403C163.983 95.405 164.145 95.3071 164.145 95.3071C164.443 95.2442 166.75 96.9797 167.519 97.6637C168.444 98.4879 171.011 101.074 171.011 101.074L169.752 101.367C169.753 101.367 167.474 98.9 166.653 98.1386Z" fill="#ED823A"/>
<path d="M169.539 85.841C169.539 85.841 167.821 86.8078 167.187 86.9697C166.998 87.0181 164.191 87.7239 164.191 87.7239L160.17 89.2019C160.17 89.2019 158.806 86.2652 160.489 83.9642V83.963C160.532 83.9049 160.576 83.8469 160.622 83.7913C161.086 83.2197 161.75 82.694 162.685 82.2722C167.427 80.1332 169.486 85.6658 169.539 85.841Z" fill="#FF9E55"/>
<path d="M167.227 86.8732L166.461 87.1185C165.702 86.4176 162.927 84.0126 160.459 84.0259C160.47 84.0018 160.48 83.9824 160.489 83.9655V83.9643C160.522 83.9063 160.551 83.8761 160.596 83.7903C160.604 83.7903 160.612 83.7915 160.621 83.7927C163.816 83.974 166.579 86.2448 167.227 86.8732Z" fill="#E27830"/>
<path d="M164.191 87.7239C164.191 87.7239 163.765 88.4236 163.729 89.0303C163.694 89.6357 161.061 90.4696 160.82 90.2001C160.58 89.9318 160.17 89.2007 160.17 89.2007L164.191 87.7239Z" fill="#FF9E55"/>
<path d="M164.191 87.724C164.191 87.724 169.175 86.924 171.231 85.3215C171.388 85.1994 171.312 84.9481 171.114 84.936C170.757 84.9142 170.16 84.9251 169.196 85.0629C169.196 85.0617 167.683 86.8575 164.191 87.724Z" fill="#E27830"/>
<path d="M173.987 121.346C173.987 121.346 174.242 124.406 172.826 130.148C171.788 134.361 165.985 146.098 165.985 146.098C165.976 145.97 165.966 145.84 165.956 145.711C165.374 137.752 164.469 120.993 164.469 120.993L173.987 121.346Z" fill="#ED823A"/>
<path d="M173.988 121.346C173.988 121.346 166.572 140.016 161.913 148.364C157.254 156.711 155.798 159.04 155.798 159.04C155.798 159.04 153.128 157.972 152.887 157.244C152.887 157.244 154.668 141.13 157.788 137.201C159.552 134.981 161.622 128.319 161.72 125.99C161.816 123.66 162.076 118.081 162.076 118.081L173.988 121.346Z" fill="#FF9E55"/>
<g opacity="0.5">
<path opacity="0.5" d="M285.13 11.3321C285.795 11.5545 286.457 11.7865 287.117 12.0294L282.861 12.0113H282.859L281.739 12.0077H281.738L268.662 11.9497L267.539 11.946H267.538L254.46 11.888L253.338 11.8844H253.336L240.259 11.8264L239.136 11.8228H239.135L226.058 11.7648L224.935 11.7611H224.934L211.856 11.7031L210.734 11.6995H210.732L197.656 11.6415L196.533 11.6379H196.532L183.454 11.575L182.328 11.5702H182.327L169.251 11.5134L168.126 11.5085H168.125L155.048 11.4517L153.923 11.4469H153.922L140.848 11.3901L139.723 11.3853H139.722L126.646 11.3285L125.521 11.3236H125.519L112.443 11.2668L111.318 11.262H111.317L108.145 11.2487C108.426 11.0167 108.709 10.7871 108.998 10.5635H108.999L111.36 10.5731H111.362L125.565 10.6324H125.569L139.767 10.6952H139.77L153.967 10.758H153.97L168.168 10.8209H168.172L182.37 10.8837H182.373L196.571 10.9466H196.575L210.771 11.0094H210.775L224.972 11.0723H224.976L239.174 11.1351H239.177L253.375 11.198H253.379L267.576 11.2608H267.58L281.778 11.3236L285.13 11.3321Z" fill="#C3DAFC"/>
<path opacity="0.5" d="M299.113 18.0201C299.437 18.2485 299.754 18.4806 300.064 18.7138L101.787 17.8437C101.962 17.6116 102.141 17.382 102.324 17.1572L106.424 17.1741L107.549 17.179L120.627 17.2358L121.749 17.2406L134.827 17.2974H134.828L135.951 17.3022L149.028 17.359H149.029L150.152 17.3639L163.23 17.4207H163.231L164.353 17.4255H164.355L177.431 17.4823H177.432L178.556 17.4872H178.557L191.631 17.544H191.632L192.755 17.5488H192.756L205.832 17.6056H205.834L206.956 17.6104H206.957L220.034 17.6672H220.035L221.158 17.6721H221.159L234.235 17.7289H234.236L235.359 17.7337H235.36L248.434 17.7905H248.435L249.558 17.7953H249.559L262.636 17.8533H262.638L263.759 17.857H263.76L276.838 17.915H276.839L277.961 17.9186H277.962L291.039 17.9766H291.04L292.162 17.9802H292.163L299.113 18.0201Z" fill="#C3DAFC"/>
<g opacity="0.5">
<g opacity="0.5">
<path opacity="0.5" d="M107.551 17.1812L107.224 17.6888L106.423 17.174L103.756 15.4603C103.892 15.308 104.029 15.1569 104.167 15.0071L107.547 17.1788L107.551 17.1812Z" fill="#C3DAFC"/>
</g>
<g opacity="0.5">
<path opacity="0.5" d="M111.361 10.573L111.035 11.0803L121.423 17.7541L121.749 17.2468L111.361 10.573Z" fill="#C3DAFC"/>
</g>
<g opacity="0.5">
<path opacity="0.5" d="M125.562 10.6362L125.236 11.1436L135.624 17.8174L135.95 17.31L125.562 10.6362Z" fill="#C3DAFC"/>
</g>
<g opacity="0.5">
<path opacity="0.5" d="M139.765 10.699L139.439 11.2063L149.827 17.8801L150.153 17.3728L139.765 10.699Z" fill="#C3DAFC"/>
</g>
<g opacity="0.5">
<path opacity="0.5" d="M153.965 10.7617L153.639 11.269L164.027 17.9429L164.353 17.4355L153.965 10.7617Z" fill="#C3DAFC"/>
</g>
<g opacity="0.5">
<path opacity="0.5" d="M168.166 10.8244L167.84 11.3318L178.228 18.0056L178.554 17.4982L168.166 10.8244Z" fill="#C3DAFC"/>
</g>
<g opacity="0.5">
<path opacity="0.5" d="M182.367 10.8872L182.041 11.3945L192.429 18.0683L192.755 17.561L182.367 10.8872Z" fill="#C3DAFC"/>
</g>
<g opacity="0.5">
<path opacity="0.5" d="M196.568 10.9504L196.242 11.4578L206.63 18.1316L206.956 17.6242L196.568 10.9504Z" fill="#C3DAFC"/>
</g>
<g opacity="0.5">
<path opacity="0.5" d="M210.769 11.0132L210.443 11.5205L220.831 18.1943L221.157 17.687L210.769 11.0132Z" fill="#C3DAFC"/>
</g>
<g opacity="0.5">
<path opacity="0.5" d="M224.969 11.0761L224.643 11.5835L235.031 18.2573L235.356 17.75L224.969 11.0761Z" fill="#C3DAFC"/>
</g>
<g opacity="0.5">
<path opacity="0.5" d="M239.172 11.1394L238.846 11.6467L249.234 18.3205L249.559 17.8132L239.172 11.1394Z" fill="#C3DAFC"/>
</g>
<g opacity="0.5">
<path opacity="0.5" d="M253.371 11.2016L253.045 11.709L263.433 18.3828L263.759 17.8754L253.371 11.2016Z" fill="#C3DAFC"/>
</g>
<g opacity="0.5">
<path opacity="0.5" d="M267.57 11.2639L267.244 11.7712L277.632 18.445L277.958 17.9377L267.57 11.2639Z" fill="#C3DAFC"/>
</g>
<g opacity="0.5">
<path opacity="0.5" d="M281.775 11.3276L281.449 11.835L291.837 18.5088L292.163 18.0014L281.775 11.3276Z" fill="#C3DAFC"/>
</g>
</g>
</g>
<path d="M199.661 131.146H222.455V112.351H199.661V131.146Z" fill="#8DB0FF"/>
<path d="M211.056 131.146H233.85V112.351H211.056V131.146Z" fill="#AEC3FF"/>
<path d="M199.672 126.379H203.284L202.966 125.362L203.284 124.636H199.672V126.379Z" fill="#2A4E96"/>
<path d="M211.057 118.167H214.668L214.35 117.151L214.668 116.424H211.057V118.167Z" fill="#618DC1"/>
<path d="M211.058 116.424H207.445L207.763 117.441L207.445 118.167H211.058V116.424Z" fill="#2A4E96"/>
<path d="M233.851 126.581H230.238L230.556 127.597L230.238 128.323H233.851V126.581Z" fill="#618DC1"/>
<path d="M232.357 113.625H225.799V116.178H232.357V113.625Z" fill="white"/>
<path d="M273.997 100.294C273.997 100.294 272.916 106.44 271.734 112.86C270.451 119.839 269.046 127.142 268.782 127.234C268.273 127.41 268.314 126.299 267.965 125.452C267.684 124.77 266.83 118.935 267.11 115.295C267.178 114.407 267.407 103.457 268.926 102.164C270.444 100.87 273.997 100.294 273.997 100.294Z" fill="#FFB27D"/>
<path d="M267.632 123.82C267.632 123.82 267.895 124.826 267.513 125.811C267.131 126.796 267.05 127.077 267.757 127.63C268.464 128.182 269.228 128.959 269.759 128.729C270.289 128.5 269.96 123.991 269.96 123.991L267.632 123.82Z" fill="#FFB27D"/>
<path d="M269.101 164.121C269.757 163.721 269.384 160.735 269.384 160.735C269.384 160.735 266.329 158.29 265.908 160.162C265.487 162.034 263.005 162.874 261.592 163.104C260.617 163.262 260.315 163.802 260.221 164.121H269.101Z" fill="#2A4E96"/>
<path d="M282.669 164.121C283.326 163.721 282.952 160.735 282.952 160.735C282.952 160.735 279.897 158.29 279.476 160.162C279.056 162.034 276.574 162.874 275.161 163.104C274.185 163.262 273.883 163.802 273.789 164.121H282.669Z" fill="#2A4E96"/>
<path d="M278.424 129.465C277.336 134.06 275.967 139.308 275.432 142.266C275.369 142.609 275.318 142.921 275.28 143.197C275.243 143.473 275.218 143.715 275.207 143.916C274.923 149.457 270.543 162.124 269.76 162.421C268.548 162.877 266.639 161.906 265.64 161.588C265.227 161.455 264.946 161.038 265.039 160.614C267.209 150.644 268.545 136.373 268.835 127.873C268.982 123.591 269.176 120.545 269.176 120.545C269.176 120.545 279.858 117.696 279.922 121.301C279.947 122.698 279.271 125.883 278.424 129.465Z" fill="#FF9843"/>
<path d="M278.424 129.465C277.337 134.06 275.968 139.308 275.432 142.266C275.369 142.609 275.042 145.516 275.004 145.792L273.135 124.545L275.786 124.79L278.424 129.465Z" fill="#E27830"/>
<path d="M274.217 122.537L277.986 161.913C277.986 161.913 280.775 162.818 283.296 162.121C283.296 162.121 284.761 140.592 284.623 135.33C284.486 130.068 285.81 121.248 284.321 120.276C282.832 119.304 274.217 122.537 274.217 122.537Z" fill="#FF9843"/>
<path d="M284.249 112.01C284.29 112.459 284.461 120.852 284.472 121.168C284.486 121.516 283.536 122.207 280.183 122.705C278.981 122.884 277.563 123.006 275.933 123.025C271.753 123.071 270.155 121.314 270.155 121.314C269.87 121.319 270.473 119.275 270.57 106.008C270.498 106.008 270.42 106.021 270.351 105.995C268.869 105.419 267.49 104.217 267.49 104.217C267.49 104.217 269.169 99.5521 270.757 97.1761C271.144 96.5972 272.187 96.1416 273.575 95.8443C273.94 95.7658 274.329 95.6981 274.737 95.6425C276.629 95.3839 278.917 95.3754 281.035 95.6824C281.404 95.7344 281.768 95.796 282.123 95.8697C283.692 96.1876 285.104 96.6988 286.106 97.4275C287.582 98.5007 288.682 103.992 288.682 103.992C288.682 103.992 287.291 105.571 284.162 106.339C283.997 109.498 284.064 109.928 284.249 112.01Z" fill="#2A4E96"/>
<path d="M269.176 120.545L270.452 104.65C270.526 103.735 271.31 103.042 272.227 103.083L280.92 103.424C281.636 103.452 282.213 104.021 282.251 104.737C282.357 106.825 282.756 110.879 284.25 112.011L285.038 123.518L275.322 132.314C275.322 132.314 274.219 125.868 272.701 124.076C271.851 123.072 269.176 120.545 269.176 120.545Z" fill="#FF9843"/>
<path d="M282.123 95.8687L281.074 103.991L279.984 103.818L281.036 95.6814C281.404 95.7334 281.768 95.7962 282.123 95.8687Z" fill="#FF9843"/>
<path d="M274.739 95.6411L273.393 102.929L273.28 103.54L273.16 103.512L272.201 103.297L273.578 95.8429C273.941 95.7656 274.332 95.6979 274.739 95.6411Z" fill="#FF9843"/>
<path d="M288.682 112.654C288.682 112.654 288.03 114.637 279.64 117.38C279.64 117.38 279.544 115.14 280.054 114.84C281.632 113.914 285.389 111.152 285.518 110.666C285.604 110.343 284.748 107.903 283.666 105.45C285.655 105.229 286.936 105.05 288.402 104.264C288.947 108.121 289.698 110.822 288.682 112.654Z" fill="#FFB27D"/>
<path d="M278.685 114.947C278.685 114.947 277.985 114.412 277.447 114.332C276.91 114.252 276.004 113.91 276.151 114.228C276.298 114.546 277.289 115.048 277.289 115.048L278.685 114.947Z" fill="#FFB27D"/>
<path d="M277.345 118.482L274.611 118.816C274.309 118.853 274.024 118.667 273.937 118.376L272.066 112.173C271.954 111.8 272.204 111.417 272.589 111.371L275.323 111.038C275.625 111 275.91 111.186 275.997 111.478L277.868 117.681C277.981 118.052 277.73 118.435 277.345 118.482Z" fill="#233862"/>
<path d="M276.376 118.601L273.643 118.934C273.34 118.97 273.055 118.786 272.968 118.493L271.097 112.29C270.985 111.917 271.235 111.534 271.621 111.488L274.354 111.155C274.656 111.119 274.942 111.304 275.029 111.596L276.9 117.799C277.011 118.17 276.762 118.553 276.376 118.601Z" fill="#192E4F"/>
<path d="M274.442 112.349C274.362 112.359 274.277 112.303 274.25 112.226L272.418 106.784C272.391 106.706 272.436 106.635 272.515 106.625C272.594 106.616 272.68 106.671 272.707 106.749L274.539 112.191C274.565 112.268 274.522 112.339 274.442 112.349Z" fill="#192E4F"/>
<path d="M280.054 114.84C280.054 114.84 279.567 115.141 279.221 115.05C278.935 114.975 278.683 114.947 278.354 114.723C278.006 114.486 277.234 114.799 277.006 114.951C276.368 115.377 274.217 115.36 274.217 115.784C274.217 116.209 275.153 117.403 276.287 117.757C277.421 118.111 279.641 117.379 279.641 117.379L280.054 114.84Z" fill="#FFB27D"/>
<path d="M280.081 95.4864C280.127 96.7493 279.008 97.3645 277.33 97.124C275.653 96.8847 275.619 95.5831 275.619 95.5831L275.66 94.3238L275.709 92.8337L275.752 91.502L279.813 92.0518C279.799 92.1521 279.803 92.3878 279.818 92.6948V92.696C279.857 93.4948 279.971 94.7819 280.081 95.4864Z" fill="#FFB27D"/>
<path d="M279.821 92.6951C279.821 92.6951 279.821 92.6951 279.819 92.6963C279.781 92.7507 278.854 94.0159 275.662 94.3228L275.71 92.8328L279.821 92.6951Z" fill="#ED975D"/>
<path d="M274.928 93.536C274.928 93.536 279.924 94.5451 280.506 91.4247C281.086 88.3031 282.123 86.332 278.956 85.5549C275.791 84.779 274.948 85.8534 274.5 86.848C274.053 87.8426 273.642 93.1928 274.928 93.536Z" fill="#FFB27D"/>
<path d="M280.276 92.1184C280.276 92.1184 282.014 92.51 282.178 89.3472C282.241 88.1291 282.545 83.8545 279.066 84.0007C275.588 84.147 274.003 86.1809 273.686 86.5374C271.311 89.2167 277.089 87.2227 277.858 87.8451C278.627 88.4674 277.894 89.4923 278.774 89.8597C279.653 90.2258 280.349 90.2258 280.203 91.0319C280.055 91.8368 280.276 92.1184 280.276 92.1184Z" fill="#233862"/>
<path d="M273.217 86.6003C273.217 86.6003 275.078 87.2481 275.731 87.2952C275.925 87.3098 278.812 87.5079 278.812 87.5079L283.03 88.2524C283.03 88.2524 283.853 85.1211 281.79 83.1536L281.789 83.1524C281.737 83.1029 281.684 83.0545 281.628 83.0062C281.071 82.5252 280.324 82.1252 279.328 81.875C274.286 80.6085 273.239 86.4179 273.217 86.6003Z" fill="#FF9E55"/>
<path d="M275.676 87.2069L276.472 87.3132C277.096 86.489 279.402 83.6321 281.832 83.2079C281.817 83.1861 281.804 83.168 281.791 83.1535L281.79 83.1523C281.747 83.1015 281.714 83.0761 281.653 83C281.645 83.0024 281.637 83.0036 281.628 83.006C278.521 83.7505 276.203 86.4733 275.676 87.2069Z" fill="#E27830"/>
<path d="M278.816 87.5081C278.816 87.5081 279.359 88.122 279.502 88.7118C279.643 89.3028 282.383 89.6569 282.571 89.3499C282.76 89.0429 283.035 88.2513 283.035 88.2513L278.816 87.5081Z" fill="#FF9E55"/>
<path d="M278.816 87.5082C278.816 87.5082 273.77 87.6025 271.464 86.3879C271.289 86.2948 271.318 86.0338 271.511 85.9866C271.858 85.902 272.448 85.8077 273.422 85.7715C273.42 85.7715 275.226 87.2713 278.816 87.5082Z" fill="#E27830"/>
<path d="M72.6847 125.892H18.752V165.12H72.6847V125.892Z" fill="#AEC3FF"/>
<path d="M79.516 81.4504H72.1621V164.121H84.6316V123.346L79.516 102.399V81.4504Z" fill="#AEC3FF"/>
<path d="M120.284 81.4504H79.5156V102.399H120.284V81.4504Z" fill="#D2E0FF"/>
<path d="M125.399 123.346H84.6309V164.121H125.399V123.346Z" fill="#D2E0FF"/>
<path d="M125.401 123.347H84.6313L79.5156 102.399H120.284L125.401 123.347Z" fill="#C1D4F7"/>
<path d="M85.3052 106.56H84.2393L83.832 105.042H84.8979L85.3052 106.56Z" fill="#AEC3FF"/>
<path d="M87.7303 106.56H86.6643L86.2559 105.042H87.3218L87.7303 106.56Z" fill="#AEC3FF"/>
<path d="M90.1548 106.56H89.0889L88.6816 105.042H89.7476L90.1548 106.56Z" fill="#AEC3FF"/>
<path d="M92.5817 106.56H91.5159L91.1074 105.042H92.1733L92.5817 106.56Z" fill="#AEC3FF"/>
<path d="M95.0045 106.56H93.9385L93.5312 105.042H94.5972L95.0045 106.56Z" fill="#AEC3FF"/>
<path d="M97.4295 106.56H96.3636L95.9551 105.042H97.021L97.4295 106.56Z" fill="#AEC3FF"/>
<path d="M86.065 109.394H84.9991L84.5918 107.876H85.6577L86.065 109.394Z" fill="#AEC3FF"/>
<path d="M88.4888 109.394H87.4229L87.0156 107.876H88.0815L88.4888 109.394Z" fill="#AEC3FF"/>
<path d="M90.9145 109.394H89.8487L89.4414 107.876H90.5073L90.9145 109.394Z" fill="#AEC3FF"/>
<path d="M93.3404 109.394H92.2745L91.8672 107.876H92.9331L93.3404 109.394Z" fill="#AEC3FF"/>
<path d="M95.7642 109.394H94.6983L94.291 107.876H95.3569L95.7642 109.394Z" fill="#AEC3FF"/>
<path d="M98.188 109.394H97.1221L96.7148 107.876H97.7808L98.188 109.394Z" fill="#AEC3FF"/>
<path d="M86.854 112.328H85.7881L85.3809 110.81H86.4468L86.854 112.328Z" fill="#AEC3FF"/>
<path d="M89.2791 112.328H88.2132L87.8047 110.81H88.8706L89.2791 112.328Z" fill="#AEC3FF"/>
<path d="M91.7037 112.328H90.6378L90.2305 110.81H91.2964L91.7037 112.328Z" fill="#AEC3FF"/>
<path d="M94.1306 112.328H93.0647L92.6562 110.81H93.7221L94.1306 112.328Z" fill="#AEC3FF"/>
<path d="M96.5533 112.328H95.4874L95.0801 110.81H96.146L96.5533 112.328Z" fill="#AEC3FF"/>
<path d="M98.9784 112.328H97.9124L97.5039 110.81H98.5699L98.9784 112.328Z" fill="#AEC3FF"/>
<path d="M87.6138 115.162H86.5479L86.1406 113.644H87.2053L87.6138 115.162Z" fill="#AEC3FF"/>
<path d="M90.0376 115.162H88.9717L88.5645 113.644H89.6303L90.0376 115.162Z" fill="#AEC3FF"/>
<path d="M92.4634 115.162H91.3975L90.9902 113.644H92.0561L92.4634 115.162Z" fill="#AEC3FF"/>
<path d="M94.8892 115.162H93.8233L93.416 113.644H94.4819L94.8892 115.162Z" fill="#AEC3FF"/>
<path d="M97.313 115.162H96.2471L95.8398 113.644H96.9058L97.313 115.162Z" fill="#AEC3FF"/>
<path d="M99.7369 115.162H98.6709L98.2637 113.644H99.3296L99.7369 115.162Z" fill="#AEC3FF"/>
<path d="M102.18 106.56H101.114L100.707 105.042H101.773L102.18 106.56Z" fill="#AEC3FF"/>
<path d="M104.606 106.56H103.54L103.133 105.042H104.199L104.606 106.56Z" fill="#AEC3FF"/>
<path d="M107.03 106.56H105.964L105.557 105.042H106.623L107.03 106.56Z" fill="#AEC3FF"/>
<path d="M109.456 106.56H108.39L107.982 105.042H109.048L109.456 106.56Z" fill="#AEC3FF"/>
<path d="M111.879 106.56H110.814L110.406 105.042H111.472L111.879 106.56Z" fill="#AEC3FF"/>
<path d="M114.305 106.56H113.239L112.832 105.042H113.898L114.305 106.56Z" fill="#AEC3FF"/>
<path d="M102.94 109.394H101.874L101.467 107.876H102.533L102.94 109.394Z" fill="#AEC3FF"/>
<path d="M105.365 109.394H104.299L103.891 107.876H104.957L105.365 109.394Z" fill="#AEC3FF"/>
<path d="M107.79 109.394H106.724L106.316 107.876H107.382L107.79 109.394Z" fill="#AEC3FF"/>
<path d="M110.217 109.394H109.151L108.742 107.876H109.808L110.217 109.394Z" fill="#AEC3FF"/>
<path d="M112.639 109.394H111.573L111.166 107.876H112.232L112.639 109.394Z" fill="#AEC3FF"/>
<path d="M115.064 109.394H113.998L113.59 107.876H114.656L115.064 109.394Z" fill="#AEC3FF"/>
<path d="M103.729 112.328H102.663L102.256 110.81H103.322L103.729 112.328Z" fill="#AEC3FF"/>
<path d="M106.155 112.328H105.089L104.682 110.81H105.748L106.155 112.328Z" fill="#AEC3FF"/>
<path d="M108.579 112.328H107.513L107.105 110.81H108.171L108.579 112.328Z" fill="#AEC3FF"/>
<path d="M111.004 112.328H109.939L109.531 110.81H110.597L111.004 112.328Z" fill="#AEC3FF"/>
<path d="M113.428 112.328H112.362L111.955 110.81H113.021L113.428 112.328Z" fill="#AEC3FF"/>
<path d="M115.854 112.328H114.788L114.381 110.81H115.447L115.854 112.328Z" fill="#AEC3FF"/>
<path d="M104.489 115.162H103.423L103.016 113.644H104.082L104.489 115.162Z" fill="#AEC3FF"/>
<path d="M106.914 115.162H105.848L105.439 113.644H106.505L106.914 115.162Z" fill="#AEC3FF"/>
<path d="M109.338 115.162H108.273L107.865 113.644H108.931L109.338 115.162Z" fill="#AEC3FF"/>
<path d="M111.765 115.162H110.7L110.291 113.644H111.357L111.765 115.162Z" fill="#AEC3FF"/>
<path d="M114.188 115.162H113.122L112.715 113.644H113.781L114.188 115.162Z" fill="#AEC3FF"/>
<path d="M116.613 115.162H115.547L115.139 113.644H116.205L116.613 115.162Z" fill="#AEC3FF"/>
<path d="M97.7801 88.1409H82.6445V100.336H97.7801V88.1409Z" fill="#2B478B"/>
<path d="M97.7984 88.1409H96.7168V100.336H97.7984V88.1409Z" fill="#699DEE"/>
<path d="M123.958 159.957H87.4961V144.963H123.958V159.957ZM87.7342 159.719H123.719V145.201H87.7342V159.719Z" fill="#AEC3FF"/>
<path d="M107.077 84.9529C107.077 85.4072 106.819 85.7758 106.5 85.7758C106.18 85.7758 105.922 85.4072 105.922 84.9529C105.922 84.4985 106.18 84.1299 106.5 84.1299C106.819 84.1299 107.077 84.4985 107.077 84.9529Z" fill="white"/>
<path d="M109.78 84.9529C109.78 85.4072 109.522 85.7758 109.203 85.7758C108.884 85.7758 108.625 85.4072 108.625 84.9529C108.625 84.4985 108.884 84.1299 109.203 84.1299C109.522 84.1299 109.78 84.4985 109.78 84.9529Z" fill="#FF9E55"/>
<path d="M112.481 84.9529C112.481 85.4072 112.223 85.7758 111.904 85.7758C111.585 85.7758 111.326 85.4072 111.326 84.9529C111.326 84.4985 111.585 84.1299 111.904 84.1299C112.223 84.1299 112.481 84.4985 112.481 84.9529Z" fill="#699DEE"/>
<path d="M115.185 84.9529C115.185 85.4072 114.926 85.7758 114.607 85.7758C114.288 85.7758 114.029 85.4072 114.029 84.9529C114.029 84.4985 114.288 84.1299 114.607 84.1299C114.926 84.1299 115.185 84.4985 115.185 84.9529Z" fill="white"/>
<path d="M117.888 84.9529C117.888 85.4072 117.629 85.7758 117.31 85.7758C116.991 85.7758 116.732 85.4072 116.732 84.9529C116.732 84.4985 116.991 84.1299 117.31 84.1299C117.629 84.1299 117.888 84.4985 117.888 84.9529Z" fill="#FF9E55"/>
<path d="M118.007 98.1013H106.035V88.021H118.006V98.1013H118.007ZM106.273 97.8632H117.767V88.2591H106.273V97.8632Z" fill="#AEC3FF"/>
<path d="M88.6408 89.4436H86.793V89.7856H88.6408V89.4436Z" fill="#E9F3FE"/>
<path d="M86.1176 89.4436H83.2051V89.7856H86.1176V89.4436Z" fill="#E9F3FE"/>
<path d="M87.6114 90.3547H83.2051V90.6968H87.6114V90.3547Z" fill="#E9F3FE"/>
<path d="M91.1272 90.3547H88.2051V90.6968H91.1272V90.3547Z" fill="#E9F3FE"/>
<path d="M92.2315 89.4436H89.041V89.7856H92.2315V89.4436Z" fill="#E9F3FE"/>
<path d="M86.1176 91.9248H83.2051V92.2668H86.1176V91.9248Z" fill="#E9F3FE"/>
<path d="M87.6114 92.8359H83.2051V93.1779H87.6114V92.8359Z" fill="#E9F3FE"/>
<path d="M91.1272 92.8359H88.2051V93.1779H91.1272V92.8359Z" fill="#E9F3FE"/>
<path d="M88.6408 91.9248H86.793V92.2668H88.6408V91.9248Z" fill="#E9F3FE"/>
<path d="M92.2315 91.9248H89.041V92.2668H92.2315V91.9248Z" fill="#E9F3FE"/>
<path d="M86.1176 94.657H83.2051V94.999H86.1176V94.657Z" fill="#E9F3FE"/>
<path d="M87.6114 95.5681H83.2051V95.9101H87.6114V95.5681Z" fill="#E9F3FE"/>
<path d="M91.1272 95.5681H88.2051V95.9101H91.1272V95.5681Z" fill="#E9F3FE"/>
<path d="M88.6408 94.657H86.793V94.999H88.6408V94.657Z" fill="#E9F3FE"/>
<path d="M92.2315 94.657H89.041V94.999H92.2315V94.657Z" fill="#E9F3FE"/>
<path d="M86.1176 97.2883H83.2051V97.6303H86.1176V97.2883Z" fill="#E9F3FE"/>
<path d="M87.6114 98.1995H83.2051V98.5415H87.6114V98.1995Z" fill="#E9F3FE"/>
<path d="M91.1272 98.1995H88.2051V98.5415H91.1272V98.1995Z" fill="#E9F3FE"/>
<path d="M88.6408 97.2883H86.793V97.6303H88.6408V97.2883Z" fill="#E9F3FE"/>
<path d="M92.2315 97.2883H89.041V97.6303H92.2315V97.2883Z" fill="#E9F3FE"/>
<path d="M84.6336 125.892H17.3262V128.287H84.6336V125.892Z" fill="#D2E0FF"/>
<path d="M32.7831 109.435L31.4912 124.799C31.4912 124.799 31.3558 125.731 32.0483 125.732C33.1879 125.734 37.7175 125.732 37.7175 125.732C37.7175 125.732 36.8606 125.539 36.8703 125.102C36.8824 124.589 38.3809 109.29 38.3809 109.29L32.7831 109.435Z" fill="#D86713"/>
<path d="M38.0861 125.454C37.8625 125.454 33.5348 125.468 32.4254 125.454C31.942 125.448 31.8574 125.024 31.8538 124.749C31.8513 124.618 31.8683 124.521 31.8683 124.521L31.9021 124.122L31.9879 123.105L32.064 122.205L32.1607 121.05L32.2429 120.075L33.1614 109.157L38.7593 109.012C38.7593 109.012 38.1284 115.415 37.6825 120.075C37.6329 120.594 37.5858 121.092 37.5411 121.556C37.5266 121.705 37.5133 121.85 37.5 121.992C37.4589 122.433 37.4202 122.837 37.3876 123.195C37.3707 123.384 37.3537 123.559 37.3392 123.72C37.2824 124.348 37.2486 124.749 37.2486 124.826C37.2486 124.87 37.2522 124.911 37.2595 124.95C37.3501 125.438 38.0015 125.454 38.0861 125.454Z" fill="#EE9849"/>
<path d="M19.1895 101.074L22.3364 113.718L22.7679 115.449L24.2338 121.338H51.4691L46.0658 101.074H19.1895Z" fill="#F1A34F"/>
<path d="M19.187 101.074L18.752 101.219L23.6525 121.778L24.2326 121.338L19.187 101.074Z" fill="#EE9849"/>
<path d="M23.6523 121.778H50.7196L51.4677 121.338H24.2324L23.6523 121.778Z" fill="#D86713"/>
<path d="M33.1594 125.739H39.0195V125.461H33.1594V125.739Z" fill="#F1A34F"/>
<path d="M50.1472 117.605L45.7277 101.343H19.1426V101.074H46.0636L50.4687 117.568L50.1472 117.605Z" fill="#F1A34F"/>
<path d="M37.5286 121.778L37.4984 121.99L31.9863 123.105L32.0625 122.205L32.0987 121.778H37.5286Z" fill="#D86713"/>
<path opacity="0.4" d="M38.0859 125.454C37.8623 125.454 33.5346 125.469 32.4251 125.454C31.9417 125.448 31.8571 125.024 31.8535 124.75L37.339 123.718C37.2822 124.346 37.2484 124.747 37.2484 124.823C37.2484 124.868 37.252 124.909 37.2592 124.948C37.3499 125.438 38.0013 125.454 38.0859 125.454Z" fill="#D86713"/>
<path opacity="0.4" d="M36.1959 117.236L24.2316 121.338L22.7656 115.449L36.1959 117.236Z" fill="#D86713"/>
<path d="M19.1875 101.074H46.065L50.4254 117.361H23.1043L19.1875 101.074Z" fill="#AEC3FF"/>
<path d="M49.1567 116.654H23.9928L21.1419 105.302L20.9244 104.43L20.7371 103.688L20.3008 101.947H45.1021L45.5831 103.688L45.7873 104.43L46.0278 105.302L49.1567 116.654Z" fill="#8AA8ED"/>
<path d="M42.6819 102.741L41.5508 102.757L41.5254 102.659L42.6566 102.642L42.6819 102.741Z" fill="#F9DDBF"/>
<path d="M42.4325 103.012L41.6191 103.024L41.5938 102.925L42.4071 102.914L42.4325 103.012Z" fill="#F9DDBF"/>
<path d="M43.3661 102.999L42.5527 103.011L42.5273 102.912L43.3407 102.901L43.3661 102.999Z" fill="#F9DDBF"/>
<path d="M44.043 102.989L43.5378 102.996L43.5137 102.898L44.0176 102.891L44.043 102.989Z" fill="#F9DDBF"/>
<path d="M43.5911 102.728L42.8926 102.738L42.8672 102.64L43.5657 102.63L43.5911 102.728Z" fill="#F9DDBF"/>
<path d="M44.5442 102.715L43.8457 102.724L43.8203 102.626L44.5188 102.617L44.5442 102.715Z" fill="#F9DDBF"/>
<path d="M45.7015 115.645L44.5691 115.66L44.5449 115.562L45.6761 115.547L45.7015 115.645Z" fill="#F9DDBF"/>
<path d="M45.45 115.915L44.6367 115.927L44.6113 115.828L45.4247 115.817L45.45 115.915Z" fill="#F9DDBF"/>
<path d="M46.3856 115.902L45.571 115.914L45.5469 115.816L46.3602 115.804L46.3856 115.902Z" fill="#F9DDBF"/>
<path d="M47.0625 115.892L46.5586 115.899L46.5332 115.801L47.0372 115.794L47.0625 115.892Z" fill="#F9DDBF"/>
<path d="M46.6094 115.631L45.9109 115.642L45.8867 115.543L46.5841 115.533L46.6094 115.631Z" fill="#F9DDBF"/>
<path d="M47.5625 115.618L46.8652 115.627L46.8398 115.529L47.5371 115.52L47.5625 115.618Z" fill="#F9DDBF"/>
<path d="M25.0047 103.49L22.352 103.484L22.2988 103.262L24.9515 103.268L25.0047 103.49Z" fill="#F9DDBF"/>
<path d="M24.4004 104.092L22.4934 104.088L22.4414 103.865L24.3484 103.869L24.4004 104.092Z" fill="#F9DDBF"/>
<path d="M26.5918 104.098L24.6848 104.093L24.6328 103.871L26.5398 103.876L26.5918 104.098Z" fill="#F9DDBF"/>
<path d="M28.1773 104.101L26.9953 104.099L26.9434 103.875L28.1253 103.879L28.1773 104.101Z" fill="#F9DDBF"/>
<path d="M27.1329 103.496L25.4965 103.491L25.4434 103.269L27.0809 103.273L27.1329 103.496Z" fill="#F9DDBF"/>
<path d="M29.3692 103.501L27.7329 103.498L27.6797 103.275L29.316 103.279L29.3692 103.501Z" fill="#F9DDBF"/>
<path d="M25.0543 105.451L22.8137 105.447L22.7617 105.223L25.0023 105.229L25.0543 105.451Z" fill="#F9DDBF"/>
<path d="M26.7122 105.455L25.4614 105.453L25.4082 105.23L26.6602 105.233L26.7122 105.455Z" fill="#F9DDBF"/>
<path d="M29.1996 105.461L27.2805 105.458L27.2285 105.234L29.1464 105.239L29.1996 105.461Z" fill="#F9DDBF"/>
<path d="M25.6031 106.038L22.9504 106.032L22.8984 105.809L25.5511 105.815L25.6031 106.038Z" fill="#F9DDBF"/>
<path d="M24.9993 106.64L23.0922 106.636L23.0391 106.412L24.9461 106.417L24.9993 106.64Z" fill="#F9DDBF"/>
<path d="M27.1907 106.645L25.2836 106.641L25.2305 106.418L27.1375 106.423L27.1907 106.645Z" fill="#F9DDBF"/>
<path d="M28.7749 106.649L27.593 106.647L27.541 106.423L28.723 106.427L28.7749 106.649Z" fill="#F9DDBF"/>
<path d="M27.7313 106.044L26.0949 106.039L26.043 105.816L27.6793 105.82L27.7313 106.044Z" fill="#F9DDBF"/>
<path d="M29.9669 106.049L28.3305 106.045L28.2773 105.823L29.9137 105.826L29.9669 106.049Z" fill="#F9DDBF"/>
<path d="M25.7105 108.241L23.4699 108.235L23.418 108.012L25.6586 108.018L25.7105 108.241Z" fill="#163560"/>
<path d="M27.3685 108.245L26.1176 108.242L26.0645 108.019L27.3165 108.022L27.3685 108.245Z" fill="#163560"/>
<path d="M29.8559 108.251L27.9367 108.246L27.8848 108.023L29.8027 108.028L29.8559 108.251Z" fill="#163560"/>
<path d="M26.2594 108.827L23.6067 108.821L23.5547 108.598L26.2074 108.604L26.2594 108.827Z" fill="#163560"/>
<path d="M25.6555 109.429L23.7485 109.424L23.6953 109.202L25.6036 109.206L25.6555 109.429Z" fill="#163560"/>
<path d="M27.8469 109.434L25.9399 109.43L25.8867 109.207L27.7938 109.211L27.8469 109.434Z" fill="#163560"/>
<path d="M29.4324 109.438L28.2492 109.436L28.1973 109.212L29.3792 109.216L29.4324 109.438Z" fill="#163560"/>
<path d="M28.3875 108.831L26.7512 108.828L26.6992 108.605L28.3355 108.609L28.3875 108.831Z" fill="#163560"/>
<path d="M30.6239 108.838L28.9875 108.834L28.9355 108.61L30.5719 108.615L30.6239 108.838Z" fill="#163560"/>
<path d="M26.3387 110.909L24.0981 110.903L24.0449 110.681L26.2855 110.686L26.3387 110.909Z" fill="#F9DDBF"/>
<path d="M27.9973 110.913L26.7465 110.909L26.6934 110.687L27.9454 110.69L27.9973 110.913Z" fill="#F9DDBF"/>
<path d="M30.4828 110.919L28.5649 110.914L28.5117 110.692L30.4309 110.696L30.4828 110.919Z" fill="#F9DDBF"/>
<path d="M26.8883 111.495L24.2356 111.489L24.1836 111.266L26.8351 111.273L26.8883 111.495Z" fill="#F9DDBF"/>
<path d="M26.2845 112.097L24.3774 112.092L24.3242 111.87L26.2313 111.875L26.2845 112.097Z" fill="#F9DDBF"/>
<path d="M28.4759 112.102L26.5676 112.098L26.5156 111.875L28.4227 111.879L28.4759 112.102Z" fill="#F9DDBF"/>
<path d="M30.0601 112.107L28.8781 112.103L28.8262 111.881L30.0081 111.883L30.0601 112.107Z" fill="#F9DDBF"/>
<path d="M29.0165 111.5L27.3801 111.497L27.3281 111.274L28.9645 111.278L29.0165 111.5Z" fill="#F9DDBF"/>
<path d="M31.252 111.506L29.6157 111.501L29.5625 111.279L31.1989 111.284L31.252 111.506Z" fill="#F9DDBF"/>
<path d="M26.9852 113.649L24.7446 113.643L24.6914 113.421L26.932 113.427L26.9852 113.649Z" fill="#163560"/>
<path d="M28.6439 113.653L27.3918 113.65L27.3398 113.427L28.5907 113.43L28.6439 113.653Z" fill="#163560"/>
<path d="M31.1293 113.659L29.2114 113.654L29.1582 113.432L31.0773 113.436L31.1293 113.659Z" fill="#163560"/>
<path d="M27.5328 114.235L24.8813 114.229L24.8281 114.007L27.4808 114.013L27.5328 114.235Z" fill="#163560"/>
<path d="M26.9297 114.837L25.0227 114.833L24.9707 114.61L26.8777 114.615L26.9297 114.837Z" fill="#163560"/>
<path d="M29.1211 114.843L27.2141 114.838L27.1621 114.616L29.0691 114.621L29.1211 114.843Z" fill="#163560"/>
<path d="M30.7058 114.846L29.5239 114.844L29.4707 114.62L30.6538 114.624L30.7058 114.846Z" fill="#163560"/>
<path d="M29.6622 114.241L28.0258 114.236L27.9727 114.014L29.609 114.018L29.6622 114.241Z" fill="#163560"/>
<path d="M31.8973 114.246L30.261 114.242L30.209 114.019L31.8453 114.023L31.8973 114.246Z" fill="#163560"/>
<path d="M36.6402 103.676L33.9875 103.67L33.9355 103.448L36.5883 103.454L36.6402 103.676Z" fill="#F1A34F"/>
<path d="M36.0364 104.278L34.1293 104.275L34.0762 104.051L35.9832 104.056L36.0364 104.278Z" fill="#F1A34F"/>
<path d="M38.2278 104.284L36.3208 104.279L36.2676 104.057L38.1746 104.062L38.2278 104.284Z" fill="#F1A34F"/>
<path d="M39.812 104.288L38.6301 104.285L38.5781 104.062L39.7601 104.065L39.812 104.288Z" fill="#F1A34F"/>
<path d="M38.7684 103.682L37.132 103.677L37.0801 103.455L38.7164 103.458L38.7684 103.682Z" fill="#F1A34F"/>
<path d="M41.004 103.687L39.3676 103.684L39.3145 103.461L40.9508 103.465L41.004 103.687Z" fill="#F1A34F"/>
<path d="M36.691 105.638L34.4504 105.633L34.3984 105.409L36.639 105.415L36.691 105.638Z" fill="#F1A34F"/>
<path d="M38.3489 105.641L37.0981 105.639L37.0449 105.416L38.297 105.419L38.3489 105.641Z" fill="#F1A34F"/>
<path d="M40.8363 105.647L38.9172 105.644L38.8652 105.42L40.7832 105.425L40.8363 105.647Z" fill="#F1A34F"/>
<path d="M37.2398 106.224L34.5871 106.218L34.5352 105.995L37.1879 106.001L37.2398 106.224Z" fill="#F1A34F"/>
<path d="M36.636 106.826L34.729 106.822L34.6758 106.599L36.584 106.603L36.636 106.826Z" fill="#F1A34F"/>
<path d="M38.8274 106.831L36.9204 106.827L36.8672 106.604L38.7742 106.609L38.8274 106.831Z" fill="#F1A34F"/>
<path d="M40.4128 106.835L39.2297 106.833L39.1777 106.609L40.3597 106.613L40.4128 106.835Z" fill="#F1A34F"/>
<path d="M39.368 106.23L37.7317 106.225L37.6797 106.002L39.316 106.006L39.368 106.23Z" fill="#F1A34F"/>
<path d="M41.6043 106.235L39.968 106.231L39.916 106.009L41.5524 106.012L41.6043 106.235Z" fill="#F1A34F"/>
<path d="M37.3473 108.427L35.1067 108.421L35.0547 108.198L37.2953 108.205L37.3473 108.427Z" fill="#F9DDBF"/>
<path d="M39.0071 108.431L37.7551 108.428L37.7031 108.205L38.9539 108.208L39.0071 108.431Z" fill="#F9DDBF"/>
<path d="M41.4926 108.437L39.5734 108.432L39.5215 108.209L41.4406 108.214L41.4926 108.437Z" fill="#F9DDBF"/>
<path d="M37.8961 109.013L35.2434 109.007L35.1914 108.784L37.8441 108.79L37.8961 109.013Z" fill="#F9DDBF"/>
<path d="M37.293 109.615L35.3859 109.61L35.334 109.388L37.241 109.393L37.293 109.615Z" fill="#F9DDBF"/>
<path d="M39.4844 109.621L37.5774 109.616L37.5254 109.394L39.4324 109.397L39.4844 109.621Z" fill="#F9DDBF"/>
<path d="M41.0691 109.624L39.8872 109.622L39.834 109.398L41.0159 109.402L41.0691 109.624Z" fill="#F9DDBF"/>
<path d="M40.0255 109.018L38.3879 109.014L38.3359 108.792L39.9723 108.795L40.0255 109.018Z" fill="#F9DDBF"/>
<path d="M42.2606 109.024L40.6242 109.02L40.5723 108.797L42.2086 108.801L42.2606 109.024Z" fill="#F9DDBF"/>
<path d="M37.9742 111.095L35.7336 111.089L35.6816 110.867L37.9222 110.872L37.9742 111.095Z" fill="#F9DDBF"/>
<path d="M39.6321 111.099L38.3813 111.095L38.3281 110.873L39.5802 110.877L39.6321 111.099Z" fill="#F9DDBF"/>
<path d="M42.1195 111.105L40.2004 111.1L40.1484 110.878L42.0664 110.883L42.1195 111.105Z" fill="#F9DDBF"/>
<path d="M38.523 111.681L35.8703 111.675L35.8184 111.452L38.4711 111.459L38.523 111.681Z" fill="#F9DDBF"/>
<path d="M37.9192 112.283L36.0122 112.278L35.959 112.056L37.866 112.061L37.9192 112.283Z" fill="#F9DDBF"/>
<path d="M40.1106 112.288L38.2036 112.284L38.1504 112.061L40.0574 112.066L40.1106 112.288Z" fill="#F9DDBF"/>
<path d="M41.6948 112.293L40.5129 112.289L40.4609 112.067L41.6429 112.07L41.6948 112.293Z" fill="#F9DDBF"/>
<path d="M40.6512 111.686L39.0149 111.683L38.9629 111.46L40.5992 111.464L40.6512 111.686Z" fill="#F9DDBF"/>
<path d="M42.8868 111.692L41.2504 111.687L41.1973 111.465L42.8348 111.47L42.8868 111.692Z" fill="#F9DDBF"/>
<path d="M38.6199 113.835L36.3793 113.829L36.3262 113.607L38.5668 113.613L38.6199 113.835Z" fill="#F9DDBF"/>
<path d="M40.2786 113.839L39.0266 113.836L38.9746 113.613L40.2266 113.616L40.2786 113.839Z" fill="#F9DDBF"/>
<path d="M42.7641 113.845L40.8461 113.84L40.793 113.618L42.7121 113.623L42.7641 113.845Z" fill="#F9DDBF"/>
<path d="M39.1688 114.421L36.5161 114.415L36.4629 114.193L39.1156 114.199L39.1688 114.421Z" fill="#F9DDBF"/>
<path d="M38.5645 115.023L36.6574 115.018L36.6055 114.796L38.5125 114.801L38.5645 115.023Z" fill="#F9DDBF"/>
<path d="M40.7559 115.029L38.8488 115.024L38.7969 114.802L40.7039 114.805L40.7559 115.029Z" fill="#F9DDBF"/>
<path d="M42.3413 115.032L41.1594 115.03L41.1074 114.806L42.2894 114.81L42.3413 115.032Z" fill="#F9DDBF"/>
<path d="M41.2969 114.427L39.6606 114.422L39.6074 114.2L41.245 114.203L41.2969 114.427Z" fill="#F9DDBF"/>
<path d="M43.5333 114.432L41.8969 114.428L41.8438 114.205L43.4801 114.209L43.5333 114.432Z" fill="#F9DDBF"/>
<path d="M50.8697 160.482C50.8697 160.482 50.6268 164.261 49.8956 164.314C49.7977 164.321 46.1867 164.313 46.1867 164.313L41.5762 164.277C41.5762 164.277 41.6088 163.166 42.9563 162.934C44.305 162.702 46.5625 161.76 47.3819 159.98C48.2472 158.107 50.8697 160.482 50.8697 160.482Z" fill="#0E2C4F"/>
<path d="M64.0654 129.397C64.2418 129.546 68.937 134.634 68.5539 138.541C68.4415 139.689 67.4529 140.552 66.3 140.552H60.58C60.58 140.552 54.7441 141.595 54.6051 142.857C54.4661 144.118 53.2721 150.916 50.9046 160.577C50.9046 160.577 49.1607 161.178 48.1032 160.749C46.705 160.182 46.502 159.58 46.502 159.58C46.502 159.58 47.9123 137.948 49.0266 136.425C50.1408 134.902 61.6133 130.376 65.3283 129.925C69.0409 129.473 64.0654 129.397 64.0654 129.397Z" fill="#163560"/>
<path d="M30.8955 124.001C30.8955 124.001 27.5769 123.229 26.7285 124.001C25.8801 124.773 25.6094 125.892 25.6094 125.892H30.8955V124.001Z" fill="#FFB27D"/>
<path d="M42.7877 160.482C42.7877 160.482 42.5448 164.261 41.8136 164.314C41.7169 164.321 38.1047 164.313 38.1047 164.313L33.4941 164.277C33.4941 164.277 33.5268 163.166 34.8743 162.934C36.2218 162.702 38.4805 161.76 39.2999 159.98C40.1652 158.107 42.7877 160.482 42.7877 160.482Z" fill="#163560"/>
<path d="M68.4022 129.397C68.5352 129.51 69.5515 132.244 70.2307 135.349C70.8145 138.021 68.7817 140.551 66.0468 140.551H52.741C52.741 140.551 46.9051 141.594 46.7661 142.855C46.6271 144.117 45.4331 150.915 43.0656 160.576C43.0656 160.576 41.3156 161.035 39.9488 160.451C39.2225 160.141 38.6484 159.396 38.6484 159.396C38.6484 159.396 40.0721 137.946 41.1851 136.424C42.2994 134.901 53.7719 130.375 57.4869 129.924C61.2031 129.473 68.4022 129.397 68.4022 129.397Z" fill="#2B478B"/>
<path d="M61.0276 110.056L58.9695 112.031L55.4636 112.032C55.46 111.75 55.4708 110.574 55.4841 109.509C55.4853 109.446 55.4866 109.383 55.4866 109.321C55.489 109.084 55.4926 108.856 55.495 108.648C55.5023 108.061 55.5083 107.635 55.5083 107.635L56.4099 107.019L58.4124 105.649L59.4952 104.908C59.4964 104.926 59.5846 105.894 59.5979 106.035C59.8372 108.545 61.0276 110.056 61.0276 110.056Z" fill="#FFB27D"/>
<path d="M55.9317 109.701C55.9981 109.673 59.7917 107.971 60.2352 108.118C60.6788 108.264 61.2323 109.619 61.2323 109.619L54.5527 111.129C54.5527 111.128 55.0784 110.06 55.9317 109.701Z" fill="#163560"/>
<path d="M72.3372 121.068C71.6145 116.611 68.563 113.276 67.2578 112.026C66.3816 110.708 61.2309 109.619 61.2309 109.619C61.2309 109.619 56.9648 110.583 54.5514 111.129C54.5514 111.129 50.7868 111.538 48.6634 115.05C47.351 117.221 43.5901 122.189 41.1198 122.343C38.6508 122.498 30.8945 124.003 30.8945 124.003V125.911L42.7187 126.235C42.8637 126.238 43.0063 126.227 43.1489 126.201C44.1665 126.009 48.5281 125.142 50.6974 124.013C51.0442 129.599 51.4527 138.128 53.4033 139.483C55.4662 140.915 69.9769 141.107 71.5142 138.923C72.3009 137.805 71.3365 131.188 70.1316 124.809C71.629 124.094 72.6405 122.937 72.3372 121.068Z" fill="#2A4E96"/>
<path d="M58.9343 106.818L58.7555 106.93C58.7555 106.93 57.1058 108.118 55.4961 108.65C55.5033 108.063 55.5094 107.638 55.5094 107.638L56.4109 107.021L58.9343 106.818Z" fill="#EAA16E"/>
<path d="M54.2804 107.67C54.2804 107.67 59.6753 108.308 60.0209 104.942C60.3665 101.576 61.2959 99.3923 57.8661 98.8424C54.4363 98.2926 53.6339 99.5083 53.2459 100.603C52.8568 101.698 52.8858 107.416 54.2804 107.67Z" fill="#FFB27D"/>
<path d="M53.389 100.259C53.389 100.259 54.4078 103.91 55.145 103.605C55.8822 103.301 56.5565 103.052 56.6532 104.191C56.7499 105.331 55.9269 106.822 58.3294 106.578C60.732 106.334 62.9931 99.5989 62.1278 98.5644C59.6298 95.5817 49.9193 96.6984 53.389 100.259Z" fill="#163560"/>
<path d="M49.5664 141.274H76.2493C77.2633 141.274 78.0838 140.453 78.0838 139.44V138.247H49.5664V141.274Z" fill="#77A4E5"/>
<path d="M46.3689 141.275H66.5561C67.3053 141.275 67.9132 140.667 67.9132 139.917V139.603C67.9132 138.854 67.3053 138.246 66.5561 138.246H46.3689C45.6196 138.246 45.0117 138.854 45.0117 139.603V139.917C45.0117 140.667 45.6196 141.275 46.3689 141.275Z" fill="#F99746"/>
<path d="M63.1734 163.177H64.8944L65.3778 141.275H62.748L63.1734 163.177Z" fill="#2B478B"/>
<path d="M55.6934 163.177H72.4314V161.665L63.9004 160.895L55.6934 161.665V163.177Z" fill="#2B478B"/>
<path d="M73.5825 163.978C74.1591 163.483 74.2248 162.613 73.7292 162.037C73.2337 161.46 72.3646 161.395 71.7881 161.89C71.2115 162.386 71.1458 163.255 71.6413 163.831C72.1369 164.408 73.0059 164.474 73.5825 163.978Z" fill="#2B478B"/>
<path d="M57.3194 162.939C57.3194 162.178 56.7031 161.562 55.9429 161.562C55.1828 161.562 54.5664 162.178 54.5664 162.939C54.5664 163.699 55.1828 164.315 55.9429 164.315C56.7031 164.316 57.3194 163.7 57.3194 162.939Z" fill="#2B478B"/>
<path d="M56.2924 142.712H71.8316C72.6256 142.712 73.2685 142.069 73.2685 141.275H54.8555C54.8555 142.067 55.4984 142.712 56.2924 142.712Z" fill="#2B478B"/>
<path d="M75.448 141.274C76.1719 141.274 76.7581 140.688 76.7581 139.964V119.797C76.7581 116.018 74.2866 112.954 71.2387 112.954H58.7596C55.7117 112.954 53.2402 116.018 53.2402 119.797V141.274H75.448Z" fill="#F99746"/>
<path d="M75.695 141.274C77.0147 141.274 78.0842 140.205 78.0842 138.885V119.797C78.0842 116.018 75.6128 112.954 72.5649 112.954H60.0857C57.0378 112.954 54.5664 116.018 54.5664 119.797V141.274H75.695Z" fill="#CC6A27"/>
<path d="M312.797 164.107H330.41V149.585H312.797V164.107Z" fill="#7F9EF4"/>
<path d="M321.604 164.107H339.217V149.585H321.604V164.107Z" fill="#AEC3FF"/>
<path d="M312.807 160.425H315.597L315.352 159.64L315.597 159.078H312.807V160.425Z" fill="#5D86E2"/>
<path d="M321.604 154.079H324.395L324.149 153.294L324.395 152.733H321.604V154.079Z" fill="#7F9EF4"/>
<path d="M321.603 152.733H318.812L319.058 153.517L318.812 154.079H321.603V152.733Z" fill="#5D86E2"/>
<path d="M339.217 160.581H336.426L336.672 161.366L336.426 161.928H339.217V160.581Z" fill="#7F9EF4"/>
<path d="M338.065 150.57H332.996V152.542H338.065V150.57Z" fill="white"/>
<path d="M288.929 164.122H306.578V149.569H288.929V164.122Z" fill="#7F9EF4"/>
<path d="M297.753 164.122H315.402V149.569H297.753V164.122Z" fill="#D4E4F8"/>
<path d="M288.938 160.432H291.734L291.487 159.644L291.734 159.082H288.938V160.432Z" fill="#2A4E96"/>
<path d="M297.752 154.073H300.548L300.303 153.286L300.548 152.724H297.752V154.073Z" fill="#618DC1"/>
<path d="M297.754 152.724H294.957L295.204 153.511L294.957 154.073H297.754V152.724Z" fill="#2A4E96"/>
<path d="M315.402 160.588H312.605L312.852 161.375L312.605 161.937H315.402V160.588Z" fill="#618DC1"/>
<path d="M314.246 150.556H309.168V152.532H314.246V150.556Z" fill="white"/>
<path d="M298.074 149.584H314.621V135.94H298.074V149.584Z" fill="#ED823A"/>
<path d="M306.345 149.584H322.893V135.94H306.345V149.584Z" fill="#FF9E55"/>
<path d="M298.082 146.123H300.704L300.474 145.386L300.704 144.858H298.082V146.123Z" fill="#DD732C"/>
<path d="M306.348 140.162H308.969L308.738 139.425L308.969 138.896H306.348V140.162Z" fill="#FFB27D"/>
<path d="M306.347 138.896H303.725L303.955 139.635L303.725 140.162H306.347V138.896Z" fill="#DD732C"/>
<path d="M322.895 146.27H320.273L320.504 147.008L320.273 147.535H322.895V146.27Z" fill="#FFB27D"/>
<path d="M321.81 136.865H317.049V138.717H321.81V136.865Z" fill="white"/>
<path d="M99.7133 91.9695H98.9785V92.7055H99.7133V91.9695Z" fill="#AEC3FF"/>
<path d="M101.622 91.9695H100.887V92.7055H101.622V91.9695Z" fill="#AEC3FF"/>
<path d="M103.533 91.9695H102.797V92.7055H103.533V91.9695Z" fill="#AEC3FF"/>
<path d="M99.7133 93.6072H98.9785V94.3432H99.7133V93.6072Z" fill="#AEC3FF"/>
<path d="M101.622 93.6072H100.887V94.3432H101.622V93.6072Z" fill="#AEC3FF"/>
<path d="M103.533 93.6072H102.797V94.3432H103.533V93.6072Z" fill="#AEC3FF"/>
<path d="M99.7133 95.4224H98.9785V96.1572H99.7133V95.4224Z" fill="#AEC3FF"/>
<path d="M101.622 95.4224H100.887V96.1572H101.622V95.4224Z" fill="#AEC3FF"/>
<path d="M103.533 95.4224H102.797V96.1572H103.533V95.4224Z" fill="#AEC3FF"/>
<path d="M106.64 112.117L107.831 111.941C107.963 111.921 108.019 111.786 107.964 111.62L106.805 108.09C106.735 107.879 106.518 107.708 106.35 107.733L105.16 107.909C105.028 107.928 104.971 108.064 105.027 108.229L106.187 111.759C106.256 111.971 106.472 112.142 106.64 112.117Z" fill="#233862"/>
<path d="M107.062 112.054L108.252 111.878C108.384 111.858 108.441 111.723 108.385 111.558L107.226 108.027C107.156 107.816 106.94 107.646 106.772 107.67L105.58 107.846C105.448 107.866 105.391 108.001 105.447 108.166L106.607 111.697C106.677 111.909 106.894 112.08 107.062 112.054Z" fill="#192E4F"/>
<path d="M105.912 108.491C105.947 108.486 105.964 108.445 105.95 108.401L105.009 105.279C104.996 105.234 104.956 105.203 104.922 105.208C104.887 105.213 104.87 105.254 104.883 105.298L105.825 108.42C105.838 108.464 105.877 108.496 105.912 108.491Z" fill="#192E4F"/>
<path d="M105.598 96.642C105.598 96.642 104.738 95.1785 104.056 94.637C103.373 94.0944 101.571 93.9433 101.501 94.0823C101.285 94.5114 102.215 95.1313 102.409 95.5253C102.602 95.9193 102.519 96.4873 103.436 96.9514C104.383 97.4312 104.932 97.7454 104.932 97.7454L105.598 96.642Z" fill="#FFB27D"/>
<path d="M104.87 96.4424C105.313 95.7548 105.445 95.7185 105.445 95.7185C105.445 95.7185 112.757 98.6347 113.455 98.8788C114.152 99.1217 124.585 99.7357 124.585 99.7357L127.733 106.656C127.733 106.656 113.83 103.485 112.074 102.833C109.173 101.756 104.518 97.5373 104.518 97.5373C104.518 97.5373 104.524 96.9826 104.87 96.4424Z" fill="#233862"/>
<path d="M123.037 161.148C123.037 161.148 122.877 163.714 122.401 164.318H115.066C115.112 164.061 115.32 163.429 116.237 163.27C117.396 163.068 119.336 162.253 120.038 160.722C120.777 159.111 123.037 161.148 123.037 161.148Z" fill="#163560"/>
<path d="M136.055 160.79C136.055 160.79 136.511 164.124 135.884 164.182C135.801 164.19 133.095 164.188 132.035 164.182C130.717 164.175 128.61 164.191 128.61 164.191C128.338 164.202 128.159 163.907 128.298 163.672C128.451 163.415 128.741 163.139 129.295 163.033C130.451 162.811 132.376 161.962 133.05 160.419C133.76 158.794 136.055 160.79 136.055 160.79Z" fill="#163560"/>
<path d="M119.588 126.988C119.588 126.988 121.432 133.442 126.718 144.648C132.004 155.855 132.411 160.962 132.411 160.962L136.053 160.79C136.053 160.79 135.711 147.452 133.214 141.796C130.717 136.14 130.208 120.665 130.208 120.665L119.588 126.988Z" fill="#ED823A"/>
<path d="M116.628 121.435C116.628 121.435 116.482 131.428 118.21 143.697C119.939 155.966 119.353 161.175 119.353 161.175L123.494 161.312C123.494 161.312 125.969 149.039 125.259 142.897C124.55 136.755 128.648 121.824 128.648 121.824L116.628 121.435Z" fill="#FF9E55"/>
<path d="M124.798 98.0499L122.845 99.4965L120.021 98.9019C120.06 98.6445 120.247 97.5773 120.417 96.6117C120.426 96.5549 120.437 96.4981 120.447 96.4425C120.592 95.6207 120.718 94.9137 120.718 94.9137L123.353 93.6001L124.336 93.1106C124.333 93.1275 124.26 94.023 124.249 94.1536C124.066 96.4739 124.798 98.0499 124.798 98.0499Z" fill="#FFB27D"/>
<path d="M120.219 97.3196C120.281 97.293 124.059 96.1788 124.47 96.3141C124.88 96.4495 125.123 97.2435 125.123 97.2435L119.291 98.9052C119.29 98.9052 119.43 97.6519 120.219 97.3196Z" fill="#163560"/>
<path d="M130.392 122.669C129.753 125.59 116.402 116.424 116.58 114.642C116.599 114.446 116.619 114.249 116.639 114.053C116.886 111.571 117.121 109.143 117.138 107.557C117.152 106.182 117.34 104.776 117.594 103.499C117.826 102.319 118.111 101.25 118.359 100.416C118.533 99.8287 118.859 99.3115 119.292 98.9054C119.599 98.6166 119.959 98.3857 120.356 98.2274C120.464 98.1815 120.575 98.144 120.688 98.1114C122.296 97.6449 124.52 97.0672 125.124 97.2437C126.758 97.7247 127.971 100.6 128.831 104.266C130.438 111.13 130.81 120.765 130.392 122.669Z" fill="#2A4E96"/>
<path d="M124.052 94.1934C123.474 95.3017 121.316 96.2588 120.416 96.6117C120.426 96.5549 120.437 96.4981 120.446 96.4425C120.591 95.6207 120.717 94.9137 120.717 94.9137L123.353 93.6001C123.936 93.5904 124.292 93.7378 124.052 94.1934Z" fill="#FCA56B"/>
<path d="M119.436 94.759C119.436 94.759 124.193 96.243 125.07 93.2664C125.949 90.2898 127.154 88.4771 124.154 87.4039C121.155 86.3307 120.227 87.2915 119.693 88.2136C119.158 89.1369 118.222 94.2961 119.436 94.759Z" fill="#FFB27D"/>
<path d="M119.881 87.9272C119.881 87.9272 120.184 91.3908 120.901 91.2397C121.617 91.0899 122.266 90.9775 122.161 92.0216C122.056 93.0658 121.063 94.2707 123.271 94.4556C125.477 94.6405 128.651 88.9472 128.044 87.8704C126.295 84.7621 117.352 84.1336 119.881 87.9272Z" fill="#163560"/>
<path d="M116.984 121.435C118.306 121.912 116.961 120.121 116.984 119.747C117.086 118.105 116.442 116.029 116.639 114.052L124.715 109.225C124.715 109.225 126.63 121.358 116.984 121.435Z" fill="#233862"/>
<path d="M130.393 122.669C126.946 129.058 126.396 131.497 126.396 131.497C123.396 131.155 118.255 125.256 116.624 123.683C116.624 123.683 116.403 116.424 116.581 114.642L119.073 114.57C119.073 114.57 123.577 115.712 124.746 114.163C125.913 112.614 125.408 105.008 125.408 105.008L128.832 104.268C130.439 111.13 131.319 120.954 130.393 122.669Z" fill="#FF9E55"/>
<path d="M110.724 110.447C110.724 110.447 109.739 110.255 109.483 110.045C109.104 109.733 108.806 109.212 108.622 109.154C108.31 109.057 107.546 108.096 107.482 108.029C107.457 108.002 107.251 108.102 107.301 108.261C107.351 108.42 107.465 108.763 107.506 108.888C107.687 109.434 107.678 109.602 107.025 109.391C106.941 109.363 105.432 108.884 105.278 109.226C105.123 109.568 105.748 111.216 106.534 111.571C107.321 111.926 109.264 111.605 109.405 111.646C110.594 111.99 110.724 110.447 110.724 110.447Z" fill="#FFB27D"/>
<path d="M109.925 110.125C109.925 110.125 117.934 111.487 118.643 111.142C119.775 110.59 118.203 102.464 118.203 102.464C118.203 102.464 118.135 100.623 120.287 100.189C122.156 99.8117 123.959 101.211 123.959 101.211C123.959 101.211 125.599 102.678 125.39 104.306C124.926 107.915 124.203 115.254 121.79 116.379C118.677 117.831 109.67 112.356 109.67 112.356C109.67 112.356 109.37 111.989 109.412 111.307C109.45 110.704 109.925 110.125 109.925 110.125Z" fill="#2A4E96"/>
<path d="M126.071 104.863L125.407 105.007C125.407 105.007 124.004 98.9355 119.291 98.9053C119.598 98.6164 119.958 98.3856 120.356 98.2273C122.084 98.6902 125.082 100.166 126.071 104.863Z" fill="#FF9E55"/>
<path d="M102.966 95.8515C102.966 95.8515 101.668 95.0551 101.607 95.3971C101.576 95.5675 102.154 96.0328 102.386 96.2322C102.618 96.4316 103.21 96.822 103.21 96.822L102.966 95.8515Z" fill="#FFB27D"/>
<path d="M349.532 165.413H0.467698C0.210283 165.413 0 165.202 0 164.945V164.588C0 164.331 0.210283 164.121 0.467698 164.121H349.532C349.79 164.121 350 164.331 350 164.588V164.945C350 165.202 349.79 165.413 349.532 165.413Z" fill="#2E3552"/>
</svg>
