<svg width="350" height="197" viewBox="0 0 350 197" fill="none" xmlns="http://www.w3.org/2000/svg">
<g clip-path="url(#clip0)">
<path d="M14.6989 195.974C14.6989 195.974 -9.81631 176.829 7.27855 131.065C17.3559 104.087 51.351 108.229 49.6314 59.7702C47.9118 11.3126 79.245 -9.81024 135.417 12.1835C175.954 28.0552 236.739 -43.7598 286.989 46.5198C306.37 81.339 340.286 76.8281 349.315 140.505C351.784 157.91 348.081 176.132 329.794 195.975H14.6989V195.974Z" fill="#DAE3FE"/>
<path d="M162.746 80.4903L165.679 78.3162C165.925 78.1376 166.249 78.1118 166.52 78.2497C166.865 78.4259 167.22 78.5897 167.585 78.74C168.262 79.0196 168.944 79.2438 169.632 79.4064C169.953 79.4827 170.196 79.7414 170.243 80.0666L170.822 83.8371C170.88 84.2399 171.242 84.5319 171.654 84.5035L175.134 84.2744C175.528 84.2473 175.836 83.9308 175.856 83.5378L176.005 80.0284C176.013 79.6872 176.25 79.3928 176.589 79.3004C178.022 78.9087 179.389 78.2867 180.637 77.4614C180.938 77.263 181.346 77.2975 181.612 77.5402L183.189 78.9826C183.491 79.2536 183.953 79.2622 184.262 78.9937L186.854 76.6964C186.908 76.6496 186.953 76.6003 186.99 76.5412C187.174 76.2727 187.17 75.9044 186.967 75.6358L185.346 73.4432L184.949 72.9099C185.278 72.3519 185.574 71.7582 185.827 71.1435C186.169 70.3145 186.426 69.4695 186.601 68.6282C186.669 68.3067 186.921 68.0578 187.248 68.011L190.285 67.5479C190.7 67.4814 190.999 67.1131 190.968 66.6955L190.793 64.0348L190.741 63.2723C190.714 62.856 190.378 62.5234 189.961 62.5074L187.028 62.3805C186.689 62.3694 186.393 62.1452 186.302 61.8225C186.012 60.8629 185.623 59.9366 185.138 59.0645C185.102 58.9844 185.06 58.9167 185.018 58.8428C185.002 58.8194 184.991 58.7935 184.98 58.7664C184.846 58.4745 184.905 58.132 185.123 57.8955L187.458 55.3297C187.487 55.3026 187.509 55.2693 187.53 55.2385C187.729 54.9417 187.707 54.5364 187.467 54.2605L185.181 51.6737C184.905 51.3621 184.438 51.3116 184.099 51.5604L181.044 53.8294C180.787 54.0252 180.438 54.0363 180.164 53.8675C179.556 53.5017 178.911 53.1753 178.23 52.8944C177.869 52.7454 177.505 52.6136 177.14 52.4978C176.843 52.4017 176.625 52.148 176.579 51.84L176.021 48.2161C175.962 47.817 175.602 47.5275 175.196 47.5534L171.753 47.7849C171.337 47.812 171.006 48.1446 170.987 48.5684L170.869 51.3448C170.853 51.7181 170.588 52.026 170.226 52.1012C168.798 52.3783 167.423 52.8809 166.15 53.5793C165.851 53.7493 165.473 53.705 165.216 53.4709L162.905 51.3645C162.595 51.0812 162.122 51.0812 161.806 51.3559L159.228 53.6323C158.918 53.9045 158.871 54.3726 159.117 54.6978L159.211 54.8271L161.095 57.3732C161.297 57.6455 161.307 58.0076 161.125 58.2946L161.124 58.2983C160.686 58.9844 160.302 59.7174 159.981 60.4983C159.809 60.9147 159.663 61.3322 159.531 61.756C159.444 62.0516 159.195 62.2684 158.892 62.3152L155.807 62.7858C155.385 62.8486 155.082 63.228 155.111 63.6492L155.34 67.0773C155.348 67.1746 155.374 67.2683 155.408 67.3508C155.53 67.6206 155.799 67.8139 156.108 67.8287L158.451 67.9236C158.738 67.9383 158.996 68.1046 159.127 68.3522C159.16 68.4175 159.187 68.489 159.203 68.5641C159.569 70.3946 160.298 72.1289 161.345 73.6761C161.527 73.936 161.524 74.2796 161.359 74.5432C161.334 74.5802 161.307 74.6171 161.275 74.6516L159.382 76.7272C159.107 77.0278 159.104 77.4872 159.372 77.7964L159.425 77.8568L161.651 80.3807C161.934 80.6948 162.406 80.7416 162.746 80.4903ZM177.651 59.9354C178.091 60.2803 178.516 60.6794 178.917 61.1376C179.681 62.0122 180.384 63.6837 180.462 64.8453C180.47 64.9697 180.477 65.0929 180.481 65.2148C180.718 72.6955 172.013 76.2296 166.956 70.5682C166.297 69.8267 165.694 68.5407 165.45 67.4284C165.397 67.1697 165.357 66.9209 165.346 66.6967C165.282 65.6411 165.392 64.6605 165.648 63.7675C167.113 58.6752 173.239 56.511 177.651 59.9354Z" fill="#DFEBFD"/>
<path d="M186.128 44.3689L188.646 43.0041C188.857 42.892 189.112 42.908 189.308 43.0448C189.556 43.2197 189.814 43.386 190.081 43.5424C190.576 43.8343 191.083 44.0844 191.598 44.2864C191.839 44.3812 191.999 44.6091 191.999 44.8666L192.032 47.8598C192.032 48.1789 192.282 48.4462 192.606 48.4696L195.335 48.6753C195.644 48.6975 195.917 48.4856 195.977 48.1826L196.479 45.4726C196.522 45.2078 196.739 45.0058 197.014 44.9713C198.169 44.8247 199.3 44.4933 200.362 43.9895C200.618 43.8688 200.931 43.9403 201.111 44.1583L202.176 45.4529C202.381 45.6968 202.738 45.7547 203.008 45.5798L205.274 44.0819C205.321 44.0511 205.363 44.0179 205.397 43.9772C205.57 43.7888 205.608 43.503 205.479 43.2714L204.461 41.3892L204.212 40.931C204.529 40.5344 204.825 40.1057 205.089 39.6561C205.445 39.05 205.74 38.4218 205.968 37.7874C206.055 37.546 206.279 37.3797 206.538 37.3797L208.95 37.3551C209.279 37.3502 209.552 37.0964 209.574 36.7687L209.732 34.6821L209.775 34.0834C209.8 33.757 209.576 33.4614 209.254 33.4035L206.99 32.981C206.727 32.9354 206.523 32.7272 206.488 32.4673C206.368 31.6901 206.169 30.9276 205.888 30.1959C205.868 30.1306 205.845 30.0727 205.819 30.0111C205.809 29.9902 205.803 29.9692 205.798 29.9483C205.726 29.7069 205.81 29.4482 206.006 29.2868L208.104 27.5512C208.128 27.5327 208.15 27.5093 208.17 27.4884C208.359 27.2802 208.386 26.9624 208.229 26.7222L206.739 24.4606C206.559 24.1872 206.202 24.0973 205.911 24.2525L203.285 25.6777C203.063 25.8008 202.791 25.7713 202.596 25.6099C202.165 25.2588 201.7 24.9337 201.202 24.6405C200.938 24.4853 200.67 24.3424 200.399 24.2118C200.18 24.1047 200.038 23.8829 200.035 23.639L200.002 20.7616C200 20.445 199.753 20.1802 199.434 20.1555L196.734 19.956C196.408 19.9313 196.115 20.1531 196.053 20.4795L195.654 22.624C195.601 22.9123 195.361 23.1229 195.071 23.1402C193.931 23.1981 192.808 23.437 191.742 23.8386C191.492 23.9384 191.202 23.862 191.028 23.6514L189.465 21.7593C189.256 21.5056 188.888 21.4526 188.613 21.6312L186.359 23.1155C186.088 23.2929 186 23.6514 186.154 23.931L186.212 24.0418L187.395 26.2283C187.522 26.4623 187.49 26.7444 187.316 26.9476L187.315 26.9501C186.9 27.4342 186.52 27.9614 186.184 28.533C186.005 28.8372 185.845 29.1464 185.696 29.4605C185.595 29.681 185.378 29.8214 185.137 29.8251L182.689 29.8498C182.354 29.8522 182.077 30.1134 182.054 30.4435L181.853 33.1325C181.848 33.2089 181.858 33.284 181.875 33.353C181.94 33.5759 182.128 33.7558 182.365 33.8014L184.175 34.1339C184.397 34.177 184.579 34.3347 184.653 34.5417C184.671 34.5959 184.685 34.655 184.688 34.7153C184.771 36.1775 185.145 37.6051 185.788 38.9232C185.901 39.1449 185.86 39.411 185.703 39.5982C185.68 39.6241 185.655 39.6499 185.627 39.6733L183.927 41.0776C183.681 41.2808 183.627 41.6368 183.802 41.9066L183.836 41.9595L185.287 44.1657C185.476 44.4367 185.836 44.5266 186.128 44.3689ZM199.976 30.0456C200.279 30.3622 200.566 30.7194 200.827 31.1197C201.325 31.8834 201.686 33.2606 201.618 34.1697C201.612 34.267 201.602 34.3631 201.592 34.4591C200.951 40.2966 193.798 42.0815 190.495 37.126C190.064 36.4768 189.738 35.4113 189.671 34.5195C189.659 34.3125 189.655 34.1155 189.671 33.9393C189.738 33.1115 189.931 32.3626 190.229 31.6962C191.929 27.9035 196.926 26.8984 199.976 30.0456Z" fill="#DFEBFD"/>
<path d="M298.991 156.319L302.1 154.634C302.36 154.496 302.675 154.516 302.917 154.685C303.223 154.901 303.541 155.106 303.871 155.299C304.483 155.659 305.108 155.968 305.744 156.218C306.042 156.335 306.239 156.617 306.24 156.935L306.282 160.63C306.283 161.025 306.591 161.354 306.99 161.383L310.359 161.637C310.741 161.665 311.078 161.403 311.151 161.028L311.772 157.683C311.825 157.356 312.093 157.106 312.432 157.063C313.86 156.882 315.255 156.472 316.566 155.851C316.883 155.702 317.269 155.79 317.491 156.059L318.807 157.657C319.059 157.957 319.501 158.029 319.834 157.813L322.633 155.963C322.691 155.926 322.742 155.884 322.785 155.834C322.999 155.601 323.045 155.248 322.886 154.962L321.63 152.637L321.322 152.072C321.714 151.582 322.078 151.053 322.405 150.498C322.845 149.749 323.208 148.973 323.49 148.189C323.598 147.89 323.876 147.687 324.193 147.686L327.171 147.655C327.577 147.649 327.913 147.336 327.942 146.93L328.136 144.355L328.191 143.617C328.221 143.214 327.944 142.85 327.548 142.777L324.751 142.256C324.426 142.199 324.174 141.943 324.131 141.621C323.983 140.662 323.736 139.72 323.39 138.817C323.367 138.735 323.336 138.664 323.305 138.588C323.293 138.563 323.287 138.536 323.279 138.51C323.191 138.212 323.294 137.892 323.536 137.693L326.126 135.551C326.157 135.529 326.183 135.499 326.207 135.474C326.439 135.216 326.473 134.824 326.28 134.528L324.44 131.735C324.217 131.398 323.777 131.287 323.417 131.479L320.175 133.238C319.902 133.391 319.566 133.354 319.325 133.154C318.793 132.72 318.218 132.319 317.603 131.957C317.277 131.765 316.947 131.588 316.612 131.427C316.341 131.294 316.166 131.022 316.163 130.72L316.123 127.168C316.12 126.777 315.815 126.449 315.422 126.419L312.089 126.172C311.686 126.141 311.324 126.416 311.247 126.819L310.756 129.466C310.69 129.821 310.394 130.082 310.036 130.104C308.628 130.176 307.241 130.47 305.925 130.966C305.615 131.088 305.258 130.995 305.044 130.735L303.114 128.399C302.855 128.086 302.4 128.02 302.06 128.24L299.277 130.072C298.942 130.291 298.833 130.734 299.024 131.079L299.096 131.215L300.556 133.915C300.713 134.205 300.673 134.553 300.459 134.803L300.457 134.807C299.944 135.406 299.475 136.056 299.061 136.762C298.841 137.138 298.642 137.518 298.459 137.908C298.334 138.18 298.067 138.353 297.769 138.357L294.746 138.388C294.332 138.39 293.991 138.713 293.96 139.121L293.713 142.441C293.706 142.535 293.719 142.628 293.741 142.713C293.821 142.987 294.053 143.209 294.347 143.266L296.581 143.676C296.855 143.729 297.08 143.925 297.171 144.18C297.195 144.248 297.211 144.319 297.216 144.394C297.317 146.2 297.78 147.963 298.573 149.59C298.712 149.863 298.662 150.192 298.467 150.424C298.439 150.457 298.408 150.487 298.372 150.516L296.273 152.249C295.969 152.501 295.903 152.94 296.119 153.273L296.161 153.338L297.952 156.062C298.185 156.404 298.63 156.515 298.991 156.319ZM316.089 138.634C316.464 139.025 316.817 139.466 317.14 139.96C317.754 140.903 318.199 142.602 318.116 143.727C318.107 143.847 318.096 143.966 318.085 144.084C317.292 151.291 308.46 153.496 304.382 147.376C303.85 146.576 303.447 145.259 303.365 144.159C303.349 143.904 303.345 143.66 303.365 143.443C303.447 142.421 303.686 141.497 304.053 140.674C306.152 135.99 312.323 134.748 316.089 138.634Z" fill="#DFEBFD"/>
<path d="M317.384 124.093L319.047 123.192C319.186 123.118 319.355 123.129 319.484 123.219C319.648 123.335 319.818 123.444 319.996 123.548C320.323 123.74 320.657 123.906 320.997 124.039C321.156 124.102 321.262 124.252 321.262 124.422L321.284 126.399C321.284 126.61 321.449 126.786 321.663 126.802L323.465 126.938C323.67 126.952 323.851 126.812 323.889 126.612L324.222 124.823C324.25 124.648 324.394 124.515 324.575 124.491C325.339 124.394 326.086 124.175 326.786 123.843C326.955 123.763 327.162 123.811 327.282 123.955L327.986 124.81C328.122 124.972 328.358 125.01 328.536 124.894L330.033 123.904C330.064 123.884 330.091 123.862 330.115 123.835C330.228 123.71 330.254 123.522 330.169 123.368L329.496 122.125L329.333 121.822C329.542 121.56 329.737 121.276 329.912 120.979C330.147 120.579 330.341 120.164 330.492 119.745C330.55 119.585 330.697 119.477 330.869 119.475L332.461 119.459C332.679 119.456 332.859 119.288 332.874 119.073L332.979 117.694L333.007 117.299C333.023 117.083 332.875 116.889 332.663 116.849L331.168 116.571C330.994 116.54 330.859 116.403 330.835 116.232C330.757 115.718 330.625 115.215 330.439 114.732C330.426 114.689 330.41 114.65 330.393 114.61C330.387 114.596 330.383 114.583 330.38 114.568C330.332 114.408 330.387 114.238 330.516 114.132L331.902 112.985C331.918 112.973 331.933 112.958 331.945 112.943C332.07 112.805 332.087 112.596 331.985 112.437L331 110.943C330.881 110.763 330.646 110.703 330.454 110.806L328.719 111.747C328.573 111.828 328.393 111.809 328.265 111.702C327.98 111.47 327.672 111.254 327.343 111.061C327.168 110.959 326.992 110.864 326.812 110.778C326.667 110.706 326.573 110.561 326.572 110.4L326.55 108.499C326.549 108.29 326.386 108.115 326.174 108.099L324.391 107.967C324.175 107.951 323.98 108.097 323.94 108.313L323.676 109.729C323.64 109.919 323.483 110.058 323.291 110.071C322.538 110.109 321.795 110.267 321.091 110.533C320.926 110.598 320.735 110.549 320.62 110.409L319.588 109.16C319.45 108.993 319.206 108.957 319.025 109.075L317.536 110.056C317.357 110.173 317.299 110.409 317.401 110.594L317.44 110.667L318.22 112.111C318.304 112.266 318.283 112.452 318.169 112.586L318.168 112.587C317.893 112.908 317.643 113.256 317.421 113.633C317.303 113.834 317.197 114.038 317.098 114.245C317.032 114.391 316.889 114.484 316.729 114.485L315.111 114.501C314.89 114.503 314.707 114.675 314.691 114.894L314.56 116.671C314.556 116.721 314.563 116.77 314.574 116.816C314.617 116.964 314.742 117.082 314.898 117.112L316.094 117.331C316.241 117.359 316.362 117.464 316.41 117.601C316.422 117.636 316.431 117.676 316.433 117.715C316.487 118.681 316.735 119.624 317.16 120.494C317.234 120.641 317.207 120.817 317.103 120.94C317.088 120.957 317.071 120.975 317.053 120.989L315.929 121.917C315.767 122.051 315.731 122.286 315.847 122.465L315.869 122.499L316.827 123.957C316.953 124.139 317.191 124.197 317.384 124.093ZM326.531 114.632C326.732 114.841 326.921 115.077 327.094 115.342C327.423 115.847 327.661 116.756 327.617 117.357C327.612 117.421 327.606 117.485 327.599 117.548C327.176 121.403 322.45 122.583 320.269 119.309C319.984 118.88 319.769 118.176 319.725 117.588C319.716 117.452 319.715 117.321 319.725 117.205C319.769 116.658 319.897 116.164 320.093 115.723C321.216 113.217 324.516 112.553 326.531 114.632Z" fill="#AEC3FF"/>
<path d="M40.4985 124.431L42.3228 123.442C42.4755 123.361 42.6603 123.373 42.802 123.471C42.9818 123.598 43.169 123.719 43.3612 123.832C43.7197 124.043 44.0867 124.225 44.46 124.371C44.6349 124.44 44.7507 124.605 44.7507 124.792L44.7753 126.96C44.7753 127.191 44.9564 127.384 45.1904 127.401L47.1675 127.55C47.3916 127.566 47.59 127.412 47.6318 127.193L47.9965 125.23C48.0272 125.038 48.1849 124.892 48.3832 124.867C49.2209 124.761 50.04 124.521 50.8086 124.156C50.9946 124.069 51.2213 124.121 51.3506 124.278L52.123 125.216C52.2708 125.392 52.5307 125.434 52.7253 125.308L54.3673 124.223C54.4018 124.201 54.4314 124.176 54.4572 124.146C54.5816 124.01 54.61 123.803 54.5163 123.635L53.7797 122.272L53.5999 121.94C53.829 121.652 54.0433 121.343 54.2355 121.016C54.4942 120.578 54.706 120.122 54.8723 119.663C54.9364 119.488 55.099 119.367 55.285 119.367L57.0317 119.35C57.2706 119.346 57.4677 119.163 57.4837 118.925L57.5983 117.413L57.6303 116.98C57.6488 116.743 57.485 116.529 57.2534 116.487L55.6139 116.182C55.423 116.148 55.2751 115.998 55.2493 115.81C55.163 115.247 55.0177 114.694 54.8144 114.165C54.8009 114.117 54.7824 114.075 54.7652 114.031C54.7578 114.016 54.7541 114 54.7504 113.985C54.6987 113.81 54.759 113.623 54.9007 113.506L56.4207 112.25C56.4392 112.236 56.454 112.22 56.4688 112.204C56.6042 112.053 56.6252 111.824 56.5119 111.649L55.4328 110.01C55.3022 109.813 55.0436 109.748 54.8329 109.86L52.931 110.892C52.7709 110.982 52.5738 110.96 52.4321 110.843C52.1193 110.588 51.783 110.353 51.4221 110.141C51.2311 110.029 51.0365 109.925 50.8407 109.83C50.6818 109.753 50.5783 109.593 50.5783 109.415L50.5537 107.331C50.5524 107.102 50.3738 106.91 50.1422 106.893L48.1861 106.749C47.9496 106.73 47.7365 106.891 47.6922 107.128L47.404 108.681C47.3658 108.889 47.1921 109.042 46.9814 109.056C46.1561 109.098 45.3419 109.27 44.5696 109.562C44.3885 109.633 44.1791 109.579 44.0535 109.426L42.9214 108.057C42.7699 107.873 42.5039 107.835 42.3043 107.964L40.671 109.038C40.4751 109.167 40.411 109.426 40.5231 109.628L40.565 109.709L41.4223 111.291C41.5147 111.461 41.4913 111.666 41.3657 111.812L41.3645 111.815C41.0639 112.166 40.7892 112.548 40.5453 112.962C40.416 113.182 40.3002 113.405 40.1918 113.634C40.1191 113.793 39.9614 113.895 39.7878 113.898L38.0152 113.916C37.7725 113.918 37.5718 114.107 37.5545 114.346L37.4092 116.294C37.4055 116.349 37.4129 116.403 37.4252 116.453C37.472 116.614 37.6087 116.745 37.7799 116.778L39.0906 117.018C39.2507 117.049 39.3825 117.163 39.4367 117.314C39.4502 117.353 39.4601 117.395 39.4626 117.439C39.5217 118.499 39.7939 119.533 40.2595 120.487C40.3408 120.648 40.3113 120.84 40.1979 120.976C40.1819 120.995 40.1635 121.013 40.1425 121.03L38.912 122.046C38.7333 122.193 38.6939 122.451 38.8208 122.647L38.8454 122.685L39.8962 124.283C40.0255 124.48 40.2879 124.546 40.4985 124.431ZM50.529 114.057C50.7483 114.286 50.9565 114.545 51.1462 114.834C51.5058 115.387 51.7682 116.384 51.7189 117.044C51.714 117.114 51.7079 117.184 51.7005 117.253C51.2348 121.481 46.0551 122.774 43.663 119.185C43.3513 118.715 43.1148 117.943 43.0668 117.298C43.0582 117.147 43.0557 117.004 43.0668 116.878C43.1148 116.278 43.2553 115.736 43.4708 115.253C44.7002 112.505 48.3192 111.777 50.529 114.057Z" fill="#DFEBFD"/>
<path d="M206.864 93.8921L211.551 90.5367C211.944 90.2608 212.457 90.2287 212.881 90.4529C213.422 90.7412 213.977 91.0085 214.549 91.2548C215.612 91.7131 216.684 92.0863 217.764 92.361C218.27 92.4903 218.646 92.9054 218.711 93.4203L219.527 99.3896C219.608 100.028 220.172 100.497 220.824 100.463L226.325 100.192C226.948 100.159 227.442 99.6668 227.483 99.0472L227.81 93.5103C227.83 92.9707 228.213 92.5125 228.753 92.3758C231.024 91.7944 233.2 90.8483 235.193 89.5784C235.674 89.2729 236.317 89.3369 236.731 89.7286L239.184 92.0469C239.653 92.4829 240.382 92.5088 240.876 92.0925L245.029 88.5338C245.115 88.4611 245.189 88.3835 245.249 88.2936C245.547 87.8736 245.551 87.2934 245.235 86.8635L242.734 83.359L242.123 82.5066C242.656 81.6345 243.139 80.7057 243.555 79.7412C244.116 78.4417 244.546 77.1138 244.843 75.7896C244.958 75.2846 245.364 74.8978 245.878 74.8325L250.687 74.1809C251.344 74.0873 251.824 73.5133 251.787 72.8543L251.582 68.6489L251.519 67.4442C251.488 66.7864 250.965 66.2531 250.309 66.2161L245.681 65.939C245.144 65.9131 244.685 65.5497 244.549 65.0398C244.117 63.5173 243.527 62.044 242.784 60.6546C242.729 60.5277 242.666 60.4193 242.601 60.301C242.576 60.2629 242.56 60.2222 242.543 60.1803C242.34 59.7159 242.441 59.1776 242.793 58.8081L246.549 54.8183C246.594 54.7764 246.631 54.7235 246.664 54.6767C246.987 54.2135 246.962 53.573 246.592 53.1308L243.05 48.9858C242.622 48.4857 241.887 48.3945 241.345 48.7776L236.458 52.2784C236.046 52.5801 235.494 52.5888 235.066 52.3141C234.116 51.7191 233.106 51.1882 232.038 50.7263C231.473 50.4824 230.902 50.2631 230.327 50.071C229.861 49.9108 229.523 49.5044 229.459 49.0178L228.673 43.2813C228.589 42.6494 228.031 42.1826 227.387 42.2134L221.945 42.4893C221.287 42.5201 220.756 43.0387 220.714 43.7051L220.454 48.0866C220.42 48.6741 219.994 49.1545 219.419 49.2629C217.157 49.6633 214.974 50.4208 212.944 51.49C212.468 51.7511 211.872 51.6711 211.473 51.2942L207.879 47.9079C207.397 47.4534 206.649 47.4386 206.143 47.8648L202.012 51.3915C201.514 51.814 201.429 52.5518 201.807 53.0704L201.951 53.2761L204.86 57.346C205.171 57.782 205.179 58.3536 204.883 58.8007L204.881 58.8069C204.172 59.8785 203.547 61.0266 203.018 62.251C202.736 62.9038 202.495 63.5591 202.275 64.2255C202.13 64.6899 201.732 65.025 201.25 65.0915L196.369 65.753C195.7 65.8417 195.212 66.4329 195.248 67.0981L195.52 72.5168C195.529 72.6707 195.568 72.8185 195.621 72.9503C195.806 73.379 196.226 73.6907 196.713 73.7227L200.409 73.9333C200.861 73.9641 201.265 74.2339 201.465 74.6293C201.515 74.734 201.556 74.8473 201.579 74.9668C202.109 77.8664 203.214 80.6244 204.826 83.0942C205.106 83.5093 205.091 84.0513 204.825 84.4639C204.786 84.5218 204.741 84.5785 204.691 84.6315L201.647 87.86C201.206 88.3269 201.188 89.0524 201.604 89.5476L201.685 89.6449L205.133 93.6876C205.577 94.1927 206.319 94.2814 206.864 93.8921ZM230.938 61.8297C231.623 62.3852 232.284 63.027 232.906 63.7612C234.09 65.1617 235.156 67.8211 235.247 69.6553C235.258 69.8524 235.263 70.0458 235.269 70.2404C235.445 82.057 221.607 87.4104 213.774 78.3382C212.752 77.1508 211.834 75.1035 211.478 73.3408C211.402 72.9306 211.345 72.5365 211.334 72.1829C211.26 70.5139 211.46 68.9704 211.888 67.5649C214.331 59.5632 224.06 56.3063 230.938 61.8297Z" fill="#DFEBFD"/>
<path d="M61.387 83.9456C62.8541 76.5043 75.3383 77.9234 75.3383 77.9234C75.3383 77.9234 84.6014 90.1194 87.0576 90.2524C89.5138 90.3867 81.1745 78.2793 81.1745 78.2793C85.8591 77.4922 98.2842 82.4342 98.2842 82.4342C98.2842 82.4342 98.5675 97.3993 100.981 96.9238C103.394 96.4496 100.054 83.6857 100.054 83.6857C104.714 84.7352 109.348 89.7634 109.348 89.7634C115.28 98.0632 104.316 105.253 104.316 105.253C104.316 105.253 104.526 110.437 108.136 116.147C108.136 116.147 108.934 117.193 109.798 119.004L108.554 119.091C108.429 118.765 108.294 118.449 108.148 118.149C108.148 118.146 108.147 118.145 108.146 118.144C108.143 118.139 108.141 118.135 108.14 118.13C108.041 117.944 107.9 117.68 107.723 117.357C107.723 117.357 107.723 117.356 107.722 117.356C107.722 117.354 107.721 117.354 107.721 117.354C107.289 116.636 106.993 116.105 106.803 115.72C106.802 115.719 106.802 115.717 106.802 115.716C105.499 113.459 103.645 110.53 102.506 109.969C102.506 109.969 102.63 109.765 102.732 109.379C102.66 109.567 102.584 109.763 102.506 109.969C100.695 114.683 90.0977 116.188 84.0779 115.386C78.0581 114.584 80.5279 112.729 83.5334 109.789C86.539 106.848 93.2831 107.096 95.1874 105.893C97.0906 104.689 94.1256 103.827 90.1913 104.407C86.2569 104.988 84.5558 109.083 78.2072 110.139C71.8597 111.194 66.1491 99.5143 66.1491 99.5143C70.6575 100.575 78.3993 97.5865 78.5976 96.0443C78.796 94.5009 67.0902 95.474 65.2327 95.1451C63.3714 94.815 59.9199 91.3869 61.387 83.9456Z" fill="#DFEBFD"/>
<path d="M161.94 112.256L155.336 190.769C155.336 190.769 154.644 195.529 158.184 195.537C164.004 195.551 187.156 195.537 187.156 195.537C187.156 195.537 182.775 194.547 182.828 192.318C182.891 189.69 190.547 111.513 190.547 111.513L161.94 112.256Z" fill="#759BE0"/>
<path d="M189.034 194.113C187.889 194.116 165.777 194.185 160.109 194.113C157.638 194.082 157.205 191.916 157.184 190.515C157.175 189.842 157.26 189.346 157.26 189.346L157.431 187.304L157.868 182.104L158.255 177.509L158.751 171.604L159.17 166.62L163.862 110.831L192.469 110.088C192.469 110.088 189.246 142.805 186.964 166.62C186.709 169.273 186.468 171.818 186.244 174.193C186.171 174.952 186.102 175.692 186.033 176.414C185.821 178.667 185.628 180.737 185.46 182.563C185.372 183.527 185.29 184.421 185.216 185.241C184.926 188.453 184.754 190.503 184.752 190.894C184.751 191.122 184.77 191.332 184.807 191.53C185.278 194.031 188.604 194.113 189.034 194.113Z" fill="#AEC3FF"/>
<path d="M92.4648 69.5312L108.548 134.139L110.751 142.987L118.243 173.078H257.418L229.806 69.5312H92.4648Z" fill="#AEC3FF"/>
<path d="M92.4659 69.5312L90.2363 70.274L115.28 175.326L118.244 173.08L92.4659 69.5312Z" fill="#759BE0"/>
<path d="M115.281 175.326H253.601L257.42 173.079H118.245L115.281 175.326Z" fill="#759BE0"/>
<path d="M163.852 195.567H193.801V194.144H163.852V195.567Z" fill="#AEC3FF"/>
<path opacity="0.7" d="M186.19 175.326L186.036 176.414L157.871 182.104L158.258 177.509L158.441 175.326H186.19Z" fill="#759BE0"/>
<path d="M189.033 194.112C187.889 194.116 165.777 194.185 160.108 194.112C157.637 194.082 157.205 191.916 157.184 190.514L185.216 185.24C184.925 188.451 184.754 190.502 184.751 190.892C184.75 191.12 184.77 191.331 184.807 191.528C185.277 194.031 188.603 194.112 189.033 194.112Z" fill="#94B0ED"/>
<path d="M179.382 152.117L118.244 173.08L110.752 142.987L179.382 152.117Z" fill="#94B0ED"/>
<path d="M92.4648 69.5312H229.806L251.922 152.751H113.19L92.4648 69.5312Z" fill="#D2E0FF"/>
<path opacity="0.5" d="M98 72.4875L117.73 148.296H245.27L225.325 73.3609L98 72.4875Z" fill="#AEC3FF"/>
<path d="M192.412 117.854H144.17V148.293H192.412V117.854Z" fill="#ED7D2B"/>
<path d="M216.53 117.855H168.289V148.293H216.53V117.855Z" fill="#F99746"/>
<path d="M168.29 122.35L158.121 132.52H144.197V117.854H168.29V122.35Z" fill="#E06D20"/>
<path d="M144.17 117.854L133.324 128.32H157.46L168.291 117.854H144.17Z" fill="#F99746"/>
<path d="M216.531 118.933L168.289 117.854V121.711V122.342L177.259 132.176H216.53V122.386L216.282 122.094H216.531V118.933Z" fill="#ED7D2B"/>
<path d="M168.289 117.854L177.834 128.32H225.438L216.531 117.854H168.289Z" fill="#F99746"/>
<path d="M84.2259 114.003C84.2259 114.003 84.5609 110.347 80.4775 110.347C80.4775 110.347 81.7155 110.683 82.3548 111.354C82.3548 111.354 79.7495 109.824 76.9152 112.175C74.0808 114.525 75.8423 120.418 74.98 121.537C74.1178 122.656 70.7611 122.88 71.1713 126.499C71.5815 130.117 81.8263 134.649 81.1686 137.643C81.1686 137.643 85.183 131.742 82.3129 129.049C82.3129 129.049 83.7122 130.367 83.8551 131.934C83.8551 131.934 84.2345 128.875 82.2883 127.897C80.5662 127.031 79.1546 123.866 79.3036 123.299C79.4514 122.731 84.2259 114.003 84.2259 114.003Z" fill="#2C3A64"/>
<path d="M80.2062 131.553C80.2062 131.553 83.2574 144.176 86.2531 146.699C88.054 148.215 93.4061 151.697 93.4061 151.697L91.179 152.505C91.179 152.505 83.7538 149.997 82.0921 148.043C80.4304 146.088 75.8789 136.295 75.8789 136.295L80.2062 131.553Z" fill="#FFB27D"/>
<path d="M97.7692 156.312L97.0523 154.536C96.2836 152.632 94.4359 151.385 92.3825 151.385H79.1543V159.778V195.613H133.873V159.778H102.908C100.649 159.778 98.6154 158.407 97.7692 156.312Z" fill="#F99746"/>
<path d="M87.4082 178.28V175.092L98.5905 170.194V173.452L90.7821 176.664L98.5905 179.875V183.179L87.4082 178.28Z" fill="white"/>
<path d="M110.21 166.382H113.189L102.954 187.776H99.9746L110.21 166.382Z" fill="white"/>
<path d="M125.62 175.092V178.28L114.438 183.177V179.921L122.246 176.709L114.438 173.498V170.194L125.62 175.092Z" fill="white"/>
<path d="M51.5276 153.731C51.5547 153.779 51.583 153.829 51.6114 153.878C52.279 155.039 53.8114 157.883 55.4977 160.994C56.2959 162.471 57.131 164.007 57.9243 165.454C59.2904 167.949 60.532 170.173 61.2575 171.346C61.9954 172.541 62.5374 173.38 62.7566 173.715C62.7579 173.716 62.7579 173.716 62.7579 173.716C62.8244 173.82 62.8379 173.942 62.8293 174.063C62.7529 175.116 62.7739 176.162 62.8773 177.193C63.8948 187.317 70.7214 192.743 70.7214 192.743L72.7514 193.042C72.7514 193.042 69.8789 182.401 69.0326 176.383C68.8897 175.363 68.8269 174.537 68.8774 173.998C69.0277 172.43 68.7493 170.129 68.2221 167.487C67.2847 162.792 65.5651 157.029 64.071 152.416C63.9761 152.122 61.122 141.796 61.122 141.796C58.7262 143.89 49.9879 144.754 49.9879 144.754C49.9879 144.754 48.5073 148.359 51.5276 153.731Z" fill="#2F539B"/>
<path d="M77.013 195.613H68.5408C68.5408 195.613 68.3375 194.322 68.7797 193.343C69.2035 192.403 69.8083 192.373 68.8573 190.899C69.3956 191.453 71.1263 191.682 72.3507 191.517C72.501 191.76 73.3176 193.393 73.819 193.753C74.3733 194.151 76.8418 194.009 77.013 195.613Z" fill="#233862"/>
<path d="M51.5273 153.731C51.5544 153.779 51.5828 153.829 51.6111 153.878C52.2787 155.039 55.8903 161.709 57.5767 164.82C55.6218 156.778 56.9817 148.736 56.9817 148.736L51.5273 153.731Z" fill="#233862"/>
<path d="M83.0717 113.489C83.1271 113.266 78.2332 115.701 77.9844 115.976C75.6896 118.522 76.3436 121.844 77.6567 121.876C78.4993 121.897 78.3354 123.298 78.3354 123.298L87.7193 119.328C87.7205 119.328 86.5909 112.739 83.0717 113.489Z" fill="#2C3A64"/>
<path d="M79.9175 129.657C79.9175 129.657 81.3451 132.51 81.1678 134.825C81.1678 134.825 79.4457 137.543 74.9805 138.231C74.9805 138.232 78.82 129.656 79.9175 129.657Z" fill="#F99746"/>
<path d="M58.1334 145.386L58.1617 143.802C55.0046 144.2 47.2763 140.029 47.2763 140.029C47.2763 140.029 43.9739 142.225 43.5218 148.499C43.3013 151.561 41.9045 164.51 41.7505 168.376C41.6938 169.778 41.6754 170.778 41.6692 171.177C41.6704 171.18 41.6692 171.18 41.6692 171.181C41.6667 171.303 41.6101 171.41 41.5349 171.508C40.8821 172.338 40.3155 173.217 39.824 174.13C35.0064 183.093 37.5254 195.271 37.5254 195.271L38.6439 194.987C38.6439 194.987 42.7175 182.362 45.3794 176.9C45.8314 175.974 46.2416 175.253 46.5853 174.837C47.5868 173.621 48.6412 171.557 49.682 169.072C51.6492 164.375 58.1334 145.386 58.1334 145.386Z" fill="#2F539B"/>
<path d="M44.2631 195.613H35.7908C35.7908 195.613 35.5875 194.322 36.0297 193.342C36.4535 192.403 37.1174 191.975 36.9585 190.838C37.4968 191.392 38.3738 192.013 39.5995 191.848C39.7498 192.091 40.5677 193.393 41.069 193.754C41.6246 194.15 44.0931 194.009 44.2631 195.613Z" fill="#233862"/>
<path d="M74.4065 140.051C73.2684 140.246 74.5925 141.15 73.0269 141.32C70.7998 141.563 68.4989 141.73 67.2942 142.21C66.8544 142.385 66.5612 142.602 66.4689 142.879C65.9466 144.45 62.6392 147.149 62.6392 147.149C47.8872 146.477 46.9375 139.902 46.9375 139.902C56.5122 130.603 64.6569 125.536 71.3886 124.907C73.0269 124.755 75.2355 124.959 76.2715 125.421C78.6254 126.469 79.9164 129.658 79.9164 129.658C79.9164 129.658 78.7314 139.313 74.4065 140.051Z" fill="#F99746"/>
<path d="M73.0287 141.32C70.8016 141.563 68.5006 141.73 67.2959 142.211C66.8032 134.853 70.2756 129.32 70.2756 129.32C70.2756 129.32 72.5409 138.535 73.0287 141.32Z" fill="#ED7D2B"/>
<path d="M74.9522 128.073C74.9522 128.073 69.35 127.768 68.3547 131.284C67.3594 134.801 70.2221 148.84 70.8393 150.289C71.9627 152.927 77.4306 160.456 77.4306 160.456L79.4409 159.844C79.4409 159.844 75.7948 148.342 74.9806 147.204C73.7032 145.417 76.6287 129.603 74.9522 128.073Z" fill="#FFB27D"/>
<path d="M79.4407 159.843C79.4407 159.843 79.5441 160.734 79.9211 161.195C80.298 161.656 81.3943 162.769 81.414 163.422C81.414 163.422 81.3585 163.712 81.1233 163.659C80.888 163.606 80.0713 162.798 79.6525 162.855C79.6525 162.855 79.8767 164.162 80.0972 164.531C80.3189 164.899 80.1428 166.46 80.0097 166.777C79.8767 167.095 78.2421 165.073 77.5708 164.169C76.8995 163.264 77.5597 159.599 77.5597 159.599L79.4407 159.843Z" fill="#FFB27D"/>
<path d="M67.25 135.988C67.2648 136.07 72.5517 136.961 75.8578 135.282C75.8578 135.282 78.6207 126.628 74.6728 127.042C70.7249 127.456 68.3882 128.7 68.2884 130.59C68.1886 132.479 67.25 135.988 67.25 135.988Z" fill="#F99746"/>
<path d="M76.1466 126.027C76.5679 127.346 77.9709 131.104 79.9171 129.658C79.8506 129.377 80.2595 128.562 80.7424 127.734C81.3583 126.676 82.0925 125.593 82.0925 125.593L78.9218 122.816L78.7321 122.649C77.9031 124.097 77.0877 124.794 76.3732 125.327C76.1564 125.489 76.0653 125.768 76.1466 126.027Z" fill="#FFB27D"/>
<path d="M82.0917 125.594C82.0917 125.594 81.3588 126.673 80.7429 127.733C78.772 126.519 78.7695 124.079 78.9223 122.815L82.0917 125.594Z" fill="#ED985F"/>
<path d="M82.1803 126.985C82.1803 126.985 77.3948 124.322 79.0996 121.368C80.8031 118.415 81.334 116.08 84.4603 117.656C87.5879 119.231 87.525 120.697 87.1962 121.822C86.8673 122.946 83.4687 127.603 82.1803 126.985Z" fill="#FFB27D"/>
<path d="M88.0041 120.1C87.7848 118.788 87.1184 118.662 86.654 118.751C84.8864 115.829 82.0003 116.97 82.0003 116.97C80.4581 118.905 78.2285 119.235 78.2285 119.235C78.2285 119.235 78.7841 120.269 81.0715 120.908C81.7699 121.104 82.5632 120.985 83.3282 120.728C81.7404 121.612 80.0811 121.952 80.0811 121.952C83.0966 122.228 85.9642 119.472 86.2623 119.177C86.4015 119.605 86.6454 120.499 86.4988 121.153C86.3005 122.041 85.5122 123.651 85.9938 123.859C85.9938 123.856 88.333 122.067 88.0041 120.1Z" fill="#2C3A64"/>
<path d="M94.2825 151.704C94.2825 151.704 92.9472 152.705 93.9536 153.36C94.96 154.016 96.7572 154.192 96.7645 153.762C96.7892 152.32 96.0698 151.295 94.2825 151.704Z" fill="#FFB27D"/>
<path d="M343.513 196.381H0.368307C0.166292 196.381 0 196.216 0 196.013V195.935C0 195.733 0.165061 195.567 0.368307 195.567H343.513C343.715 195.567 343.882 195.732 343.882 195.935V196.013C343.882 196.215 343.715 196.381 343.513 196.381Z" fill="#2E3552"/>
<path d="M113.609 96.7327C113.453 96.091 113.734 95.5884 114.328 95.5872C114.919 95.5859 115.438 96.0811 115.595 96.7291C115.751 97.3708 115.474 97.8734 114.876 97.8746C114.279 97.8759 113.766 97.3807 113.609 96.7327ZM115.09 96.7303C114.993 96.3287 114.722 96.0257 114.428 96.0269C114.133 96.0269 114.014 96.3213 114.112 96.7327C114.21 97.1368 114.478 97.4373 114.775 97.4361C115.073 97.4349 115.19 97.138 115.09 96.7303Z" fill="#F99746"/>
<path d="M105.022 80.1121L104.655 80.207L104.457 79.8091L105.053 79.6182H105.388L105.928 81.8453L105.442 81.8465L105.022 80.1121Z" fill="#94B0ED"/>
<path d="M106.765 80.7388C106.61 80.0971 106.89 79.5945 107.484 79.5933C108.075 79.592 108.594 80.0872 108.752 80.7351C108.907 81.3769 108.63 81.8795 108.032 81.8807C107.435 81.8819 106.921 81.3855 106.765 80.7388ZM108.247 80.7364C108.149 80.3348 107.878 80.0318 107.584 80.033C107.291 80.033 107.17 80.3274 107.269 80.7388C107.366 81.1429 107.634 81.4434 107.931 81.4422C108.229 81.4409 108.345 81.1429 108.247 80.7364Z" fill="#94B0ED"/>
<path d="M145.901 80.0384L145.534 80.1332L145.336 79.7354L145.932 79.5444H146.267L146.807 81.7715L146.321 81.7728L145.901 80.0384Z" fill="#94B0ED"/>
<path d="M147.646 80.6641C147.49 80.0224 147.771 79.5198 148.365 79.5186C148.956 79.5173 149.475 80.0125 149.633 80.6604C149.788 81.3022 149.511 81.8048 148.913 81.806C148.316 81.8072 147.803 81.312 147.646 80.6641ZM149.129 80.6617C149.031 80.2601 148.76 79.9571 148.466 79.9583C148.172 79.9583 148.052 80.2527 148.151 80.6641C148.248 81.0681 148.517 81.3687 148.813 81.3675C149.11 81.3662 149.227 81.0694 149.129 80.6617Z" fill="#94B0ED"/>
<path d="M150.616 80.6593C150.461 80.0175 150.742 79.5149 151.336 79.5137C151.927 79.5124 152.446 80.0076 152.603 80.6556C152.759 81.2973 152.481 81.7999 151.884 81.8012C151.286 81.8024 150.773 81.3072 150.616 80.6593ZM152.098 80.6568C152.001 80.2552 151.73 79.9522 151.436 79.9534C151.141 79.9534 151.022 80.2478 151.12 80.6593C151.217 81.0633 151.486 81.3639 151.783 81.3626C152.081 81.3614 152.197 81.0645 152.098 80.6568Z" fill="#94B0ED"/>
<path d="M165.808 80.6641C165.653 80.0224 165.933 79.5198 166.527 79.5186C167.118 79.5173 167.637 80.0125 167.795 80.6604C167.95 81.3022 167.673 81.8048 167.075 81.806C166.478 81.8072 165.964 81.312 165.808 80.6641ZM167.29 80.6617C167.192 80.2601 166.921 79.9571 166.627 79.9583C166.333 79.9583 166.213 80.2527 166.312 80.6641C166.409 81.0681 166.677 81.3687 166.974 81.3675C167.272 81.3662 167.388 81.0694 167.29 80.6617Z" fill="#94B0ED"/>
<path d="M168.78 80.6593C168.625 80.0175 168.906 79.5149 169.5 79.5137C170.091 79.5124 170.61 80.0076 170.767 80.6556C170.923 81.2973 170.645 81.7999 170.048 81.8012C169.449 81.8024 168.937 81.3072 168.78 80.6593ZM170.262 80.6568C170.165 80.2552 169.894 79.9522 169.6 79.9534C169.306 79.9534 169.186 80.2478 169.284 80.6593C169.382 81.0633 169.65 81.3639 169.947 81.3626C170.244 81.3614 170.361 81.0645 170.262 80.6568Z" fill="#94B0ED"/>
<path d="M171.749 80.6544C171.594 80.0126 171.875 79.51 172.469 79.5088C173.06 79.5076 173.578 80.0027 173.736 80.6507C173.891 81.2924 173.614 81.795 173.017 81.7962C172.419 81.7974 171.906 81.3023 171.749 80.6544ZM173.231 80.6519C173.134 80.2503 172.863 79.9473 172.568 79.9485C172.274 79.9485 172.154 80.2429 172.253 80.6544C172.35 81.0584 172.619 81.3589 172.916 81.3577C173.214 81.3565 173.33 81.0596 173.231 80.6519Z" fill="#94B0ED"/>
<path d="M192.402 80.6036C192.246 79.9618 192.527 79.4592 193.121 79.458C193.712 79.4568 194.231 79.952 194.388 80.5999C194.544 81.2417 194.266 81.7443 193.669 81.7455C193.072 81.7467 192.559 81.2515 192.402 80.6036ZM193.883 80.6011C193.786 80.1996 193.515 79.8965 193.221 79.8978C192.926 79.8978 192.807 80.1922 192.905 80.6036C193.003 81.0076 193.271 81.3082 193.568 81.307C193.866 81.3057 193.983 81.0089 193.883 80.6011Z" fill="#94B0ED"/>
<path d="M195.243 80.5987C195.088 79.9569 195.369 79.4544 195.963 79.4531C196.554 79.4519 197.073 79.9471 197.23 80.595C197.385 81.2367 197.108 81.7393 196.511 81.7405C195.913 81.7418 195.401 81.2466 195.243 80.5987ZM196.725 80.5962C196.628 80.1947 196.357 79.8916 196.062 79.8929C195.768 79.8929 195.649 80.1873 195.747 80.5987C195.844 81.0027 196.113 81.3033 196.41 81.302C196.707 81.3008 196.824 81.0039 196.725 80.5962Z" fill="#94B0ED"/>
<path d="M198.335 80.5938C198.18 79.9521 198.461 79.4495 199.054 79.4482C199.646 79.447 200.164 79.9422 200.322 80.5901C200.477 81.2319 200.2 81.7344 199.603 81.7357C199.005 81.7369 198.493 81.2417 198.335 80.5938ZM199.817 80.5913C199.72 80.1898 199.449 79.8868 199.154 79.888C198.86 79.888 198.74 80.1824 198.839 80.5938C198.937 80.9978 199.205 81.2984 199.502 81.2972C199.8 81.2959 199.917 80.9991 199.817 80.5913Z" fill="#94B0ED"/>
<path d="M203.386 80.585C203.231 79.9433 203.512 79.4407 204.105 79.4395C204.697 79.4382 205.215 79.9334 205.373 80.5813C205.528 81.2231 205.251 81.7257 204.653 81.7269C204.056 81.7282 203.542 81.233 203.386 80.585ZM204.868 80.5826C204.77 80.181 204.499 79.878 204.205 79.8792C203.911 79.8792 203.791 80.1736 203.89 80.585C203.988 80.9891 204.256 81.2896 204.552 81.2884C204.851 81.2872 204.966 80.9903 204.868 80.5826Z" fill="#94B0ED"/>
<path d="M206.585 79.951L206.218 80.0458L206.02 79.648L206.616 79.457H206.951L207.49 81.6841L207.005 81.6853L206.585 79.951Z" fill="#94B0ED"/>
<path d="M208.325 80.5767C208.17 79.935 208.451 79.4324 209.045 79.4312C209.636 79.4299 210.154 79.9251 210.312 80.573C210.467 81.2148 210.19 81.7174 209.593 81.7186C208.995 81.7199 208.483 81.2247 208.325 80.5767ZM209.807 80.5743C209.71 80.1727 209.439 79.8697 209.144 79.8709C208.85 79.8709 208.731 80.1653 208.829 80.5767C208.926 80.9808 209.195 81.2813 209.492 81.2801C209.79 81.2801 209.907 80.982 209.807 80.5743Z" fill="#94B0ED"/>
<path d="M213.277 80.564C213.121 79.9223 213.402 79.4197 213.996 79.4185C214.587 79.4172 215.106 79.9124 215.263 80.5603C215.419 81.2021 215.141 81.7046 214.544 81.7059C213.947 81.7059 213.433 81.2107 213.277 80.564ZM214.758 80.5616C214.661 80.16 214.39 79.857 214.096 79.8582C213.801 79.8582 213.682 80.1526 213.78 80.564C213.879 80.968 214.146 81.2686 214.443 81.2674C214.741 81.2661 214.857 80.968 214.758 80.5616Z" fill="#94B0ED"/>
<path d="M127.612 85.5198C127.457 84.8781 127.738 84.3755 128.332 84.3743C128.923 84.373 129.442 84.8682 129.599 85.5161C129.755 86.1579 129.477 86.6605 128.88 86.6617C128.281 86.6629 127.769 86.1678 127.612 85.5198ZM129.094 85.5174C128.997 85.1158 128.726 84.8128 128.432 84.814C128.137 84.814 128.018 85.1084 128.116 85.5198C128.214 85.9239 128.482 86.2244 128.779 86.2232C129.076 86.2219 129.193 85.9251 129.094 85.5174Z" fill="#94B0ED"/>
<path d="M130.583 85.5145C130.428 84.8727 130.709 84.3701 131.303 84.3689C131.894 84.3677 132.412 84.8628 132.57 85.5108C132.725 86.1525 132.448 86.6551 131.851 86.6563C131.253 86.6576 130.741 86.1624 130.583 85.5145ZM132.065 85.512C131.968 85.1104 131.697 84.8074 131.402 84.8086C131.108 84.8086 130.988 85.103 131.087 85.5145C131.184 85.9185 131.453 86.219 131.75 86.2178C132.048 86.2166 132.165 85.9197 132.065 85.512Z" fill="#94B0ED"/>
<path d="M204.55 85.3987C204.395 84.757 204.676 84.2544 205.269 84.2532C205.861 84.2519 206.379 84.7471 206.537 85.395C206.692 86.0368 206.415 86.5394 205.817 86.5406C205.22 86.5418 204.706 86.0467 204.55 85.3987ZM206.032 85.3963C205.935 84.9947 205.664 84.6917 205.369 84.6929C205.075 84.6929 204.955 84.9873 205.054 85.3987C205.152 85.8028 205.42 86.1033 205.716 86.1021C206.015 86.1021 206.132 85.804 206.032 85.3963Z" fill="#94B0ED"/>
<path d="M207.749 84.7647L207.382 84.8595L207.184 84.4617L207.78 84.2708H208.115L208.654 86.4978L208.169 86.4991L207.749 84.7647Z" fill="#94B0ED"/>
<path d="M209.493 85.3914C209.338 84.7497 209.619 84.2471 210.213 84.2459C210.804 84.2446 211.323 84.7398 211.48 85.3877C211.635 86.0295 211.358 86.532 210.761 86.5333C210.162 86.5345 209.65 86.0381 209.493 85.3914ZM210.975 85.389C210.878 84.9874 210.607 84.6844 210.312 84.6856C210.019 84.6856 209.899 84.98 209.997 85.3914C210.094 85.7954 210.363 86.096 210.66 86.0948C210.957 86.0935 211.074 85.7954 210.975 85.389Z" fill="#94B0ED"/>
<path d="M220.384 85.368C220.229 84.7262 220.51 84.2236 221.103 84.2224C221.694 84.2212 222.213 84.7164 222.371 85.3643C222.526 86.006 222.249 86.5086 221.651 86.5098C221.054 86.5111 220.542 86.0147 220.384 85.368ZM221.866 85.3655C221.768 84.964 221.497 84.6609 221.203 84.6622C220.909 84.6622 220.789 84.9566 220.888 85.368C220.985 85.772 221.254 86.0726 221.55 86.0713C221.848 86.0701 221.965 85.7732 221.866 85.3655Z" fill="#94B0ED"/>
<path d="M223.583 84.7339L223.216 84.8288L223.018 84.4309L223.614 84.24H223.949L224.488 86.4671L224.003 86.4683L223.583 84.7339Z" fill="#94B0ED"/>
<path d="M125.114 111.511C124.959 110.869 125.24 110.366 125.834 110.365C126.425 110.364 126.944 110.859 127.101 111.507C127.256 112.149 126.979 112.651 126.382 112.653C125.785 112.654 125.271 112.159 125.114 111.511ZM126.596 111.508C126.499 111.107 126.228 110.804 125.934 110.805C125.639 110.805 125.52 111.099 125.618 111.511C125.716 111.915 125.984 112.215 126.281 112.214C126.578 112.213 126.695 111.916 126.596 111.508Z" fill="#94B0ED"/>
<path d="M128.083 111.505C127.928 110.864 128.209 110.361 128.803 110.36C129.394 110.359 129.912 110.854 130.07 111.502C130.225 112.143 129.948 112.646 129.351 112.647C128.753 112.649 128.241 112.153 128.083 111.505ZM129.566 111.503C129.469 111.101 129.198 110.798 128.904 110.8C128.609 110.8 128.49 111.094 128.588 111.505C128.687 111.909 128.954 112.21 129.251 112.209C129.548 112.208 129.665 111.911 129.566 111.503Z" fill="#94B0ED"/>
<path d="M131.282 110.871L130.915 110.966L130.717 110.568L131.313 110.377H131.648L132.188 112.605L131.702 112.606L131.282 110.871Z" fill="#94B0ED"/>
<path d="M135.995 111.492C135.84 110.85 136.121 110.348 136.715 110.347C137.306 110.345 137.825 110.841 137.982 111.489C138.137 112.13 137.86 112.633 137.263 112.634C136.665 112.635 136.153 112.14 135.995 111.492ZM137.478 111.49C137.381 111.088 137.11 110.785 136.816 110.786C136.521 110.786 136.402 111.081 136.5 111.492C136.598 111.896 136.866 112.197 137.163 112.196C137.46 112.194 137.577 111.897 137.478 111.49Z" fill="#94B0ED"/>
<path d="M138.966 111.487C138.811 110.845 139.092 110.343 139.685 110.341C140.277 110.34 140.795 110.835 140.953 111.483C141.108 112.125 140.831 112.628 140.233 112.629C139.636 112.63 139.122 112.135 138.966 111.487ZM140.448 111.484C140.351 111.083 140.08 110.78 139.785 110.781C139.491 110.781 139.371 111.075 139.47 111.487C139.567 111.891 139.836 112.191 140.132 112.19C140.431 112.189 140.546 111.892 140.448 111.484Z" fill="#94B0ED"/>
<path d="M141.939 111.482C141.783 110.84 142.064 110.338 142.658 110.336C143.249 110.335 143.768 110.83 143.926 111.478C144.081 112.12 143.804 112.623 143.206 112.624C142.608 112.625 142.095 112.13 141.939 111.482ZM143.421 111.48C143.323 111.078 143.052 110.775 142.758 110.776C142.463 110.776 142.344 111.071 142.442 111.482C142.541 111.886 142.808 112.187 143.105 112.185C143.402 112.184 143.519 111.887 143.421 111.48Z" fill="#94B0ED"/>
<path d="M179.021 111.511C178.865 110.869 179.146 110.366 179.74 110.365C180.331 110.364 180.85 110.859 181.008 111.507C181.163 112.149 180.886 112.651 180.288 112.653C179.691 112.654 179.178 112.159 179.021 111.511ZM180.503 111.508C180.405 111.107 180.134 110.804 179.84 110.805C179.545 110.805 179.426 111.099 179.524 111.511C179.623 111.915 179.89 112.215 180.187 112.214C180.485 112.213 180.602 111.916 180.503 111.508Z" fill="#94B0ED"/>
<path d="M181.991 111.505C181.836 110.864 182.117 110.361 182.711 110.36C183.302 110.359 183.821 110.854 183.978 111.502C184.133 112.143 183.856 112.646 183.259 112.647C182.661 112.649 182.148 112.153 181.991 111.505ZM183.473 111.503C183.376 111.101 183.105 110.798 182.811 110.8C182.517 110.8 182.397 111.094 182.495 111.505C182.593 111.909 182.861 112.21 183.158 112.209C183.455 112.208 183.572 111.911 183.473 111.503Z" fill="#94B0ED"/>
<path d="M185.188 110.871L184.821 110.966L184.623 110.568L185.219 110.377H185.554L186.094 112.605L185.608 112.606L185.188 110.871Z" fill="#94B0ED"/>
<path d="M198.937 111.511C198.781 110.869 199.062 110.366 199.656 110.365C200.247 110.364 200.766 110.859 200.924 111.507C201.079 112.149 200.802 112.651 200.204 112.653C199.607 112.654 199.093 112.159 198.937 111.511ZM200.419 111.508C200.321 111.107 200.05 110.804 199.756 110.805C199.461 110.805 199.342 111.099 199.44 111.511C199.539 111.915 199.806 112.215 200.103 112.214C200.4 112.213 200.517 111.916 200.419 111.508Z" fill="#94B0ED"/>
<path d="M201.907 111.505C201.752 110.864 202.033 110.361 202.627 110.36C203.218 110.359 203.737 110.854 203.894 111.502C204.05 112.143 203.772 112.646 203.175 112.647C202.577 112.649 202.065 112.153 201.907 111.505ZM203.389 111.503C203.292 111.101 203.021 110.798 202.727 110.8C202.433 110.8 202.313 111.094 202.411 111.505C202.509 111.909 202.777 112.21 203.074 112.209C203.372 112.208 203.489 111.911 203.389 111.503Z" fill="#94B0ED"/>
<path d="M205.104 110.871L204.737 110.966L204.539 110.568L205.135 110.377H205.47L206.01 112.605L205.525 112.606L205.104 110.871Z" fill="#94B0ED"/>
<path d="M189.903 111.492C189.748 110.85 190.029 110.348 190.623 110.347C191.214 110.345 191.733 110.841 191.89 111.489C192.046 112.13 191.768 112.633 191.171 112.634C190.574 112.635 190.06 112.14 189.903 111.492ZM191.385 111.49C191.288 111.088 191.017 110.785 190.723 110.786C190.428 110.786 190.309 111.081 190.407 111.492C190.505 111.896 190.773 112.197 191.07 112.196C191.367 112.194 191.484 111.897 191.385 111.49Z" fill="#94B0ED"/>
<path d="M192.874 111.487C192.719 110.845 193 110.343 193.594 110.341C194.185 110.34 194.704 110.835 194.861 111.483C195.016 112.125 194.739 112.628 194.142 112.629C193.544 112.63 193.032 112.135 192.874 111.487ZM194.356 111.484C194.259 111.083 193.988 110.78 193.693 110.781C193.4 110.781 193.279 111.075 193.378 111.487C193.475 111.891 193.744 112.191 194.041 112.19C194.339 112.189 194.456 111.892 194.356 111.484Z" fill="#94B0ED"/>
<path d="M195.845 111.482C195.69 110.84 195.971 110.338 196.564 110.336C197.156 110.335 197.674 110.83 197.832 111.478C197.987 112.12 197.71 112.623 197.112 112.624C196.515 112.625 196.001 112.13 195.845 111.482ZM197.327 111.48C197.229 111.078 196.958 110.775 196.664 110.776C196.37 110.776 196.25 111.071 196.349 111.482C196.446 111.886 196.715 112.187 197.011 112.185C197.309 112.184 197.425 111.887 197.327 111.48Z" fill="#94B0ED"/>
<path d="M152.095 111.433C151.94 110.791 152.221 110.289 152.814 110.288C153.406 110.286 153.924 110.782 154.082 111.429C154.237 112.071 153.96 112.574 153.362 112.575C152.765 112.575 152.251 112.08 152.095 111.433ZM153.577 111.431C153.479 111.029 153.208 110.726 152.914 110.727C152.62 110.727 152.5 111.022 152.599 111.433C152.696 111.837 152.965 112.138 153.261 112.136C153.558 112.135 153.675 111.837 153.577 111.431Z" fill="#94B0ED"/>
<path d="M155.294 110.799L154.927 110.893L154.729 110.496L155.325 110.305H155.66L156.199 112.532L155.714 112.533L155.294 110.799Z" fill="#94B0ED"/>
<path d="M157.036 111.424C156.881 110.783 157.162 110.28 157.756 110.279C158.347 110.278 158.866 110.773 159.023 111.421C159.178 112.063 158.901 112.565 158.304 112.566C157.706 112.568 157.194 112.072 157.036 111.424ZM158.519 111.422C158.422 111.02 158.151 110.717 157.857 110.719C157.562 110.719 157.443 111.013 157.541 111.424C157.639 111.828 157.907 112.129 158.204 112.128C158.501 112.127 158.618 111.83 158.519 111.422Z" fill="#94B0ED"/>
<path d="M215.79 111.363C215.635 110.721 215.916 110.218 216.51 110.217C217.101 110.216 217.619 110.711 217.777 111.359C217.932 112.001 217.655 112.503 217.058 112.504C216.46 112.506 215.947 112.009 215.79 111.363ZM217.272 111.36C217.175 110.959 216.904 110.656 216.609 110.657C216.315 110.657 216.195 110.951 216.294 111.363C216.391 111.767 216.66 112.067 216.957 112.066C217.255 112.065 217.371 111.767 217.272 111.36Z" fill="#94B0ED"/>
<path d="M218.987 110.729L218.62 110.825L218.422 110.427L219.018 110.236H219.353L219.893 112.463L219.407 112.464L218.987 110.729Z" fill="#94B0ED"/>
<path d="M220.732 111.354C220.576 110.712 220.857 110.209 221.451 110.208C222.042 110.207 222.561 110.702 222.718 111.35C222.874 111.992 222.597 112.494 221.999 112.496C221.402 112.497 220.889 112.002 220.732 111.354ZM222.213 111.351C222.116 110.95 221.845 110.647 221.551 110.648C221.256 110.648 221.137 110.942 221.235 111.354C221.333 111.758 221.601 112.058 221.898 112.057C222.196 112.056 222.313 111.759 222.213 111.351Z" fill="#94B0ED"/>
<path d="M107.542 90.5193L107.175 90.6142L106.977 90.2163L107.573 90.0254H107.908L108.447 92.2525L107.962 92.2537L107.542 90.5193Z" fill="#94B0ED"/>
<path d="M109.284 91.1451C109.129 90.5033 109.41 90.0007 110.004 89.9995C110.595 89.9983 111.114 90.4935 111.271 91.1414C111.426 91.7832 111.149 92.2858 110.552 92.287C109.954 92.2882 109.442 91.793 109.284 91.1451ZM110.767 91.1426C110.67 90.7411 110.399 90.438 110.105 90.4393C109.81 90.4393 109.691 90.7337 109.789 91.1451C109.887 91.5491 110.155 91.8497 110.452 91.8485C110.749 91.8472 110.866 91.5504 110.767 91.1426Z" fill="#94B0ED"/>
<path d="M126.109 91.1168C125.953 90.475 126.234 89.9724 126.828 89.9712C127.419 89.97 127.938 90.4651 128.095 91.1131C128.251 91.7548 127.974 92.2574 127.376 92.2586C126.779 92.2599 126.265 91.7647 126.109 91.1168ZM127.59 91.1143C127.493 90.7127 127.222 90.4097 126.928 90.4109C126.633 90.4109 126.514 90.7053 126.612 91.1168C126.711 91.5208 126.978 91.8213 127.275 91.8201C127.573 91.8189 127.689 91.522 127.59 91.1143Z" fill="#94B0ED"/>
<path d="M129.079 91.1119C128.924 90.4701 129.205 89.9675 129.799 89.9663C130.39 89.9651 130.908 90.4603 131.066 91.1082C131.221 91.75 130.944 92.2526 130.347 92.2538C129.748 92.255 129.236 91.7598 129.079 91.1119ZM130.561 91.1094C130.464 90.7079 130.193 90.4048 129.898 90.4061C129.604 90.4061 129.485 90.7005 129.583 91.1119C129.68 91.5159 129.949 91.8165 130.246 91.8153C130.543 91.814 130.66 91.5172 130.561 91.1094Z" fill="#94B0ED"/>
<path d="M132.048 91.107C131.893 90.4652 132.174 89.9627 132.767 89.9614C133.359 89.9602 133.877 90.4554 134.035 91.1033C134.19 91.7451 133.913 92.2477 133.316 92.2489C132.718 92.2501 132.204 91.7537 132.048 91.107ZM133.53 91.1045C133.433 90.703 133.162 90.4 132.867 90.4012C132.573 90.4012 132.453 90.6956 132.552 91.107C132.649 91.511 132.918 91.8116 133.215 91.8104C133.513 91.8091 133.628 91.511 133.53 91.1045Z" fill="#94B0ED"/>
<path d="M135.247 90.473L134.88 90.5678L134.682 90.1699L135.278 89.979H135.613L136.152 92.2061L135.667 92.2073L135.247 90.473Z" fill="#94B0ED"/>
<path d="M137.235 90.4688L136.868 90.5649L136.67 90.167L137.266 89.9761H137.601L138.141 92.2032L137.655 92.2044L137.235 90.4688Z" fill="#94B0ED"/>
<path d="M138.978 91.0948C138.822 90.453 139.103 89.9505 139.697 89.9492C140.288 89.948 140.807 90.4432 140.965 91.0911C141.12 91.7328 140.843 92.2354 140.245 92.2366C139.647 92.2379 139.134 91.7427 138.978 91.0948ZM140.46 91.0923C140.362 90.6908 140.091 90.3877 139.797 90.389C139.502 90.389 139.383 90.6834 139.482 91.0948C139.579 91.4988 139.847 91.7994 140.144 91.7981C140.441 91.7969 140.558 91.5 140.46 91.0923Z" fill="#94B0ED"/>
<path d="M215.796 90.9705C215.641 90.3288 215.922 89.8262 216.515 89.825C217.107 89.8237 217.625 90.3189 217.783 90.9668C217.938 91.6086 217.661 92.1111 217.064 92.1124C216.466 92.1136 215.954 91.6184 215.796 90.9705ZM217.279 90.9681C217.182 90.5665 216.911 90.2635 216.616 90.2647C216.322 90.2647 216.203 90.5591 216.301 90.9705C216.398 91.3745 216.667 91.6751 216.964 91.6739C217.261 91.6726 217.378 91.3758 217.279 90.9681Z" fill="#F99746"/>
<path d="M218.767 90.9651C218.612 90.3234 218.892 89.8208 219.486 89.8196C220.077 89.8184 220.596 90.3135 220.754 90.9614C220.909 91.6032 220.632 92.1058 220.034 92.107C219.437 92.1082 218.923 91.6118 218.767 90.9651ZM220.249 90.9627C220.151 90.5611 219.88 90.2581 219.586 90.2593C219.292 90.2593 219.172 90.5537 219.271 90.9651C219.369 91.3692 219.636 91.6697 219.933 91.6685C220.231 91.6673 220.347 91.3704 220.249 90.9627Z" fill="#F99746"/>
<path d="M221.739 90.9603C221.584 90.3185 221.865 89.8159 222.459 89.8147C223.05 89.8135 223.569 90.3086 223.726 90.9566C223.882 91.5983 223.604 92.1009 223.007 92.1021C222.408 92.1034 221.896 91.6069 221.739 90.9603ZM223.221 90.9578C223.124 90.5562 222.853 90.2532 222.559 90.2544C222.264 90.2544 222.145 90.5488 222.243 90.9603C222.341 91.3643 222.609 91.6648 222.906 91.6636C223.203 91.6624 223.32 91.3643 223.221 90.9578Z" fill="#94B0ED"/>
<path d="M224.936 90.326L224.569 90.4208L224.371 90.023L224.967 89.832H225.302L225.842 92.0591L225.357 92.0603L224.936 90.326Z" fill="#94B0ED"/>
<path d="M108.895 96.1119L108.528 96.2067L108.33 95.8088L108.926 95.6179H109.261L109.801 97.845L109.315 97.8462L108.895 96.1119Z" fill="#94B0ED"/>
<path d="M110.638 96.7376C110.483 96.0959 110.764 95.5933 111.357 95.592C111.949 95.5908 112.467 96.086 112.625 96.7339C112.78 97.3757 112.503 97.8783 111.905 97.8795C111.307 97.8808 110.794 97.3856 110.638 96.7376ZM112.12 96.7352C112.022 96.3336 111.751 96.0306 111.457 96.0318C111.163 96.0318 111.043 96.3262 111.142 96.7376C111.24 97.1417 111.508 97.4422 111.804 97.441C112.101 97.4398 112.218 97.1429 112.12 96.7352Z" fill="#94B0ED"/>
<path d="M124.491 96.7142C124.336 96.0724 124.617 95.5698 125.211 95.5686C125.802 95.5674 126.321 96.0626 126.478 96.7105C126.633 97.3523 126.356 97.8549 125.759 97.8561C125.161 97.8573 124.648 97.3621 124.491 96.7142ZM125.973 96.7117C125.876 96.3102 125.605 96.0071 125.311 96.0084C125.016 96.0084 124.897 96.3028 124.995 96.7142C125.092 97.1182 125.361 97.4188 125.658 97.4176C125.955 97.4163 126.072 97.1195 125.973 96.7117Z" fill="#94B0ED"/>
<path d="M127.462 96.7093C127.307 96.0675 127.588 95.565 128.181 95.5637C128.773 95.5625 129.291 96.0577 129.449 96.7056C129.604 97.3473 129.327 97.8499 128.73 97.8511C128.132 97.8524 127.62 97.3572 127.462 96.7093ZM128.945 96.7068C128.848 96.3053 128.577 96.0022 128.282 96.0035C127.988 96.0035 127.869 96.2979 127.967 96.7093C128.064 97.1133 128.333 97.4139 128.63 97.4126C128.927 97.4114 129.044 97.1145 128.945 96.7068Z" fill="#94B0ED"/>
<path d="M116.196 107.534C116.041 106.892 116.322 106.39 116.916 106.389C117.507 106.387 118.026 106.883 118.183 107.531C118.338 108.172 118.061 108.675 117.464 108.676C116.865 108.677 116.353 108.182 116.196 107.534ZM117.678 107.532C117.581 107.13 117.31 106.827 117.016 106.828C116.721 106.828 116.602 107.123 116.7 107.534C116.798 107.938 117.066 108.239 117.363 108.238C117.66 108.238 117.777 107.94 117.678 107.532Z" fill="#F99746"/>
<path d="M119.395 106.9L119.028 106.995L118.83 106.597L119.426 106.406H119.761L120.301 108.633L119.816 108.634L119.395 106.9Z" fill="#F99746"/>
<path d="M110.128 101.321L109.761 101.416L109.562 101.018L110.159 100.827H110.494L111.033 103.054L110.548 103.055L110.128 101.321Z" fill="#94B0ED"/>
<path d="M111.872 101.948C111.717 101.307 111.998 100.804 112.592 100.803C113.183 100.802 113.701 101.297 113.859 101.945C114.014 102.586 113.737 103.089 113.14 103.09C112.541 103.09 112.029 102.595 111.872 101.948ZM113.354 101.945C113.257 101.543 112.986 101.24 112.691 101.241C112.397 101.241 112.277 101.536 112.376 101.947C112.473 102.351 112.742 102.652 113.039 102.65C113.336 102.65 113.453 102.352 113.354 101.945Z" fill="#94B0ED"/>
<path d="M114.841 101.943C114.686 101.301 114.967 100.799 115.56 100.798C116.152 100.796 116.67 101.292 116.828 101.94C116.983 102.581 116.706 103.084 116.108 103.085C115.511 103.085 114.999 102.59 114.841 101.943ZM116.323 101.94C116.226 101.538 115.955 101.235 115.66 101.236C115.366 101.236 115.246 101.531 115.345 101.942C115.442 102.346 115.711 102.647 116.007 102.645C116.306 102.645 116.423 102.347 116.323 101.94Z" fill="#94B0ED"/>
<path d="M118.042 101.308L117.675 101.404L117.477 101.006L118.073 100.815H118.408L118.947 103.042L118.462 103.043L118.042 101.308Z" fill="#94B0ED"/>
<path d="M119.784 101.935C119.629 101.293 119.91 100.79 120.504 100.789C121.095 100.788 121.614 101.283 121.771 101.931C121.926 102.573 121.649 103.075 121.052 103.076C120.454 103.078 119.941 102.581 119.784 101.935ZM121.266 101.932C121.169 101.531 120.898 101.228 120.603 101.229C120.309 101.229 120.19 101.523 120.288 101.935C120.385 102.339 120.654 102.639 120.951 102.638C121.248 102.637 121.365 102.339 121.266 101.932Z" fill="#94B0ED"/>
<path d="M122.753 101.93C122.598 101.288 122.879 100.785 123.472 100.784C124.064 100.783 124.582 101.278 124.74 101.926C124.895 102.568 124.618 103.07 124.021 103.072C123.423 103.073 122.911 102.576 122.753 101.93ZM124.235 101.927C124.138 101.526 123.867 101.223 123.572 101.224C123.278 101.224 123.158 101.518 123.257 101.93C123.354 102.334 123.623 102.634 123.92 102.633C124.218 102.632 124.335 102.334 124.235 101.927Z" fill="#94B0ED"/>
<path d="M125.724 101.925C125.569 101.283 125.849 100.781 126.443 100.779C127.034 100.778 127.553 101.273 127.711 101.921C127.866 102.563 127.589 103.066 126.991 103.067C126.394 103.067 125.88 102.572 125.724 101.925ZM127.206 101.922C127.108 101.521 126.837 101.218 126.543 101.219C126.249 101.219 126.129 101.513 126.228 101.925C126.325 102.329 126.593 102.629 126.89 102.628C127.187 102.627 127.304 102.329 127.206 101.922Z" fill="#94B0ED"/>
<path d="M128.694 101.92C128.539 101.278 128.82 100.776 129.414 100.774C130.005 100.773 130.524 101.268 130.681 101.916C130.837 102.558 130.559 103.061 129.962 103.062C129.365 103.062 128.852 102.567 128.694 101.92ZM130.178 101.918C130.08 101.516 129.809 101.213 129.515 101.214C129.22 101.214 129.101 101.509 129.2 101.92C129.297 102.324 129.565 102.625 129.862 102.623C130.159 102.622 130.276 102.324 130.178 101.918Z" fill="#94B0ED"/>
<path d="M131.667 101.913C131.512 101.272 131.793 100.769 132.387 100.768C132.978 100.767 133.496 101.262 133.654 101.91C133.809 102.551 133.532 103.054 132.935 103.055C132.337 103.057 131.824 102.561 131.667 101.913ZM133.149 101.911C133.052 101.509 132.781 101.206 132.486 101.208C132.192 101.208 132.072 101.502 132.171 101.913C132.268 102.317 132.537 102.618 132.834 102.617C133.132 102.617 133.248 102.319 133.149 101.911Z" fill="#94B0ED"/>
<path d="M134.636 101.909C134.481 101.267 134.762 100.764 135.355 100.763C135.947 100.762 136.465 101.257 136.623 101.905C136.778 102.547 136.501 103.049 135.903 103.051C135.306 103.052 134.794 102.557 134.636 101.909ZM136.119 101.906C136.022 101.505 135.751 101.202 135.456 101.203C135.162 101.203 135.042 101.497 135.141 101.909C135.239 102.313 135.507 102.613 135.804 102.612C136.101 102.612 136.218 102.314 136.119 101.906Z" fill="#94B0ED"/>
<path d="M137.833 101.274L137.466 101.369L137.268 100.971L137.864 100.78H138.199L138.738 103.007L138.253 103.009L137.833 101.274Z" fill="#94B0ED"/>
<path d="M139.821 101.272L139.454 101.367L139.256 100.969L139.852 100.778H140.187L140.727 103.005L140.241 103.006L139.821 101.272Z" fill="#94B0ED"/>
<path d="M141.564 101.898C141.408 101.256 141.689 100.753 142.283 100.752C142.874 100.751 143.393 101.246 143.551 101.894C143.706 102.536 143.429 103.038 142.831 103.039C142.234 103.041 141.72 102.545 141.564 101.898ZM143.046 101.895C142.948 101.493 142.677 101.19 142.383 101.192C142.088 101.192 141.969 101.486 142.067 101.898C142.165 102.302 142.433 102.602 142.73 102.601C143.027 102.6 143.144 102.303 143.046 101.895Z" fill="#94B0ED"/>
<path d="M111.483 106.914L111.116 107.008L110.918 106.611L111.514 106.42H111.849L112.389 108.647L111.903 108.648L111.483 106.914Z" fill="#94B0ED"/>
<path d="M113.226 107.539C113.071 106.897 113.351 106.395 113.945 106.394C114.536 106.392 115.055 106.888 115.213 107.535C115.368 108.177 115.091 108.68 114.493 108.681C113.896 108.682 113.382 108.187 113.226 107.539ZM114.708 107.538C114.61 107.136 114.339 106.833 114.045 106.835C113.751 106.835 113.631 107.129 113.73 107.54C113.827 107.944 114.095 108.245 114.392 108.244C114.69 108.243 114.806 107.944 114.708 107.538Z" fill="#94B0ED"/>
<path d="M121.138 107.527C120.983 106.885 121.264 106.383 121.857 106.381C122.448 106.38 122.967 106.875 123.125 107.523C123.28 108.165 123.003 108.668 122.405 108.669C121.808 108.67 121.294 108.174 121.138 107.527ZM122.62 107.524C122.522 107.123 122.251 106.82 121.957 106.821C121.663 106.821 121.543 107.116 121.642 107.527C121.739 107.931 122.008 108.232 122.304 108.23C122.602 108.229 122.718 107.931 122.62 107.524Z" fill="#94B0ED"/>
<path d="M124.109 107.522C123.953 106.88 124.234 106.378 124.828 106.376C125.419 106.375 125.938 106.87 126.095 107.518C126.251 108.16 125.974 108.663 125.376 108.664C124.777 108.664 124.265 108.169 124.109 107.522ZM125.59 107.52C125.493 107.118 125.222 106.815 124.928 106.816C124.633 106.816 124.514 107.111 124.612 107.522C124.71 107.926 124.978 108.227 125.275 108.225C125.572 108.224 125.689 107.926 125.59 107.52Z" fill="#94B0ED"/>
<path d="M118.823 119.935C118.668 119.293 118.949 118.791 119.543 118.789C120.134 118.788 120.653 119.283 120.81 119.931C120.965 120.573 120.688 121.076 120.091 121.077C119.493 121.078 118.98 120.583 118.823 119.935ZM120.305 119.932C120.208 119.531 119.937 119.228 119.643 119.229C119.348 119.229 119.229 119.523 119.327 119.935C119.425 120.339 119.693 120.639 119.99 120.638C120.288 120.637 120.404 120.34 120.305 119.932Z" fill="#94B0ED"/>
<path d="M122.022 119.3L121.655 119.395L121.457 118.997L122.053 118.806H122.388L122.928 121.034L122.443 121.035L122.022 119.3Z" fill="#94B0ED"/>
<path d="M114.11 119.314L113.743 119.41L113.545 119.012L114.141 118.821H114.476L115.016 121.048L114.53 121.049L114.11 119.314Z" fill="#94B0ED"/>
<path d="M115.851 119.94C115.696 119.298 115.976 118.795 116.57 118.794C117.161 118.793 117.68 119.288 117.838 119.936C117.993 120.578 117.716 121.08 117.118 121.082C116.521 121.083 116.008 120.588 115.851 119.94ZM117.334 119.937C117.236 119.536 116.965 119.233 116.671 119.234C116.378 119.234 116.257 119.528 116.356 119.94C116.453 120.344 116.722 120.644 117.018 120.643C117.315 120.642 117.432 120.345 117.334 119.937Z" fill="#94B0ED"/>
<path d="M123.765 119.926C123.61 119.284 123.89 118.782 124.484 118.781C125.075 118.779 125.594 119.274 125.752 119.922C125.907 120.564 125.63 121.067 125.032 121.068C124.434 121.069 123.921 120.574 123.765 119.926ZM125.247 119.924C125.149 119.522 124.878 119.219 124.584 119.22C124.29 119.22 124.17 119.515 124.269 119.926C124.366 120.33 124.634 120.631 124.931 120.629C125.228 120.628 125.345 120.331 125.247 119.924Z" fill="#F99746"/>
<path d="M126.736 119.921C126.58 119.279 126.861 118.777 127.455 118.776C128.046 118.774 128.565 119.27 128.722 119.918C128.878 120.559 128.6 121.062 128.003 121.063C127.406 121.064 126.892 120.569 126.736 119.921ZM128.217 119.919C128.12 119.517 127.849 119.214 127.555 119.215C127.26 119.215 127.141 119.51 127.239 119.921C127.337 120.325 127.605 120.626 127.902 120.625C128.199 120.623 128.316 120.326 128.217 119.919Z" fill="#F99746"/>
<path d="M115.152 123.923C114.996 123.281 115.277 122.779 115.871 122.778C116.462 122.776 116.981 123.272 117.138 123.919C117.294 124.561 117.016 125.064 116.419 125.065C115.822 125.066 115.309 124.571 115.152 123.923ZM116.633 123.921C116.536 123.519 116.265 123.216 115.971 123.217C115.676 123.217 115.557 123.512 115.655 123.923C115.753 124.327 116.021 124.628 116.318 124.627C116.616 124.625 116.733 124.328 116.633 123.921Z" fill="#94B0ED"/>
<path d="M118.351 123.289L117.983 123.385L117.785 122.987L118.381 122.796H118.716L119.256 125.023L118.771 125.024L118.351 123.289Z" fill="#94B0ED"/>
<path d="M120.095 123.915C119.94 123.273 120.221 122.771 120.814 122.769C121.406 122.768 121.924 123.263 122.082 123.911C122.237 124.553 121.96 125.055 121.362 125.057C120.765 125.058 120.251 124.563 120.095 123.915ZM121.577 123.912C121.479 123.511 121.208 123.208 120.914 123.209C120.62 123.209 120.5 123.503 120.599 123.915C120.696 124.319 120.965 124.619 121.261 124.618C121.558 124.617 121.675 124.32 121.577 123.912Z" fill="#94B0ED"/>
<path d="M123.064 123.91C122.908 123.268 123.189 122.766 123.783 122.764C124.374 122.763 124.893 123.258 125.051 123.906C125.206 124.548 124.929 125.051 124.331 125.052C123.734 125.053 123.221 124.558 123.064 123.91ZM124.545 123.907C124.448 123.506 124.177 123.203 123.883 123.204C123.588 123.204 123.469 123.499 123.567 123.91C123.665 124.314 123.933 124.615 124.23 124.613C124.528 124.612 124.645 124.315 124.545 123.907Z" fill="#94B0ED"/>
<path d="M127.077 107.517C126.922 106.875 127.203 106.373 127.797 106.372C128.388 106.37 128.907 106.866 129.064 107.513C129.219 108.155 128.942 108.658 128.345 108.659C127.747 108.659 127.234 108.164 127.077 107.517ZM128.559 107.513C128.462 107.112 128.191 106.809 127.896 106.81C127.602 106.81 127.483 107.105 127.581 107.516C127.678 107.92 127.947 108.221 128.244 108.219C128.542 108.219 128.658 107.921 128.559 107.513Z" fill="#94B0ED"/>
<path d="M130.05 107.512C129.895 106.871 130.176 106.368 130.769 106.367C131.361 106.365 131.879 106.861 132.037 107.509C132.192 108.15 131.915 108.653 131.318 108.654C130.719 108.654 130.206 108.159 130.05 107.512ZM131.532 107.509C131.435 107.107 131.164 106.804 130.869 106.805C130.575 106.805 130.455 107.1 130.554 107.511C130.652 107.915 130.92 108.216 131.216 108.214C131.513 108.214 131.63 107.916 131.532 107.509Z" fill="#94B0ED"/>
<path d="M122.595 134.363C122.44 133.721 122.721 133.218 123.314 133.217C123.905 133.216 124.424 133.711 124.582 134.359C124.737 135.001 124.46 135.503 123.862 135.504C123.264 135.506 122.751 135.01 122.595 134.363ZM124.077 134.36C123.979 133.959 123.708 133.656 123.414 133.657C123.12 133.657 123 133.951 123.099 134.363C123.196 134.767 123.465 135.067 123.761 135.066C124.058 135.065 124.175 134.768 124.077 134.36Z" fill="#F99746"/>
<path d="M125.792 133.729L125.425 133.823L125.227 133.426L125.823 133.235H126.158L126.697 135.462L126.212 135.463L125.792 133.729Z" fill="#F99746"/>
<path d="M116.528 128.15L116.161 128.246L115.963 127.848L116.559 127.657L116.894 127.656L117.434 129.883L116.948 129.884L116.528 128.15Z" fill="#94B0ED"/>
<path d="M118.271 128.775C118.115 128.134 118.396 127.631 118.99 127.63C119.581 127.629 120.1 128.124 120.258 128.772C120.413 129.414 120.136 129.916 119.538 129.917C118.941 129.919 118.427 129.423 118.271 128.775ZM119.753 128.773C119.655 128.371 119.384 128.068 119.09 128.07C118.797 128.07 118.676 128.364 118.774 128.775C118.872 129.18 119.14 129.48 119.437 129.479C119.735 129.478 119.851 129.181 119.753 128.773Z" fill="#94B0ED"/>
<path d="M121.241 128.771C121.086 128.129 121.367 127.626 121.961 127.625C122.552 127.624 123.071 128.119 123.228 128.767C123.383 129.409 123.106 129.911 122.509 129.912C121.911 129.914 121.399 129.419 121.241 128.771ZM122.724 128.768C122.627 128.367 122.356 128.064 122.062 128.065C121.767 128.065 121.648 128.359 121.746 128.771C121.844 129.175 122.112 129.475 122.409 129.474C122.706 129.473 122.823 129.176 122.724 128.768Z" fill="#94B0ED"/>
<path d="M124.438 128.136L124.071 128.232L123.873 127.834L124.469 127.643H124.804L125.344 129.87L124.858 129.871L124.438 128.136Z" fill="#94B0ED"/>
<path d="M117.882 133.742L117.515 133.838L117.316 133.44L117.913 133.249H118.248L118.787 135.476L118.302 135.478L117.882 133.742Z" fill="#94B0ED"/>
<path d="M119.626 134.367C119.471 133.726 119.752 133.223 120.345 133.222C120.937 133.221 121.455 133.716 121.613 134.364C121.768 135.006 121.491 135.508 120.894 135.509C120.296 135.511 119.783 135.015 119.626 134.367ZM121.108 134.365C121.011 133.963 120.74 133.66 120.445 133.662C120.151 133.662 120.031 133.956 120.13 134.367C120.227 134.771 120.496 135.072 120.793 135.071C121.091 135.07 121.206 134.773 121.108 134.365Z" fill="#94B0ED"/>
<path d="M127.536 134.354C127.381 133.713 127.662 133.21 128.256 133.209C128.847 133.208 129.366 133.703 129.523 134.351C129.678 134.992 129.401 135.495 128.804 135.496C128.206 135.497 127.694 135.002 127.536 134.354ZM129.018 134.352C128.921 133.95 128.65 133.647 128.355 133.648C128.061 133.648 127.942 133.943 128.04 134.354C128.137 134.758 128.406 135.059 128.703 135.058C129.001 135.056 129.118 134.76 129.018 134.352Z" fill="#94B0ED"/>
<path d="M130.507 134.349C130.352 133.708 130.633 133.205 131.226 133.204C131.818 133.203 132.336 133.698 132.494 134.346C132.649 134.988 132.372 135.49 131.775 135.491C131.176 135.493 130.663 134.997 130.507 134.349ZM131.989 134.347C131.892 133.945 131.621 133.642 131.326 133.644C131.032 133.644 130.912 133.938 131.011 134.349C131.109 134.753 131.377 135.054 131.674 135.053C131.97 135.052 132.087 134.755 131.989 134.347Z" fill="#94B0ED"/>
<path d="M123.741 138.311C123.586 137.669 123.867 137.166 124.461 137.165C125.052 137.164 125.571 137.659 125.728 138.307C125.883 138.949 125.606 139.451 125.009 139.453C124.41 139.454 123.898 138.959 123.741 138.311ZM125.223 138.308C125.126 137.907 124.855 137.604 124.561 137.605C124.266 137.605 124.147 137.899 124.245 138.311C124.342 138.715 124.611 139.015 124.908 139.014C125.205 139.013 125.322 138.716 125.223 138.308Z" fill="#F99746"/>
<path d="M126.938 137.676L126.571 137.772L126.373 137.375L126.969 137.184H127.304L127.844 139.411L127.358 139.412L126.938 137.676Z" fill="#F99746"/>
<path d="M120.771 138.316C120.615 137.674 120.896 137.171 121.49 137.17C122.081 137.169 122.6 137.664 122.758 138.312C122.913 138.954 122.636 139.456 122.038 139.457C121.441 139.459 120.927 138.963 120.771 138.316ZM122.253 138.313C122.155 137.911 121.884 137.608 121.59 137.61C121.295 137.61 121.176 137.904 121.274 138.316C121.372 138.72 121.64 139.02 121.937 139.019C122.235 139.018 122.351 138.721 122.253 138.313Z" fill="#94B0ED"/>
<path d="M128.683 138.302C128.528 137.661 128.808 137.158 129.402 137.157C129.993 137.156 130.512 137.651 130.67 138.299C130.825 138.94 130.548 139.443 129.95 139.444C129.353 139.445 128.839 138.95 128.683 138.302ZM130.165 138.3C130.067 137.898 129.796 137.595 129.502 137.597C129.208 137.597 129.088 137.891 129.187 138.302C129.285 138.706 129.552 139.007 129.849 139.006C130.147 139.004 130.263 138.708 130.165 138.3Z" fill="#94B0ED"/>
<path d="M131.653 138.297C131.498 137.655 131.779 137.153 132.373 137.151C132.964 137.15 133.483 137.645 133.64 138.293C133.796 138.935 133.518 139.438 132.921 139.439C132.322 139.44 131.81 138.945 131.653 138.297ZM133.135 138.294C133.038 137.893 132.767 137.59 132.473 137.591C132.178 137.591 132.059 137.885 132.157 138.297C132.255 138.701 132.523 139.001 132.82 139C133.117 139 133.234 138.702 133.135 138.294Z" fill="#94B0ED"/>
<path d="M133.478 134.345C133.322 133.703 133.603 133.2 134.197 133.199C134.788 133.198 135.307 133.693 135.465 134.341C135.62 134.983 135.343 135.485 134.745 135.486C134.148 135.488 133.635 134.993 133.478 134.345ZM134.96 134.342C134.862 133.941 134.591 133.638 134.297 133.639C134.002 133.639 133.883 133.933 133.982 134.345C134.079 134.749 134.347 135.049 134.644 135.048C134.942 135.047 135.059 134.75 134.96 134.342Z" fill="#94B0ED"/>
<path d="M136.448 134.34C136.293 133.698 136.574 133.195 137.168 133.194C137.759 133.193 138.278 133.688 138.435 134.336C138.591 134.978 138.313 135.48 137.716 135.482C137.119 135.483 136.605 134.988 136.448 134.34ZM137.93 134.337C137.833 133.936 137.562 133.633 137.268 133.634C136.973 133.634 136.854 133.928 136.952 134.34C137.05 134.744 137.318 135.044 137.615 135.043C137.912 135.042 138.029 134.745 137.93 134.337Z" fill="#94B0ED"/>
<path d="M215.407 95.9358L215.04 96.0307L214.842 95.6328L215.438 95.4419H215.773L216.312 97.669L215.827 97.6702L215.407 95.9358Z" fill="#94B0ED"/>
<path d="M217.152 96.5626C216.996 95.9208 217.277 95.4182 217.871 95.417C218.462 95.4158 218.981 95.911 219.139 96.5589C219.294 97.2007 219.017 97.7032 218.419 97.7045C217.82 97.7057 217.308 97.2093 217.152 96.5626ZM218.633 96.5601C218.536 96.1586 218.265 95.8555 217.971 95.8568C217.676 95.8568 217.557 96.1512 217.655 96.5626C217.753 96.9666 218.021 97.2672 218.318 97.266C218.615 97.2647 218.732 96.9679 218.633 96.5601Z" fill="#94B0ED"/>
<path d="M220.12 96.5577C219.965 95.9159 220.246 95.4133 220.84 95.4121C221.431 95.4109 221.95 95.9061 222.107 96.554C222.262 97.1958 221.985 97.6984 221.388 97.6996C220.79 97.7008 220.278 97.2044 220.12 96.5577ZM221.602 96.5552C221.505 96.1537 221.234 95.8506 220.939 95.8519C220.646 95.8519 220.526 96.1463 220.624 96.5577C220.721 96.9617 220.99 97.2623 221.287 97.2611C221.585 97.2598 221.702 96.9617 221.602 96.5552Z" fill="#94B0ED"/>
<path d="M223.093 96.5528C222.938 95.911 223.219 95.4085 223.812 95.4072C224.404 95.406 224.922 95.9012 225.08 96.5491C225.235 97.1909 224.958 97.6935 224.36 97.6947C223.763 97.6947 223.249 97.1995 223.093 96.5528ZM224.575 96.5503C224.477 96.1488 224.206 95.8458 223.912 95.847C223.618 95.847 223.498 96.1414 223.597 96.5528C223.695 96.9568 223.963 97.2574 224.259 97.2562C224.556 97.2549 224.673 96.9568 224.575 96.5503Z" fill="#94B0ED"/>
<path d="M226.29 95.9183L225.923 96.0131L225.725 95.6152L226.321 95.4243H226.656L227.195 97.6514L226.71 97.6526L226.29 95.9183Z" fill="#94B0ED"/>
<path d="M212.208 101.904C212.053 101.262 212.334 100.76 212.928 100.758C213.519 100.757 214.037 101.252 214.195 101.9C214.35 102.542 214.073 103.044 213.476 103.046C212.878 103.047 212.366 102.552 212.208 101.904ZM213.69 101.901C213.593 101.5 213.322 101.197 213.027 101.198C212.733 101.198 212.613 101.492 212.712 101.904C212.811 102.308 213.078 102.608 213.375 102.607C213.673 102.606 213.79 102.309 213.69 101.901Z" fill="#94B0ED"/>
<path d="M215.407 101.27L215.04 101.366L214.842 100.968L215.438 100.777H215.773L216.312 103.004L215.827 103.005L215.407 101.27Z" fill="#94B0ED"/>
<path d="M217.152 101.897C216.996 101.255 217.277 100.752 217.871 100.751C218.462 100.75 218.981 101.245 219.139 101.893C219.294 102.535 219.017 103.037 218.419 103.038C217.82 103.038 217.308 102.543 217.152 101.897ZM218.633 101.894C218.536 101.493 218.265 101.189 217.971 101.191C217.676 101.191 217.557 101.485 217.655 101.897C217.753 102.301 218.021 102.601 218.318 102.6C218.615 102.599 218.732 102.301 218.633 101.894Z" fill="#F99746"/>
<path d="M220.12 101.891C219.965 101.25 220.246 100.747 220.84 100.746C221.431 100.745 221.95 101.24 222.107 101.888C222.262 102.53 221.985 103.032 221.388 103.033C220.79 103.033 220.278 102.538 220.12 101.891ZM221.602 101.888C221.505 101.486 221.234 101.183 220.939 101.184C220.646 101.184 220.526 101.479 220.624 101.89C220.721 102.294 220.99 102.595 221.287 102.594C221.585 102.594 221.702 102.296 221.602 101.888Z" fill="#F99746"/>
<path d="M223.093 101.885C222.938 101.244 223.219 100.741 223.812 100.74C224.404 100.739 224.922 101.234 225.08 101.882C225.235 102.523 224.958 103.026 224.36 103.027C223.763 103.028 223.249 102.533 223.093 101.885ZM224.575 101.883C224.477 101.481 224.206 101.178 223.912 101.179C223.618 101.179 223.498 101.474 223.597 101.885C223.695 102.289 223.963 102.59 224.259 102.589C224.556 102.589 224.673 102.291 224.575 101.883Z" fill="#F99746"/>
<path d="M226.29 101.251L225.923 101.346L225.725 100.948L226.321 100.757H226.656L227.195 102.984L226.71 102.985L226.29 101.251Z" fill="#F99746"/>
<path d="M225.687 132.069L225.319 132.165L225.121 131.768L225.717 131.577H226.052L226.592 133.804L226.107 133.805L225.687 132.069Z" fill="#94B0ED"/>
<path d="M227.429 132.695C227.274 132.053 227.555 131.55 228.148 131.549C228.74 131.548 229.258 132.043 229.416 132.691C229.571 133.333 229.294 133.835 228.696 133.837C228.099 133.838 227.585 133.343 227.429 132.695ZM228.911 132.692C228.813 132.291 228.542 131.988 228.248 131.989C227.955 131.989 227.834 132.283 227.933 132.695C228.03 133.099 228.299 133.399 228.595 133.398C228.892 133.397 229.009 133.1 228.911 132.692Z" fill="#94B0ED"/>
<path d="M230.4 132.69C230.244 132.048 230.525 131.546 231.119 131.544C231.71 131.543 232.229 132.038 232.386 132.686C232.541 133.328 232.264 133.831 231.667 133.832C231.068 133.833 230.556 133.337 230.4 132.69ZM231.881 132.688C231.784 132.286 231.513 131.983 231.219 131.984C230.924 131.984 230.805 132.279 230.903 132.69C231.001 133.094 231.269 133.395 231.566 133.393C231.863 133.392 231.98 133.095 231.881 132.688Z" fill="#94B0ED"/>
<path d="M222.767 135.694L222.399 135.79L222.201 135.393L222.797 135.202H223.132L223.672 137.429L223.187 137.43L222.767 135.694Z" fill="#94B0ED"/>
<path d="M224.511 136.32C224.356 135.678 224.637 135.176 225.23 135.175C225.822 135.173 226.34 135.669 226.498 136.316C226.653 136.958 226.376 137.461 225.778 137.462C225.18 137.463 224.667 136.968 224.511 136.32ZM225.993 136.318C225.895 135.916 225.624 135.613 225.33 135.614C225.037 135.614 224.916 135.909 225.015 136.32C225.112 136.724 225.381 137.025 225.677 137.024C225.974 137.022 226.091 136.725 225.993 136.318Z" fill="#94B0ED"/>
<path d="M227.48 136.315C227.324 135.674 227.605 135.171 228.199 135.17C228.79 135.168 229.309 135.664 229.467 136.312C229.622 136.953 229.345 137.456 228.747 137.457C228.15 137.458 227.637 136.963 227.48 136.315ZM228.962 136.313C228.864 135.911 228.593 135.608 228.299 135.609C228.004 135.609 227.885 135.904 227.983 136.315C228.081 136.719 228.349 137.02 228.646 137.019C228.944 137.017 229.06 136.721 228.962 136.313Z" fill="#94B0ED"/>
<path d="M233.37 132.685C233.215 132.043 233.496 131.541 234.09 131.54C234.681 131.538 235.199 132.034 235.357 132.681C235.512 133.323 235.235 133.826 234.638 133.827C234.04 133.828 233.527 133.332 233.37 132.685ZM234.852 132.683C234.755 132.281 234.484 131.978 234.189 131.979C233.895 131.981 233.776 132.274 233.874 132.685C233.971 133.089 234.24 133.39 234.537 133.389C234.835 133.387 234.951 133.089 234.852 132.683Z" fill="#94B0ED"/>
<path d="M236.569 132.051L236.202 132.146L236.004 131.748L236.6 131.557H236.935L237.475 133.784L236.989 133.785L236.569 132.051Z" fill="#94B0ED"/>
<path d="M276.624 106.966C277.726 106.861 280.264 107.158 281.922 109.42C283.578 111.681 282.432 114.348 286.574 116.403C290.717 118.457 290.122 121.049 289.293 124.3C288.464 127.55 284.99 131.48 280.848 131.289C276.705 131.098 269.621 122.569 269.876 119.709C270.131 116.849 271.361 116.507 270.386 114.617C268.857 111.654 271.693 107.434 276.624 106.966Z" fill="#163560"/>
<path d="M278.241 120.532C278.262 120.502 278.272 120.485 278.271 120.484C277.812 120.32 277.773 119.65 278.198 116.861L277.977 116.871L274.279 117.048C274.279 117.048 274.193 118.191 274.037 119.257C274.006 119.469 273.972 119.678 273.936 119.874C271.152 122.644 277.142 123.897 278.241 120.532Z" fill="#FFB27D"/>
<path d="M270.684 195.567H278.673C278.673 195.567 278.864 194.349 278.448 193.426C278.047 192.539 277.425 191.992 277.369 191.313C276.861 191.836 276.236 192.172 275.081 192.017C274.939 192.246 274.167 193.474 273.695 193.814C273.173 194.188 270.845 194.054 270.684 195.567Z" fill="#143D7A"/>
<path d="M280.06 162.908C279.316 164.744 278.744 166.415 278.923 167.887C278.923 167.89 278.925 167.893 278.925 167.894C278.946 168.058 278.974 168.217 279.013 168.375C281.635 178.858 277.918 192.509 277.918 192.509C277.918 192.509 276.936 192.736 276.226 192.8C274.967 192.912 274.783 192.537 274.783 192.537C274.783 192.537 273.533 181.406 269.485 160.125C268.901 157.052 268.671 155.351 268.46 152.619C268.396 151.801 268.336 150.891 268.268 149.824C268.085 146.956 268.52 142.129 270.672 140.861C271.651 140.282 272.984 140.442 274.776 141.853C274.918 141.965 275.052 142.098 275.209 142.211C286.218 150.133 282.335 157.303 280.06 162.908Z" fill="#2F539B"/>
<path d="M278.922 167.886C278.799 167.453 274.839 153.619 274.772 152.57C274.628 150.309 279.862 156.551 280.059 162.908C279.315 164.745 278.743 166.414 278.922 167.886Z" fill="#233862"/>
<path d="M306.937 178.753L303.612 171.488C303.612 171.488 302.424 171.82 301.759 172.584C301.12 173.317 300.656 173.186 299.199 172.175C299.747 173.022 299.821 173.521 300.161 174.636C300.429 174.669 301.952 176.144 303.513 176.549C304.135 176.712 305.495 179.236 306.937 178.753Z" fill="#143D7A"/>
<path d="M272.075 144.048C272.075 144.048 279.234 168.937 281.858 170.539C284.48 172.142 297.451 175.327 301.281 176.092C301.281 176.092 301.417 175.056 301.218 174.01C301.174 173.779 300.778 172.942 300.778 172.942C300.778 172.942 293.968 166.129 287.312 165.175C285.918 164.975 287.871 143.212 278.417 142.358C269.781 141.578 272.075 144.048 272.075 144.048Z" fill="#2F539B"/>
<path d="M261.462 104.881C261.462 104.881 261.622 104.082 261.802 103.474C261.882 103.204 261.327 101.435 260.941 101.217C260.557 100.999 259.556 102.192 259.839 103.107C259.984 103.577 260.223 105.106 260.223 105.106L261.462 104.881Z" fill="#FFB27D"/>
<path d="M294.521 106.36C294.571 106.461 294.638 106.642 294.699 106.812C294.7 106.765 294.7 106.719 294.701 106.675C294.705 106.336 295.967 104.496 296.486 104.38C297.006 104.265 297.739 105.989 297.09 106.942C296.757 107.431 295.751 109.177 295.751 109.177L294.636 108.504C294.636 108.504 294.628 108.035 294.328 107.654C294.176 107.462 294.17 106.559 294.117 106.166C294.118 106.166 294.341 105.987 294.521 106.36Z" fill="#FFB27D"/>
<path d="M274.28 117.048C274.28 117.048 274.194 118.191 274.037 119.257C276.056 119.499 277.391 117.823 277.978 116.872L274.28 117.048Z" fill="#ED975D"/>
<path d="M278.669 116.404C278.669 116.404 280.082 114.766 280.587 113.261C280.947 112.185 280.993 108.011 276.794 107.989C276.794 107.989 275.582 107.928 274.347 108.519C273.364 108.99 271.882 110.1 272.792 113.885L272.987 115.146L278.669 116.404Z" fill="#163560"/>
<path d="M273.295 117.949C273.295 117.949 278.449 118.802 278.931 115.585C279.414 112.366 280.404 110.309 277.133 109.628C273.863 108.947 273.037 110.079 272.615 111.113C272.194 112.148 271.966 117.643 273.295 117.949Z" fill="#FFB27D"/>
<path d="M274.275 109.177C274.275 109.177 275.645 113.184 277.733 114.066C279.821 114.948 280.849 114.506 280.849 114.506C280.849 114.506 279.381 112.935 279.379 110.574C279.38 110.575 275.611 107.539 274.275 109.177Z" fill="#163560"/>
<path d="M275.097 109.558C275.097 109.558 274.148 109.808 273.304 110.828C272.749 111.497 272.555 112.427 272.306 113.345C272.306 113.345 271.622 110.621 273.035 109.347C274.534 107.996 275.097 109.558 275.097 109.558Z" fill="#163560"/>
<path d="M295.957 109.192C295.957 109.192 294.825 118.437 292.437 120.646C290.781 122.18 284.917 124.655 283.515 126.935C283.349 127.207 283.145 127.978 282.983 129.124C282.509 132.475 282.392 139.019 284.575 145.592C284.676 145.896 284.782 146.2 284.894 146.504C285.191 147.316 284.792 148.215 283.976 148.505C282.95 148.869 281.441 149.328 279.659 149.634C279.32 149.693 278.969 149.746 278.612 149.791C273.693 150.415 270.366 149.261 268.675 148.407C267.877 148.005 267.394 147.166 267.443 146.273C267.544 144.448 268.458 142.644 268.869 138.257C269.181 134.929 266.91 130.236 267.032 128.465C267.08 127.765 267.426 124.656 267.073 124.174C264.734 120.962 260.8 117.885 260.196 114.952C259.499 111.571 259.95 104.822 259.95 104.822C260.142 104.755 260.669 104.546 261.041 104.546C261.705 104.544 262.172 105.155 262.172 105.155C262.172 105.155 263.927 111.728 264.016 112.17C264.483 114.529 268.968 117.945 270.325 118.631C271.812 119.384 273.001 119.787 273.937 119.873C273.937 119.873 272.831 121.783 274.468 122.048C276.438 122.367 277.958 120.103 277.958 120.103C277.958 120.103 279.154 120.44 281.309 120.122C283.097 119.859 289.458 117.709 290.377 116.077C291.047 114.889 294.578 108.306 294.578 108.306C294.578 108.306 294.906 108.117 295.433 108.39C295.954 108.662 295.957 109.192 295.957 109.192Z" fill="#AEC3FF"/>
<path d="M274.791 116.201C274.791 116.201 274.57 116.645 274.273 116.654C273.977 116.663 273.224 116.591 273.172 116.514C273.12 116.436 272.996 115.972 272.996 115.972C272.996 115.972 274.241 115.922 274.791 116.201Z" fill="white"/>
<path d="M284.576 145.591C284.576 145.591 280.151 144.833 279.858 141.684C279.545 138.329 282.982 129.117 282.982 129.117L282.984 129.125C282.511 132.475 282.393 139.02 284.576 145.591Z" fill="#94B0ED"/>
<path d="M273.792 68.1081L273.332 66.4169C272.838 64.6037 271.292 63.2721 269.424 63.0516L257.401 61.6313L256.499 69.2611L252.652 101.833L302.392 107.709L306.239 75.1367L278.093 71.8121C276.038 71.5695 274.337 70.1036 273.792 68.1081Z" fill="#F99746"/>
<path d="M262.016 86.9646L262.358 84.0661L273.049 80.8142L272.699 83.7754L265.256 85.8559L272.01 89.6129L271.656 92.616L262.016 86.9646Z" fill="white"/>
<path d="M284.02 78.5979L286.728 78.9182L275.129 97.2658L272.42 96.9455L284.02 78.5979Z" fill="white"/>
<path d="M297.092 88.1691L296.749 91.0675L286.059 94.3194L286.408 91.3582L293.851 89.2777L287.097 85.5207L287.452 82.5176L297.092 88.1691Z" fill="white"/>
<path d="M294.242 107.409C294.242 107.409 294.096 106.127 293.969 105.888C293.841 105.649 294.16 105.581 294.431 106.127C294.702 106.674 295.244 106.509 295.513 107.051C295.784 107.593 295.545 107.736 295.21 107.704C294.875 107.672 294.242 107.409 294.242 107.409Z" fill="#FFB27D"/>
<path d="M261.551 104.465C261.551 104.465 262.281 103.676 262.277 103.323C262.273 102.969 262.787 102.096 262.643 101.937C262.5 101.778 262.245 102.033 262.109 102.272C261.974 102.511 261.416 102.496 261.289 103.149C261.162 103.802 261.551 104.465 261.551 104.465Z" fill="#FFB27D"/>
<path d="M146.072 100.416L164.961 108.688V101.327L155.12 97.2808L164.961 93.2332V85.9409L146.072 94.2149V100.416Z" fill="#2C3A64"/>
<path d="M182.325 80.8438L166.004 114.958H172.902L189.223 80.8438H182.325Z" fill="#2C3A64"/>
<path d="M190.486 85.9409V93.3021L200.326 97.3498L190.486 101.396V108.688L209.373 100.416V94.2149L190.486 85.9409Z" fill="#2C3A64"/>
<path d="M172.902 113.009H166.004V114.957H172.902V113.009Z" fill="#2C3A64"/>
<path d="M189.222 78.8948H186V80.8422H189.222V78.8948Z" fill="#2C3A64"/>
<path d="M146.072 98.468L164.961 106.741V99.3795L155.12 95.3318L164.961 91.2854V83.9932L146.072 92.2659V98.468Z" fill="#2B478B"/>
<path d="M182.325 78.8948L166.004 113.009H172.902L189.223 78.8948H182.325Z" fill="#2B478B"/>
<path d="M190.486 83.9932V91.3544L200.326 95.4008L190.486 99.4485V106.741L209.373 98.468V92.2659L190.486 83.9932Z" fill="#2B478B"/>
<path d="M251.999 152.75H250.848L241.433 116.827L229.331 70.6471H94.1734L114.647 152.75L113.185 152.766L92.4648 69.5323L230.282 69.4128L230.403 69.8723L242.501 116.3L251.999 152.75Z" fill="#94B0ED"/>
<path d="M252.209 153.552L251.099 153.701L241.436 116.827L242.503 116.3L252.209 153.552Z" fill="#AEC3FF"/>
<path d="M113.487 89.9888C113.234 90.2783 113.202 90.6011 113.326 90.946C113.326 90.9472 113.328 90.9496 113.329 90.9509C113.56 91.589 114.323 92.3022 115.21 93.0141C115.323 93.1053 115.424 93.1891 115.512 93.2654C115.535 93.2851 115.557 93.3061 115.579 93.3258C115.598 93.3418 115.614 93.3578 115.631 93.3726C116.458 94.1351 116.146 94.3088 117.632 95.8559C119.325 97.6174 120.491 97.6494 120.822 97.4893C121.103 97.3525 120.532 96.4176 119.901 95.3681C119.87 95.3176 119.84 95.2659 119.808 95.2154C119.724 95.0762 119.641 94.9345 119.557 94.7941C118.817 93.5303 119.006 92.9365 119.182 91.0556C119.325 89.5269 121.561 82.5155 121.561 82.5155L118.316 81.9563C118.316 81.9563 117.34 87.5388 116.263 88.3986C115.688 88.8568 115.042 88.863 114.489 89.2017C114.45 89.2251 114.412 89.2498 114.375 89.2744C114.061 89.4838 113.74 89.6994 113.487 89.9888Z" fill="#FFB27D"/>
<path d="M113.487 89.9885C113.234 90.278 113.202 90.6007 113.326 90.9456C113.326 90.9469 113.328 90.9493 113.329 90.9506C113.612 91.5886 114.356 92.2969 115.212 93.0064C115.324 93.0988 115.423 93.1851 115.51 93.2651C115.534 93.2848 115.556 93.3058 115.578 93.3255C115.597 93.3415 115.613 93.3575 115.63 93.3723C116.456 94.1348 116.145 94.3085 117.63 95.8556C119.324 97.6171 120.489 97.6491 120.821 97.489C121.101 97.3522 120.531 96.4173 119.899 95.3678C119.569 95.2471 118.038 94.625 116.881 93.1432C115.861 91.8424 115.182 90.1708 114.488 89.2014C114.449 89.2248 114.41 89.2495 114.373 89.2741C114.061 89.4835 113.74 89.6991 113.487 89.9885Z" fill="#233862"/>
<path d="M139.654 87.9624C139.855 88.9639 141.282 88.7976 142.878 88.4071C144.473 88.0178 144.093 88.481 146.364 88.2297C148.634 87.9784 149.321 87.1322 149.391 86.7947C149.453 86.4953 148.332 86.3894 147.129 86.2514C146.977 86.2342 146.826 86.2157 146.673 86.1972C145.314 86.0272 144.32 85.1502 143.086 84.4308C141.917 83.7484 140.173 80.9707 140.173 80.9707L137.059 81.2171C137.059 81.2171 138.692 83.6991 139.324 84.777C139.696 85.4113 139.676 86.2502 139.629 86.8981C139.606 87.2492 139.583 87.6101 139.654 87.9624Z" fill="#FFB27D"/>
<path d="M142.877 88.4071C144.472 88.0178 144.093 88.481 146.363 88.2297C148.633 87.9784 149.321 87.1322 149.391 86.7947C149.452 86.4954 148.331 86.3894 147.128 86.2515L147.117 86.2749C147.117 86.2749 145.756 87.2406 143.866 87.2849C142.326 87.3219 140.694 86.8809 139.631 86.8981C139.607 87.2504 139.584 87.6101 139.655 87.9636C139.854 88.9638 141.282 88.7963 142.877 88.4071Z" fill="#233862"/>
<path d="M127.723 68.0539L124.812 75.8857L121.012 86.1121C121.012 86.1121 119.981 86.2119 118.993 85.9273C118.084 85.665 117.041 84.9776 117.041 84.9776C117.041 84.9776 118.097 73.9974 120.064 67.6942C120.568 66.0769 121.133 64.7675 121.758 64.0309C124.81 60.4254 127.723 68.0539 127.723 68.0539Z" fill="#2C3A64"/>
<path d="M124.763 55.6166C122.856 55.002 117.418 55.7915 111.955 56.8607L110.81 54.9736L99.0097 54.0522C99.0097 54.0522 95.116 62.6871 97.247 68.1896C97.5598 68.9989 98.1831 69.5174 99.2437 69.5335H99.4162C99.4162 69.5335 106.44 69.5298 108.72 69.5298C114.588 69.5298 121.139 65.4956 121.986 65.3269C123.373 65.0497 123.929 67.8237 125.316 70.7369C126.703 73.6501 138.354 83.6375 138.354 83.6375C138.354 83.6375 140.145 83.6548 140.885 83.3776C141.68 83.0795 141.971 82.6915 141.971 82.6915C141.971 82.6915 129.063 57.0036 124.763 55.6166Z" fill="#2F539B"/>
<path d="M106.901 19.0506C105.248 18.6257 102.984 19.0494 102.609 19.0864C98.1196 19.5286 96.6106 24.5371 97.2906 28.4221C97.9176 32.0079 96.0982 33.0007 93.9906 35.8326C89.7643 41.5124 92.526 46.3004 95.8617 47.5347C97.8634 48.275 100.641 46.4064 100.641 46.4064C100.692 46.4261 109.371 40.7204 112.929 37.503C118.854 35.1859 111.114 20.1346 106.901 19.0506Z" fill="#2B478B"/>
<path d="M107.564 35.4779C107.682 35.893 105.717 36.658 104.218 36.3771C102.808 36.1135 101.228 34.4629 101.553 34.3077C102.092 34.0515 102.456 33.4134 102.16 29.9644L102.429 29.9952L106.941 30.51C106.941 30.51 106.954 31.9155 107.059 33.2323C107.149 34.3373 107.372 34.7992 107.564 35.4779Z" fill="#FFB27D"/>
<path d="M106.943 30.509C106.943 30.509 106.957 31.9145 107.061 33.2313C104.571 33.3656 103.071 31.2062 102.43 29.9941L106.943 30.509Z" fill="#ED975D"/>
<path d="M107.875 31.688C107.875 31.688 102.004 32.2669 101.7 28.6048C101.396 24.9426 100.433 22.5517 104.169 22.027C107.905 21.5022 108.75 22.8387 109.149 24.036C109.547 25.2346 109.394 31.4428 107.875 31.688Z" fill="#FFB27D"/>
<path d="M107.245 21.4502C107.245 21.4502 106.505 25.9241 103.161 26.9847C100.722 27.7595 99.6172 27.2483 99.6172 27.2483C99.6172 27.2483 100.791 25.6913 101.209 23.527C101.332 22.889 101.785 22.3642 102.402 22.161C104.137 21.5907 106.237 20.0312 107.245 21.4502Z" fill="#2B478B"/>
<path d="M106.139 22.4036C106.139 22.4036 107.245 22.6499 108.225 24.0776C108.761 24.8573 109.382 26.8245 109.276 27.6954C109.276 27.6954 110.303 23.5553 108.806 22.0156C107.217 20.3822 106.139 22.4036 106.139 22.4036Z" fill="#2B478B"/>
<path d="M96.9932 47.5065C97.0979 47.9512 97.1878 48.3601 97.2605 48.7371C97.38 49.3456 97.4625 49.8715 97.5204 50.3347C97.7003 51.7784 97.6461 52.6345 97.7668 53.5706C97.8345 54.0941 97.9577 54.6435 98.2053 55.3321C98.448 56.0022 104.829 56.6008 108.458 56.3594C109.61 56.2843 110.489 56.1217 110.8 55.8531C112.095 54.7285 111.966 57.202 112.143 45.3669C112.229 39.5947 107.244 34.4532 107.244 34.4532C107.244 34.4532 106.846 36.9192 101.903 33.9838C101.727 33.8816 99.7808 36.764 97.9072 40.3128C95.8439 44.2348 96.4093 45.0651 96.9932 47.5065Z" fill="#F99746"/>
<path d="M124.812 75.8858L121.012 86.1122C121.012 86.1122 119.981 86.2119 118.993 85.9274C118.084 85.665 117.041 84.9777 117.041 84.9777C117.041 84.9777 118.097 73.9974 120.064 67.6943L124.812 75.8858Z" fill="#2B478B"/>
<path d="M107.244 34.4517C107.244 34.4517 112.33 35.3139 112.928 37.5041C113.525 39.6942 117.652 51.9419 117.652 51.9419C117.652 51.9419 114.454 53.0333 113.26 51.8385C112.065 50.6436 109.104 40.756 109.104 40.756L107.244 34.4517Z" fill="#F99746"/>
<path d="M127.979 49.1274L129.183 48.6494C129.183 48.6494 129.908 48.4893 130.299 48.6112C130.691 48.7344 131.67 48.7221 131.675 48.8822C131.68 49.0424 130.559 49.5425 130.559 49.5425L130.523 49.5289C130.95 50.4934 133.079 51.044 133.182 51.3988C133.306 51.8274 132.316 52.0492 131.775 52.1834C131.235 52.3177 129.912 52.3041 129.261 51.6168C128.784 51.1142 127.979 50.4232 127.979 50.4232V49.1274Z" fill="#FFB27D"/>
<path d="M106.52 29.5283C106.52 29.5283 106.766 30.1307 107.415 30.1307C108.065 30.1307 108.24 30.0334 108.364 29.8954C108.487 29.7575 108.609 29.4926 108.609 29.4926C108.609 29.4926 107.532 29.2807 106.52 29.5283Z" fill="white"/>
<path d="M116.236 47.7095L128.549 48.6493C128.549 48.6493 128.806 49.843 128.013 51.1979C128.013 51.1979 116.905 53.3696 114.005 52.261C111.105 51.1524 111.433 45.9209 111.433 45.9209L116.236 47.7095Z" fill="#F99746"/>
<path d="M97.5195 50.3348C97.6994 51.7784 97.6452 52.6345 97.7659 53.5707C102.384 53.5854 108.559 50.0046 108.559 50.0046L97.5195 50.3348Z" fill="#ED7D2B"/>
<path d="M108.56 46.9757C108.56 46.9757 101.365 46.7614 100.153 42.6718C98.8198 38.1795 97.3281 44.5195 97.3281 44.5195L98.1226 48.566H106.016L108.56 46.9757Z" fill="#ED7D2B"/>
<path d="M121.101 35.8793L120.712 34.916C120.296 33.8838 119.293 33.2075 118.179 33.2075H111.008V37.759V57.1881H140.676V37.759H123.886C122.663 37.759 121.561 37.015 121.101 35.8793Z" fill="#AEC3FF"/>
<path d="M115.484 47.7905V46.0622L121.547 43.4065V45.1729L117.314 46.9146L121.547 48.6552V50.4462L115.484 47.7905Z" fill="white"/>
<path d="M127.846 41.3384H129.462L123.913 52.9382H122.297L127.846 41.3384Z" fill="white"/>
<path d="M136.202 46.0613V47.7895L130.139 50.4452V48.6801L134.372 46.9383L130.139 45.1965V43.4055L136.202 46.0613Z" fill="white"/>
<path d="M108.559 47.9241L109.08 47.1074C109.08 47.1074 109.492 46.9732 110.07 46.5679C110.757 46.0851 110.666 45.362 111.01 45.4396L111.014 47.0286L110.977 47.0335C112.451 47.4277 114.176 46.999 114.21 47.3661C114.305 48.3762 113.524 48.8307 112.87 49.1473C112.369 49.39 111.799 49.7521 110.895 49.4713C110.234 49.2655 109.193 49.0561 109.193 49.0561L108.559 47.9241Z" fill="#FFB27D"/>
<path d="M101.905 33.9849C101.905 33.9849 97.2349 34.2904 96.0671 36.1122C94.8994 37.934 93.452 47.1811 94.0593 50.3567C94.6666 53.5322 109.622 49.7494 109.622 49.7494L109.145 46.9939C109.145 46.9939 100.514 47.0444 100.022 45.9197C99.3671 44.4256 101.905 33.9849 101.905 33.9849Z" fill="#F99746"/>
<path d="M124.447 37.7482C124.406 37.8689 125.149 39.0933 126.21 38.8802C126.871 38.7472 127.731 37.3245 126.975 37.0104C125.714 36.4868 124.554 37.4255 124.447 37.7482Z" fill="#FFB27D"/>
</g>
<defs>
<clipPath id="clip0">
<rect width="350" height="196.382" fill="white"/>
</clipPath>
</defs>
</svg>
