<svg width="350" height="220" viewBox="0 0 350 220" fill="none" xmlns="http://www.w3.org/2000/svg">
<g clip-path="url(#clip0)">
<path d="M333.547 218.555C313.53 218.555 21.9408 218.626 21.7718 218.105L21.7437 218.039C21.7437 218.039 21.7155 217.974 21.7155 217.942C21.6043 217.681 -23.2122 144.336 46.4598 93.2768C73.7206 73.2988 44.7545 60.1108 66.4315 37.87C91.3447 12.3121 118.533 40.5849 146.235 28.9957C151.13 26.9502 156.042 23.6572 160.958 18.6043C163.725 15.7634 166.759 13.2779 170.006 11.1331C170.503 10.8031 171.006 10.4798 171.514 10.1673C173.458 8.96816 175.474 7.88301 177.551 6.90786C178.945 6.25328 180.366 5.64834 181.814 5.09302H181.816C184.112 4.21042 186.472 3.44854 188.882 2.8047C192.305 1.8899 195.828 1.2085 199.421 0.748422C200.988 0.545879 202.569 0.387601 204.16 0.268222C235.114 -2.04559 269.948 10.9735 287.925 30.0017C291.545 33.8339 308.001 53.6603 295.029 80.9123C286.838 98.1177 321.153 114.552 333.346 134.2C364.347 184.151 333.829 217.903 333.547 218.555Z" fill="#DAE3FE"/>
<g opacity="0.8">
<path opacity="0.8" d="M154.087 85.8577C154.087 88.5565 153.844 91.2003 153.378 93.7676C152.257 99.9271 149.853 105.638 146.451 110.616C138.546 122.183 125.256 129.773 110.194 129.773C92.2779 129.773 76.8671 119.034 70.0473 103.637C69.1477 101.609 68.3969 99.4992 67.8124 97.3222C66.8244 93.6684 66.2988 89.8241 66.2988 85.8591C66.2988 82.6519 66.642 79.5239 67.2949 76.514C67.3016 76.4791 67.3097 76.4455 67.3164 76.4107C69.1397 68.0863 73.3238 60.6486 79.1315 54.8312C80.7778 53.18 82.5555 51.6589 84.4498 50.2854C85.3521 49.6308 86.2825 49.0084 87.2344 48.4236C93.9121 44.3124 101.775 41.9409 110.193 41.9409C111.31 41.9409 112.416 41.9825 113.51 42.0657C115.055 42.1797 116.577 42.3742 118.073 42.6465C124.37 43.7879 130.197 46.2734 135.25 49.7971H135.252C138.4 51.9902 141.248 54.5844 143.718 57.5085C145.016 59.0443 146.212 60.67 147.291 62.3762C147.963 63.4386 148.592 64.5291 149.175 65.6518C150.575 68.3465 151.699 71.2049 152.52 74.1908C153.541 77.9036 154.087 81.8176 154.087 85.8577Z" fill="#D7E5FF"/>
<g opacity="0.8">
<path opacity="0.8" d="M95.2803 66.1993C93.5281 68.9745 96.0123 73.7939 90.757 72.4794C85.5016 71.1649 82.2908 70.5801 81.9985 73.5002C81.7049 76.423 85.94 76.423 85.94 79.4893C85.94 82.5556 84.0417 83.571 81.1231 82.1143C78.2018 80.6576 77.3639 78.5396 73.9694 79.8541C70.5762 81.1686 68.6055 80.2927 67.8386 77.6637C67.7032 77.2009 67.5142 76.8267 67.293 76.5142C67.2997 76.4793 67.3077 76.4458 67.3144 76.4109C69.1377 68.0865 73.3219 60.6488 79.1295 54.8314C80.7759 53.1802 82.5536 51.6591 84.4479 50.2856C85.3501 49.631 86.2806 49.0087 87.2324 48.4238C88.6012 48.4748 90.2368 48.9939 91.6311 50.7202C94.6958 54.5189 96.739 52.6195 96.0096 57.0004C95.2776 61.3812 96.448 61.966 98.9282 61.8198C101.408 61.6736 104.33 61.6736 104.621 63.5729C104.914 65.4696 97.0326 63.424 95.2803 66.1993Z" fill="#AEC3FF"/>
<path opacity="0.8" d="M95.5864 86.4802C95.5864 86.4802 92.9373 89.5613 90.6542 87.792C88.3711 86.0228 89.0615 84.9149 85.7179 86.0242C82.3744 87.1334 80.9037 85.2945 79.1903 86.6881C77.477 88.0818 78.8672 88.2561 77.6821 91.2111C76.497 94.1661 74.0476 94.6396 75.9406 97.5905C77.8336 100.54 81.3555 99.0231 83.2109 100.583C85.0664 102.143 84.4604 103.671 86.777 104.305C89.0923 104.941 91.3057 102.684 91.3513 105.482C91.3969 108.28 90.5027 111.013 93.3824 113.616C96.2608 116.218 95.7218 116.805 98.682 118.073C101.642 119.34 105.18 118.198 104.731 116.418C104.282 114.638 100.468 114.279 100.391 112.27C100.316 110.261 102.345 110.428 101.532 107.845C100.718 105.26 102.989 103.867 102.223 102.197C101.456 100.525 97.0813 99.954 97.5907 98.2706C98.1001 96.5872 102.056 98.0144 102.274 94.4558C102.489 90.8972 100.087 89.6297 100.441 86.1583C100.795 82.6856 95.9913 84.3475 95.5864 86.4802Z" fill="#AEC3FF"/>
<path opacity="0.8" d="M154.087 85.8579C154.087 88.5566 153.844 91.2004 153.378 93.7677C152.257 99.9272 149.853 105.639 146.45 110.616C145.289 110.997 144.106 110.989 142.941 110.522C137.467 108.332 141.517 102.417 143.707 99.459C145.897 96.5014 140.314 97.8159 136.263 95.0782C132.213 92.3405 136.701 85.0007 132.541 86.2066C128.381 87.4111 123.346 88.9443 120.936 84.8921C118.529 80.8399 123.126 80.1826 121.046 76.7864C118.966 73.3914 122.25 71.4197 126.41 71.091C130.57 70.7624 130.023 67.8047 135.169 67.3675C140.314 66.9288 140.204 73.5014 145.898 73.0628C151.59 72.6242 151.334 73.9387 151.334 73.9387C151.743 73.928 152.143 74.0138 152.524 74.1882C153.541 77.9037 154.087 81.8177 154.087 85.8579Z" fill="#AEC3FF"/>
<path opacity="0.8" d="M149.174 65.649C144.441 67.9535 142.541 61.6867 138.493 63.57C134.414 65.4693 135.128 61.8168 131.919 59.4802C128.707 57.1449 122.285 61.3795 122.576 57.7271C122.867 54.0773 127.684 55.0981 128.707 52.178C129.73 49.2579 134.399 49.9876 134.399 49.9876C134.665 49.887 134.949 49.8212 135.249 49.7944C135.249 49.7944 135.249 49.7917 135.252 49.7944C138.4 51.9875 141.247 54.5816 143.718 57.5058C145.016 59.0416 146.212 60.6673 147.291 62.3735C147.962 63.4358 148.591 64.5277 149.174 65.649Z" fill="#AEC3FF"/>
<path opacity="0.8" d="M109.294 53.0553C109.294 53.0553 111.776 49.4726 107.834 48.4169C103.893 47.36 103.967 48.7429 100.901 48.4169C97.8358 48.091 96.6306 50.4638 98.9298 53.0553C101.229 55.6481 103.09 60.6218 105.171 57.97C107.25 55.3181 106.849 53.3101 109.294 53.0553Z" fill="#AEC3FF"/>
</g>
</g>
<path d="M163.013 133.183L156.29 213.163C156.29 213.163 155.586 218.011 159.19 218.02C165.117 218.035 188.688 218.02 188.688 218.02C188.688 218.02 184.228 217.012 184.281 214.741C184.344 212.063 192.139 132.427 192.139 132.427L163.013 133.183Z" fill="#7599EA"/>
<path d="M190.905 216.601C189.74 216.605 166.92 216.643 161.148 216.569C158.633 216.538 158.192 214.332 158.171 212.903C158.16 212.219 158.247 211.712 158.247 211.712L158.422 209.633L158.867 204.334L159.261 199.653L159.766 193.639L160.193 188.562L164.969 131.73L194.096 130.974C194.096 130.974 190.813 164.302 188.491 188.562C188.232 191.264 187.986 193.856 187.758 196.276C187.684 197.048 187.613 197.804 187.543 198.539C187.327 200.834 187.132 202.942 186.96 204.803C186.87 205.783 186.787 206.695 186.711 207.53C186.414 210.801 186.241 212.891 186.239 213.288C186.237 213.52 186.257 213.735 186.295 213.936C186.775 216.486 190.468 216.601 190.905 216.601Z" fill="#90AFF4"/>
<path d="M92.2793 89.6606L108.655 155.475L110.897 164.487L118.524 195.142H260.226L232.114 89.6606H92.2793Z" fill="#AEC3FF"/>
<path d="M92.2775 89.6606L90.0078 90.4172L115.507 197.432L118.525 195.142L92.2775 89.6606Z" fill="#90AFF4"/>
<path d="M115.506 197.432H256.335L260.225 195.142H118.524L115.506 197.432Z" fill="#7599EA"/>
<path d="M164.961 218.051H195.453V216.601H164.961V218.051Z" fill="#AEC3FF"/>
<path d="M187.7 197.432L187.544 198.54L158.867 204.336L159.261 199.654L159.449 197.432H187.7Z" fill="#5888DD"/>
<path opacity="0.4" d="M190.906 216.601C189.741 216.605 166.921 216.643 161.149 216.569C158.634 216.538 158.193 214.332 158.172 212.903L186.713 207.531C186.417 210.803 186.244 212.892 186.241 213.289C186.24 213.521 186.26 213.736 186.297 213.937C186.776 216.486 190.469 216.601 190.906 216.601Z" fill="#5888DD"/>
<path d="M92.2773 89.6606H232.114L254.801 174.435H113.371L92.2773 89.6606Z" fill="#C2D5FF"/>
<path d="M248.207 170.761H117.278L112.599 152.113L110.789 144.897L110.052 141.955L105.243 122.792L104.993 121.794L102.452 111.664L101.315 107.131L100.344 103.264L98.0703 94.2009H227.11L229.608 103.264L230.674 107.131L231.922 111.664L240.149 141.523V141.525L240.847 144.055L241.171 145.23L246.851 165.843L248.207 170.761Z" fill="#739AF0"/>
<path d="M229.608 103.266H100.344L98.0703 94.2009H227.112L229.608 103.266Z" fill="#607CF4"/>
<path d="M103.408 98.2975C103.252 97.6711 103.633 97.1641 104.258 97.1641C104.884 97.1641 105.517 97.6711 105.672 98.2975C105.828 98.9239 105.447 99.4309 104.822 99.4309C104.197 99.4309 103.563 98.9239 103.408 98.2975Z" fill="#E9F3FE"/>
<path d="M107.171 98.2975C107.016 97.6711 107.397 97.1641 108.021 97.1641C108.648 97.1641 109.28 97.6711 109.436 98.2975C109.591 98.9239 109.211 99.4309 108.586 99.4309C107.961 99.4309 107.327 98.9239 107.171 98.2975Z" fill="#E9F3FE"/>
<path d="M111.222 98.2975C111.067 97.6711 111.447 97.1641 112.072 97.1641C112.698 97.1641 113.331 97.6711 113.487 98.2975C113.642 98.9239 113.261 99.4309 112.637 99.4309C112.012 99.4309 111.378 98.9239 111.222 98.2975Z" fill="#E9F3FE"/>
<path opacity="0.5" d="M166.498 174.435L118.571 195.389L113.371 174.435H166.498Z" fill="#90AFF4"/>
<path d="M124.824 67.7015C122.514 68.5667 121.023 70.5653 121.023 72.7677V121.658C121.023 131.661 125.769 141.029 133.725 146.731L162.431 165.136C164.338 166.361 166.933 166.361 168.848 165.136L197.553 146.731C205.508 141.029 210.254 131.661 210.254 121.658V72.8978C210.254 70.6296 208.67 68.5881 206.264 67.7632C171.394 55.8199 157.415 55.5007 124.824 67.7015Z" fill="#F99746"/>
<path d="M206.264 67.7634C189.29 61.9487 177.267 58.8985 165.639 58.6973V166.054C166.766 166.054 167.886 165.748 168.847 165.135L197.551 146.729C205.507 141.027 210.253 131.659 210.253 121.657V72.8967C210.253 70.6298 208.668 68.5883 206.264 67.7634Z" fill="#F78248"/>
<path d="M168.562 111.291H162.033C156.179 111.291 151.414 106.525 151.414 100.666V99.3961C151.414 93.5371 156.177 88.77 162.033 88.77H168.562C174.418 88.77 179.183 93.5358 179.183 99.3961V100.666C179.182 106.525 174.418 111.291 168.562 111.291ZM162.033 93.0194C158.519 93.0194 155.661 95.8791 155.661 99.3961V100.666C155.661 104.182 158.519 107.042 162.033 107.042H168.562C172.077 107.042 174.936 104.182 174.936 100.666V99.3961C174.936 95.8791 172.077 93.0194 168.562 93.0194H162.033Z" fill="#FFDAA4"/>
<path d="M171.325 140.967H161.012C151.364 140.967 143.543 133.142 143.543 123.489V106.437C143.543 104.277 145.293 102.528 147.45 102.528H182.73C185.495 102.528 187.735 104.77 187.735 107.536V124.548C187.735 133.617 180.388 140.967 171.325 140.967Z" fill="#FFDAA4"/>
<path d="M167.541 119.5C170.544 118.446 172.124 115.156 171.071 112.152C170.017 109.147 166.729 107.566 163.726 108.62C160.723 109.674 159.143 112.964 160.196 115.968C161.25 118.973 164.538 120.554 167.541 119.5Z" fill="#F78248"/>
<path d="M165.639 116.753C166.325 116.753 166.887 117.315 166.887 118.002V127.61C166.887 128.296 166.325 128.859 165.639 128.859C164.952 128.859 164.391 128.296 164.391 127.61V118.002C164.391 117.315 164.952 116.753 165.639 116.753Z" fill="#F78248"/>
<path d="M145.248 77.1338C145.248 74.3049 147.451 71.9871 150.463 71.9871C152.253 71.9871 153.333 72.4699 154.371 73.3525L152.993 75.0158C152.226 74.376 151.544 74.0058 150.392 74.0058C148.801 74.0058 147.537 75.4128 147.537 77.1338C147.537 78.954 148.787 80.29 150.549 80.29C151.345 80.29 152.056 80.0914 152.61 79.6931V78.2712H150.407V76.38H154.726V80.7018C153.703 81.5696 152.296 82.2805 150.478 82.2805C147.38 82.2805 145.248 80.1049 145.248 77.1338Z" fill="#FFDAA4"/>
<path d="M156.828 72.1575H160.708C163.834 72.1575 165.994 74.3036 165.994 77.1338C165.994 79.9346 163.834 82.1102 160.708 82.1102H156.828V72.1575ZM160.708 80.1344C162.498 80.1344 163.706 78.9259 163.706 77.1352C163.706 75.3727 162.498 74.1359 160.708 74.1359H159.017V80.1358H160.708V80.1344Z" fill="#FFDAA4"/>
<path d="M167.941 72.1575H172.005C174.378 72.1575 175.814 73.5645 175.814 75.6262C175.814 77.9293 174.023 79.1231 171.792 79.1231H170.129V82.1089H167.941V72.1575ZM171.863 77.1768C172.957 77.1768 173.596 76.5222 173.596 75.6409C173.596 74.6604 172.914 74.1333 171.82 74.1333H170.129V77.1754H171.863V77.1768Z" fill="#FFDAA4"/>
<path d="M177.434 72.1575H181.981C183.245 72.1575 184.227 72.5129 184.88 73.1675C185.433 73.7215 185.732 74.5035 185.732 75.4706C185.732 77.0775 184.866 78.0862 183.601 78.5557L186.031 82.1102H183.473L181.313 78.9259H179.623V82.1102H177.435V72.1575H177.434ZM181.839 76.9917C182.905 76.9917 183.516 76.4229 183.516 75.5551C183.516 74.6162 182.862 74.1333 181.796 74.1333H179.622V76.9917H181.839Z" fill="#FFDAA4"/>
<path d="M231.154 38.3572C230.521 38.5933 230.113 39.1405 230.113 39.7441V53.1254C230.113 55.863 231.412 58.4263 233.59 59.9877L241.446 65.0257C241.967 65.3611 242.678 65.3611 243.202 65.0257L251.058 59.9877C253.235 58.4263 254.535 55.863 254.535 53.1254V39.7804C254.535 39.1593 254.1 38.6013 253.443 38.3746C243.9 35.1044 240.074 35.0173 231.154 38.3572Z" fill="#AEC3FF"/>
<path opacity="0.4" d="M253.445 38.3745C248.8 36.7837 245.509 35.9481 242.326 35.8931V65.2765C242.635 65.2765 242.942 65.1933 243.204 65.0256L251.06 59.9876C253.238 58.4262 254.537 55.8629 254.537 53.1253V39.7789C254.537 39.1579 254.104 38.5999 253.445 38.3745Z" fill="#5888DD"/>
<path d="M243.696 21.7176L246.78 22.124L244.582 24.3265L245.15 27.3875L242.376 25.9764L239.643 27.4626L240.127 24.3869L237.869 22.2448L240.942 21.7552L242.281 18.9451L243.696 21.7176Z" fill="#F99746"/>
<path d="M243.696 74.8993L246.78 75.3057L244.582 77.5082L245.15 80.5691L242.376 79.158L239.643 80.6442L240.127 77.5685L237.869 75.4264L240.942 74.9368L242.281 72.1267L243.696 74.8993Z" fill="#F99746"/>
<path d="M220.981 34.7769L224.066 35.1834L221.867 37.3859L222.434 40.4468L219.662 39.0357L216.927 40.5219L217.412 37.4462L215.154 35.3041L218.227 34.8145L219.565 32.0044L220.981 34.7769Z" fill="#F99746"/>
<path d="M266.727 34.7769L269.81 35.1834L267.613 37.3859L268.18 40.4468L265.408 39.0357L262.673 40.5219L263.158 37.4462L260.9 35.3041L263.973 34.8145L265.311 32.0044L266.727 34.7769Z" fill="#F99746"/>
<path d="M220.981 61.9979L224.066 62.403L221.867 64.6055L222.434 67.6664L219.662 66.2553L216.927 67.7415L217.412 64.6658L215.154 62.5237L218.227 62.0341L219.565 59.2253L220.981 61.9979Z" fill="#F99746"/>
<path d="M266.727 61.9979L269.81 62.403L267.613 64.6055L268.18 67.6664L265.408 66.2553L262.673 67.7415L263.158 64.6658L260.9 62.5237L263.973 62.0341L265.311 59.2253L266.727 61.9979Z" fill="#F99746"/>
<path d="M230.828 25.232L233.913 25.6384L231.715 27.8409L232.283 30.9005L229.509 29.4908L226.776 30.9756L227.26 27.9013L225.002 25.7592L228.075 25.2696L229.414 22.4595L230.828 25.232Z" fill="#F99746"/>
<path d="M257.235 25.232L260.32 25.6384L258.121 27.8409L258.688 30.9005L255.915 29.4908L253.182 30.9756L253.666 27.9013L251.408 25.7592L254.481 25.2696L255.82 22.4595L257.235 25.232Z" fill="#F99746"/>
<path d="M230.828 71.4813L233.913 71.8877L231.715 74.0902L232.283 77.1511L229.509 75.7401L226.776 77.2263L227.26 74.1506L225.002 72.0084L228.075 71.5189L229.414 68.7087L230.828 71.4813Z" fill="#F99746"/>
<path d="M257.235 71.4813L260.32 71.8877L258.121 74.0902L258.688 77.1511L255.915 75.7401L253.182 77.2263L253.666 74.1506L251.408 72.0084L254.481 71.5189L255.82 68.7087L257.235 71.4813Z" fill="#F99746"/>
<path d="M217.346 49.0958L220.429 49.5009L218.232 51.7047L218.799 54.7643L216.027 53.3532L213.292 54.8394L213.777 51.7651L211.52 49.6229L214.592 49.1333L215.93 46.3232L217.346 49.0958Z" fill="#F99746"/>
<path d="M271.18 49.0958L274.265 49.5009L272.066 51.7047L272.635 54.7643L269.861 53.3532L267.127 54.8394L267.611 51.7651L265.354 49.6229L268.426 49.1333L269.766 46.3232L271.18 49.0958Z" fill="#F99746"/>
<path d="M51.6325 123.438C51.7464 123.551 51.7478 123.736 51.6338 123.851C51.5199 123.966 51.3362 123.967 51.2209 123.853C51.107 123.74 51.1056 123.555 51.2196 123.44C51.3335 123.326 51.5185 123.324 51.6325 123.438Z" fill="#D5E5FB"/>
<path d="M50.6839 124.396C50.7978 124.51 50.7992 124.694 50.6852 124.809C50.5713 124.923 50.3876 124.925 50.2736 124.811C50.1597 124.697 50.1583 124.513 50.2723 124.397C50.3849 124.285 50.5699 124.283 50.6839 124.396Z" fill="#D5E5FB"/>
<path d="M49.3091 125.37C49.423 125.256 49.6067 125.255 49.7207 125.369C49.8346 125.481 49.836 125.666 49.722 125.782C49.608 125.896 49.4244 125.897 49.3091 125.783C49.1965 125.669 49.1965 125.484 49.3091 125.37Z" fill="#D5E5FB"/>
<path d="M48.7594 126.34C48.8734 126.452 48.8747 126.637 48.7608 126.753C48.6468 126.867 48.4632 126.868 48.3479 126.754C48.2339 126.641 48.2326 126.456 48.3465 126.342C48.4605 126.227 48.6455 126.226 48.7594 126.34Z" fill="#D5E5FB"/>
<path d="M47.8108 127.298C47.9248 127.412 47.9261 127.596 47.8122 127.712C47.6982 127.826 47.5145 127.827 47.4006 127.713C47.2866 127.599 47.2853 127.415 47.3992 127.3C47.5119 127.186 47.6969 127.184 47.8108 127.298Z" fill="#D5E5FB"/>
<path d="M46.4365 128.271C46.5505 128.157 46.7341 128.156 46.8481 128.27C46.9621 128.384 46.9634 128.568 46.8494 128.683C46.7355 128.797 46.5518 128.798 46.4365 128.684C46.3239 128.57 46.3226 128.387 46.4365 128.271Z" fill="#D5E5FB"/>
<path d="M45.9254 129.202C46.0394 129.315 46.0407 129.5 45.9268 129.615C45.8128 129.729 45.6292 129.731 45.5139 129.617C45.3999 129.504 45.3986 129.319 45.5125 129.205C45.6265 129.089 45.8101 129.089 45.9254 129.202Z" fill="#D5E5FB"/>
<path d="M44.9768 130.161C45.0908 130.275 45.0921 130.459 44.9782 130.574C44.8642 130.688 44.6806 130.69 44.5666 130.576C44.4527 130.462 44.4513 130.278 44.5653 130.163C44.6779 130.049 44.8615 130.047 44.9768 130.161Z" fill="#D5E5FB"/>
<path d="M43.6024 131.134C43.715 131.02 43.9 131.018 44.014 131.132C44.1279 131.246 44.1293 131.43 44.0153 131.546C43.9027 131.66 43.7177 131.661 43.6037 131.547C43.4898 131.433 43.4884 131.249 43.6024 131.134Z" fill="#D5E5FB"/>
<path d="M43.0524 132.103C43.1664 132.216 43.1677 132.401 43.0537 132.517C42.9398 132.631 42.7561 132.632 42.6408 132.518C42.5269 132.404 42.5255 132.22 42.6395 132.105C42.7534 131.991 42.9371 131.991 43.0524 132.103Z" fill="#D5E5FB"/>
<path d="M42.1038 133.063C42.2178 133.175 42.2191 133.36 42.1051 133.474C41.9912 133.588 41.8075 133.59 41.6936 133.476C41.5796 133.363 41.5783 133.178 41.6922 133.063C41.8048 132.95 41.9885 132.949 42.1038 133.063Z" fill="#D5E5FB"/>
<path d="M40.7295 134.036C40.8435 133.922 41.0271 133.921 41.1411 134.035C41.255 134.149 41.2564 134.333 41.1424 134.448C41.0285 134.562 40.8448 134.563 40.7295 134.449C40.6169 134.335 40.6155 134.15 40.7295 134.036Z" fill="#D5E5FB"/>
<path d="M64.757 118.029C65.3279 114.563 62.9823 111.29 59.518 110.719C56.0536 110.148 52.7823 112.495 52.2114 115.961C51.6405 119.427 53.9862 122.7 57.4505 123.271C60.9149 123.842 64.1861 121.496 64.757 118.029Z" fill="#C6DCF7"/>
<path d="M56.4414 114.442C56.4414 113.314 57.3544 112.4 58.4819 112.4C59.608 112.4 60.5223 113.314 60.5223 114.442C60.5223 115.568 59.6094 116.483 58.4819 116.483C57.3557 116.483 56.4414 115.568 56.4414 114.442Z" fill="#EBF3FA"/>
<path d="M58.4823 116.483C56.5102 116.483 54.9121 118.082 54.9121 120.055H62.0537C62.0537 118.082 60.4543 116.483 58.4823 116.483Z" fill="#EBF3FA"/>
<path d="M35.4676 136.621L35.2316 136.037C34.9796 135.411 34.3723 135.002 33.6979 135.002H29.3516V137.761V149.539H47.3283V137.761H37.1555C36.4128 137.761 35.7451 137.31 35.4676 136.621Z" fill="#C6DCF7"/>
<path d="M41.0286 141.638H40.428C40.4455 141.541 40.4548 141.44 40.4548 141.338V141.133C40.4548 140.186 39.684 139.415 38.7375 139.415H37.681C36.7346 139.415 35.9637 140.186 35.9637 141.133V141.338C35.9637 141.44 35.9731 141.541 35.9905 141.638H35.3228C34.9743 141.638 34.6914 141.922 34.6914 142.272V145.029C34.6914 146.591 35.9556 147.856 37.5161 147.856H39.1839C40.6506 147.856 41.8384 146.667 41.8384 145.2V142.449C41.8384 142.002 41.4764 141.638 41.0286 141.638ZM38.4667 144.415V145.696C38.4667 145.807 38.3755 145.897 38.2642 145.897C38.153 145.897 38.0618 145.806 38.0618 145.696V144.415C37.6448 144.323 37.3325 143.951 37.3325 143.506C37.3325 142.991 37.7494 142.573 38.2642 142.573C38.779 142.573 39.196 142.991 39.196 143.506C39.1973 143.951 38.885 144.323 38.4667 144.415ZM39.7684 141.338C39.7684 141.443 39.7523 141.543 39.7242 141.638H36.697C36.6675 141.543 36.6514 141.443 36.6514 141.338V141.133C36.6514 140.564 37.114 140.101 37.6824 140.101H38.7388C39.3073 140.101 39.7698 140.564 39.7698 141.133V141.338H39.7684Z" fill="#EBF3FA"/>
<path d="M88.1423 135.492C88.1423 135.492 88.4815 131.791 84.3483 131.791C84.3483 131.791 85.6004 132.13 86.2493 132.81C86.2493 132.81 83.6136 131.262 80.7446 133.642C77.8756 136.021 79.6587 141.989 78.7859 143.121C77.9132 144.255 74.516 144.481 74.9316 148.144C75.3472 151.808 85.7144 156.396 85.0481 159.428C85.0481 159.428 89.1102 153.452 86.2051 150.725C86.2051 150.725 87.6208 152.06 87.7656 153.647C87.7656 153.647 88.1503 150.549 86.1796 149.56C84.4367 148.682 83.009 145.476 83.1591 144.904C83.3106 144.328 88.1423 135.492 88.1423 135.492Z" fill="#2C3A64"/>
<path d="M84.0733 153.262C84.0733 153.262 87.1608 166.043 90.192 168.599C92.0139 170.134 97.4315 173.66 97.4315 173.66L95.1778 174.478C95.1778 174.478 87.6635 171.939 85.981 169.96C84.2985 167.982 79.6934 158.065 79.6934 158.065L84.0733 153.262Z" fill="#FFB27D"/>
<path d="M101.902 178.33L101.177 176.532C100.399 174.605 98.5288 173.343 96.4508 173.343H83.0645V181.842V218.125H138.441V181.842H107.102C104.815 181.842 102.757 180.452 101.902 178.33Z" fill="#F99746"/>
<path d="M55.0503 175.717C55.0771 175.765 55.1066 175.816 55.1347 175.867C55.8104 177.042 57.3602 179.922 59.0682 183.073C59.8753 184.568 60.7212 186.124 61.5229 187.588C62.9051 190.115 64.1627 192.366 64.896 193.555C65.6427 194.765 66.1911 195.614 66.4136 195.954C66.4149 195.955 66.4149 195.955 66.4149 195.955C66.482 196.06 66.4967 196.183 66.4873 196.305C66.4096 197.372 66.431 198.431 66.5356 199.473C67.5652 209.725 74.4749 215.218 74.4749 215.218L76.5288 215.521C76.5288 215.521 73.6223 204.746 72.7656 198.654C72.6208 197.621 72.5578 196.784 72.6087 196.239C72.7602 194.653 72.4787 192.323 71.9451 189.647C70.9959 184.893 69.2571 179.057 67.7449 174.386C67.6497 174.089 64.7606 163.633 64.7606 163.633C62.3354 165.753 53.4924 166.628 53.4924 166.628C53.4924 166.628 51.9936 170.278 55.0503 175.717Z" fill="#2F539B"/>
<path d="M80.841 218.125H72.2676C72.2676 218.125 72.0625 216.817 72.5103 215.826C72.9393 214.873 73.5506 214.844 72.588 213.352C73.1323 213.913 74.8845 214.146 76.1233 213.979C76.2748 214.226 77.102 215.878 77.6101 216.243C78.1705 216.644 80.6681 216.5 80.841 218.125Z" fill="#233862"/>
<path d="M55.0508 175.717C55.0776 175.765 55.1071 175.816 55.1352 175.867C55.8109 177.042 59.4655 183.796 61.1722 186.947C59.1934 178.803 60.5702 170.66 60.5702 170.66L55.0508 175.717Z" fill="#233862"/>
<path d="M86.9716 134.971C87.0279 134.746 82.0742 137.211 81.8235 137.489C79.5001 140.067 80.1624 143.431 81.4923 143.463C82.345 143.485 82.1801 144.902 82.1801 144.902L91.6759 140.884C91.6759 140.882 90.5323 134.212 86.9716 134.971Z" fill="#2C3A64"/>
<path d="M83.7811 151.342C83.7811 151.342 85.2263 154.23 85.0454 156.575C85.0454 156.575 83.3025 159.327 78.7832 160.023C78.7845 160.023 82.6697 151.341 83.7811 151.342Z" fill="#739AF0"/>
<path d="M61.7351 167.269L61.7646 165.665C58.5699 166.067 50.7485 161.845 50.7485 161.845C50.7485 161.845 47.4063 164.069 46.9491 170.421C46.7252 173.521 45.3135 186.633 45.1567 190.548C45.099 191.967 45.0803 192.98 45.0749 193.385C45.0762 193.388 45.0749 193.388 45.0749 193.389C45.0736 193.512 45.0146 193.621 44.9395 193.719C44.2786 194.56 43.7048 195.451 43.2087 196.374C38.3341 205.449 40.8827 217.78 40.8827 217.78L42.0142 217.492C42.0142 217.492 46.1367 204.709 48.8301 199.178C49.2872 198.241 49.7028 197.511 50.05 197.088C51.0636 195.857 52.1307 193.767 53.1845 191.251C55.174 186.496 61.7351 167.269 61.7351 167.269Z" fill="#2F539B"/>
<path d="M47.6985 218.125H39.125C39.125 218.125 38.9199 216.817 39.3677 215.826C39.7967 214.873 40.4683 214.441 40.3075 213.289C40.8518 213.85 41.7406 214.479 42.9794 214.313C43.1309 214.559 43.9594 215.878 44.4675 216.241C45.0279 216.644 47.5255 216.5 47.6985 218.125Z" fill="#233862"/>
<path d="M78.2046 161.866C77.0529 162.062 78.3922 162.978 76.8089 163.151C74.554 163.398 72.2266 163.566 71.008 164.053C70.5629 164.23 70.2652 164.45 70.1727 164.73C69.6445 166.32 66.2969 169.052 66.2969 169.052C51.3675 168.372 50.4062 161.715 50.4062 161.715C60.0951 152.3 68.3387 147.168 75.1506 146.532C76.8089 146.378 79.0438 146.586 80.0922 147.053C82.4745 148.114 83.7803 151.344 83.7803 151.344C83.7803 151.344 82.5804 161.119 78.2046 161.866Z" fill="#739AF0"/>
<path d="M76.8084 163.15C74.5535 163.397 72.2261 163.565 71.0075 164.052C70.5087 156.602 74.0226 150.999 74.0226 150.999C74.0226 150.999 76.3151 160.332 76.8084 163.15Z" fill="#5A7DE0"/>
<path d="M78.7542 149.738C78.7542 149.738 73.0846 149.428 72.0778 152.989C71.0709 156.551 73.9681 170.765 74.5915 172.232C75.7283 174.903 81.4596 182.858 81.4596 182.858L83.2963 181.906C83.2963 181.906 79.6068 170.261 78.7823 169.108C77.4899 167.299 80.4514 151.287 78.7542 149.738Z" fill="#FFB27D"/>
<path d="M83.2976 181.906C83.2976 181.906 83.7722 182.319 84.1529 182.785C84.5337 183.251 84.1985 183.419 85.2938 185.53C85.2938 185.53 85.2375 185.824 85.0002 185.77C84.7629 185.717 83.9357 184.899 83.5121 184.958C83.5121 184.958 83.2091 185.207 83.1756 186.035C83.1448 186.809 83.1421 188.52 83.008 188.842C82.8739 189.164 81.8899 187.494 81.4046 186.287C80.9796 185.228 81.3939 181.659 81.3939 181.659L83.2976 181.906Z" fill="#FFB27D"/>
<path d="M70.9609 157.751C70.9757 157.834 76.3262 158.736 79.6725 157.036C79.6725 157.036 82.4677 148.273 78.4726 148.693C74.4775 149.113 72.1126 150.371 72.0107 152.285C71.9101 154.199 70.9609 157.751 70.9609 157.751Z" fill="#739AF0"/>
<path d="M79.9654 147.666C80.0231 148.375 80.1142 149.206 81.0419 150.161C81.7525 150.893 82.7794 151.464 83.5007 150.743C83.868 150.375 84.3654 149.827 84.6161 149.395C85.2395 148.323 85.9822 147.227 85.9822 147.227L82.7741 144.414L82.5823 144.247C81.7418 145.715 80.9159 146.421 80.192 146.96C79.9721 147.122 79.9426 147.393 79.9654 147.666Z" fill="#FFB27D"/>
<path d="M85.98 147.228C85.98 147.228 85.2386 148.322 84.6152 149.395C82.6203 148.165 82.619 145.694 82.7718 144.414L85.98 147.228Z" fill="#ED985F"/>
<path d="M86.0715 148.637C86.0715 148.637 81.2291 145.941 82.9531 142.949C84.6772 139.958 85.2135 137.595 88.3787 139.19C91.544 140.784 91.481 142.269 91.1485 143.408C90.8147 144.547 87.3759 149.262 86.0715 148.637Z" fill="#FFB27D"/>
<path d="M91.9649 141.664C91.7437 140.336 91.0693 140.209 90.5988 140.298C88.8103 137.339 85.8891 138.493 85.8891 138.493C84.3286 140.453 82.0723 140.787 82.0723 140.787C82.0723 140.787 82.634 141.833 84.9493 142.481C85.6572 142.678 86.4589 142.559 87.2337 142.299C85.6277 143.195 83.9478 143.538 83.9478 143.538C86.9991 143.817 89.9016 141.027 90.2033 140.728C90.344 141.16 90.5907 142.065 90.4433 142.728C90.2422 143.628 89.4445 145.257 89.9311 145.468C89.9298 145.467 92.2974 143.656 91.9649 141.664Z" fill="#2C3A64"/>
<path d="M98.3182 173.665C98.3182 173.665 96.9668 174.679 97.9857 175.341C99.0046 176.004 100.823 176.184 100.829 175.749C100.855 174.29 100.127 173.25 98.3182 173.665Z" fill="#FFB27D"/>
<path d="M118.726 193.73H116.981C117.031 193.445 117.06 193.154 117.06 192.857V192.26C117.06 189.507 114.822 187.269 112.071 187.269H109.005C106.254 187.269 104.018 189.507 104.018 192.26V192.857C104.018 193.154 104.045 193.445 104.096 193.73H102.156C101.142 193.73 100.32 194.552 100.32 195.567V203.578C100.32 208.112 103.994 211.787 108.525 211.787H113.369C117.627 211.787 121.078 208.334 121.078 204.074V196.084C121.076 194.783 120.025 193.73 118.726 193.73ZM111.284 201.791V205.512C111.284 205.834 111.02 206.098 110.697 206.098C110.374 206.098 110.11 205.834 110.11 205.512V201.791C108.896 201.523 107.99 200.443 107.99 199.147C107.99 197.652 109.202 196.439 110.697 196.439C112.192 196.439 113.404 197.652 113.404 199.147C113.405 200.443 112.497 201.523 111.284 201.791ZM115.065 192.857C115.065 193.16 115.019 193.453 114.935 193.73H106.141C106.057 193.453 106.01 193.16 106.01 192.857V192.26C106.01 190.607 107.353 189.264 109.004 189.264H112.07C113.721 189.264 115.063 190.608 115.063 192.26V192.857H115.065Z" fill="#FFDAA4"/>
<path d="M323.639 218.204L256.422 218.203C247.051 207.428 247.438 194.309 260.225 182.397C262.52 180.259 266.527 177.957 269.762 177.184C275.726 175.761 282.488 175.434 282.54 175.406C282.56 175.398 290.057 174.354 292.196 171.751C298.838 163.668 300.546 162.51 300.546 162.51C307.318 161.186 313.094 160.797 317.376 163.193C317.376 163.194 317.376 163.194 317.377 163.196C321.344 165.418 324.029 170.032 325.035 178.514C325.225 180.117 325.356 181.859 325.424 183.749C325.669 190.631 327.019 196.753 327.821 201.938C327.822 201.938 327.822 201.939 327.822 201.939C328.983 209.449 329.803 215.159 323.639 218.204Z" fill="#F99746"/>
<path d="M314.021 171.792C309.912 174.031 309.457 181.408 303.028 183.313C296.597 185.219 285.681 185.045 279.489 191.765C273.515 198.249 266.927 181.753 269.764 177.114C275.727 175.697 282.489 175.371 282.541 175.342C282.561 175.334 291.713 175.297 293.851 172.706C300.494 164.659 300.548 162.505 300.548 162.505C307.319 161.186 313.095 160.8 317.377 163.184C317.377 163.185 317.377 163.185 317.378 163.186C322.094 168.065 318.13 169.554 314.021 171.792Z" fill="#ED7D2B"/>
<path d="M327.821 201.753C318.391 189.976 299.018 206.03 294.006 205.578C289.397 205.161 302.993 189.065 319.855 186.669C326.671 185.701 325.038 178.653 325.035 178.436C325.225 180.032 325.357 181.767 325.424 183.648C325.669 190.499 327.019 196.592 327.821 201.753Z" fill="#ED7D2B"/>
<path d="M275.226 208.164C274.567 209.436 274.418 211.775 274.222 212.569C274.027 213.362 270.57 216.059 270.274 215.924C269.518 215.583 270.241 214.264 270.702 213.301C270.721 213.262 270.738 213.224 270.757 213.186C271.213 212.215 270.821 210.049 271.056 208.93C271.292 207.811 270.157 204.799 270.157 204.799L272.067 202.385C272.067 202.385 273.409 204.939 274.368 205.405C274.537 205.488 274.696 205.587 274.836 205.703C275.487 206.241 275.768 207.118 275.226 208.164Z" fill="#FFB27D"/>
<path d="M300.813 143.997C298.972 144.151 297.255 144.979 295.921 146.257C295.078 147.066 294.142 148.171 293.564 149.491C292.305 152.367 292.738 155.712 292.018 157.549C291.298 159.385 290.867 159.704 292.018 160.536C293.17 161.367 293.363 162.159 291.986 163.04C290.609 163.921 289.593 166.667 293.434 166.906C297.275 167.145 304.72 165.75 305.677 165.039C306.634 164.329 309.248 163.272 310.5 161.37C313.006 157.57 311.01 155.016 309.075 154.372C306.129 153.393 307.212 143.46 300.813 143.997Z" fill="#163560"/>
<path d="M295.77 159.917C295.77 159.917 291.962 168.518 291.169 169.267C290.375 170.015 286.66 171.476 286.994 172.729C287.328 173.981 290.124 175.193 291.293 174.9C292.462 174.608 295.425 169.555 295.425 169.555L295.77 159.917Z" fill="#739AF0"/>
<path d="M287.305 173.481C287.305 173.481 287.511 172.002 291.119 171.524C293.122 171.26 296.472 165.67 296.472 165.67L293.122 174.482L289.875 175.886L287.305 173.481Z" fill="#5A7DE0"/>
<path d="M288.772 176.262C288.772 176.262 269.977 174.946 267.402 177.93C265.359 180.298 269.079 206.167 269.079 206.167C269.079 206.167 274.194 206.316 274.596 204.961C274.596 204.961 273.641 192.402 274.44 190.23C275.239 188.059 274.734 185.053 274.734 185.053C274.734 185.053 284.741 186.552 287.915 185.792C291.091 185.03 288.772 176.262 288.772 176.262Z" fill="#233862"/>
<path d="M268.515 215.615C267.192 216.161 265.57 217.853 264.909 218.333C264.248 218.813 259.868 218.641 259.729 218.347C259.357 217.57 260.888 217.016 261.862 216.568C261.877 216.561 261.89 216.554 261.905 216.547L261.907 216.545C262.87 216.061 263.946 214.2 264.835 213.508C265.736 212.805 266.813 209.772 266.813 209.772L269.827 209.161C269.827 209.161 269.206 211.979 269.639 212.953C269.679 213.045 269.714 213.138 269.742 213.232C270.02 214.137 269.715 215.12 268.515 215.615Z" fill="#FFB27D"/>
<path d="M297.033 177.179C297.033 177.179 276.527 179.264 274.725 181.357C272.923 183.451 265.838 210.682 265.838 210.682C265.838 210.682 267.931 211.849 269.833 210.758C269.833 210.758 275.259 201.521 277.66 198.621C280.059 195.721 280.913 188.146 282.194 187.332C282.537 187.113 294.601 188.471 299.027 185.073C303.451 181.677 297.033 177.179 297.033 177.179Z" fill="#2A4E96"/>
<path d="M305.973 177.217C305.446 178.228 304.872 179.177 304.261 180.031C302.726 182.172 300.948 183.712 299.023 184.111C296.225 184.692 286.847 179.246 287.322 176.242C287.579 174.607 292.792 171.668 293.632 170.481C294.472 169.295 294.979 163.347 295.426 160.92C295.76 159.113 296.88 158.925 298.279 158.445C304.222 156.407 308.453 158.563 308.453 158.563C311.172 160.095 309.66 170.159 305.973 177.217Z" fill="#739AF0"/>
<path d="M305.686 152.374C305.686 152.374 306.005 150.916 306.132 149.358C306.224 148.246 304.536 144.622 301.915 144.772C301.915 144.772 300.743 145 299.703 145.856C298.876 146.536 297.72 147.946 299.48 151.349L299.963 152.509L305.686 152.374Z" fill="#163560"/>
<path d="M300.374 158.231C300.46 158.852 301.012 159.206 302.243 159.127C303.489 159.047 305.258 158.292 305.112 157.715C304.983 157.21 304.427 156.027 304.201 153.019L303.975 153.082L300.166 154.152C300.166 154.152 300.35 155.363 300.442 156.512C300.52 157.476 300.33 157.916 300.374 158.231Z" fill="#FFB27D"/>
<path d="M300.164 154.153C300.164 154.153 300.348 155.365 300.44 156.513C302.601 156.282 303.589 154.215 303.973 153.083L300.164 154.153Z" fill="#F4A269"/>
<path d="M300.086 155.916C300.086 155.916 305.07 154.662 304.242 151.569C303.413 148.475 303.499 146.23 300.281 146.899C297.064 147.569 296.765 148.914 296.79 150.014C296.815 151.114 298.768 156.161 300.086 155.916Z" fill="#FFB27D"/>
<path d="M298 147.432C298 147.432 299.673 150.623 302.83 150.966C304.678 151.168 305.185 152.386 305.185 152.386C305.185 152.386 304.631 148.903 303.702 146.773C303.7 146.773 298.56 145.429 298 147.432Z" fill="#163560"/>
<path d="M298.57 147.855C298.57 147.855 297.478 148.969 297.142 149.754C296.643 150.917 297.615 153.369 298.017 153.897C298.017 153.897 295.698 149.96 296.473 148.256C297.295 146.447 298.57 147.855 298.57 147.855Z" fill="#163560"/>
<path d="M283.367 176.569C283.367 176.569 282.375 177.62 282.254 177.677C281.597 177.984 280.769 177.806 280.368 177.906C279.967 178.007 280.037 177.757 280.332 177.555C280.627 177.352 281.355 177.431 281.057 177.358C280.76 177.284 279.156 176.985 278.551 177.146C277.596 177.402 276.841 177.101 276.78 177.003C276.72 176.906 278.964 175.808 279.605 175.846C280.246 175.883 282.089 175.795 282.089 175.795L283.367 176.569Z" fill="#FFB27D"/>
<path d="M310.137 160.504C310.137 160.504 310.734 175.13 309.015 177.181C307.349 179.168 300.231 177.819 297.156 177.151C297.007 177.119 296.692 177.15 296.47 177.35C296.23 177.566 296.125 175.886 296.125 175.886C296.125 175.886 305.409 174.527 306.032 174.35C306.929 174.097 306.305 164.025 306.305 164.025L310.137 160.504Z" fill="#FFB27D"/>
<path d="M296.85 176.954C296.85 176.954 296.017 177.797 295.701 178.228C295.385 178.659 293.172 179.439 293.123 179.209C293.073 178.978 294.112 178.275 294.207 178.013C294.303 177.752 295.435 176.436 296.126 176.286C296.816 176.136 296.85 176.954 296.85 176.954Z" fill="#FFB27D"/>
<path d="M296.126 175.885C296.126 175.885 292.716 176.673 292.136 176.911C291.557 177.147 290.329 178.887 290.817 179.147C291.124 179.312 292.47 178.601 293.154 178.452C293.838 178.305 295.774 178.64 296.66 176.889C296.758 176.692 296.126 175.885 296.126 175.885Z" fill="#FFB27D"/>
<path d="M268.515 215.615C267.192 216.161 265.57 217.852 264.909 218.333C264.248 218.813 259.868 218.641 259.729 218.347C259.357 217.569 260.888 217.015 261.862 216.567C261.877 216.561 261.89 216.554 261.905 216.547L261.907 216.545L262.044 216.5C262.044 216.5 263.933 217.175 265.503 216.5C266.728 215.974 268.545 214.024 269.743 213.231C270.02 214.137 269.715 215.12 268.515 215.615Z" fill="#2A4E96"/>
<path d="M275.226 208.164C274.567 209.436 274.418 211.775 274.222 212.569C274.027 213.362 270.57 216.059 270.274 215.924C269.518 215.583 270.241 214.265 270.702 213.302C270.974 213.284 271.333 213.19 271.757 212.909C272.62 212.333 274.086 210.16 274.217 208.876C274.324 207.832 274.257 206.333 274.836 205.703C275.487 206.241 275.768 207.118 275.226 208.164Z" fill="#193B72"/>
<path d="M291.727 179.588H276.868L272.398 168.467H287.234L291.727 179.588Z" fill="#EF8035"/>
<path d="M276.693 179.154H296.314V179.588H276.868L276.693 179.154Z" fill="#ED7D2B"/>
<path d="M280.618 174.027C280.507 173.635 280.732 173.319 281.122 173.319C281.512 173.319 281.92 173.635 282.033 174.027C282.145 174.417 281.919 174.735 281.529 174.735C281.138 174.735 280.73 174.419 280.618 174.027Z" fill="white"/>
<path d="M305.973 177.217C305.446 178.228 304.872 179.176 304.261 180.031C299.499 179.852 298.35 177.927 298.35 177.927L305.973 177.217Z" fill="#5A7DE0"/>
<path d="M298.572 175.397C298.572 175.397 304.009 174.148 304.684 172.98C305.36 171.81 306.305 164.023 306.305 164.023L308.573 166.933L308.115 173.779C308.115 173.779 305.528 176.341 305.36 176.247C305.194 176.153 298.572 175.397 298.572 175.397Z" fill="#5A7DE0"/>
<path d="M308.452 158.564C308.452 158.564 309.741 159.212 310.238 160.121C311.183 161.849 312.193 175.237 309.506 177.449C306.821 179.661 299.025 179.219 298.108 177.654C298.108 177.654 298.044 176.185 298.57 175.396C298.57 175.396 305.587 174.468 305.901 174.027C306.214 173.584 305.675 164.1 306.006 163.239C306.338 162.376 308.452 158.564 308.452 158.564Z" fill="#739AF0"/>
<path d="M309.621 177.302C309.621 177.302 307.595 179.202 299.119 179.474C292.491 179.687 285.51 182.361 282.249 186.952C281.34 188.233 280.711 190.342 280.47 191.762C280.027 194.372 296.557 198.43 296.823 198.052C297.088 197.673 307.71 188.543 307.71 188.543L309.621 177.302Z" fill="#F99746"/>
<path d="M232.979 124.939C232.979 124.939 241.222 133.49 241.611 136.708C242.001 139.926 237.663 144.951 237.663 144.951L232.979 124.939Z" fill="#ED7D2B"/>
<path d="M229.253 213.559C229.253 213.559 228.962 218.094 228.085 218.158C227.969 218.167 223.636 218.157 223.636 218.157L218.105 218.113C218.105 218.113 218.144 216.78 219.761 216.502C221.378 216.223 224.086 215.092 225.07 212.957C226.106 210.71 229.253 213.559 229.253 213.559Z" fill="#0E2644"/>
<path d="M241.571 213.586C241.571 213.586 241.28 218.122 240.404 218.185C240.287 218.193 235.954 218.184 235.954 218.184L230.424 218.139C230.424 218.139 230.463 216.806 232.08 216.528C233.696 216.25 236.404 215.12 237.388 212.983C238.425 210.737 241.571 213.586 241.571 213.586Z" fill="#0E2644"/>
<path d="M223.234 164.793C223.234 164.793 224.661 174.052 230.021 190.494C235.381 206.936 236.101 214.052 236.101 214.052L241.889 213.902C241.889 213.902 241.978 195.945 239.51 187.679C237.04 179.411 239.038 157.892 239.038 157.892L223.234 164.793Z" fill="#163560"/>
<path d="M220.432 158.357C220.432 158.357 220.198 172.304 222.572 189.435C224.946 206.565 224.114 213.832 224.114 213.832L229.89 214.038C229.89 214.038 233.38 196.913 232.408 188.34C231.438 179.766 237.2 158.937 237.2 158.937L220.432 158.357Z" fill="#1C468A"/>
<path d="M231.685 125.743L228.603 127.755L224.156 126.915C224.218 126.555 224.516 125.068 224.786 123.72C224.802 123.641 224.819 123.56 224.835 123.482C225.067 122.336 225.266 121.35 225.266 121.35L229.425 119.524L230.976 118.844C230.972 118.868 230.853 120.117 230.837 120.299C230.538 123.54 231.685 125.743 231.685 125.743Z" fill="#FFB27D"/>
<path d="M225.301 124.71C225.386 124.674 230.661 123.128 231.233 123.319C231.805 123.509 232.142 124.619 232.142 124.619L223.518 126.55C223.516 126.55 224.199 125.171 225.301 124.71Z" fill="#ED7D2B"/>
<path d="M239.415 160.121C238.512 164.196 223.643 164.648 219.82 160.938C219.384 160.516 219.368 158.552 219.538 155.907C219.871 150.737 220.92 142.961 220.97 138.988C220.994 137.069 221.261 135.108 221.616 133.327C222.371 129.529 223.517 126.552 223.517 126.552C223.517 126.552 230.783 124.219 232.142 124.621C238.683 126.558 240.317 156.045 239.415 160.121Z" fill="#F99746"/>
<path d="M219.539 155.907C219.872 150.737 220.921 142.961 220.971 138.988C220.995 137.069 221.262 135.108 221.617 133.327L225.988 132.565C225.986 132.563 230.22 150.026 219.539 155.907Z" fill="#ED7D2B"/>
<path d="M221.92 148.705C221.92 148.705 222.216 149.417 221.59 149.895C220.964 150.372 220.556 151.145 220.698 151.711C220.84 152.277 222.21 153.204 222.686 153.056C223.162 152.909 224.132 152.164 224.028 151.867C223.925 151.569 224.685 149.248 223.528 148.351C222.369 147.455 221.92 148.705 221.92 148.705Z" fill="#FFB27D"/>
<path d="M226.855 125.51C226.855 125.51 222.593 126.299 219.188 131.297C215.783 136.295 213.541 140.012 214.162 141.816C214.783 143.62 220.47 149.889 221.452 149.892C222.435 149.895 224.022 149.182 224.115 147.574C224.115 147.574 220.114 141.548 220.908 140.647C221.247 140.263 226.127 136.316 226.819 138.106C227.964 141.066 226.855 125.51 226.855 125.51Z" fill="#F99746"/>
<path d="M230.524 120.357C229.608 121.901 226.206 123.232 224.787 123.72C224.803 123.641 224.819 123.56 224.835 123.482C225.067 122.336 225.267 121.35 225.267 121.35L229.426 119.524C230.343 119.515 230.9 119.723 230.524 120.357Z" fill="#FCA56B"/>
<path d="M223.7 121.095C223.7 121.095 230.387 123.198 231.633 119.01C232.878 114.822 234.579 112.275 230.362 110.754C226.144 109.234 224.836 110.584 224.081 111.881C223.326 113.178 221.992 120.44 223.7 121.095Z" fill="#FFB27D"/>
<path d="M224.346 111.479C224.346 111.479 224.762 116.356 225.771 116.145C226.779 115.936 227.694 115.78 227.544 117.251C227.393 118.721 225.991 120.413 229.097 120.68C232.202 120.947 236.685 112.943 235.835 111.424C233.381 107.04 220.8 106.129 224.346 111.479Z" fill="#163560"/>
<path d="M278.305 98.8149C278.181 98.9383 278.179 99.1395 278.303 99.2642C278.426 99.389 278.627 99.3903 278.752 99.2669C278.876 99.1435 278.878 98.9423 278.754 98.8176C278.631 98.6928 278.43 98.6915 278.305 98.8149Z" fill="#D5E5FB"/>
<path d="M279.338 99.8598C279.214 99.9832 279.212 100.184 279.336 100.309C279.459 100.434 279.66 100.435 279.785 100.312C279.91 100.188 279.911 99.9872 279.788 99.8625C279.664 99.7364 279.463 99.7364 279.338 99.8598Z" fill="#D5E5FB"/>
<path d="M280.837 100.919C280.713 100.795 280.512 100.793 280.387 100.917C280.263 101.04 280.261 101.241 280.385 101.366C280.508 101.491 280.709 101.492 280.834 101.369C280.959 101.244 280.96 101.043 280.837 100.919Z" fill="#D5E5FB"/>
<path d="M281.432 101.974C281.308 102.097 281.306 102.298 281.43 102.423C281.553 102.548 281.754 102.549 281.879 102.426C282.003 102.302 282.005 102.101 281.881 101.976C281.758 101.851 281.557 101.85 281.432 101.974Z" fill="#D5E5FB"/>
<path d="M282.465 103.018C282.341 103.142 282.339 103.343 282.463 103.468C282.586 103.593 282.787 103.594 282.912 103.471C283.037 103.347 283.038 103.146 282.915 103.021C282.791 102.895 282.59 102.895 282.465 103.018Z" fill="#D5E5FB"/>
<path d="M283.963 104.078C283.84 103.953 283.639 103.952 283.514 104.075C283.39 104.199 283.388 104.4 283.512 104.525C283.635 104.649 283.836 104.651 283.961 104.527C284.085 104.403 284.087 104.201 283.963 104.078Z" fill="#D5E5FB"/>
<path d="M284.52 105.091C284.395 105.214 284.394 105.416 284.517 105.54C284.641 105.665 284.842 105.666 284.967 105.543C285.091 105.42 285.093 105.218 284.969 105.094C284.846 104.969 284.645 104.968 284.52 105.091Z" fill="#D5E5FB"/>
<path d="M285.553 106.135C285.429 106.258 285.427 106.459 285.551 106.584C285.674 106.709 285.875 106.71 286 106.587C286.125 106.463 286.126 106.262 286.003 106.137C285.879 106.013 285.678 106.011 285.553 106.135Z" fill="#D5E5FB"/>
<path d="M287.051 107.194C286.928 107.069 286.727 107.068 286.602 107.191C286.477 107.315 286.476 107.516 286.599 107.641C286.723 107.765 286.924 107.767 287.049 107.643C287.173 107.52 287.175 107.319 287.051 107.194Z" fill="#D5E5FB"/>
<path d="M287.647 108.25C287.522 108.373 287.521 108.575 287.644 108.699C287.768 108.824 287.969 108.825 288.094 108.702C288.218 108.579 288.22 108.377 288.096 108.253C287.973 108.128 287.772 108.127 287.647 108.25Z" fill="#D5E5FB"/>
<path d="M288.68 109.294C288.556 109.417 288.554 109.618 288.678 109.743C288.801 109.868 289.002 109.869 289.127 109.746C289.251 109.622 289.253 109.421 289.129 109.296C289.006 109.172 288.805 109.17 288.68 109.294Z" fill="#D5E5FB"/>
<path d="M290.178 110.353C290.055 110.228 289.854 110.227 289.729 110.351C289.604 110.474 289.603 110.675 289.726 110.8C289.85 110.925 290.051 110.926 290.176 110.803C290.3 110.679 290.302 110.478 290.178 110.353Z" fill="#D5E5FB"/>
<path d="M265.731 102.038C265.56 101.999 265.39 102.105 265.35 102.277C265.311 102.447 265.417 102.618 265.588 102.658C265.759 102.697 265.929 102.591 265.969 102.419C266.008 102.248 265.901 102.077 265.731 102.038Z" fill="#D5E5FB"/>
<path d="M265.4 103.469C265.23 103.431 265.06 103.537 265.02 103.708C264.981 103.879 265.087 104.049 265.258 104.089C265.429 104.128 265.599 104.022 265.639 103.85C265.678 103.679 265.571 103.508 265.4 103.469Z" fill="#D5E5FB"/>
<path d="M265.305 105.3C265.344 105.13 265.238 104.96 265.066 104.919C264.896 104.881 264.726 104.986 264.686 105.158C264.647 105.329 264.753 105.499 264.924 105.539C265.096 105.578 265.266 105.472 265.305 105.3Z" fill="#D5E5FB"/>
<path d="M264.734 106.371C264.564 106.332 264.394 106.438 264.354 106.61C264.315 106.78 264.421 106.95 264.592 106.991C264.763 107.029 264.933 106.923 264.973 106.752C265.012 106.581 264.905 106.41 264.734 106.371Z" fill="#D5E5FB"/>
<path d="M264.404 107.803C264.234 107.765 264.064 107.871 264.024 108.042C263.985 108.213 264.091 108.383 264.262 108.423C264.433 108.462 264.603 108.356 264.643 108.184C264.682 108.013 264.576 107.842 264.404 107.803Z" fill="#D5E5FB"/>
<path d="M264.309 109.634C264.348 109.464 264.242 109.294 264.07 109.253C263.9 109.215 263.73 109.32 263.69 109.492C263.651 109.662 263.757 109.833 263.928 109.873C264.099 109.912 264.269 109.805 264.309 109.634Z" fill="#D5E5FB"/>
<path d="M263.75 110.645C263.58 110.607 263.41 110.713 263.369 110.884C263.33 111.055 263.436 111.225 263.608 111.265C263.778 111.304 263.949 111.198 263.989 111.026C264.028 110.856 263.922 110.686 263.75 110.645Z" fill="#D5E5FB"/>
<path d="M263.42 112.078C263.25 112.039 263.08 112.145 263.039 112.317C263 112.487 263.106 112.658 263.278 112.698C263.448 112.737 263.618 112.631 263.659 112.459C263.698 112.287 263.592 112.117 263.42 112.078Z" fill="#D5E5FB"/>
<path d="M263.325 113.909C263.364 113.739 263.258 113.568 263.086 113.528C262.916 113.489 262.746 113.595 262.705 113.767C262.666 113.937 262.772 114.108 262.944 114.148C263.116 114.187 263.286 114.081 263.325 113.909Z" fill="#D5E5FB"/>
<path d="M262.752 114.979C262.582 114.941 262.412 115.047 262.371 115.218C262.332 115.389 262.438 115.559 262.61 115.599C262.78 115.638 262.95 115.532 262.991 115.36C263.028 115.189 262.922 115.018 262.752 114.979Z" fill="#D5E5FB"/>
<path d="M262.424 116.411C262.254 116.372 262.083 116.478 262.043 116.649C262.004 116.82 262.11 116.99 262.282 117.03C262.452 117.069 262.622 116.963 262.663 116.792C262.701 116.621 262.594 116.451 262.424 116.411Z" fill="#D5E5FB"/>
<path d="M262.327 118.243C262.365 118.073 262.26 117.902 262.088 117.862C261.918 117.823 261.747 117.929 261.707 118.101C261.668 118.271 261.774 118.441 261.946 118.482C262.117 118.521 262.288 118.413 262.327 118.243Z" fill="#D5E5FB"/>
<path d="M277.769 91.7997C277.769 87.9756 274.67 84.8757 270.848 84.8757C267.026 84.8757 263.928 87.9756 263.928 91.7997C263.928 95.6239 267.026 98.7237 270.848 98.7237C274.67 98.7237 277.769 95.6239 277.769 91.7997Z" fill="#C6DCF7"/>
<path d="M273.068 89.0205C273.068 87.7931 272.073 86.7979 270.846 86.7979C269.62 86.7979 268.625 87.7931 268.625 89.0205C268.625 90.2478 269.62 91.2431 270.846 91.2431C272.074 91.2431 273.068 90.2491 273.068 89.0205Z" fill="#EBF3FA"/>
<path d="M270.847 91.2429C272.994 91.2429 274.735 92.984 274.735 95.1328H266.961C266.96 92.984 268.7 91.2429 270.847 91.2429Z" fill="#EBF3FA"/>
<path d="M287.714 113.169L287.458 112.533C287.183 111.851 286.522 111.405 285.788 111.405H281.057V114.408V127.231H300.629V114.408H289.554C288.744 114.409 288.017 113.918 287.714 113.169Z" fill="#C6DCF7"/>
<path d="M293.77 118.632H293.116C293.135 118.526 293.145 118.416 293.145 118.305V118.081C293.145 117.049 292.306 116.209 291.275 116.209H290.126C289.095 116.209 288.256 117.049 288.256 118.081V118.305C288.256 118.416 288.267 118.526 288.285 118.632H287.559C287.179 118.632 286.871 118.94 286.871 119.32V122.322C286.871 124.021 288.248 125.399 289.947 125.399H291.762C293.359 125.399 294.651 124.105 294.651 122.508V119.513C294.651 119.026 294.257 118.632 293.77 118.632ZM290.98 121.653V123.048C290.98 123.168 290.881 123.268 290.76 123.268C290.64 123.268 290.54 123.168 290.54 123.048V121.653C290.086 121.552 289.745 121.147 289.745 120.661C289.745 120.101 290.2 119.646 290.76 119.646C291.321 119.646 291.775 120.101 291.775 120.661C291.775 121.148 291.435 121.553 290.98 121.653ZM292.397 118.305C292.397 118.419 292.38 118.529 292.349 118.632H289.054C289.022 118.529 289.004 118.419 289.004 118.305V118.081C289.004 117.461 289.507 116.958 290.126 116.958H291.275C291.895 116.958 292.397 117.461 292.397 118.081V118.305Z" fill="#EBF3FA"/>
<path d="M254.613 128.072C254.613 131.609 260.599 138.064 260.599 138.064C260.599 138.064 266.584 131.608 266.584 128.072C266.584 124.538 263.905 121.671 260.599 121.671C257.293 121.671 254.613 124.536 254.613 128.072ZM257.126 127.423C257.126 125.505 258.679 123.948 260.599 123.948C262.516 123.948 264.073 125.504 264.073 127.423C264.073 129.343 262.518 130.898 260.599 130.898C258.679 130.898 257.126 129.343 257.126 127.423Z" fill="#C6DCF7"/>
<path d="M349.587 219.06H0.412919C0.185009 219.06 0 218.873 0 218.647V218.464C0 218.236 0.18635 218.051 0.412919 218.051H349.587C349.815 218.051 350 218.237 350 218.464V218.647C350 218.873 349.814 219.06 349.587 219.06Z" fill="#233862"/>
<path d="M116.345 125.555C116.197 124.945 116.464 124.464 117.03 124.464C117.593 124.463 118.086 124.935 118.236 125.552C118.384 126.163 118.12 126.643 117.551 126.643C116.982 126.644 116.494 126.172 116.345 125.555ZM117.755 125.552C117.663 125.17 117.404 124.882 117.125 124.882C116.845 124.882 116.731 125.162 116.825 125.554C116.919 125.939 117.172 126.224 117.455 126.224C117.738 126.224 117.849 125.941 117.755 125.552Z" fill="#F99746"/>
<path d="M108.17 109.726L107.822 109.817L107.633 109.437L108.2 109.256H108.519L109.032 111.378L108.57 111.379L108.17 109.726Z" fill="#2F539B"/>
<path d="M109.829 110.321C109.682 109.711 109.948 109.231 110.514 109.231C111.077 109.229 111.571 109.702 111.721 110.319C111.868 110.929 111.604 111.409 111.036 111.409C110.466 111.41 109.978 110.938 109.829 110.321ZM111.239 110.32C111.147 109.938 110.888 109.649 110.609 109.649C110.329 109.649 110.215 109.93 110.309 110.321C110.402 110.706 110.656 110.992 110.939 110.992C111.222 110.991 111.333 110.708 111.239 110.32Z" fill="#2F539B"/>
<path d="M119.796 139.631C119.648 139.02 119.915 138.54 120.481 138.54C121.044 138.539 121.537 139.011 121.688 139.628C121.835 140.238 121.571 140.719 121.002 140.719C120.434 140.719 119.946 140.248 119.796 139.631ZM121.208 139.628C121.115 139.246 120.856 138.957 120.578 138.957C120.297 138.957 120.183 139.238 120.277 139.629C120.371 140.014 120.626 140.3 120.907 140.3C121.19 140.299 121.301 140.016 121.208 139.628Z" fill="#2F539B"/>
<path d="M110.569 119.637L110.22 119.728L110.031 119.348L110.598 119.167H110.917L111.431 121.289H110.968L110.569 119.637Z" fill="#2F539B"/>
<path d="M112.23 120.234C112.082 119.623 112.349 119.143 112.915 119.143C113.478 119.142 113.971 119.614 114.121 120.231C114.269 120.841 114.005 121.321 113.436 121.321C112.866 121.321 112.378 120.849 112.23 120.234ZM113.64 120.231C113.547 119.849 113.289 119.56 113.01 119.56C112.73 119.56 112.616 119.841 112.709 120.232C112.803 120.617 113.057 120.903 113.34 120.903C113.622 120.902 113.734 120.619 113.64 120.231Z" fill="#2F539B"/>
<path d="M111.952 114.651L111.603 114.742L111.414 114.362L111.981 114.181H112.3L112.814 116.303L112.351 116.305L111.952 114.651Z" fill="#F99746"/>
<path d="M113.608 115.247C113.461 114.636 113.728 114.156 114.293 114.156C114.857 114.155 115.35 114.627 115.5 115.244C115.648 115.854 115.383 116.334 114.815 116.334C114.247 116.336 113.759 115.864 113.608 115.247ZM115.02 115.245C114.928 114.863 114.669 114.575 114.39 114.575C114.11 114.575 113.996 114.855 114.09 115.247C114.184 115.631 114.438 115.917 114.72 115.917C115.003 115.916 115.114 115.633 115.02 115.245Z" fill="#F99746"/>
<path d="M111.858 124.963L111.509 125.054L111.32 124.675L111.887 124.494H112.206L112.72 126.616H112.257L111.858 124.963Z" fill="#2F539B"/>
<path d="M113.517 125.56C113.369 124.95 113.636 124.47 114.202 124.47C114.765 124.468 115.258 124.941 115.408 125.558C115.556 126.168 115.292 126.648 114.723 126.648C114.155 126.648 113.667 126.176 113.517 125.56ZM114.928 125.558C114.836 125.175 114.577 124.887 114.298 124.887C114.018 124.887 113.904 125.167 113.998 125.559C114.092 125.944 114.345 126.23 114.628 126.23C114.911 126.228 115.022 125.945 114.928 125.558Z" fill="#2F539B"/>
<path d="M117.851 110.32C117.703 109.709 117.97 109.229 118.536 109.229C119.099 109.228 119.592 109.7 119.742 110.317C119.89 110.927 119.626 111.408 119.057 111.408C118.489 111.408 118.001 110.935 117.851 110.32ZM119.262 110.317C119.17 109.935 118.911 109.646 118.632 109.646C118.352 109.646 118.238 109.927 118.332 110.318C118.426 110.703 118.68 110.989 118.962 110.989C119.245 110.988 119.356 110.705 119.262 110.317Z" fill="#F99746"/>
<path d="M113.364 109.728L113.015 109.819L112.826 109.44L113.393 109.259H113.712L114.226 111.379L113.763 111.381L113.364 109.728Z" fill="#2F539B"/>
<path d="M115.022 110.324C114.875 109.714 115.142 109.233 115.708 109.233C116.271 109.232 116.764 109.704 116.914 110.321C117.062 110.932 116.797 111.412 116.229 111.412C115.661 111.413 115.171 110.941 115.022 110.324ZM116.433 110.321C116.34 109.939 116.082 109.651 115.803 109.651C115.523 109.651 115.409 109.931 115.502 110.323C115.596 110.708 115.851 110.993 116.133 110.993C116.417 110.993 116.527 110.71 116.433 110.321Z" fill="#2F539B"/>
<path d="M118.808 135.843C118.66 135.233 118.927 134.752 119.493 134.752C120.056 134.751 120.549 135.223 120.699 135.84C120.847 136.451 120.583 136.931 120.014 136.931C119.446 136.931 118.958 136.46 118.808 135.843ZM120.219 135.842C120.127 135.459 119.868 135.171 119.589 135.171C119.309 135.171 119.195 135.451 119.289 135.843C119.383 136.228 119.636 136.514 119.919 136.514C120.202 136.512 120.313 136.229 120.219 135.842Z" fill="#F99746"/>
<path d="M113.032 129.926L112.683 130.017L112.494 129.638L113.061 129.457H113.38L113.894 131.579L113.431 131.58L113.032 129.926Z" fill="#2F539B"/>
<path d="M114.69 130.522C114.543 129.911 114.81 129.431 115.376 129.431C115.939 129.43 116.432 129.902 116.582 130.519C116.73 131.129 116.465 131.609 115.897 131.609C115.327 131.611 114.839 131.139 114.69 130.522ZM116.101 130.519C116.008 130.137 115.75 129.848 115.471 129.848C115.19 129.848 115.077 130.129 115.17 130.52C115.264 130.905 115.519 131.191 115.8 131.191C116.083 131.191 116.195 130.908 116.101 130.519Z" fill="#2F539B"/>
<path d="M117.519 130.518C117.371 129.907 117.638 129.427 118.204 129.427C118.767 129.426 119.26 129.898 119.41 130.515C119.558 131.125 119.294 131.606 118.725 131.606C118.157 131.606 117.667 131.133 117.519 130.518ZM118.929 130.515C118.836 130.133 118.578 129.844 118.299 129.844C118.019 129.844 117.905 130.125 117.999 130.516C118.092 130.901 118.347 131.187 118.629 131.187C118.913 131.186 119.023 130.903 118.929 130.515Z" fill="#2F539B"/>
<path d="M120.563 129.913L120.214 130.004L120.025 129.624L120.592 129.443H120.912L121.425 131.565L120.963 131.566L120.563 129.913Z" fill="#2F539B"/>
<path d="M114.321 135.251L113.972 135.342L113.783 134.963L114.35 134.782H114.669L115.183 136.904L114.72 136.905L114.321 135.251Z" fill="#2F539B"/>
<path d="M115.98 135.848C115.832 135.238 116.099 134.758 116.665 134.758C117.228 134.756 117.721 135.228 117.871 135.845C118.019 136.456 117.755 136.936 117.186 136.936C116.618 136.937 116.13 136.465 115.98 135.848ZM117.391 135.845C117.299 135.463 117.04 135.175 116.761 135.175C116.481 135.175 116.367 135.455 116.461 135.847C116.555 136.232 116.808 136.517 117.091 136.517C117.374 136.517 117.485 136.234 117.391 135.845Z" fill="#2F539B"/>
<path d="M121.31 147.653C121.162 147.043 121.429 146.563 121.995 146.563C122.558 146.561 123.051 147.034 123.201 147.651C123.349 148.261 123.085 148.741 122.516 148.741C121.946 148.742 121.458 148.27 121.31 147.653ZM122.72 147.651C122.627 147.268 122.369 146.98 122.09 146.98C121.81 146.98 121.696 147.26 121.79 147.652C121.883 148.037 122.137 148.323 122.42 148.323C122.703 148.323 122.814 148.04 122.72 147.651Z" fill="#2F539B"/>
<path d="M124.352 147.05L124.003 147.141L123.814 146.761L124.382 146.58H124.701L125.214 148.702L124.752 148.704L124.352 147.05Z" fill="#2F539B"/>
<path d="M116.823 147.062L116.474 147.153L116.285 146.774L116.852 146.593H117.171L117.685 148.715L117.222 148.716L116.823 147.062Z" fill="#2F539B"/>
<path d="M118.48 147.659C118.332 147.048 118.599 146.568 119.165 146.568C119.728 146.567 120.221 147.039 120.371 147.656C120.519 148.266 120.255 148.746 119.686 148.746C119.118 148.746 118.63 148.274 118.48 147.659ZM119.891 147.656C119.799 147.274 119.54 146.985 119.261 146.985C118.981 146.985 118.867 147.266 118.961 147.657C119.055 148.042 119.309 148.328 119.591 148.328C119.874 148.327 119.985 148.044 119.891 147.656Z" fill="#2F539B"/>
<path d="M126.013 147.645C125.865 147.035 126.132 146.555 126.698 146.555C127.261 146.553 127.754 147.026 127.904 147.643C128.052 148.253 127.788 148.733 127.219 148.733C126.651 148.734 126.163 148.262 126.013 147.645ZM127.424 147.643C127.332 147.26 127.073 146.972 126.794 146.972C126.514 146.972 126.4 147.252 126.494 147.644C126.588 148.029 126.843 148.315 127.124 148.315C127.407 148.315 127.518 148.032 127.424 147.643Z" fill="#F99746"/>
<path d="M128.841 147.641C128.693 147.031 128.96 146.551 129.526 146.551C130.089 146.549 130.582 147.021 130.732 147.638C130.88 148.249 130.616 148.729 130.047 148.729C129.478 148.729 128.99 148.257 128.841 147.641ZM130.251 147.638C130.159 147.256 129.9 146.968 129.621 146.968C129.341 146.968 129.227 147.248 129.321 147.64C129.415 148.025 129.668 148.31 129.951 148.31C130.234 148.309 130.345 148.026 130.251 147.638Z" fill="#F99746"/>
<path d="M117.813 151.452C117.666 150.842 117.933 150.361 118.499 150.361C119.062 150.36 119.555 150.832 119.705 151.449C119.853 152.059 119.589 152.54 119.02 152.54C118.452 152.541 117.964 152.069 117.813 151.452ZM119.225 151.449C119.133 151.067 118.874 150.778 118.595 150.778C118.315 150.778 118.201 151.059 118.295 151.451C118.389 151.835 118.642 152.121 118.925 152.121C119.208 152.121 119.319 151.838 119.225 151.449Z" fill="#2F539B"/>
<path d="M120.86 150.848L120.511 150.94L120.322 150.56L120.889 150.379H121.208L121.722 152.501H121.259L120.86 150.848Z" fill="#2F539B"/>
<path d="M122.519 151.444C122.371 150.834 122.638 150.354 123.204 150.354C123.767 150.352 124.26 150.824 124.41 151.441C124.558 152.052 124.294 152.532 123.725 152.532C123.157 152.533 122.669 152.061 122.519 151.444ZM123.93 151.443C123.838 151.06 123.579 150.772 123.3 150.772C123.02 150.772 122.906 151.052 123 151.444C123.094 151.829 123.347 152.115 123.63 152.115C123.913 152.113 124.024 151.83 123.93 151.443Z" fill="#2F539B"/>
<path d="M125.347 151.44C125.199 150.83 125.466 150.349 126.032 150.349C126.595 150.348 127.088 150.82 127.238 151.437C127.386 152.048 127.122 152.528 126.553 152.528C125.985 152.528 125.497 152.057 125.347 151.44ZM126.758 151.437C126.666 151.055 126.407 150.767 126.128 150.767C125.848 150.767 125.734 151.047 125.828 151.439C125.92 151.824 126.175 152.109 126.458 152.109C126.741 152.108 126.852 151.825 126.758 151.437Z" fill="#2F539B"/>
<path d="M206.856 147.653C206.709 147.043 206.976 146.563 207.542 146.563C208.105 146.561 208.598 147.034 208.748 147.651C208.896 148.261 208.632 148.741 208.063 148.741C207.495 148.742 207.007 148.27 206.856 147.653ZM208.268 147.651C208.176 147.268 207.917 146.98 207.638 146.98C207.358 146.98 207.244 147.26 207.338 147.652C207.43 148.037 207.685 148.323 207.968 148.323C208.251 148.323 208.362 148.04 208.268 147.651Z" fill="#2F539B"/>
<path d="M209.901 147.05L209.552 147.141L209.363 146.761L209.93 146.58H210.249L210.763 148.702L210.3 148.704L209.901 147.05Z" fill="#2F539B"/>
<path d="M202.37 147.062L202.021 147.153L201.832 146.774L202.399 146.593H202.718L203.232 148.715L202.769 148.716L202.37 147.062Z" fill="#2F539B"/>
<path d="M204.028 147.659C203.881 147.048 204.148 146.568 204.713 146.568C205.276 146.567 205.77 147.039 205.92 147.656C206.067 148.266 205.803 148.746 205.235 148.746C204.666 148.746 204.177 148.274 204.028 147.659ZM205.439 147.656C205.346 147.274 205.087 146.985 204.807 146.985C204.527 146.985 204.413 147.266 204.507 147.657C204.601 148.042 204.856 148.328 205.137 148.328C205.423 148.327 205.533 148.044 205.439 147.656Z" fill="#2F539B"/>
<path d="M211.562 147.645C211.414 147.035 211.681 146.555 212.247 146.555C212.81 146.553 213.303 147.026 213.453 147.643C213.601 148.253 213.337 148.733 212.768 148.733C212.198 148.734 211.71 148.262 211.562 147.645ZM212.972 147.643C212.879 147.26 212.621 146.972 212.34 146.972C212.06 146.972 211.946 147.252 212.04 147.644C212.134 148.029 212.387 148.315 212.67 148.315C212.956 148.315 213.066 148.032 212.972 147.643Z" fill="#F99746"/>
<path d="M214.39 147.641C214.242 147.031 214.509 146.551 215.075 146.551C215.638 146.549 216.131 147.021 216.281 147.638C216.429 148.249 216.165 148.729 215.596 148.729C215.028 148.729 214.538 148.257 214.39 147.641ZM215.801 147.638C215.709 147.256 215.45 146.968 215.171 146.968C214.891 146.968 214.777 147.248 214.871 147.64C214.965 148.025 215.218 148.31 215.501 148.31C215.784 148.309 215.895 148.026 215.801 147.638Z" fill="#F99746"/>
<path d="M195.548 151.452C195.4 150.842 195.667 150.361 196.233 150.361C196.796 150.36 197.289 150.832 197.44 151.449C197.587 152.059 197.323 152.54 196.754 152.54C196.186 152.54 195.697 152.069 195.548 151.452ZM196.958 151.449C196.866 151.067 196.607 150.778 196.328 150.778C196.048 150.778 195.934 151.059 196.028 151.451C196.122 151.835 196.375 152.121 196.658 152.121C196.941 152.121 197.052 151.838 196.958 151.449Z" fill="#2F539B"/>
<path d="M198.592 150.848L198.244 150.94L198.055 150.56L198.622 150.379H198.941L199.454 152.501H198.992L198.592 150.848Z" fill="#2F539B"/>
<path d="M200.251 151.444C200.104 150.834 200.37 150.354 200.936 150.354C201.499 150.352 201.993 150.824 202.143 151.441C202.29 152.052 202.026 152.532 201.458 152.532C200.889 152.533 200.401 152.061 200.251 151.444ZM201.663 151.443C201.57 151.06 201.311 150.772 201.033 150.772C200.752 150.772 200.638 151.052 200.732 151.444C200.826 151.829 201.08 152.115 201.362 152.115C201.645 152.113 201.757 151.83 201.663 151.443Z" fill="#2F539B"/>
<path d="M203.081 151.44C202.934 150.83 203.2 150.349 203.766 150.349C204.329 150.348 204.823 150.82 204.973 151.437C205.12 152.048 204.856 152.528 204.288 152.528C203.719 152.528 203.23 152.057 203.081 151.44ZM204.491 151.437C204.399 151.055 204.14 150.767 203.86 150.767C203.58 150.767 203.466 151.047 203.56 151.439C203.654 151.824 203.907 152.109 204.19 152.109C204.473 152.109 204.585 151.825 204.491 151.437Z" fill="#2F539B"/>
<path d="M124.899 161.395C124.752 160.785 125.019 160.305 125.584 160.305C126.148 160.303 126.641 160.775 126.791 161.393C126.939 162.003 126.674 162.483 126.106 162.483C125.536 162.484 125.048 162.012 124.899 161.395ZM126.31 161.393C126.217 161.01 125.959 160.722 125.68 160.722C125.399 160.722 125.286 161.002 125.379 161.394C125.473 161.779 125.727 162.065 126.009 162.065C126.292 162.065 126.404 161.781 126.31 161.393Z" fill="#F99746"/>
<path d="M127.946 160.792L127.597 160.883L127.408 160.503L127.975 160.322H128.294L128.808 162.444L128.345 162.446L127.946 160.792Z" fill="#F99746"/>
<path d="M119.124 155.478L118.775 155.569L118.586 155.189L119.153 155.008H119.472L119.986 157.13L119.523 157.131L119.124 155.478Z" fill="#2F539B"/>
<path d="M120.782 156.074C120.635 155.464 120.902 154.984 121.467 154.984C122.03 154.982 122.524 155.454 122.674 156.071C122.821 156.682 122.557 157.162 121.989 157.162C121.419 157.162 120.931 156.69 120.782 156.074ZM122.193 156.071C122.1 155.689 121.841 155.401 121.562 155.401C121.282 155.401 121.168 155.681 121.262 156.073C121.356 156.458 121.609 156.744 121.892 156.744C122.175 156.742 122.286 156.459 122.193 156.071Z" fill="#2F539B"/>
<path d="M123.61 156.069C123.463 155.458 123.73 154.978 124.295 154.978C124.858 154.977 125.352 155.449 125.502 156.066C125.649 156.676 125.385 157.157 124.817 157.157C124.249 157.158 123.759 156.686 123.61 156.069ZM125.021 156.066C124.928 155.684 124.669 155.395 124.391 155.395C124.11 155.395 123.996 155.676 124.09 156.067C124.184 156.452 124.439 156.738 124.72 156.738C125.005 156.738 125.115 156.455 125.021 156.066Z" fill="#2F539B"/>
<path d="M126.655 155.465L126.306 155.557L126.117 155.177L126.684 154.996H127.003L127.517 157.118L127.054 157.119L126.655 155.465Z" fill="#2F539B"/>
<path d="M201.901 155.478L201.552 155.569L201.363 155.189L201.93 155.008H202.249L202.763 157.13L202.3 157.131L201.901 155.478Z" fill="#2F539B"/>
<path d="M203.562 156.074C203.414 155.464 203.681 154.984 204.247 154.984C204.81 154.982 205.303 155.454 205.453 156.071C205.601 156.682 205.337 157.162 204.768 157.162C204.2 157.162 203.71 156.69 203.562 156.074ZM204.972 156.071C204.879 155.689 204.621 155.401 204.342 155.401C204.062 155.401 203.948 155.681 204.041 156.073C204.135 156.458 204.389 156.744 204.672 156.744C204.954 156.742 205.066 156.459 204.972 156.071Z" fill="#2F539B"/>
<path d="M206.388 156.069C206.24 155.458 206.507 154.978 207.073 154.978C207.636 154.977 208.129 155.449 208.279 156.066C208.427 156.676 208.163 157.157 207.594 157.157C207.025 157.158 206.537 156.686 206.388 156.069ZM207.798 156.066C207.706 155.684 207.447 155.395 207.168 155.395C206.888 155.395 206.774 155.676 206.868 156.067C206.962 156.452 207.215 156.738 207.498 156.738C207.781 156.738 207.892 156.455 207.798 156.066Z" fill="#2F539B"/>
<path d="M209.434 155.465L209.086 155.557L208.896 155.177L209.464 154.996H209.783L210.296 157.118L209.834 157.119L209.434 155.465Z" fill="#2F539B"/>
<path d="M120.413 160.804L120.064 160.895L119.875 160.515L120.442 160.334H120.761L121.275 162.456L120.812 162.458L120.413 160.804Z" fill="#2F539B"/>
<path d="M122.071 161.401C121.924 160.79 122.191 160.31 122.756 160.31C123.319 160.309 123.813 160.781 123.963 161.398C124.11 162.008 123.846 162.488 123.278 162.488C122.709 162.488 122.221 162.016 122.071 161.401ZM123.483 161.398C123.391 161.016 123.132 160.727 122.853 160.727C122.573 160.727 122.459 161.008 122.553 161.399C122.645 161.784 122.9 162.07 123.183 162.07C123.466 162.069 123.577 161.786 123.483 161.398Z" fill="#2F539B"/>
<path d="M129.603 161.387C129.455 160.777 129.722 160.297 130.288 160.297C130.851 160.295 131.344 160.767 131.494 161.384C131.642 161.995 131.378 162.475 130.809 162.475C130.241 162.476 129.753 162.004 129.603 161.387ZM131.014 161.384C130.922 161.002 130.663 160.714 130.384 160.714C130.104 160.714 129.99 160.994 130.084 161.386C130.178 161.771 130.431 162.056 130.714 162.056C130.997 162.056 131.108 161.773 131.014 161.384Z" fill="#2F539B"/>
<path d="M132.431 161.382C132.283 160.772 132.55 160.292 133.116 160.292C133.679 160.29 134.172 160.762 134.322 161.379C134.47 161.99 134.206 162.47 133.637 162.47C133.069 162.471 132.581 161.999 132.431 161.382ZM133.842 161.381C133.75 160.998 133.491 160.71 133.212 160.71C132.932 160.71 132.818 160.99 132.912 161.382C133.006 161.767 133.259 162.053 133.542 162.053C133.825 162.051 133.936 161.768 133.842 161.381Z" fill="#2F539B"/>
<path d="M125.991 165.157C125.844 164.546 126.111 164.066 126.676 164.066C127.239 164.065 127.733 164.537 127.883 165.154C128.03 165.764 127.766 166.245 127.198 166.245C126.628 166.245 126.14 165.772 125.991 165.157ZM127.402 165.154C127.309 164.772 127.05 164.483 126.771 164.483C126.491 164.483 126.377 164.764 126.471 165.155C126.565 165.54 126.818 165.826 127.101 165.826C127.385 165.825 127.495 165.542 127.402 165.154Z" fill="#F99746"/>
<path d="M129.034 164.552L128.685 164.643L128.496 164.263L129.063 164.082H129.382L129.896 166.204L129.433 166.205L129.034 164.552Z" fill="#F99746"/>
<path d="M123.163 165.161C123.016 164.55 123.282 164.07 123.848 164.07C124.411 164.069 124.905 164.541 125.055 165.158C125.202 165.768 124.938 166.248 124.37 166.248C123.8 166.25 123.312 165.778 123.163 165.161ZM124.573 165.158C124.481 164.776 124.222 164.487 123.943 164.487C123.663 164.487 123.549 164.768 123.643 165.159C123.737 165.544 123.99 165.83 124.273 165.83C124.556 165.83 124.667 165.547 124.573 165.158Z" fill="#2F539B"/>
<path d="M130.694 165.148C130.547 164.538 130.814 164.058 131.379 164.058C131.942 164.057 132.436 164.529 132.586 165.146C132.733 165.756 132.469 166.236 131.901 166.236C131.331 166.236 130.843 165.765 130.694 165.148ZM132.105 165.146C132.012 164.763 131.753 164.475 131.475 164.475C131.194 164.475 131.08 164.755 131.174 165.147C131.268 165.532 131.523 165.818 131.804 165.818C132.087 165.816 132.199 165.533 132.105 165.146Z" fill="#2F539B"/>
<path d="M133.522 165.143C133.375 164.533 133.642 164.052 134.208 164.052C134.771 164.051 135.264 164.523 135.414 165.14C135.562 165.751 135.297 166.231 134.729 166.231C134.159 166.232 133.671 165.76 133.522 165.143ZM134.933 165.14C134.84 164.758 134.582 164.47 134.303 164.47C134.023 164.47 133.909 164.75 134.002 165.142C134.096 165.527 134.35 165.812 134.633 165.812C134.915 165.812 135.027 165.529 134.933 165.14Z" fill="#2F539B"/>
<path d="M143.251 165.157C143.104 164.546 143.37 164.066 143.936 164.066C144.499 164.065 144.992 164.537 145.143 165.154C145.29 165.764 145.026 166.245 144.458 166.245C143.889 166.245 143.401 165.772 143.251 165.157ZM144.663 165.154C144.57 164.772 144.311 164.483 144.033 164.483C143.752 164.483 143.638 164.764 143.732 165.155C143.826 165.54 144.08 165.826 144.362 165.826C144.645 165.825 144.757 165.542 144.663 165.154Z" fill="#F99746"/>
<path d="M146.295 164.552L145.947 164.643L145.758 164.263L146.325 164.082H146.644L147.157 166.204L146.695 166.205L146.295 164.552Z" fill="#F99746"/>
<path d="M140.423 165.161C140.275 164.55 140.542 164.07 141.108 164.07C141.671 164.069 142.164 164.541 142.314 165.158C142.462 165.768 142.198 166.248 141.629 166.248C141.061 166.248 140.572 165.778 140.423 165.161ZM141.833 165.158C141.741 164.776 141.482 164.487 141.203 164.487C140.923 164.487 140.809 164.768 140.903 165.159C140.997 165.544 141.251 165.83 141.533 165.83C141.814 165.83 141.928 165.547 141.833 165.158Z" fill="#2F539B"/>
<path d="M147.956 165.148C147.809 164.538 148.075 164.058 148.641 164.058C149.204 164.057 149.698 164.529 149.848 165.146C149.995 165.756 149.731 166.236 149.163 166.236C148.594 166.236 148.105 165.765 147.956 165.148ZM149.366 165.146C149.274 164.763 149.015 164.475 148.736 164.475C148.456 164.475 148.342 164.755 148.436 165.147C148.53 165.532 148.785 165.818 149.066 165.818C149.35 165.816 149.46 165.533 149.366 165.146Z" fill="#2F539B"/>
<path d="M150.784 165.143C150.637 164.533 150.904 164.052 151.469 164.052C152.032 164.051 152.526 164.523 152.676 165.14C152.823 165.751 152.559 166.231 151.991 166.231C151.422 166.232 150.934 165.76 150.784 165.143ZM152.196 165.14C152.103 164.758 151.845 164.47 151.566 164.47C151.286 164.47 151.172 164.75 151.266 165.142C151.359 165.527 151.613 165.812 151.896 165.812C152.178 165.812 152.29 165.529 152.196 165.14Z" fill="#2F539B"/>
<path d="M182.55 165.157C182.402 164.546 182.669 164.066 183.235 164.066C183.798 164.065 184.291 164.537 184.441 165.154C184.589 165.764 184.325 166.245 183.756 166.245C183.187 166.245 182.699 165.772 182.55 165.157ZM183.96 165.154C183.868 164.772 183.609 164.483 183.33 164.483C183.05 164.483 182.936 164.764 183.03 165.155C183.124 165.54 183.377 165.826 183.66 165.826C183.943 165.825 184.054 165.542 183.96 165.154Z" fill="#F99746"/>
<path d="M185.596 164.552L185.248 164.643L185.059 164.263L185.626 164.082H185.945L186.458 166.204L185.996 166.205L185.596 164.552Z" fill="#F99746"/>
<path d="M179.722 165.161C179.574 164.55 179.841 164.07 180.407 164.07C180.97 164.069 181.463 164.541 181.613 165.158C181.761 165.768 181.497 166.248 180.928 166.248C180.36 166.248 179.872 165.778 179.722 165.161ZM181.133 165.158C181.041 164.776 180.782 164.487 180.503 164.487C180.223 164.487 180.109 164.768 180.203 165.159C180.297 165.544 180.55 165.83 180.833 165.83C181.116 165.83 181.227 165.547 181.133 165.158Z" fill="#2F539B"/>
<path d="M187.253 165.148C187.105 164.538 187.372 164.058 187.938 164.058C188.501 164.057 188.994 164.529 189.145 165.146C189.292 165.756 189.028 166.236 188.46 166.236C187.891 166.236 187.403 165.765 187.253 165.148ZM188.665 165.146C188.572 164.763 188.313 164.475 188.035 164.475C187.754 164.475 187.64 164.755 187.734 165.147C187.827 165.532 188.081 165.818 188.364 165.818C188.647 165.816 188.759 165.533 188.665 165.146Z" fill="#2F539B"/>
<path d="M190.081 165.143C189.934 164.533 190.2 164.052 190.766 164.052C191.329 164.051 191.823 164.523 191.973 165.14C192.12 165.751 191.856 166.231 191.288 166.231C190.719 166.232 190.231 165.76 190.081 165.143ZM191.493 165.14C191.4 164.758 191.142 164.47 190.863 164.47C190.582 164.47 190.469 164.75 190.562 165.142C190.656 165.527 190.91 165.812 191.192 165.812C191.475 165.812 191.587 165.529 191.493 165.14Z" fill="#2F539B"/>
<path d="M199.812 165.157C199.664 164.546 199.931 164.066 200.497 164.066C201.06 164.065 201.553 164.537 201.703 165.154C201.851 165.764 201.587 166.245 201.018 166.245C200.45 166.245 199.96 165.772 199.812 165.157ZM201.222 165.154C201.129 164.772 200.871 164.483 200.592 164.483C200.312 164.483 200.198 164.764 200.291 165.155C200.384 165.54 200.639 165.826 200.922 165.826C201.206 165.825 201.317 165.542 201.222 165.154Z" fill="#F99746"/>
<path d="M202.856 164.552L202.507 164.643L202.318 164.263L202.885 164.082H203.205L203.718 166.204L203.255 166.205L202.856 164.552Z" fill="#F99746"/>
<path d="M196.983 165.161C196.836 164.55 197.103 164.07 197.668 164.07C198.232 164.069 198.725 164.541 198.875 165.158C199.023 165.768 198.758 166.248 198.19 166.248C197.622 166.248 197.132 165.778 196.983 165.161ZM198.394 165.158C198.301 164.776 198.043 164.487 197.764 164.487C197.483 164.487 197.37 164.768 197.463 165.159C197.557 165.544 197.812 165.83 198.095 165.83C198.378 165.83 198.488 165.547 198.394 165.158Z" fill="#2F539B"/>
<path d="M204.517 165.148C204.369 164.538 204.636 164.058 205.202 164.058C205.765 164.057 206.258 164.529 206.408 165.146C206.556 165.756 206.292 166.236 205.723 166.236C205.153 166.236 204.665 165.765 204.517 165.148ZM205.927 165.146C205.835 164.763 205.576 164.475 205.296 164.475C205.015 164.475 204.901 164.755 204.995 165.147C205.089 165.532 205.342 165.818 205.625 165.818C205.91 165.816 206.021 165.533 205.927 165.146Z" fill="#2F539B"/>
<path d="M207.343 165.143C207.195 164.533 207.462 164.052 208.028 164.052C208.591 164.051 209.084 164.523 209.234 165.14C209.382 165.751 209.118 166.231 208.549 166.231C207.981 166.232 207.492 165.76 207.343 165.143ZM208.753 165.14C208.661 164.758 208.402 164.47 208.123 164.47C207.843 164.47 207.729 164.75 207.823 165.142C207.917 165.527 208.17 165.812 208.453 165.812C208.737 165.812 208.848 165.529 208.753 165.14Z" fill="#2F539B"/>
<path d="M135.261 161.378C135.113 160.767 135.38 160.287 135.946 160.287C136.509 160.286 137.002 160.758 137.152 161.375C137.3 161.985 137.036 162.465 136.467 162.465C135.898 162.467 135.41 161.995 135.261 161.378ZM136.671 161.375C136.579 160.993 136.32 160.704 136.041 160.704C135.761 160.704 135.647 160.985 135.741 161.376C135.835 161.761 136.089 162.047 136.371 162.047C136.654 162.047 136.765 161.764 136.671 161.375Z" fill="#2F539B"/>
<path d="M138.087 161.373C137.939 160.762 138.206 160.282 138.772 160.282C139.335 160.281 139.828 160.753 139.979 161.37C140.126 161.98 139.862 162.461 139.293 162.461C138.725 162.462 138.236 161.99 138.087 161.373ZM139.497 161.371C139.405 160.989 139.146 160.701 138.867 160.701C138.587 160.701 138.473 160.981 138.567 161.373C138.661 161.758 138.915 162.043 139.197 162.043C139.481 162.042 139.591 161.759 139.497 161.371Z" fill="#2F539B"/>
<path d="M189.78 161.378C189.633 160.767 189.9 160.287 190.465 160.287C191.028 160.286 191.522 160.758 191.672 161.375C191.819 161.985 191.555 162.465 190.987 162.465C190.418 162.467 189.93 161.995 189.78 161.378ZM191.192 161.375C191.099 160.993 190.841 160.704 190.562 160.704C190.282 160.704 190.168 160.985 190.262 161.376C190.355 161.761 190.609 162.047 190.892 162.047C191.175 162.047 191.286 161.764 191.192 161.375Z" fill="#2F539B"/>
<path d="M192.608 161.373C192.461 160.762 192.728 160.282 193.293 160.282C193.857 160.281 194.35 160.753 194.5 161.37C194.648 161.98 194.383 162.461 193.815 162.461C193.247 162.461 192.757 161.99 192.608 161.373ZM194.019 161.371C193.926 160.989 193.668 160.701 193.389 160.701C193.108 160.701 192.995 160.981 193.088 161.373C193.182 161.758 193.436 162.043 193.718 162.043C194.001 162.042 194.113 161.759 194.019 161.371Z" fill="#2F539B"/>
</g>
<defs>
<clipPath id="clip0">
<rect width="350" height="219.06" fill="white"/>
</clipPath>
</defs>
</svg>
