<svg width="350" height="210" viewBox="0 0 350 210" fill="none" xmlns="http://www.w3.org/2000/svg">
<g clip-path="url(#clip0)">
<path d="M21.6921 209.581L129.677 209.015L158.461 209.006L167.996 209.002L196.835 208.993L328.588 208.956C328.588 208.956 358.724 169.948 326.534 132.9C293.158 94.488 276.93 125.771 266.671 71.7016C240.847 -64.3985 -14.4671 14.816 52.5001 130.633C76.6126 172.335 5.03547 150.17 21.6921 209.581Z" fill="#DAE3FE"/>
<path d="M146.602 203.022C146.602 203.022 147.013 207.769 146.009 208.263L133.172 208.236C133.172 208.236 133.172 206.755 135.234 206.425C137.295 206.096 140.918 204.888 141.531 202.198C142.143 199.51 146.602 203.022 146.602 203.022Z" fill="#233862"/>
<path d="M183.438 201.186C183.438 201.186 183.825 207.77 182.821 208.263L169.982 208.236C169.982 208.236 169.982 206.755 172.044 206.425C174.106 206.096 177.728 204.888 178.342 202.198C178.956 199.51 183.438 201.186 183.438 201.186Z" fill="#233862"/>
<path d="M183.876 201.995C183.876 201.995 181.328 203.308 180.237 203.548C179.025 203.815 176.749 203.646 176.749 203.646C172.382 191.937 158.84 144.343 158.84 144.343C158.252 157.504 155.876 170.629 153.409 181.18C153.343 181.462 153.276 181.744 153.212 182.021V182.025C153.152 182.279 153.091 182.531 153.032 182.779C153.029 182.791 153.025 182.801 153.024 182.812C150.028 195.263 147.025 203.742 147.025 203.742C147.025 203.742 146.25 204.723 144.091 204.274C141.616 203.761 140.791 202.672 140.791 202.672C142.393 151.96 143.286 123.363 143.286 123.363C143.286 123.363 164.72 111.781 170.542 121.681C176.364 131.583 183.876 201.995 183.876 201.995Z" fill="#2A4E96"/>
<path d="M175.24 128.521C172.461 118.585 172.004 109.15 172.027 101.339C172.056 90.2218 173.054 82.3932 169.709 81.0725C169.709 81.0725 159.374 78.0676 152.261 76.7431C151.128 76.1196 149.869 75.4656 148.915 75.0778C146.67 74.1665 137.913 61.4343 136.428 58.3862C134.943 55.3381 132.486 42.0571 132.486 42.0571L129.073 43.1446C129.073 43.1446 128.048 58.0516 128.54 61.9375C129.031 65.8233 139.874 82.5313 140.774 83.9926C144.634 98.105 140.774 121.07 142.538 126.19C143.445 128.824 160.274 133.65 169.485 133.043C169.944 133.013 170.384 132.968 170.803 132.91C170.804 132.91 170.805 132.909 170.806 132.909C172.986 132.606 174.571 131.91 175.151 130.688C175.435 130.097 175.48 129.379 175.24 128.521Z" fill="#AEC3FF"/>
<path d="M132.487 42.0568C132.487 42.0568 134.416 36.4537 133.005 36.2902C131.595 36.1279 128.056 36.1444 127.62 37.0912C127.183 38.0379 129.076 43.1442 129.076 43.1442L132.487 42.0568Z" fill="#FFB27D"/>
<path d="M95.7734 56.0185L84.3906 49.134C84.8962 48.2988 85.692 47.7462 86.5701 47.5307C87.4495 47.3153 88.41 47.4331 89.2463 47.9388C89.9825 48.3837 90.9405 48.1467 91.3853 47.4116L94.4657 42.3167L97.1305 43.9288L94.05 49.0237C93.827 49.3913 93.7751 49.8158 93.8701 50.2037C93.9652 50.5915 94.2084 50.9425 94.5772 51.1643C95.4122 51.6688 95.9634 52.466 96.1801 53.3443C96.3968 54.2213 96.279 55.1833 95.7734 56.0185Z" fill="#ED7D2B"/>
<path d="M95.7761 56.0188L88.2086 51.4422C86.4561 49.9784 87.3127 48.7262 88.1921 48.5095C89.0715 48.294 90.032 48.4119 90.8684 48.9176C91.6046 49.3624 92.5626 49.1254 93.0073 48.3903L96.0878 43.2954L97.1332 43.9278L94.0527 49.0228C93.8297 49.3903 93.7778 49.8149 93.8728 50.2027C93.9678 50.5905 94.2111 50.9416 94.5799 51.1634C95.4149 51.6678 95.9661 52.465 96.1828 53.3433C96.3995 54.2216 96.2817 55.1836 95.7761 56.0188Z" fill="#F99746"/>
<path d="M129.073 22.8293L119.861 34.4437C116.659 39.7401 111.122 42.28 105.816 42.4929C105.815 42.4929 105.815 42.4929 105.814 42.4929C104.006 42.5651 102.227 42.3687 100.574 41.9175C99.2095 41.5449 97.6382 42.28 96.7753 43.7058L96.5954 44.0036C96.0606 44.8857 95.6121 45.6272 95.6121 45.6272L93.6721 44.4536C93.6721 44.4536 94.1245 43.7045 94.6617 42.8148C95.6083 41.2458 95.5563 39.3308 94.5185 38.1698C90.0848 33.2093 88.4223 25.0029 92.6622 17.9904L98.9003 4.57764L129.073 22.8293Z" fill="#F99746"/>
<path d="M90.5393 27.4174C91.292 23.0651 89.1873 20.6951 86.9609 18.1844C85.1793 16.1769 83.3381 14.1022 82.9415 11.0135C82.5018 7.58778 84.0971 4.08978 86.9102 2.31163C89.0491 0.959327 91.4124 0.916236 93.398 2.1887C96.2161 3.9998 97.2641 7.50413 96.4277 12.3227C95.8284 15.7738 94.4877 18.6888 94.4307 18.8118L92.6618 17.9918C92.7112 17.8841 97.5796 7.19488 92.3437 3.82997C90.538 2.66777 88.816 3.41299 87.9518 3.96051C85.8014 5.32042 84.5355 8.11881 84.8751 10.7664C85.1945 13.2593 86.7607 15.0236 88.4181 16.8917C90.7408 19.5088 93.3726 22.4745 92.4603 27.7507L90.5393 27.4174Z" fill="#ED7D2B"/>
<path d="M112.499 40.7014C116.003 38.0132 119.079 38.7762 122.336 39.5835C124.94 40.2286 127.634 40.8965 130.552 39.8129C133.79 38.6102 136.145 35.5735 136.414 32.2567C136.618 29.7333 135.559 27.6206 133.51 26.4533C130.598 24.7981 127.008 25.4977 123.129 28.4761C120.352 30.6091 118.394 33.1515 118.312 33.258L119.859 34.443C119.931 34.3492 127.135 25.0719 132.545 28.1466C134.413 29.2061 134.553 31.078 134.47 32.0983C134.265 34.6343 132.374 37.0551 129.873 37.9841C127.517 38.8586 125.228 38.2908 122.804 37.69C119.408 36.8485 115.559 35.8941 111.311 39.1526L112.499 40.7014Z" fill="#F99746"/>
<path d="M105.814 42.4916C104.006 42.5639 102.227 42.3674 100.575 41.9162C99.2102 41.5436 97.6389 42.2787 96.776 43.7045L96.5961 44.0024C95.9181 44.3522 95.4062 44.7945 95.1642 45.3547L93.674 44.4536C93.674 44.4536 94.1264 43.7045 94.6637 42.8148C95.6102 41.2458 95.5583 39.3308 94.5205 38.1698C90.0868 33.2093 88.4243 25.0029 92.6641 17.9904L98.9022 4.57764L103.891 7.59529C103.888 7.59529 83.6358 35.0432 105.814 42.4916Z" fill="#ED7D2B"/>
<path d="M96.8342 46.8082L91.8646 43.802C91.1905 43.3939 90.9712 42.508 91.3793 41.8337C91.7873 41.1595 92.673 40.9402 93.3471 41.3483L98.3168 44.3546C98.9909 44.7627 99.2101 45.6486 98.8021 46.3228C98.3953 46.9971 97.5096 47.2163 96.8342 46.8082Z" fill="#F99746"/>
<path d="M98.3555 30.104L98.8889 29.2219C101.416 30.5881 101.741 30.4259 102.779 28.7098L107.997 20.0789C108.732 18.8635 108.361 18.5086 107.456 17.7976L106.814 17.2463L107.289 16.4592C109.254 17.3553 111.592 18.1182 113.301 18.468L105.949 30.6274C104.882 32.3916 104.896 32.6932 107.256 34.2825L106.722 35.1646L98.3555 30.104Z" fill="white"/>
<path d="M127.615 37.0917C127.615 37.0917 127.432 39.0206 128.052 39.3844C128.67 39.7481 128.89 37.0917 128.89 37.0917C128.89 37.0917 128.926 39.2716 129.399 39.4186C129.872 39.5669 130.163 36.9092 130.163 36.9092C130.163 36.9092 130.214 39.0206 130.534 38.9471C130.855 38.8749 131.073 36.9092 131.073 36.9092C131.073 36.9092 131.219 38.4414 131.655 38.1664C132.092 37.8914 132.506 36.2463 132.506 36.2463L127.615 37.0917Z" fill="#FFB27D"/>
<path d="M132.484 42.0567C132.484 42.0567 133.802 41.0225 134.094 40.0757C134.385 39.129 135.24 37.5384 134.786 37.3458C134.331 37.1531 133.003 39.2025 133.003 39.2025L132.484 42.0567Z" fill="#FFB27D"/>
<path d="M155.343 75.2198L155.177 76.0817C155.177 76.0817 154.41 78.7292 157.648 79.7786C160.885 80.8293 163.616 81.3147 163.937 79.2184C163.956 77.5506 163.915 74.9461 164.156 73.6103C164.246 73.1134 164.383 72.5951 164.593 72.021L158.193 70.6218L156.239 70.5571L155.343 75.2198Z" fill="#FFB27D"/>
<path d="M156.24 70.5554L155.645 73.6986C161.726 75.3094 164.385 72.5947 164.594 72.0205L158.194 70.6213L156.24 70.5554Z" fill="#E2915A"/>
<path d="M165.528 70.7153C163.643 74.5491 158.462 72.9522 156.278 72.065C155.664 71.8166 155.287 71.6227 155.287 71.6227C154.626 71.2311 154.542 69.9916 154.772 68.4631C155.223 65.4378 156.892 61.2795 157.692 60.3201C158.899 58.8778 160.798 57.485 165.692 60.2479C170.586 63.0133 167.947 65.8041 165.528 70.7153Z" fill="#FFB27D"/>
<path d="M157.16 56.0186C157.16 56.0186 159.523 56.49 162.583 56.0692C165.067 55.7283 167.563 57.5724 168.336 58.3049C168.352 58.1516 168.35 57.9361 168.267 57.6978C168.267 57.6978 168.593 58.1009 168.54 58.5217C168.573 58.5647 168.585 58.5914 168.573 58.5952C168.573 58.5952 169.058 58.6408 169.317 58.8575C169.317 58.8575 169.118 58.7701 169.006 58.8816C168.995 58.893 168.98 58.9019 168.963 58.9095C171.948 61.5482 170.736 67.0968 169.27 68.0486C167.506 69.1931 164.477 72.3438 164.477 72.3438C164.477 72.3438 164.585 71.1943 165.204 69.9244C165.822 68.6557 164.668 68.3313 163.379 67.3135C162.09 66.2958 163.784 64.9346 162.797 63.5431C161.81 62.1515 156.959 61.4455 157.242 60.6724C155.683 59.5495 157.11 56.196 157.16 56.0186Z" fill="#233862"/>
<path d="M157.939 69.3033C157.939 69.3033 157.624 69.7773 156.362 69.2171C156.362 69.2171 155.301 68.7469 155.547 68.188C155.545 68.188 156.749 68.1728 157.939 69.3033Z" fill="white"/>
<path d="M156.518 82.2627C156.518 82.2627 153.598 101.637 131.764 115.092L129.727 121.012H137.607C137.607 121.012 157.163 104.609 158.474 82.8191L156.518 82.2627Z" fill="#ED7D2B"/>
<path d="M156.52 82.2623V79.3245L160.119 80.3447L158.477 82.8187L156.52 82.2623Z" fill="#DB6516"/>
<path d="M155.344 75.2195L153.238 77.0204C153.238 77.0204 152.655 79.535 154.074 82.2636L158.319 79.8366C158.319 79.8341 155.813 78.6237 155.344 75.2195Z" fill="#9DB0F4"/>
<path d="M158.318 79.8338C158.318 79.8338 158.739 82.1138 159.845 83.2418C159.845 83.2418 164.627 82.4041 165.955 80.1114L163.952 76.9822C163.952 76.9834 163.474 79.119 158.318 79.8338Z" fill="#9DB0F4"/>
<path d="M186.971 130.052C186.971 130.052 186.98 134.389 186.581 135.252C186.181 136.115 184.392 138.925 183.567 139.526C182.743 140.126 183.745 136.052 183.486 135.306C183.228 134.561 182.91 136.777 182.528 136.868C182.147 136.959 182.043 135.006 181.954 134.3C181.866 133.594 183.58 131.65 184.092 130.075C184.601 128.499 186.971 130.052 186.971 130.052Z" fill="#FFB27D"/>
<path d="M169.639 81.072C169.639 81.072 173.845 82.2177 176.695 88.4901C179.683 95.0666 187.681 109.676 187.979 111.692C188.275 113.709 187.449 132.54 187.449 132.54C187.449 132.54 183.949 132.675 182.868 131.015C182.868 131.015 181.649 114.484 181.111 113.586C180.572 112.687 166.798 96.2579 167.958 92.0895C169.117 87.9197 169.639 81.072 169.639 81.072Z" fill="#AEC3FF"/>
<path d="M175.152 130.691C174.111 131.584 172.703 132.364 170.807 132.911C170.806 132.911 170.805 132.912 170.803 132.912C170.337 133.047 169.9 133.087 169.486 133.045C161.789 132.252 162.971 102.343 166.701 100.133C170.631 97.8032 172.026 101.341 172.026 101.341C172.005 109.151 172.462 118.586 175.24 128.522C175.48 129.379 175.436 130.096 175.152 130.691Z" fill="#9DB0F4"/>
<path d="M153.029 182.78C153.08 182.546 153.14 182.294 153.209 182.025C153.15 182.279 153.089 182.531 153.029 182.78Z" fill="#233862"/>
<path d="M153.408 181.18C155.764 170.03 153.224 140.154 154.359 139.586C155.523 139.005 158.839 144.343 158.839 144.343C158.25 157.503 155.875 170.629 153.408 181.18Z" fill="#233862"/>
<path d="M95.8237 203.95L95.1445 199.06L97.997 196.676L98.8954 203.151L95.8237 203.95Z" fill="#FFB27D"/>
<path d="M105.293 208.318H93.6674C93.6674 208.318 93.3886 206.546 93.9956 205.202C94.5772 203.911 95.4832 203.116 95.5656 202.127C96.3044 202.887 97.2129 203.377 98.8944 203.151C99.1009 203.484 100.224 205.273 100.912 205.766C101.672 206.312 105.06 206.118 105.293 208.318Z" fill="#233862"/>
<path d="M102.958 137.915C102.198 144.033 101.576 149.799 101.07 155.174C98.3648 183.812 98.8957 201.318 98.8957 201.318C98.8957 201.318 98.7006 201.836 97.0229 201.844C96.0751 201.849 95.1462 201.642 95.1462 201.642C95.1462 201.642 89.088 182.94 89.5556 172.298C89.6113 171.018 89.7621 169.855 90.0282 168.853C91.4816 163.409 84.6504 142.585 92.0759 134.832C99.5002 127.078 103.308 135.108 102.958 137.915Z" fill="#F99746"/>
<path d="M102.958 137.915C102.198 144.033 101.576 149.799 101.07 155.174L89.5556 172.298C89.6113 171.018 89.7621 169.855 90.0282 168.853C91.4816 163.409 84.6504 142.585 92.0759 134.832C99.5002 127.078 103.308 135.108 102.958 137.915Z" fill="#ED7D2B"/>
<path d="M112.107 79.5667C112.107 79.5667 111.827 78.1688 111.512 77.1029C111.372 76.6314 112.345 73.5314 113.018 73.1499C113.691 72.7684 115.446 74.8558 114.949 76.4591C114.695 77.2829 114.275 79.9621 114.275 79.9621L112.107 79.5667Z" fill="#FFB27D"/>
<path d="M112.107 79.567C112.107 79.567 111.741 78.7572 111.41 78.6254C111.079 78.4936 110.724 77.1692 110.482 76.6432C110.482 76.6432 110.717 76.2997 111.127 76.7421C111.378 77.012 111.936 77.8029 111.936 77.8029L112.107 79.567Z" fill="#FFB27D"/>
<path d="M64.1149 84.2672C64.0439 84.4142 63.9451 84.6779 63.8564 84.925C63.8551 84.8578 63.8539 84.7906 63.8526 84.7247C63.8475 84.233 62.0102 81.5537 61.255 81.3852C60.4998 81.2179 59.4328 83.7273 60.3768 85.1151C60.8622 85.8274 62.0457 88.2671 62.0457 88.2671L64.0034 87.2557C64.0034 87.2557 64.1162 86.3736 64.3937 86.1518C64.6712 85.93 64.623 84.5587 64.7003 83.9858C64.7016 83.9846 64.3772 83.7248 64.1149 84.2672Z" fill="#FFB27D"/>
<path d="M76.3264 202.484C76.1616 200.916 76.1211 196.792 76.1211 196.792C76.1211 196.792 80.323 195.449 80.1684 196.372C79.4081 200.905 79.6146 203.151 79.6146 203.151L77.9154 204.166L76.3264 202.484Z" fill="#FFB27D"/>
<path d="M99.4486 137.624C99.4486 137.624 83.2177 182.122 80.0233 201.424C80.0233 201.424 79.2833 201.933 77.9021 201.764C76.3359 201.573 75.9076 200.485 75.9076 200.485C75.9076 200.485 72.9754 177.35 78.803 169.319C82.8072 163.801 77.0759 139.567 86.4021 137.624C95.727 135.681 99.4486 137.624 99.4486 137.624Z" fill="#F99746"/>
<path d="M96.5657 94.8181C96.5657 94.8168 96.5657 94.8168 96.5657 94.8168C96.5632 94.7978 96.5581 94.7775 96.5518 94.7598C96.4568 94.3682 96.3529 93.9829 96.2414 93.6001C96.2414 93.5989 96.2414 93.5989 96.2414 93.5989C95.9018 92.4291 95.4975 91.315 95.0616 90.3315C94.8107 89.7675 94.551 89.2454 94.2849 88.779C94.2443 88.7067 94.2051 88.6408 94.1658 88.5711L94.1645 88.5699C93.5373 87.5154 92.8923 86.7866 92.3107 86.561C91.2488 86.1504 90.0691 86.2645 89.2569 86.4343C89.4355 86.1859 89.8397 86.0439 89.8397 86.0439C89.3202 86.0439 88.2609 86.7157 88.2609 86.7157C80.786 85.044 81.2219 95.6204 81.7313 98.017C82.2381 100.415 79.8318 101.58 76.4371 104.032C69.9595 108.713 70.0685 113.673 70.0685 113.673C70.1268 113.697 70.1901 113.726 70.2573 113.759C70.5183 113.118 71.0708 111.903 71.6499 111.645C71.6334 111.702 71.162 113.276 71.0277 114.157C72.0148 114.701 73.3795 115.544 74.8621 116.493C74.8621 116.493 74.8621 116.493 74.8634 116.494C76.8477 117.764 79.0373 119.226 80.7911 120.412C80.7074 119.929 80.6251 119.241 80.748 118.852L81.3068 120.584L81.3803 120.81C82.5004 121.569 83.3836 122.176 83.8322 122.488C83.8778 122.519 83.9184 122.547 83.9551 122.573C84.0856 122.663 84.1566 122.712 84.1566 122.712C84.0071 122.1 84.6609 120.504 85.7583 118.492C85.833 118.351 85.9129 118.209 85.994 118.065C86.3488 117.428 86.7441 116.759 87.1686 116.067C87.3219 115.817 87.4765 115.568 87.6374 115.313C87.6374 115.312 87.6387 115.312 87.6387 115.312C87.7667 115.106 87.8972 114.904 88.0328 114.697L88.0341 114.696C88.3521 114.204 88.6803 113.71 89.0161 113.214C89.8854 111.93 90.8053 110.655 91.7138 109.487C93.0342 107.785 94.3292 106.306 95.4139 105.337C95.4494 105.264 95.4836 105.189 95.5127 105.114C95.6825 104.72 95.8131 104.282 95.9132 103.836C95.9448 103.701 95.9727 103.567 95.9968 103.433C96.2667 102.009 96.2718 100.597 96.2692 100.262C96.3567 101.637 96.3212 102.673 96.23 103.458C96.2097 103.63 96.1869 103.789 96.1603 103.937V103.938C96.102 104.273 96.0361 104.549 95.9638 104.779C96.1412 104.558 96.2971 104.316 96.4352 104.052C96.5252 103.88 96.6076 103.699 96.6811 103.509C97.5592 101.275 97.3235 97.9435 96.5657 94.8181Z" fill="#163560"/>
<path d="M95.16 105.533C95.1853 105.541 93.0667 107.073 91.2711 106.859C89.5821 106.658 88.2072 104.71 88.2288 104.702C88.8965 104.463 88.9536 103.488 88.3352 99.4285L88.6558 99.4437L94.0373 99.701C94.0373 99.701 94.1627 101.364 94.3896 102.915C94.5784 104.215 94.8407 105.438 95.16 105.533Z" fill="#FFB27D"/>
<path d="M94.0378 99.6989C94.0378 99.6989 94.1633 101.362 94.3901 102.913C91.4528 103.265 89.509 100.827 88.6562 99.4417L94.0378 99.6989Z" fill="#ED975D"/>
<path d="M88.0299 98.9543C88.0299 98.9543 86.1368 96.7591 85.4601 94.7427C84.9774 93.3029 84.9153 87.7086 90.5402 87.6795C90.5402 87.6795 92.1634 87.5996 93.8183 88.3918C95.1349 89.0217 97.1192 90.5083 95.9015 95.5792L95.6405 97.2699L88.0299 98.9543Z" fill="#163560"/>
<path d="M103.636 136.769C103.636 136.769 96.6335 140.931 87.8408 138.792C87.7368 138.766 80.6016 137.627 80.6016 137.627C80.7245 137.291 81.647 131.778 81.7673 131.47C83.3272 127.443 86.1783 105.594 88.5592 104.516C89.1674 105.179 90.906 105.632 92.3936 105.5C94.1068 105.349 94.6795 104.609 94.5376 103.812C96.4332 104.708 97.8892 105.542 97.8892 105.542C99.6226 108.137 103.636 136.769 103.636 136.769Z" fill="white"/>
<path d="M95.2318 101.022C95.2318 101.022 88.3284 102.165 87.6821 97.8547C87.0359 93.5431 85.7105 90.7877 90.091 89.8752C94.4715 88.9627 95.5764 90.4785 96.1416 91.865C96.7067 93.2516 97.0108 100.613 95.2318 101.022Z" fill="#FFB27D"/>
<path d="M93.2268 89.3002C93.2268 89.3002 92.0838 94.6409 89.2872 95.8208C86.4907 97.002 85.1133 96.4102 85.1133 96.4102C85.1133 96.4102 87.0799 94.3063 87.0837 91.1429C87.0824 91.1442 91.4388 87.1063 93.2268 89.3002Z" fill="#163560"/>
<path d="M92.8184 89.7819C92.8184 89.7819 94.401 90.7008 94.9092 91.7476C95.4173 92.7945 95.9089 95.0314 96.5565 94.8565C96.5565 94.8565 97.4726 91.2065 95.5795 89.4993C93.5711 87.6895 92.8184 89.7819 92.8184 89.7819Z" fill="#163560"/>
<path d="M114.322 79.6671C114.041 79.5682 113.628 79.3338 113.088 79.2856C112.608 79.2425 112.003 79.3984 112.003 79.3984C112.003 79.3984 110.056 91.5084 109.911 92.1509C109.767 92.7922 101.557 102.043 99.3434 102.006C97.3451 101.973 94.9768 103.516 94.5371 103.812C94.5371 103.812 99.1913 113.657 99.4245 115.506C99.6766 117.519 102.087 148.506 102.087 148.506C102.087 148.506 101.944 149.947 104.636 149.172C107.329 148.397 108.003 147.755 108.003 147.755C108.003 147.755 105.53 123.36 105.01 115.774C104.94 114.755 104.774 113.813 104.537 112.944C104.309 112.105 104.489 111.209 105.001 110.507C108.406 105.832 113.782 98.2585 114.082 96.6489C114.521 94.2827 114.322 79.6671 114.322 79.6671Z" fill="#2B478B"/>
<path d="M86.0102 208.318H74.3842C74.3842 208.318 74.1054 206.546 74.7124 205.202C75.294 203.911 76.2 203.116 76.2824 202.127C77.0211 202.887 77.9297 203.377 79.6112 203.151C79.8177 203.484 80.9404 205.273 81.6285 205.766C82.3887 206.312 85.7758 206.118 86.0102 208.318Z" fill="#233862"/>
<path d="M93.9991 116.462C93.6076 114.05 88.6049 104.367 88.6049 104.367C88.6049 104.367 85.4421 103.422 83.3615 104.176C81.2795 104.93 70.5114 98.8488 70.1654 98.2886C69.8208 97.7284 64.0528 86.9784 64.0528 86.9784C64.0528 86.9784 63.575 86.7009 62.8084 87.1014C62.0507 87.4968 62.0469 88.2686 62.0469 88.2686C62.0469 88.2686 66.4983 101.803 67.6831 103.897C68.3978 105.159 74.4015 109.556 79.057 112.847C79.9452 113.476 80.4128 114.545 80.2671 115.625C79.6411 120.254 79.4815 122.86 78.7617 130.802C78.1649 137.39 77.9356 150.146 77.9356 150.146C77.9356 150.146 83.1448 151.95 86.7397 152.188C90.3345 152.428 91.1189 148.637 91.1189 148.637C91.1189 148.637 94.4021 118.941 93.9991 116.462Z" fill="#2B478B"/>
<path d="M92.9688 98.8906C92.9688 98.8906 93.8076 99.3836 94.7972 99.2341C95.4751 99.1327 95.6297 98.3279 95.6297 98.3279C95.6297 98.3279 95.1583 98.1796 94.4056 98.3304C93.6543 98.4825 92.9688 98.8906 92.9688 98.8906Z" fill="white"/>
<path d="M227.447 97.9872C227.447 97.9872 229.591 101.522 225.559 103.747C225.559 103.747 228.658 104.865 229.738 104.443C229.738 104.443 229.47 104.722 229.266 104.823C229.266 104.823 232.18 105.749 233.632 105.243C235.084 104.737 238.21 90.6313 229.612 89.8873C229.612 89.8873 222.831 87.459 221.398 95.0279C219.963 102.598 217.352 101.863 217.352 101.863C217.352 101.863 217.985 102.398 218.336 102.497C218.336 102.497 218.9 102.46 219.074 102.228C219.074 102.228 218.857 102.611 218.688 102.704C218.688 102.704 221.438 103.744 223.122 103.158C224.806 102.573 227.419 99.6247 227.447 97.9872Z" fill="#163560"/>
<path d="M218.816 209.35H229.785C229.785 209.35 230.048 207.679 229.474 206.41C228.926 205.193 228.072 204.442 227.993 203.509C227.296 204.226 226.438 204.689 224.853 204.475C224.659 204.79 223.599 206.476 222.95 206.942C222.234 207.457 219.037 207.273 218.816 209.35Z" fill="#233862"/>
<path d="M227.879 205.159C227.879 205.159 226.943 205.462 225.967 205.549C224.239 205.703 223.988 205.19 223.988 205.19C223.988 205.19 222.271 189.904 216.714 160.683C215.911 156.462 215.596 154.126 215.306 150.375C215.22 149.252 215.135 148.002 215.042 146.537C214.79 142.599 215.388 135.971 218.343 134.23C219.686 133.436 221.516 133.654 223.978 135.592C224.171 135.744 224.371 135.909 224.572 136.084C231.773 142.314 228.821 160.209 229.112 168.622C229.162 170.016 229.299 171.15 229.586 171.928C229.958 172.933 230.756 174.326 230.937 175.639C232.446 186.549 227.879 205.159 227.879 205.159Z" fill="#2B478B"/>
<path d="M229.111 168.62L215.306 150.374C215.22 149.251 215.135 148.002 215.042 146.537C214.79 142.599 215.388 135.97 218.343 134.229L223.978 135.591C224.171 135.744 224.371 135.908 224.572 136.083C231.774 142.314 228.821 160.208 229.111 168.62Z" fill="#233862"/>
<path d="M268.13 186.261L263.564 176.285C263.564 176.285 261.935 176.741 261.02 177.791C260.142 178.797 259.505 178.618 257.506 177.229C258.259 178.393 258.361 179.078 258.826 180.609C259.194 180.655 261.284 182.679 263.427 183.237C264.281 183.46 266.15 186.925 268.13 186.261Z" fill="#233862"/>
<path d="M220.268 138.607C220.268 138.607 230.097 172.782 233.698 174.982C237.3 177.182 256.235 180.208 260.083 181.858C260.083 181.858 260.552 181.186 260.277 179.749C260.216 179.429 259.672 178.282 259.672 178.282C259.672 178.282 247.915 169.441 240.175 168.549C238.254 168.327 244.085 138.992 231.107 137.821C219.25 136.75 220.268 138.607 220.268 138.607Z" fill="#2B478B"/>
<path d="M206.246 82.5376C206.246 82.5376 206.511 81.2195 206.809 80.2132C206.94 79.7684 206.022 76.8432 205.387 76.4833C204.752 76.1233 203.096 78.0929 203.565 79.6049C203.806 80.3818 204.201 82.909 204.201 82.909L206.246 82.5376Z" fill="#FFB27D"/>
<path d="M206.246 82.5375C206.246 82.5375 206.592 81.7733 206.904 81.6491C207.215 81.5249 207.55 80.2752 207.779 79.7797C207.779 79.7797 207.557 79.4552 207.171 79.8722C206.935 80.1269 206.408 80.8722 206.408 80.8722L206.246 82.5375Z" fill="#FFB27D"/>
<path d="M251.527 86.9735C251.594 87.1129 251.688 87.36 251.77 87.5932C251.772 87.5299 251.773 87.4665 251.773 87.4044C251.777 86.9405 253.511 84.4121 254.224 84.2537C254.937 84.0952 255.943 86.4627 255.052 87.7719C254.595 88.4449 253.477 90.7452 253.477 90.7452L251.63 89.7909C251.63 89.7909 251.523 88.9582 251.261 88.7491C250.999 88.5387 251.045 87.246 250.971 86.7048C250.973 86.7061 251.279 86.4615 251.527 86.9735Z" fill="#FFB27D"/>
<path d="M222.235 107.037C222.211 107.043 224.209 108.49 225.904 108.286C227.498 108.096 228.795 106.258 228.775 106.251C228.145 106.025 228.09 105.106 228.674 101.276L228.373 101.29L223.295 101.534C223.295 101.534 223.176 103.103 222.962 104.565C222.782 105.793 222.535 106.948 222.235 107.037Z" fill="#FFB27D"/>
<path d="M223.294 101.533C223.294 101.533 223.175 103.102 222.961 104.564C225.732 104.898 227.566 102.596 228.37 101.29L223.294 101.533Z" fill="#ED975D"/>
<path d="M228.96 100.829C228.96 100.829 230.747 98.7577 231.385 96.8553C231.839 95.4967 231.899 90.2193 226.591 90.1914C226.591 90.1914 225.059 90.1153 223.498 90.8631C222.256 91.4575 220.383 92.8605 221.532 97.6449L221.778 99.2393L228.96 100.829Z" fill="#163560"/>
<path d="M215.865 137.291C215.865 137.291 220.845 140.434 229.14 138.416C229.237 138.391 233.856 137.655 233.856 137.655C233.741 137.338 228.888 129.318 228.774 129.027C227.302 125.228 230.71 107.094 228.463 106.077C227.889 106.702 226.249 107.13 224.847 107.004C223.231 106.861 222.689 106.163 222.823 105.413C221.035 106.258 219.66 107.045 219.66 107.045C218.024 109.494 215.865 137.291 215.865 137.291Z" fill="#FFB27D"/>
<path d="M222.166 102.781C222.166 102.781 228.679 103.861 229.288 99.7922C229.898 95.7252 231.149 93.1245 227.017 92.2639C222.883 91.4034 221.842 92.833 221.308 94.1422C220.773 95.4502 220.487 102.395 222.166 102.781Z" fill="#FFB27D"/>
<path d="M224.059 91.7225C224.059 91.7225 225.137 96.7617 227.775 97.8757C230.413 98.9898 231.714 98.4308 231.714 98.4308C231.714 98.4308 229.857 96.4461 229.855 93.4614C229.856 93.4614 225.745 89.6516 224.059 91.7225Z" fill="#163560"/>
<path d="M224.444 92.1754C224.444 92.1754 222.95 93.0423 222.471 94.0295C221.991 95.0168 221.529 97.1283 220.918 96.9623C220.918 96.9623 220.054 93.5175 221.84 91.9079C223.733 90.202 224.444 92.1754 224.444 92.1754Z" fill="#163560"/>
<path d="M253.055 90.7468C253.055 90.7468 248.854 103.517 247.736 105.492C247.064 106.683 239.496 111.395 235.104 114.5C235.056 114.533 235 114.602 234.936 114.702C234.935 114.704 234.933 114.706 234.931 114.708C233.835 116.404 230.427 126.898 231.242 128.781C234.667 136.697 237.015 139.759 237.869 141.98C238.296 143.088 237.726 144.328 236.608 144.726C235.201 145.227 233.128 145.858 230.682 146.278C230.216 146.359 229.735 146.431 229.244 146.493C222.494 147.35 217.923 145.766 215.603 144.595C214.506 144.041 213.843 142.889 213.911 141.662C214.051 139.157 215.303 136.678 215.868 130.656C216.296 126.086 212.353 119.131 212.52 116.699C212.586 115.737 213.342 114.586 213.752 113.84C213.752 113.84 213.752 113.839 213.753 113.837C214.478 112.517 214.876 111.324 214.393 110.663C211.181 106.253 204.244 100.172 203.961 98.6541C203.546 96.4222 203.734 82.6317 203.734 82.6317C203.999 82.5391 204.389 82.3174 204.898 82.2717C205.352 82.2312 205.921 82.3782 205.921 82.3782C205.921 82.3782 207.758 93.805 207.895 94.4095C208.032 95.0141 215.777 103.743 217.865 103.707C219.75 103.675 222.41 105.132 222.823 105.412C222.823 105.412 221.13 108.412 220.708 112.464C220.414 115.297 222.306 114.038 223.496 112.097C225.105 109.47 228.345 105.729 228.345 105.729C228.345 105.729 230.981 105.043 232.945 105.755C234.909 106.466 245.069 100.728 245.395 100.2C245.722 99.6718 251.163 89.5301 251.163 89.5301C251.163 89.5301 251.614 89.269 252.337 89.6454C253.051 90.0193 253.055 90.7468 253.055 90.7468Z" fill="#F99746"/>
<path d="M224.057 100.572C224.057 100.572 223.778 101.134 223.403 101.145C223.028 101.156 222.077 101.066 222.012 100.968C221.947 100.87 221.789 100.283 221.789 100.283C221.789 100.283 223.364 100.22 224.057 100.572Z" fill="white"/>
<path d="M236.608 144.727C235.2 145.228 233.127 145.859 230.682 146.278C228.353 143.067 224.41 139.025 225.425 131.593C226.473 123.91 234.026 115.824 234.932 114.709C233.836 116.405 230.428 126.899 231.243 128.782C234.668 136.698 237.016 139.76 237.87 141.981C238.295 143.088 237.726 144.329 236.608 144.727Z" fill="#ED7D2B"/>
<path d="M213.753 113.837C214.478 112.517 214.876 111.324 214.393 110.662C211.181 106.253 204.245 100.172 203.961 98.6538C204.649 100.304 213.049 105.233 215.411 107.352C217.747 109.444 213.848 113.735 213.753 113.837Z" fill="#ED7D2B"/>
<path d="M72.7543 53.0255C72.7543 53.0255 74.3281 55.1826 74.1596 57.6426C74.0341 59.4689 72.4071 61.3155 72.2969 61.389L74.8654 62.7591C74.8654 62.7591 76.7699 59.3764 76.1287 56.5501C75.9323 55.6845 75.0212 54.2992 74.3522 53.682C73.6147 53.0014 72.7543 53.0255 72.7543 53.0255Z" fill="#6BB7BF"/>
<path d="M67.502 53.2534L65.875 49.6565C65.875 49.6565 73.4665 49.9138 75.9817 56.0999C75.9817 56.1012 70.6699 52.3117 67.502 53.2534Z" fill="#86D1CD"/>
<path d="M38.826 144.754C38.826 144.754 37.0165 143.388 36.5502 141.346C36.203 139.83 37.0735 137.929 37.1445 137.843L34.7205 137.36C34.7205 137.36 34.002 140.578 35.2185 142.718C35.591 143.373 36.6719 144.276 37.3675 144.614C38.1316 144.985 38.826 144.754 38.826 144.754Z" fill="#6BB7BF"/>
<path d="M43.038 143.278L45.2441 145.802C45.2441 145.802 39.0098 147.459 35.4453 143.047C35.4453 143.047 40.6951 144.822 43.038 143.278Z" fill="#86D1CD"/>
<path d="M316.3 156.508C316.3 156.508 316.141 154.137 320.593 152.989C322.587 152.474 327.029 153.389 324.214 157.76C321.284 162.308 318.674 160.665 318.674 160.665C318.674 160.665 324.783 155.882 322.339 153.696C319.641 151.283 318.604 156.064 318.604 156.064C318.604 156.064 317.516 156.007 316.3 156.508Z" fill="#F1A34F"/>
<path d="M317.878 160.939C317.878 160.939 316.213 160.036 316.874 158.036L319.266 158.452C319.266 158.452 318.346 160.618 320.596 160.881C320.596 160.879 318.431 161.394 317.878 160.939Z" fill="#DB7714"/>
<path d="M161.778 33.7396C161.778 33.7396 164.265 30.1567 168.079 32.694L170.402 30.4723C170.402 30.4723 168.231 28.8247 163.226 31.7802C159.95 33.713 161.778 33.7396 161.778 33.7396Z" fill="#5685D8"/>
<path d="M159.322 37.2519C159.322 37.2519 158.83 33.1392 165.712 30.574C165.712 30.574 163.225 31.7793 162.457 35.8793L159.322 37.2519Z" fill="#739AF0"/>
<path d="M186.973 15.4405C186.973 15.4405 189.006 14.1553 189.221 12.6028C189.221 12.6028 191.201 12.7092 191.629 13.3518C191.629 13.3518 190.72 15.9208 189.649 16.4037C189.649 16.4037 187.24 16.5646 186.973 15.4405Z" fill="#F99746"/>
<path d="M121.521 162.033C121.521 162.033 119.352 160.663 119.123 159.006C119.123 159.006 117.01 159.12 116.553 159.806C116.553 159.806 117.523 162.547 118.665 163.061C118.666 163.061 121.235 163.232 121.521 162.033Z" fill="#F99746"/>
<path d="M210.582 55.9189C210.582 55.9189 212.761 54.5425 212.991 52.8784C212.991 52.8784 215.113 52.9937 215.572 53.6819C215.572 53.6819 214.597 56.4347 213.449 56.9518C213.449 56.9518 210.868 57.1241 210.582 55.9189Z" fill="#86D1CD"/>
<path d="M252.994 119.034C252.994 119.034 251.734 117.504 251.057 117.29C250.379 117.076 249.068 116.06 248.897 116.479C248.726 116.897 249.778 117.542 249.724 118.02C249.668 118.498 246.378 119.266 246.399 119.771C246.419 120.277 247.173 121.5 248.427 121.36C249.682 121.219 252.865 120.463 253.519 120.79C254.17 121.116 252.994 119.034 252.994 119.034Z" fill="#FFB27D"/>
<path d="M286.925 111.594C285.067 114.09 282.891 116.062 280.657 117.616C273.555 122.559 265.849 123.295 265.849 123.295C264.003 122.704 258.33 122.086 254.979 121.546H254.977C253.516 121.312 252.496 121.09 252.428 120.895L252.513 117.974C252.513 117.974 264.815 117.324 266.853 116.379C270.065 113.611 272.904 110.016 274.752 107.208C276.315 104.837 278.063 103.085 280.945 102.057C285.113 100.571 292.693 103.846 286.925 111.594Z" fill="#AEC3FF"/>
<path d="M281.284 115.779L280.657 117.617C273.555 122.56 265.849 123.296 265.849 123.296C264.366 123.296 258.33 122.087 254.979 121.547C255.112 121.559 264.104 122.261 266.093 122.055C268.095 121.849 277.417 113.767 277.417 113.767L281.284 115.779Z" fill="#9DB0F4"/>
<path d="M273.254 208.319H286.849C287.823 207.658 286.587 201.199 286.587 201.199C286.587 201.199 282.877 199.79 282.235 202.653C281.593 205.515 277.509 206.425 275.348 206.774C273.87 207.016 273.402 207.828 273.254 208.319Z" fill="#233862"/>
<path d="M293.416 208.319H307.012C307.987 207.658 306.75 201.199 306.75 201.199C306.75 201.199 303.04 199.79 302.399 202.653C301.756 205.515 297.672 206.425 295.512 206.774C294.032 207.016 293.564 207.828 293.416 208.319Z" fill="#233862"/>
<path d="M276.91 142.418C276.91 142.418 277.521 150.044 278.239 159.211C279.215 171.663 281.848 202.537 281.848 202.537C281.848 202.537 283.574 204.009 287.398 203.203C287.398 203.203 290.652 192.552 291.626 180.397C291.641 180.198 291.656 179.996 291.671 179.796C292.576 167.421 293.984 141.362 293.984 141.362L276.91 142.418Z" fill="#2B478B"/>
<path d="M276.703 139.783C276.703 139.783 277.523 150.044 278.241 159.211L291.628 180.397C291.643 180.198 291.658 179.996 291.673 179.796C292.578 167.421 293.986 141.362 293.986 141.362L276.703 139.783Z" fill="#233862"/>
<path d="M280.602 139.783C280.602 139.783 290.31 163.955 293.414 173.118C295.625 179.645 301.859 202.541 301.859 202.541C301.859 202.541 304.571 203.366 306.849 201.77C306.849 201.77 309.169 178.378 304.483 171.783C301.997 168.283 303.865 135.406 293.786 135.123C283.707 134.843 280.602 139.783 280.602 139.783Z" fill="#2B478B"/>
<path d="M284.94 104.149C286.423 104.93 287.869 104.979 289.123 104.712C290.27 104.471 291.256 103.964 291.957 103.516C292.676 103.056 293.1 102.654 293.1 102.654C293.1 102.654 293.049 102.581 292.965 102.438C292.527 101.689 291.2 98.9961 291.791 94.6692C291.798 94.6121 291.37 94.6933 290.722 94.8453C288.796 95.3016 284.923 96.4004 284.752 96.4486C284.748 96.4486 284.745 96.4486 284.745 96.4486C284.745 96.4486 284.698 97.3586 284.539 98.9897C284.526 99.1329 284.511 99.2837 284.496 99.4396C284.475 99.631 284.456 99.8338 284.432 100.043C284.252 101.741 284.94 104.149 284.94 104.149Z" fill="#FFB27D"/>
<path d="M284.539 98.992C287.415 99.6511 291.707 95.4041 291.707 95.4041C291.393 95.1709 291.064 94.9858 290.724 94.8464C288.798 95.3027 284.924 96.4015 284.753 96.4497C284.749 96.4497 284.747 96.4497 284.747 96.4497C284.747 96.4497 284.699 97.3609 284.539 98.992Z" fill="#ED975D"/>
<path d="M283.561 96.2216C283.561 96.2216 284.743 96.6462 286.251 96.849C288.456 97.1468 291.355 96.9706 292.266 94.3028C293.8 89.8124 295.759 87.1192 291.245 85.2853C288.828 84.3031 287.282 84.2511 286.232 84.6263C285.32 84.9495 284.782 85.5958 284.374 86.2346C283.497 87.6084 281.735 95.4346 283.561 96.2216Z" fill="#FFB27D"/>
<path d="M280.822 86.5885C283.436 88.468 287.053 86.6201 288.177 87.1208C289.299 87.6201 289.501 89.5035 289.521 90.1017C289.541 90.7011 289.62 91.2056 291.144 90.8469C291.394 90.7886 291.574 90.8051 291.698 90.8798C292.33 91.255 291.522 93.0749 291.279 93.4678C291.279 93.4678 290.928 94.7707 291.707 95.4057C291.801 95.4817 293.33 96.1496 297.016 90.5085C297.595 89.6226 298.149 87.6277 297.255 85.7076C296.361 83.7863 292.626 81.9308 289.458 80.9461C288.271 80.5772 287.391 80.5912 286.702 80.8434C285.554 81.2629 284.94 82.349 284.334 83.439C283.313 85.2704 280.822 86.5885 280.822 86.5885Z" fill="#A9453D"/>
<path d="M297.639 141.473C297.639 141.473 296.374 141.747 294.774 142.018C293.209 142.28 291.322 142.539 289.99 142.529C283.173 142.475 277.468 140.468 277.468 140.468C276.187 140.468 275.6 138.483 275.391 135.713C275.249 133.837 275.28 131.6 275.381 129.377C275.414 128.656 275.456 127.935 275.5 127.229C275.59 125.828 275.695 124.484 275.791 123.295C275.88 122.178 275.962 121.201 276.01 120.442C276.01 120.441 275.827 115.134 275.9 110.466C275.95 107.115 277.831 104.065 278.301 103.568C279.665 102.124 283.619 101.212 284.411 101.085C284.472 101.076 284.503 101.071 284.503 101.071C287.755 102.897 292.133 100.43 292.133 100.43C292.232 100.446 292.329 100.47 292.426 100.491C292.747 100.422 296.033 100.909 296.798 101.326C298.689 102.356 299.788 113.791 299.788 113.791C300.103 121.558 299.707 133.997 300.321 138.744C300.521 140.311 299.008 141.157 297.639 141.473Z" fill="#AEC3FF"/>
<path d="M292.404 100.497C292.404 100.497 287.56 105.494 284.097 104.47C284.097 104.47 283.636 103.796 285.196 103.579C286.754 103.363 288.438 103.451 292.404 100.497Z" fill="#9DB0F4"/>
<path d="M283.527 93.3216C283.527 93.3216 283.432 93.9034 284.784 94.3673C284.784 94.3673 285.918 94.7564 286.126 94.1607C286.126 94.1607 285.224 93.3014 283.527 93.3216Z" fill="white"/>
<path d="M295.062 119.402C295.062 119.402 288.027 131.171 284.035 133.243C281.336 134.644 277.558 135.381 275.393 135.713C275.251 133.838 275.282 131.601 275.383 129.378C278.242 129.03 282.597 128.478 282.597 128.478L295.062 119.402Z" fill="#9DB0F4"/>
<path d="M285.792 113.489L282.042 127.027C282.042 127.027 277.63 127.306 275.5 127.229C275.59 125.828 275.592 125.781 275.688 124.593C275.686 124.593 280.752 121.951 285.792 113.489Z" fill="#9DB0F4"/>
<path d="M263.213 128.03C263.213 128.03 261.953 126.5 261.275 126.286C260.597 126.071 259.286 125.056 259.116 125.475C258.945 125.893 259.997 126.538 259.942 127.016C259.886 127.493 256.597 128.262 256.617 128.767C256.638 129.273 257.391 130.496 258.646 130.355C259.9 130.215 263.084 129.459 263.737 129.786C264.39 130.112 263.213 128.03 263.213 128.03Z" fill="#FFB27D"/>
<path d="M300.177 109.247C300.177 109.247 300.399 116.417 284.058 130.804L280.776 124.924C280.171 124.572 291.332 100.562 294.539 100.755C300.756 101.126 300.177 109.247 300.177 109.247Z" fill="#AEC3FF"/>
<path d="M282.731 124.223C282.731 124.223 264.149 126.349 263.46 126.718C262.772 127.086 261.296 128.525 261.788 130.328C261.788 130.328 271.408 131.538 276.7 131.516C281.265 131.497 284.219 130.764 284.219 130.764L282.731 124.223Z" fill="#AEC3FF"/>
<path d="M349.57 209.351H0.429561C0.193873 209.351 0 209.158 0 208.922V208.694C0 208.459 0.192606 208.266 0.429561 208.266H349.572C349.807 208.266 350 208.459 350 208.694V208.922C350 209.157 349.807 209.351 349.57 209.351Z" fill="#2E3552"/>
</g>
<defs>
<clipPath id="clip0">
<rect width="350" height="209.581" fill="white"/>
</clipPath>
</defs>
</svg>
