<svg width="278" height="200" viewBox="0 0 278 200" fill="none" xmlns="http://www.w3.org/2000/svg">
<path d="M265.888 199.559C248.36 199.559 11.3836 199.048 11.3836 199.02C11.2854 198.79 -18.6993 162.039 19.0578 123.615C37.7666 104.576 1.87719 79.9102 19.0578 58.7316C48.4878 22.4542 77.6067 42.884 101.865 32.6821C106.152 30.8807 110.453 27.9828 114.758 23.5341C117.182 21.0324 119.837 18.8454 122.681 16.9564C123.117 16.6654 123.557 16.3816 124.002 16.106C125.704 15.0497 127.47 14.0952 129.288 13.2364C130.51 12.6604 131.753 12.1281 133.021 11.6384H133.022C135.033 10.8613 137.1 10.1906 139.21 9.62405C142.206 8.81855 145.292 8.21885 148.438 7.81314C149.81 7.63453 151.194 7.49496 152.587 7.38969C179.693 5.35167 210.196 16.8133 225.938 33.5657C229.107 36.9391 243.519 54.393 232.159 78.3843C224.986 93.5316 255.035 107.998 265.712 125.295C292.859 169.272 266.136 198.986 265.888 199.559Z" fill="#DAE3FE"/>
<g opacity="0.8">
<path opacity="0.8" d="M204.559 97.3132C203.835 99.3027 202.948 101.188 201.916 102.955C199.438 107.197 196.133 110.763 192.289 113.52C183.357 119.929 171.518 121.962 160.407 117.923C147.189 113.118 138.698 101.067 137.795 87.8848C137.674 86.1472 137.686 84.3907 137.838 82.6283C138.089 79.6689 138.733 76.6929 139.795 73.7701C140.655 71.4056 141.746 69.1914 143.034 67.1463C143.049 67.1226 143.064 67.1001 143.078 67.0765C146.655 61.4273 151.735 57.0662 157.579 54.3327C159.236 53.5567 160.956 52.9121 162.72 52.407C163.561 52.1657 164.415 51.9564 165.274 51.7813C171.303 50.5405 177.739 50.9013 183.95 53.1593C184.773 53.4586 185.578 53.7862 186.364 54.141C187.473 54.639 188.544 55.1914 189.574 55.7923C193.914 58.3224 197.545 61.7183 200.33 65.6713H200.331C202.066 68.1327 203.47 70.8083 204.51 73.6282C205.056 75.1091 205.502 76.6278 205.842 78.1762C206.053 79.1402 206.224 80.1124 206.353 81.0966C206.662 83.4587 206.726 85.8681 206.532 88.2905C206.289 91.302 205.642 94.3348 204.559 97.3132Z" fill="#D7E5FF"/>
<g opacity="0.8">
<path opacity="0.8" d="M166.446 67.0481C164.41 68.6248 164.95 72.8439 161.425 70.4664C157.9 68.0889 155.688 66.7949 154.69 68.8708C153.69 70.9466 156.814 72.0822 155.992 74.3437C155.17 76.6053 153.497 76.8442 151.735 74.9872C149.97 73.1302 149.919 71.3429 147.064 71.402C144.207 71.4612 142.989 70.2866 143.129 68.1422C143.152 67.7648 143.113 67.4384 143.035 67.1474C143.049 67.1237 143.065 67.1013 143.079 67.0776C146.656 61.4284 151.736 57.0673 157.579 54.3338C159.236 53.5579 160.956 52.9133 162.721 52.4082C163.562 52.1669 164.416 51.9575 165.275 51.7825C166.271 52.187 167.339 53.0079 167.904 54.6544C169.147 58.2774 171.164 57.4246 169.451 60.4597C167.737 63.4937 168.444 64.2388 170.313 64.7959C172.183 65.3531 174.337 66.1361 174.043 67.6146C173.749 69.0932 168.481 65.4713 166.446 67.0481Z" fill="#AEC3FF"/>
<path opacity="0.8" d="M204.559 97.3132C203.835 99.3027 202.948 101.188 201.915 102.955C199.437 107.197 196.133 110.763 192.288 113.52C191.33 113.491 190.458 113.166 189.724 112.51C186.272 109.427 190.846 106.153 193.255 104.558C195.663 102.965 191.192 102.436 188.937 99.3311C186.683 96.2262 191.962 92.0177 188.57 91.7906C185.177 91.5635 181.051 91.3435 180.361 87.7098C179.67 84.0761 183.238 84.8237 182.614 81.7625C181.989 78.7014 184.941 78.1277 188.098 79.0018C191.255 79.8747 191.644 77.5481 195.557 78.6044C199.469 79.6606 197.628 84.4771 201.945 85.6813C206.262 86.8854 205.721 87.7855 205.721 87.7855C206.026 87.8872 206.297 88.0576 206.531 88.2882C206.288 91.3021 205.641 94.3349 204.559 97.3132Z" fill="#AEC3FF"/>
<path opacity="0.8" d="M206.355 81.0952C202.244 81.5246 202.522 76.3935 199.033 76.6986C195.514 77.005 197.02 74.5033 195.279 71.92C193.535 69.3367 187.663 70.7372 188.856 68.1219C190.049 65.5091 193.329 67.553 194.866 65.6747C196.402 63.7951 199.653 65.5859 199.653 65.5859C199.875 65.5824 200.102 65.6108 200.332 65.6711C200.332 65.6711 200.332 65.6699 200.333 65.6711C202.068 68.1326 203.472 70.8081 204.512 73.628C205.058 75.1089 205.504 76.6277 205.844 78.176C206.054 79.1388 206.226 80.1123 206.355 81.0952Z" fill="#AEC3FF"/>
<path opacity="0.8" d="M180.309 61.1137C180.309 61.1137 183.099 59.1384 180.476 57.3014C177.851 55.4657 177.534 56.5054 175.361 55.442C173.187 54.3787 171.662 55.8063 172.664 58.334C173.665 60.8617 173.705 65.0289 175.95 63.6319C178.194 62.235 178.436 60.6465 180.309 61.1137Z" fill="#AEC3FF"/>
</g>
</g>
<path d="M19.2101 199.117H31.2277C31.8711 198.571 30.7817 197.33 29.6438 197.247C29.1494 197.209 28.5237 197.313 27.8093 197.464C27.6437 195.267 26.6998 185.393 23.1406 185.79C19.1391 186.235 23.1406 190.138 24.2714 192.45C25.1101 194.161 25.9936 196.617 26.397 197.776C26.0717 197.846 25.7358 197.915 25.3916 197.978C24.8617 196.349 22.8875 190.872 20.3775 191.191C17.4311 191.565 18.6151 193.761 20.704 195.065C22.2358 196.024 24.1177 197.387 25.0119 198.044C24.2549 198.169 23.4636 198.251 22.6616 198.232C20.6047 198.185 19.5992 198.792 19.2101 199.117Z" fill="#A8D29F"/>
<path d="M210.462 199.117H199.3C198.701 198.609 199.714 197.457 200.771 197.379C201.23 197.345 201.811 197.441 202.474 197.58C202.628 195.54 203.505 186.368 206.811 186.737C210.528 187.15 206.811 190.777 205.76 192.924C204.982 194.513 204.161 196.794 203.785 197.87C204.087 197.935 204.399 197.999 204.718 198.058C205.211 196.545 207.044 191.457 209.375 191.754C212.112 192.102 211.012 194.141 209.072 195.352C207.649 196.243 205.901 197.508 205.071 198.12C205.774 198.234 206.509 198.313 207.254 198.295C209.167 198.251 210.1 198.814 210.462 199.117Z" fill="#A8D29F"/>
<path d="M218.433 125.949C218.433 125.949 218.699 123.307 217.318 123.398C215.936 123.488 215.57 124.122 215.724 124.63C215.878 125.138 217.223 126.819 217.223 126.819L218.433 125.949Z" fill="#FFB27D"/>
<path d="M239.963 131.245C239.963 131.245 238.434 133.043 235.145 135.116C234.833 135.313 234.507 135.512 234.164 135.711C232.887 136.455 231.388 137.218 229.657 137.929C229.467 138.007 229.243 138.094 228.991 138.185C227.02 138.897 223.393 139.906 221.146 139.997C220.951 140.005 220.765 140.005 220.592 139.998C217.171 139.86 216.754 126.582 216.754 126.582C216.754 126.582 217.135 125.254 218.892 125.589C218.892 125.589 221.562 133.088 222.518 133.699C223.367 134.242 228.251 126.84 232.455 126.322C235.284 125.97 239.963 131.245 239.963 131.245Z" fill="#739AF0"/>
<path d="M230.775 195.996C230.775 195.996 231.028 198.918 230.409 199.222L222.502 199.206C222.502 199.206 222.502 198.293 223.772 198.09C225.043 197.888 227.273 197.144 227.651 195.488C228.028 193.832 230.775 195.996 230.775 195.996Z" fill="#1C3154"/>
<path d="M224.967 160.618C225.006 162.529 225.099 164.501 225.278 166.273C226.132 174.68 226.433 184.839 226.556 186.797C226.769 190.197 227.441 195.628 227.441 195.628C227.441 195.628 228.773 196.893 231.369 196.29C231.369 196.29 233.52 188.468 234.001 180.23C234.008 180.095 234.016 179.959 234.022 179.823C234.078 178.734 234.136 177.49 234.196 176.147C234.591 167.154 235.021 153.794 235.021 153.794L225.099 151.464C225.099 151.463 224.87 155.853 224.967 160.618Z" fill="#2A4E96"/>
<path d="M224.967 160.618C227.482 164.957 232.275 172.95 234.196 176.145C234.591 167.152 235.021 153.792 235.021 153.792L225.099 151.462C225.099 151.463 224.87 155.854 224.967 160.618Z" fill="#233862"/>
<path d="M228.992 138.183C227.02 138.895 223.394 139.904 221.146 139.995C221.491 139.931 223.994 139.435 224.919 138.318C225.912 137.116 227.586 133.854 228.918 135.186C229.545 135.811 229.36 137.05 228.992 138.183Z" fill="#6385DB"/>
<path d="M245.665 159.204C245.665 159.204 246.281 161.62 246.18 162.157C246.079 162.694 245.477 164.511 245.102 164.962C244.727 165.413 244.712 163.002 244.462 162.623C244.213 162.244 244.347 163.523 244.148 163.628C243.948 163.732 243.614 162.659 243.466 162.279C243.318 161.898 243.999 160.573 244.062 159.623C244.126 158.673 245.665 159.204 245.665 159.204Z" fill="#FFB27D"/>
<path d="M250.471 192.673C250.471 192.673 251.879 193.958 251.604 194.87C251.33 195.783 250.059 196.391 249.888 197.506C249.716 198.622 249.03 199.23 248.412 199.23C247.794 199.23 245.467 199.23 245.467 199.23C245.467 199.23 245.011 198.444 246.11 198.208C247.209 197.971 247.623 196.66 247.554 195.443C247.486 194.226 247.657 192.605 247.657 192.605L249.991 192.064L250.471 192.673Z" fill="#1C3154"/>
<path d="M226.662 153.995C226.662 153.995 235.951 173.869 240.894 182.589C245.837 191.309 247.382 193.743 247.382 193.743C247.382 193.743 250.213 192.628 250.471 191.867C250.471 191.867 248.581 175.032 245.27 170.928C243.4 168.61 241.203 161.65 241.1 159.217C240.997 156.784 238.826 150.975 238.826 150.975L226.662 153.995Z" fill="#2A4E96"/>
<path d="M224.932 152.962C224.932 152.962 227.957 156.217 233.096 157.2C235.352 157.631 239.93 158.049 241.066 156.443C241.332 156.065 241.334 155.507 241.275 154.635C241.123 152.37 240.552 147.99 243.125 139.189C243.365 138.37 243.526 137.585 243.62 136.836C244.181 132.333 244.12 128.935 240.214 127.119C234.36 124.399 231.958 126.636 231.958 126.636C231.958 126.636 228.845 128.091 227.422 132.331C224.578 140.812 224.932 152.962 224.932 152.962Z" fill="#739AF0"/>
<path d="M236.702 126.373C235.717 127.073 233.983 127.486 232.33 126.659C232.203 126.595 232.219 125.721 232.251 124.862C232.283 124.019 232.362 123.192 232.362 123.192L234.445 121.825L236.433 120.521C236.192 125.006 237.147 126.055 236.702 126.373Z" fill="#FFB27D"/>
<path d="M236.081 122.372C236.081 122.372 234.729 124.401 232.25 124.862C232.282 124.019 232.372 123.092 232.372 123.092L234.444 121.826L236.081 122.372Z" fill="#ED985F"/>
<path d="M230.495 122.666C230.495 122.666 235.534 124.547 236.656 121.442C237.777 118.337 239.182 116.489 236.012 115.157C232.842 113.825 231.786 114.786 231.155 115.731C230.525 116.676 229.213 122.096 230.495 122.666Z" fill="#FFB27D"/>
<path d="M239.795 115.505C239.853 115.46 239.97 115.438 240.216 115.473C240.216 115.473 240.045 115.313 239.788 115.255C239.803 114.908 239.741 114.275 239.19 114.016C239.19 114.016 239.469 114.244 239.44 114.611C238.904 113.788 237.561 113 233.509 112.527C228.167 111.903 229.236 115.613 229.838 116.148C230.44 116.684 232.37 115.923 233.619 116.274C234.868 116.625 234.748 118.506 235.127 118.842C235.508 119.179 235.426 118.7 236.06 118.552C236.694 118.404 236.56 119.38 236.267 119.974C235.975 120.568 236.612 121.554 236.612 121.554C236.612 121.554 236.612 121.554 237.592 120.843C238.573 120.132 240.063 116.594 239.851 115.736C239.831 115.66 239.814 115.583 239.795 115.505Z" fill="#2C3A64"/>
<path d="M241.276 154.636C241.124 152.371 240.554 147.991 243.126 139.19C243.366 138.371 243.527 137.586 243.621 136.837C241.709 136.207 238.227 137.608 238.227 137.608C238.227 137.608 237.407 149.243 241.276 154.636Z" fill="#6385DB"/>
<path d="M241.268 127.708C241.268 127.708 243.62 128.563 245.121 134.791C246.112 138.905 247.937 144.953 248.143 146.854C248.349 148.754 246.056 159.88 246.056 159.88C246.056 159.88 245.734 160.115 244.941 159.957C244.183 159.806 243.83 159.292 243.83 159.292C243.83 159.292 243.283 151.877 243.423 148.376C243.483 146.921 236.69 137.722 233.023 136.537C231.583 136.071 241.268 127.708 241.268 127.708Z" fill="#739AF0"/>
<path d="M208.371 119.647C208.371 119.647 215.169 119.455 223.013 120.899L223.833 118.834L224.732 116.571C224.732 116.571 216.857 113.181 212.123 108.459L208.371 119.647Z" fill="#AEC3FF"/>
<path d="M212.229 108.349L208.326 119.87C207.754 119.7 207.443 119.088 207.642 118.527L211.077 108.847C211.244 108.378 211.774 108.149 212.229 108.349Z" fill="#F99746"/>
<path d="M215.955 128.223C216.714 128.374 217.458 127.877 217.611 127.119L218.955 120.395C219.106 119.635 218.609 118.891 217.851 118.739C217.092 118.587 216.348 119.084 216.195 119.842L214.851 126.567C214.7 127.326 215.197 128.071 215.955 128.223Z" fill="#F99746"/>
<path d="M208.371 119.647C208.371 119.647 215.169 119.454 223.013 120.899L223.833 118.833C216.462 117.328 208.371 119.647 208.371 119.647Z" fill="#739AF0"/>
<path d="M220.844 120.483L222.968 120.857C222.936 120.858 224.941 121.248 225.599 119.47C225.659 119.348 225.698 119.228 225.725 119.086C226.236 116.871 225.02 116.463 225.02 116.463L222.287 115.397L221.419 118.471C221.419 118.471 221.419 118.471 221.419 118.482L220.844 120.483Z" fill="#F99746"/>
<path d="M220.844 120.483L222.968 120.857C222.936 120.858 224.941 121.248 225.599 119.47C224.397 118.596 221.417 118.47 221.417 118.47C221.417 118.47 221.417 118.47 221.417 118.481L220.844 120.483Z" fill="#ED7D2B"/>
<path d="M216.136 121.711C216.136 121.711 217.176 122.125 216.984 122.583C216.793 123.041 215.472 123.67 215.264 123.309C215.056 122.948 215.483 121.326 216.136 121.711Z" fill="#FFB27D"/>
<path d="M218.453 125.533C218.453 125.533 218.65 124.469 218.661 123.981C218.673 123.492 218.731 123.094 218.616 123.08C218.502 123.065 218.418 123.155 218.372 123.313C218.324 123.47 218.145 124.443 218.145 124.443L218.236 125.384L218.453 125.533Z" fill="#FFB27D"/>
<path d="M115.674 124.84L109.787 194.84C109.787 194.84 109.171 199.083 112.326 199.091C117.516 199.103 138.157 199.091 138.157 199.091C138.157 199.091 134.251 198.207 134.299 196.22C134.354 193.878 141.179 124.177 141.179 124.177L115.674 124.84Z" fill="#7599EA"/>
<path d="M140.101 197.849C139.08 197.852 119.098 197.886 114.043 197.821C111.841 197.793 111.454 195.862 111.436 194.613C111.427 194.014 111.504 193.571 111.504 193.571L111.656 191.751L112.047 187.115L112.391 183.017L112.834 177.753L113.207 173.309L117.391 123.568L142.896 122.906C142.896 122.906 140.022 152.076 137.989 173.308C137.761 175.673 137.546 177.942 137.346 180.059C137.281 180.736 137.22 181.396 137.158 182.039C136.97 184.048 136.797 185.893 136.647 187.522C136.568 188.38 136.495 189.178 136.43 189.909C136.171 192.772 136.018 194.601 136.016 194.949C136.014 195.151 136.032 195.34 136.065 195.515C136.484 197.747 139.718 197.849 140.101 197.849Z" fill="#90AFF4"/>
<path d="M53.7344 86.748L68.0738 144.35L70.0373 152.239L76.7168 179.068H200.802L176.183 86.748H53.7344Z" fill="#AEC3FF"/>
<path d="M53.7344 86.748L51.7461 87.4104L74.0744 181.072L76.7168 179.068L53.7344 86.748Z" fill="#90AFF4"/>
<path d="M74.0742 181.071H197.395L200.8 179.068H76.7167L74.0742 181.071Z" fill="#7599EA"/>
<path d="M117.381 199.117H144.082V197.848H117.381V199.117Z" fill="#AEC3FF"/>
<path d="M137.296 181.07L137.158 182.041L112.047 187.113L112.391 183.017L112.555 181.07H137.296Z" fill="#5888DD"/>
<path opacity="0.4" d="M140.1 197.849C139.079 197.852 119.097 197.885 114.043 197.82C111.84 197.793 111.453 195.861 111.436 194.612L136.428 189.911C136.169 192.774 136.016 194.603 136.014 194.951C136.012 195.153 136.03 195.342 136.063 195.517C136.483 197.747 139.717 197.849 140.1 197.849Z" fill="#5888DD"/>
<path d="M53.7344 86.748H176.183L196.051 160.943H72.2055L53.7344 86.748Z" fill="#AEC3FF"/>
<path d="M190.275 157.728H75.6245L71.5284 141.408L69.9434 135.093L69.2964 132.517L65.0855 115.745L64.8679 114.871L62.6418 106.006L61.6458 102.038L60.7966 98.6542L58.8047 90.7222H171.803L173.99 98.6542L174.922 102.038L176.016 106.006L183.221 132.139V132.14L183.831 134.354L184.115 135.382L189.089 153.425L190.275 157.728Z" fill="#739AF0"/>
<path d="M173.991 98.6554H60.7973L58.8066 90.7222H171.804L173.991 98.6554Z" fill="#607CF4"/>
<path d="M63.4797 94.3076C63.3436 93.76 63.676 93.3164 64.2237 93.3164C64.7713 93.3164 65.3261 93.76 65.4621 94.3076C65.5981 94.8553 65.2657 95.2988 64.7181 95.2988C64.1704 95.2988 63.6157 94.8553 63.4797 94.3076Z" fill="#E9F3FE"/>
<path d="M66.7765 94.3076C66.6405 93.76 66.9729 93.3164 67.5205 93.3164C68.0682 93.3164 68.6229 93.76 68.759 94.3076C68.895 94.8553 68.5626 95.2988 68.015 95.2988C67.4673 95.2988 66.9126 94.8553 66.7765 94.3076Z" fill="#E9F3FE"/>
<path d="M70.3234 94.3076C70.1874 93.76 70.5198 93.3164 71.0674 93.3164C71.6151 93.3164 72.1698 93.76 72.3058 94.3076C72.4419 94.8553 72.1095 95.2988 71.5618 95.2988C71.0154 95.2988 70.4606 94.8553 70.3234 94.3076Z" fill="#E9F3FE"/>
<path d="M149.326 44.6027C153.961 39.1617 161.106 28.2323 165.917 22.6363C166.907 21.4843 166.083 19.7065 164.565 19.7065H155.811L164.068 1.03432C164.42 0.237096 163.335 -0.398084 162.812 0.299785L142.846 27.0223C142.264 27.8018 142.9 28.8994 143.866 28.78L153.777 27.5593L147.881 43.757C147.557 44.65 148.711 45.3254 149.326 44.6027Z" fill="#F77D48"/>
<path d="M108.109 77.7422C109.151 72.3946 109.81 62.4635 110.911 56.9468C111.138 55.8113 109.926 54.9384 108.917 55.5061L103.102 58.7802L101.602 43.2899C101.538 42.6287 100.579 42.6133 100.494 43.2721L97.2281 68.4889C97.1335 69.2246 97.9662 69.7155 98.5635 69.2743L104.689 64.757L106.831 77.7209C106.951 78.4353 107.971 78.4519 108.109 77.7422Z" fill="#AEC3FF"/>
<path d="M195.283 159.307L95.6615 167.701C88.0973 168.338 82.6231 160.626 85.7198 153.696L127.925 59.2388C131.127 52.0732 140.97 51.244 145.325 57.7732L202.741 143.837C206.954 150.151 202.847 158.67 195.283 159.307Z" fill="#E6EFFF"/>
<path d="M195.602 163.076L95.9804 171.469C91.0811 171.882 86.4562 169.735 83.6103 165.726C80.7644 161.716 80.2629 156.643 82.269 152.154L124.475 57.6965C126.548 53.055 130.811 50.0293 135.877 49.6023C140.943 49.1753 145.652 51.4452 148.473 55.675L205.889 141.739C208.618 145.829 208.973 150.915 206.838 155.344C204.7 159.772 200.501 162.663 195.602 163.076ZM136.511 57.1382C134.231 57.3298 132.312 58.6924 131.379 60.7813L89.1732 155.239C88.2707 157.259 88.4966 159.543 89.7776 161.347C91.0586 163.152 93.1404 164.118 95.3452 163.932L194.967 155.539C197.171 155.353 199.063 154.052 200.023 152.059C200.984 150.066 200.825 147.776 199.596 145.936L142.181 59.8717C140.911 57.9673 138.792 56.9454 136.511 57.1382Z" fill="#F77D48"/>
<path d="M134.177 144.857C134.069 143.573 134.197 142.367 134.565 141.239C134.931 140.111 135.499 139.113 136.269 138.245C137.039 137.378 137.992 136.669 139.132 136.123C140.269 135.578 141.576 135.24 143.051 135.116C144.525 134.992 145.881 135.104 147.113 135.45C148.347 135.796 149.416 136.335 150.32 137.061C151.225 137.788 151.951 138.678 152.501 139.727C153.051 140.778 153.38 141.945 153.489 143.229C153.596 144.513 153.466 145.71 153.098 146.818C152.731 147.927 152.162 148.915 151.392 149.783C150.622 150.652 149.658 151.36 148.5 151.908C147.342 152.455 146.025 152.792 144.55 152.917C143.075 153.041 141.73 152.928 140.518 152.581C139.304 152.233 138.246 151.695 137.341 150.967C136.437 150.241 135.71 149.362 135.162 148.33C134.613 147.298 134.284 146.14 134.177 144.857ZM149.578 126.834L135.228 128.043L129.064 79.1837L147.48 77.6318L149.578 126.834Z" fill="#F77D48"/>
<path d="M72.3164 129.83C72.3164 129.83 72.6287 129.128 72.8309 128.795C73.0332 128.463 73.8979 127.488 74.0445 127.708C74.1912 127.929 74.7803 129.414 74.468 129.83C74.1557 130.247 74.4881 130.969 72.9338 131.408L72.3164 129.83Z" fill="#FFB27D"/>
<path d="M55.0391 125.395C55.0391 125.395 62.9983 132.038 66.1009 131.423C68.5281 130.942 72.364 129.726 72.364 129.726C72.364 129.726 73.3765 130.689 73.0902 131.843C73.0902 131.843 68.2028 136.442 64.7205 136.472C59.2771 136.518 56.7104 133.775 56.7104 133.775L55.0391 125.395Z" fill="#ED7D2B"/>
<path d="M41.0801 195.47C41.0801 195.47 41.3107 199.197 42.0323 199.251C42.1281 199.258 45.6896 199.258 45.6896 199.258L50.2363 199.232C50.2363 199.232 50.2068 198.136 48.8773 197.904C47.549 197.673 45.3241 196.739 44.5186 194.983C43.6728 193.135 41.0801 195.47 41.0801 195.47Z" fill="#113C68"/>
<path d="M40.8184 195.729C40.8184 195.729 42.2 196.192 43.2799 196.192C44.484 196.192 45.5769 195.864 45.5769 195.864C45.5769 195.864 45.8372 193.348 47.2684 187.804C48.0195 184.898 49.0911 181.162 50.6158 176.519C54.8326 163.688 56.1148 156.181 56.2319 155.471C56.2378 155.433 56.2402 155.415 56.2402 155.415L56.226 155.409L43.261 149.717C43.261 149.717 44.8637 167.402 42.8186 174.19C42.5323 175.139 42.2875 176.245 42.0769 177.442C40.7888 184.813 40.8184 195.729 40.8184 195.729Z" fill="#2A4E96"/>
<path d="M47.2676 187.803C48.0187 184.897 49.0904 181.16 50.615 176.518C54.8318 163.686 56.114 156.18 56.2311 155.469C56.2299 155.448 56.2288 155.428 56.2264 155.406L43.2614 149.715C43.2614 149.715 44.8641 167.399 42.819 174.187C42.534 175.136 47.2676 187.803 47.2676 187.803Z" fill="#233862"/>
<path d="M51.207 195.47C51.207 195.47 51.4377 199.197 52.1592 199.251C52.255 199.258 55.8165 199.258 55.8165 199.258L60.3633 199.232C60.3633 199.232 60.3337 198.136 59.0042 197.904C57.6759 197.673 55.451 196.739 54.6455 194.983C53.7986 193.135 51.207 195.47 51.207 195.47Z" fill="#15447C"/>
<path d="M58.5558 150.133C58.5558 150.133 58.7237 161.592 56.7413 175.663C54.7589 189.734 55.4307 195.706 55.4307 195.706C55.4307 195.706 54.0681 196.147 53.5193 196.192C52.1188 196.306 50.6829 195.863 50.6829 195.863C50.6829 195.863 47.8452 181.787 48.659 174.745C49.4728 167.702 44.7734 150.578 44.7734 150.578L58.5558 150.133Z" fill="#2A4E96"/>
<path d="M49.3633 123.315L51.8934 124.975L54.1987 124.323C54.6198 123.722 54.7321 122.563 54.7381 121.56C54.744 120.564 54.647 119.72 54.647 119.72L51.2322 118.213L49.9582 117.651C49.9618 117.671 50.0576 118.696 50.0706 118.847C50.3107 121.507 49.3633 123.315 49.3633 123.315Z" fill="#FFB27D"/>
<path d="M58.6146 153.318C55.4647 156.359 43.5442 155.848 42.8084 152.497C42.0751 149.146 43.6092 123.973 48.9899 122.391C50.1065 122.064 56.0763 123.993 56.0763 123.993C56.0763 123.993 57.0131 126.444 57.627 129.563C57.7464 130.17 58.0942 136.603 58.3544 142.621C58.4762 145.437 58.5791 148.161 58.6312 150.156C58.6809 152.024 58.6832 153.252 58.6146 153.318Z" fill="#F99746"/>
<path d="M50.3278 118.894C51.021 120.065 53.4505 121.09 54.7386 121.56C54.7445 120.564 54.6475 119.72 54.6475 119.72L51.2327 118.213C50.478 118.202 50.0191 118.371 50.3278 118.894Z" fill="#FCA56B"/>
<path d="M55.9361 119.511C55.9361 119.511 50.4347 121.228 49.4187 117.786C48.4026 114.344 47.0081 112.246 50.4773 111.006C53.9465 109.765 55.0206 110.876 55.6392 111.942C56.2578 113.007 57.3413 118.976 55.9361 119.511Z" fill="#FFB27D"/>
<path d="M55.4217 111.609C55.4217 111.609 55.0704 115.615 54.2424 115.441C53.4144 115.267 52.5025 114.895 52.6231 116.102C52.7449 117.31 51.8176 119.38 50.6229 119.375C48.0609 119.365 45.2777 112.79 45.9792 111.544C48.003 107.947 58.3468 107.22 55.4217 111.609Z" fill="#163560"/>
<path d="M54.6134 122.478C54.5424 122.448 50.5185 120.643 50.0477 120.798C49.5769 120.953 48.9902 122.392 48.9902 122.392L56.0766 123.993C56.0766 123.993 55.5183 122.86 54.6134 122.478Z" fill="#ED7D2B"/>
<path d="M79.6697 141.974L57.1107 163.214C56.6684 163.631 56.1112 163.763 55.8711 163.509L55.1094 162.7C54.8705 162.446 55.0361 161.897 55.4784 161.48L78.0374 140.24C78.4797 139.824 79.0369 139.691 79.277 139.946L80.0387 140.755C80.2776 141.009 80.112 141.558 79.6697 141.974Z" fill="#1F4D84"/>
<path d="M67.0099 153.894L57.1107 163.215C56.6684 163.631 56.1112 163.764 55.8711 163.509L55.1094 162.7C54.8705 162.446 55.0361 161.897 55.4784 161.481L65.3775 152.16L67.0099 153.894Z" fill="#739AF0"/>
<path d="M74.4838 133.955C75.3496 136.809 76.9535 139.482 79.2825 141.673C86.3949 148.364 97.5857 148.022 104.277 140.911C110.879 133.892 110.635 122.904 103.791 116.185C103.7 116.095 103.607 116.006 103.513 115.918C96.4016 109.227 85.2121 109.566 78.5208 116.679C74.0201 121.463 72.7001 128.092 74.4838 133.955ZM79.538 117.636C83.4319 113.497 88.9806 111.847 94.1909 112.749C97.2273 113.274 100.146 114.665 102.558 116.934C109.109 123.097 109.422 133.403 103.26 139.954C100.991 142.366 98.1617 143.931 95.1644 144.642C90.0179 145.86 84.3782 144.552 80.2394 140.658C73.6889 134.494 73.3731 124.188 79.538 117.636Z" fill="#1F4D84"/>
<g opacity="0.5">
<path opacity="0.5" d="M103.26 139.954C100.991 142.366 98.1605 143.931 95.1644 144.642C90.0179 145.859 84.3793 144.552 80.2394 140.657C73.6889 134.494 73.3743 124.187 79.538 117.635C83.4319 113.497 88.9806 111.847 94.1909 112.749C97.2272 113.274 100.148 114.665 102.558 116.934C109.109 123.097 109.423 133.404 103.26 139.954Z" fill="#B3CFF9"/>
</g>
<path d="M58.6324 150.156C46.2021 141.299 47.2359 129.479 47.2359 129.479C51.7791 132.041 56.2869 137.707 58.3556 142.621C58.4775 145.435 58.5804 148.161 58.6324 150.156Z" fill="#ED7D2B"/>
<path d="M70.9025 146.121C71.7789 145.919 72.368 145.257 72.4898 145.141C72.4898 145.141 72.8636 145.167 72.4283 145.964C72.3917 146.03 72.3112 146.202 72.2497 146.323C72.2249 146.373 72.2592 146.431 72.3148 146.435C72.821 146.474 73.3296 146.273 74.3031 146.476C74.4379 146.504 74.477 146.826 74.4711 146.963C74.4628 147.195 74.4793 147.457 74.2097 147.813C74.0523 148.02 73.6147 148.242 72.6389 148.635C72.2675 148.784 71.2041 148.671 70.2082 148.329L69.4121 147.96L69.6593 146.482L69.8592 146.523C70.1786 146.591 70.5713 146.203 70.9025 146.121Z" fill="#FFB27D"/>
<path d="M51.0951 123.993C51.0951 123.993 39.9269 126.12 54.381 142.294C56.6923 144.881 69.183 148.248 69.183 148.248C69.183 148.248 70.4498 147.171 69.811 146.298C69.811 146.298 61.2107 140.052 59.3194 139.06C58.4677 138.613 56.0157 129.092 54.6283 126.8C53.2396 124.508 51.0951 123.993 51.0951 123.993Z" fill="#F99746"/>
<path d="M72.6191 130.026C72.6191 130.026 72.9846 129.329 73.0556 128.959C73.1266 128.592 73.5867 127.518 73.776 127.328C73.8517 127.253 74.1024 127.351 74.132 127.676C74.145 127.818 74.0752 128.076 73.9522 128.382C73.7523 128.883 73.7854 129.56 73.7156 129.786C73.5441 130.349 72.6191 130.026 72.6191 130.026Z" fill="#FFB27D"/>
<path d="M77.0644 102.316C76.874 102.533 76.8503 102.776 76.9437 103.036C76.9437 103.037 76.9449 103.038 76.9461 103.039C77.12 103.52 77.6936 104.057 78.3608 104.593C78.4459 104.661 78.5216 104.724 78.5879 104.782C78.6056 104.797 78.6222 104.813 78.6387 104.828C78.6517 104.84 78.6648 104.852 78.6778 104.863C79.2999 105.437 79.0657 105.568 80.1823 106.732C81.4562 108.058 82.3327 108.083 82.5823 107.961C82.794 107.858 82.3646 107.156 81.8891 106.364C81.8667 106.327 81.843 106.288 81.8205 106.25C81.7567 106.144 81.694 106.038 81.6313 105.933C81.0742 104.982 81.2173 104.536 81.3498 103.12C81.4574 101.97 83.1418 96.6948 83.1418 96.6948L80.7004 96.2737C80.7004 96.2737 79.9635 100.474 79.1533 101.121C78.7203 101.465 78.2354 101.47 77.819 101.725C77.7895 101.743 77.7611 101.761 77.7327 101.78C77.4961 101.936 77.2548 102.098 77.0644 102.316Z" fill="#FFB27D"/>
<path d="M77.0644 102.315C76.874 102.533 76.8503 102.775 76.9437 103.036C76.9437 103.037 76.9449 103.038 76.9461 103.039C77.159 103.519 77.7185 104.053 78.3631 104.588C78.4471 104.657 78.5216 104.721 78.5879 104.781C78.6056 104.797 78.6222 104.812 78.6387 104.828C78.6518 104.839 78.6648 104.851 78.6778 104.863C79.2999 105.437 79.0657 105.568 80.1823 106.732C81.4563 108.058 82.3327 108.083 82.5823 107.961C82.794 107.858 82.3647 107.155 81.8892 106.364C81.6408 106.273 80.4887 105.805 79.6181 104.689C78.8789 103.745 78.3773 102.544 77.8746 101.804C77.819 101.794 77.7859 101.788 77.7315 101.777C77.4961 101.936 77.2548 102.098 77.0644 102.315Z" fill="#233862"/>
<path d="M96.7524 100.797C96.9027 101.55 97.9779 101.425 99.1772 101.133C100.378 100.839 100.093 101.188 101.801 101C103.509 100.812 104.027 100.174 104.079 99.9213C104.125 99.6954 103.282 99.6162 102.377 99.5121C102.263 99.4991 102.149 99.4849 102.034 99.4707C101.012 99.3418 100.263 98.6817 99.3346 98.14C98.4557 97.6267 97.144 95.5354 97.144 95.5354L94.8008 95.7199C94.8008 95.7199 96.0297 97.5876 96.5052 98.399C96.7844 98.8769 96.7702 99.5085 96.7347 99.9959C96.7158 100.261 96.698 100.532 96.7524 100.797Z" fill="#FFB27D"/>
<path d="M99.1798 101.132C100.38 100.839 100.095 101.188 101.803 101C103.511 100.812 104.029 100.174 104.081 99.9212C104.128 99.6953 103.284 99.6161 102.379 99.512L102.371 99.5297C102.371 99.5297 101.347 100.256 99.925 100.289C98.7658 100.317 97.5392 99.9839 96.7384 99.9969C96.7207 100.262 96.703 100.533 96.7562 100.799C96.9052 101.551 97.9792 101.426 99.1798 101.132Z" fill="#233862"/>
<path d="M87.7812 85.815L85.5894 91.7067L82.7281 99.3998C82.7281 99.3998 81.9521 99.4744 81.2093 99.2603C80.5256 99.0627 79.7402 98.5447 79.7402 98.5447C79.7402 98.5447 80.5375 90.2826 82.0196 85.5406C82.3992 84.3235 82.8251 83.3394 83.2947 82.7846C85.5905 80.0736 87.7812 85.815 87.7812 85.815Z" fill="#233862"/>
<path d="M85.5568 76.455C84.3101 76.0528 81.0573 76.4467 77.5289 77.0843C76.5543 77.2605 75.5714 76.8146 75.058 75.9677L66.1797 75.271C66.1797 75.271 63.2474 81.7671 64.8502 85.9082C65.0856 86.5173 65.6025 86.897 66.4021 86.91C66.4021 86.91 71.7674 86.9195 73.4837 86.9195C77.8992 86.9207 82.8292 83.8879 83.4668 83.7602C84.51 83.552 84.9276 85.6397 85.9708 87.8315C87.0141 90.0233 95.7788 97.5413 95.7788 97.5413C95.7788 97.5413 97.1261 97.5555 97.6832 97.3462C98.2817 97.1214 98.5005 96.8304 98.5005 96.8304C98.5005 96.8304 88.7919 77.4994 85.5568 76.455Z" fill="#2A4E96"/>
<path d="M74.1255 49.8947C73.4667 49.502 72.8232 49.4417 72.4293 49.4523C72.1549 49.4606 71.8817 49.4417 71.6108 49.4027C68.222 48.9047 66.1804 53.8264 66.0598 55.3133C65.8398 58.0432 64.3943 58.4596 62.3611 60.1688C58.2827 63.5966 59.4773 67.5804 61.7058 69.0625C63.0436 69.9508 65.4009 69.0637 65.4009 69.0637C65.4341 69.0873 71.8497 65.4809 75.0114 63.7409C79.7522 63.0679 76.0298 51.0291 74.1255 49.8947Z" fill="#233862"/>
<path d="M72.3618 62.2578C72.3759 62.2673 70.8063 62.8019 69.7571 62.3371C68.7695 61.9006 68.0231 60.2754 68.0373 60.2754C68.4868 60.2553 68.98 59.8626 69.3597 57.2864L69.5513 57.355L72.7663 58.513C72.7663 58.513 72.5333 59.5444 72.3819 60.5273C72.2553 61.3506 72.1867 62.1407 72.3618 62.2578Z" fill="#FFB27D"/>
<path d="M72.7657 58.5117C72.7657 58.5117 72.6368 59.0689 72.4499 60.1086C70.6035 59.775 69.811 58.3521 69.5508 57.3538L72.7657 58.5117Z" fill="#ED975D"/>
<path d="M73.246 59.536C73.246 59.536 68.8471 58.9434 69.2575 56.2099C69.6679 53.4764 69.377 51.5578 72.2039 51.8204C75.0297 52.083 75.4177 53.2079 75.5028 54.1541C75.5868 55.1004 74.4004 59.62 73.246 59.536Z" fill="#FFB27D"/>
<path d="M75.3406 52.6557C75.3406 52.6557 72.5231 55.0817 70.6081 55.2769C68.6919 55.4721 67.9668 54.857 67.9668 54.857C67.9668 54.857 69.0964 53.9202 69.7765 52.4073C69.9764 51.9614 70.3999 51.655 70.8872 51.6136C72.2557 51.4953 74.8485 51.4421 75.3406 52.6557Z" fill="#233862"/>
<path d="M73.5801 52.4376C73.5801 52.4376 74.5216 53.3484 74.8185 54.025C75.1048 54.6767 75.1899 56.2369 74.9616 56.8555C74.9616 56.8555 76.4307 54.0013 75.6004 52.6139C74.7192 51.1436 73.5801 52.4376 73.5801 52.4376Z" fill="#233862"/>
<path d="M76.0639 68.7397C75.9279 77.6453 76.0249 75.7847 75.0502 76.6292C74.8148 76.8327 74.156 76.9533 73.2866 77.0113C70.5555 77.1911 65.7556 76.7404 65.5734 76.2353C64.9442 74.4883 65.3889 73.9466 64.8649 71.2734C64.8105 70.9895 64.7431 70.6808 64.6626 70.346C64.225 68.5103 63.7992 67.8846 65.3546 64.9358C66.7657 62.2637 68.2301 60.0956 68.3625 60.1737C72.0813 62.3832 72.3818 60.5273 72.3818 60.5273C72.3818 60.5273 76.1313 64.3964 76.0639 68.7397Z" fill="#F99746"/>
<path d="M85.5894 91.7066L82.7281 99.3997C82.7281 99.3997 81.9521 99.4743 81.2093 99.2602C80.5256 99.0626 79.7402 98.5445 79.7402 98.5445C79.7402 98.5445 80.5375 90.2825 82.0196 85.5405L85.5894 91.7066Z" fill="#2A4E96"/>
<path d="M72.3828 60.5259C72.3828 60.5259 76.2093 61.1764 76.6587 62.8241C77.107 64.4718 78.5832 74.4738 78.5832 74.4738C78.5832 74.4738 77.5033 75.5277 76.6055 74.6287C75.7066 73.7298 73.7797 65.2702 73.7797 65.2702L72.3828 60.5259Z" fill="#F99746"/>
<path d="M73.2869 77.0113C70.5558 77.1911 65.7559 76.7404 65.5737 76.2353C64.9445 74.4883 65.3892 73.9465 64.8652 71.2734L66.1841 67.5652C66.1841 67.5652 65.9653 71.6956 67.1824 72.7815C68.3983 73.8685 72.168 74.8798 72.7606 75.7882C73.0445 76.2235 73.2325 76.66 73.2869 77.0113Z" fill="#ED7D2B"/>
<path d="M70.1582 75.2723C70.1582 75.2723 72.8527 74.6738 73.2868 74.9128C73.7209 75.1517 74.7831 76.0234 74.9167 76.3263C75.0492 76.6291 73.9492 76.0956 73.5908 75.9998C73.3589 75.9371 72.7486 76.1488 72.4458 76.2506C71.1742 76.674 70.3948 76.4552 70.3948 76.4552L70.1582 75.2723Z" fill="#FFB27D"/>
<path d="M68.36 60.1711C68.36 60.1711 64.743 60.3923 63.4892 62.1394C61.7256 64.5973 58.2244 75.0748 60.2281 76.4729C62.4849 78.0472 70.4998 76.8881 70.4998 76.8881C70.4998 76.8881 70.7671 75.6414 70.3957 75.0381C70.0243 74.4349 63.9942 73.459 63.7163 73.1799C63.4383 72.9019 67.1973 67.7531 67.1973 66.918C67.1997 66.0829 68.36 60.1711 68.36 60.1711Z" fill="#F99746"/>
<path d="M73.4199 75.6628C73.4199 75.6628 73.9841 76.3914 74.1687 76.4778C74.3532 76.5653 74.4738 76.5428 74.4738 76.5428L74.0941 75.858L73.4199 75.6628Z" fill="#FFB27D"/>
<path d="M73.2891 74.9128L74.9296 75.7101C74.9296 75.7101 74.8599 75.8248 74.6576 75.8154C74.4553 75.8059 73.9455 75.619 73.9455 75.619L73.2891 74.9128Z" fill="#FFB27D"/>
<path d="M87.3021 76.7911L70.1582 76.7852V77.1637L87.1495 77.1696L87.3021 76.7911Z" fill="#233862"/>
<path d="M74.168 77.1649L87.1507 77.1697L91.0588 67.4598L78.0961 67.4551L74.168 77.1649Z" fill="#233862"/>
<path d="M83.8737 72.313C83.9719 71.9711 83.7744 71.6943 83.4325 71.6943C83.0907 71.6943 82.7347 71.9711 82.6365 72.3118C82.5383 72.6536 82.7359 72.9304 83.0777 72.9304C83.4184 72.9304 83.7756 72.6536 83.8737 72.313Z" fill="white"/>
<path d="M171.737 113.787C169.987 113.207 168.777 113.94 168.777 113.94C163.742 114.147 163.555 119.309 164.145 121.23C164.976 123.928 162.037 126.055 165.296 127.146C169.076 128.413 172.249 126.91 172.032 127.563C183.986 128.504 175.714 115.109 171.737 113.787Z" fill="#163560"/>
<path d="M166.512 138.892C166.512 138.892 166.034 139.839 165.166 140.927C164.121 142.238 158.63 139.128 159.103 138.892C159.576 138.655 162.335 130.707 162.992 129.708C163.65 128.71 165.888 128.191 165.888 128.191L166.512 138.892Z" fill="#F99746"/>
<path d="M185.041 192.499C185.041 192.499 186.557 193.882 186.261 194.864C185.965 195.847 184.598 196.503 184.413 197.703C184.229 198.904 183.489 199.559 182.824 199.559C182.158 199.559 179.651 199.559 179.651 199.559C179.651 199.559 179.162 198.713 180.344 198.459C181.527 198.205 181.973 196.794 181.899 195.483C181.824 194.173 182.01 192.427 182.01 192.427L184.523 191.845L185.041 192.499Z" fill="#1F447F"/>
<path d="M172.215 193.085C172.215 193.085 172.761 198.944 172.096 199.272L163.582 199.254C163.582 199.254 163.582 198.271 164.949 198.053C166.317 197.835 168.719 197.034 169.126 195.251C169.533 193.469 172.215 193.085 172.215 193.085Z" fill="#1C3154"/>
<path d="M178.764 134.94C178.764 134.94 178.891 136.728 178.764 138.875C178.68 140.298 177.241 142.204 177.036 142.676C176.524 143.858 175.946 144.05 175.946 144.05L171.476 145.145L169.904 145.53L164.947 144.049C164.947 144.049 162.689 137.748 163.596 134.201C164.502 130.653 165.887 128.189 165.887 128.189C165.887 128.189 169.256 127.432 175.198 127.854L178.764 134.94Z" fill="#F99746"/>
<path d="M179.191 138.925C179.107 140.348 177.242 142.204 177.037 142.676C176.525 143.859 175.947 144.05 175.947 144.05L171.477 145.146L170.67 142.832C170.67 142.832 177.201 141.116 176.151 135.07L179.191 138.925Z" fill="#ED7D2B"/>
<path d="M165.263 145.007C165.263 145.007 162.809 152.646 162.65 155.249C162.493 157.85 167.343 192.203 167.538 193.401C167.721 194.531 169.125 195.251 169.125 195.251C169.125 195.251 169.771 195.632 170.691 195.372C171.969 195.011 172.373 194.579 172.373 194.579C172.373 194.579 174.283 170.079 173.102 161.327C171.919 152.576 171.906 145.007 171.906 145.007H165.263Z" fill="#233862"/>
<path d="M175.664 144.779C175.664 144.779 179.409 149.802 179.758 153.199C180.107 156.595 180.305 168.524 181.049 171.835C181.793 175.146 184.526 181.518 184.526 191.844C184.526 191.844 184.242 192.435 183.365 192.751C183.085 192.851 182.709 192.95 182.344 193.034C181.622 193.199 180.879 192.845 180.549 192.182C178.701 188.463 172.818 176.467 172.515 173.977C172.302 172.215 170.444 160.552 166.39 153.709C165.417 152.066 166.988 145.532 166.988 145.532L175.664 144.779Z" fill="#2A4E96"/>
<path d="M164.872 143.828C164.872 143.828 165.857 144.607 167.815 144.646C170.153 144.694 175.947 144.05 175.947 144.05C175.947 144.05 176.205 144.769 176.194 145.529C176.194 145.529 169.117 147.314 165.017 145.789C165.017 145.79 164.489 144.795 164.872 143.828Z" fill="#233862"/>
<path d="M167.254 146.662C166.667 146.662 166.188 146.12 166.188 145.454C166.188 144.788 166.667 144.247 167.254 144.247C167.842 144.247 168.321 144.788 168.321 145.454C168.321 146.12 167.842 146.662 167.254 146.662ZM167.254 144.6C166.861 144.6 166.541 144.983 166.541 145.454C166.541 145.925 166.862 146.308 167.254 146.308C167.647 146.308 167.968 145.925 167.968 145.454C167.968 144.983 167.647 144.6 167.254 144.6Z" fill="white"/>
<path d="M172.366 148.859L161.73 148.958L156.496 136.658L167.132 136.558L172.366 148.859Z" fill="#B5453C"/>
<path d="M170.975 143.3L170.195 142.342C170.195 142.342 169.668 141.872 169.285 141.792C168.901 141.712 168.094 141.246 168.016 141.377C167.937 141.508 168.637 142.445 168.637 142.445L168.672 142.45C167.869 143.054 165.842 142.521 165.592 142.767C165.289 143.065 166.009 143.711 166.396 144.074C166.783 144.437 167.889 145.04 168.751 144.773C169.382 144.577 170.373 144.377 170.373 144.377L170.975 143.3Z" fill="#FFB27D"/>
<path d="M157.296 138.822C157.296 138.822 157.965 138.063 158.391 138.427C158.816 138.791 158.279 140.585 157.874 140.402C157.468 140.22 157.065 139.044 157.296 138.822Z" fill="#FFB27D"/>
<path d="M175.2 127.856C175.2 127.856 178.244 128.192 180.429 132.161C182.152 135.292 185.098 141.063 183.986 142.693C183.497 143.409 178.82 145.956 169.799 144.501C169.799 144.501 169.941 143.362 170.668 142.833C170.668 142.833 178.261 140.395 178.248 139.91C178.223 138.993 177.222 138.201 172.981 133.958C171.829 132.805 175.2 127.856 175.2 127.856Z" fill="#F99746"/>
<path d="M172.857 128.017C172.961 127.876 172.827 127.429 172.659 126.596C172.508 125.842 172.251 124.674 172.256 123.361L172.031 123.399L168.258 124.034C168.258 124.034 168.344 125.043 168.347 125.994C168.347 126.003 168.347 126.01 168.347 126.018C168.351 126.844 168.124 128.092 168.402 128.254C169.832 129.091 172.453 128.556 172.857 128.017Z" fill="#FFB27D"/>
<path d="M168.258 124.033C168.258 124.033 168.332 125.456 168.336 126.406C170.447 126.355 171.574 124.305 172.032 123.398L168.258 124.033Z" fill="#E8945B"/>
<path d="M168.03 125.73C168.03 125.73 172.977 125.025 172.491 121.951C172.005 118.877 172.316 116.716 169.136 117.037C165.957 117.356 165.531 118.626 165.443 119.692C165.356 120.757 166.73 125.834 168.03 125.73Z" fill="#FFB27D"/>
<path d="M166.879 117.319C166.879 117.319 168.805 120.709 170.962 120.913C173.121 121.115 173.931 120.417 173.931 120.417C173.931 120.417 172.139 119.407 171.458 117.254C171.459 117.254 167.625 115.441 166.879 117.319Z" fill="#163560"/>
<path d="M167.259 117.558C167.259 117.558 166.317 118.093 166.02 118.889C165.731 119.667 165.538 120.669 165.803 121.816C165.803 121.816 164.394 119.528 165.318 117.959C166.296 116.296 167.259 117.558 167.259 117.558Z" fill="#163560"/>
<path d="M276.25 200H2.02857C1.8405 200 1.68555 199.846 1.68555 199.657V199.46C1.68555 199.272 1.83931 199.117 2.02857 199.117H276.25C276.438 199.117 276.593 199.27 276.593 199.46V199.657C276.593 199.846 276.438 200 276.25 200Z" fill="#233862"/>
</svg>
