<svg xmlns="http://www.w3.org/2000/svg" viewBox="0 0 64 64"><defs><style>.cls-1{fill:#002258;}.cls-2{fill:#7badff;}</style></defs><g id="Surfaces"><g id="Developers"><g id="Outline_no_shadow_copy_3" data-name="Outline no shadow copy 3"><rect class="cls-1" x="3.9998" y="2" width="56" height="54" rx="9.91383"/></g></g></g><g id="Outlined_Mnemonics_Logos" data-name="Outlined Mnemonics &amp; Logos"><g id="Cf"><path class="cls-2" d="M34.70142,35.3772v3.811a.48846.48846,0,0,1-.29639.51807,9.95317,9.95317,0,0,1-2.23828.49951,23.82942,23.82942,0,0,1-2.90479.1665,16.35868,16.35868,0,0,1-4.08838-.49951,12.09371,12.09371,0,0,1-3.53369-1.51709,10.78257,10.78257,0,0,1-2.73779-2.49756,11.06344,11.06344,0,0,1-1.77588-3.44091,14.493,14.493,0,0,1-.62891-4.43995,12.93291,12.93291,0,0,1,1.62793-6.56762,11.22267,11.22267,0,0,1,4.625-4.40308,15.18132,15.18132,0,0,1,7.14063-1.57251,23.36844,23.36844,0,0,1,2.86767.1482,8.60568,8.60568,0,0,1,1.94288.44384.47678.47678,0,0,1,.18457.44409v4.07007c0,.22193-.08692.2959-.25879.22193a8.00229,8.00229,0,0,0-2.18311-.64746,16.975,16.975,0,0,0-2.70068-.20362,8.54772,8.54772,0,0,0-4.25537.999,6.92551,6.92551,0,0,0-2.7378,2.75659,8.53978,8.53978,0,0,0-.96191,4.16235,8.99887,8.99887,0,0,0,.4624,3.03418,7.20309,7.20309,0,0,0,1.27637,2.25684,6.327,6.327,0,0,0,1.8501,1.51709,9.12019,9.12019,0,0,0,2.20117.83252,9.81079,9.81079,0,0,0,2.27588.27758,24.96353,24.96353,0,0,0,2.49756-.11108,9.05654,9.05654,0,0,0,2.05322-.44409q.14721-.111.22217-.05542A.29553.29553,0,0,1,34.70142,35.3772Z"/><path class="cls-2" d="M38.80786,25.90527H36.58765c-.17286-.02441-.25928-.11108-.25928-.259V21.87231a.22919.22919,0,0,1,.25928-.259h2.22021v-.592a13.00077,13.00077,0,0,1,.18457-2.3125,7.33539,7.33539,0,0,1,.59229-1.86865,6.421,6.421,0,0,1,2.10888-2.479,6.18505,6.18505,0,0,1,3.626-.96191,9.46677,9.46677,0,0,1,1.07324.05542,3.32825,3.32825,0,0,1,.85059.20361.38055.38055,0,0,1,.25928.36988v3.66308q0,.25927-.29639.18506a3.96562,3.96562,0,0,0-.55469-.03711h-.55469a2.50607,2.50607,0,0,0-1.166.259,1.58382,1.58382,0,0,0-.73975.86963,4.59232,4.59232,0,0,0-.24072,1.64649v.999h3.1084c.14746,0,.24023.02466.27734.074a.36848.36848,0,0,1,.05567.22192v3.73706q0,.25928-.333.259h-3.1084V39.66919a.49676.49676,0,0,1-.05518.22192c-.03711.074-.12939.11109-.27783.11109H39.10376c-.19775,0-.2959-.11109-.2959-.333Z"/></g></g></svg>