<svg xmlns="http://www.w3.org/2000/svg" viewBox="0 0 150 50" fill="#002f87"><path d="M40.3 9.2h24.2v8.7H51.3V21h8.3v7.9h-8.3v10.7h-11zm38.9 0v23.1h12v7.2H68.5V9.2zm16.9 0h10.7v30.3H96.1zm40.8 17.1c.9-.3 1.7-.8 2.4-1.3 1-.8 1.8-1.7 2.4-2.9.6-1.1.9-2.3.9-3.6 0-1.1-.2-2.2-.7-3.3s-1.2-2-2.1-2.9c-1.2-1.1-2.7-2-4.4-2.5S131.5 9 129 9h-16.7v30.3H123V27.7l10.3 11.6h13.4l-13-12.4c1.2 0 2.3-.3 3.2-.6m-14-11h2c2.3 0 3.9.3 4.9 1a3.04 3.04 0 0 1 1.2 1.3c.3.5.4 1 .4 1.5s-.2 1-.5 1.5-.7.9-1.2 1.3c-1 .7-2.6 1-4.9 1h-2v-7.6zM8.3 25.3l8.9-8.9 8.9 8.9-8.9 8.9-8.9-8.9zM0 17l8.2 8.2L0 33.4l17.1 17.1 17.1-17-8.2-8.2 8.2-8.2L17.1 0 0 17zm144.5-5.5h.6c.3 0 .4-.2.4-.5 0-.2-.1-.4-.4-.4h-.6v.9zm0 1.6h-.5v-2.8h1.1c.5 0 .8.4.8.7s-.3.6-.6.7c.4 0 .5.1.5.7 0 .1 0 .6.1.7h-.5c-.1-.2-.1-.6-.1-.9s-.3-.3-.4-.3h-.5v1.2zm-1.7-1.4c0 1.2.9 2.1 2.1 2.1s2.1-.9 2.1-2.1-.9-2.1-2.1-2.1c-1.1 0-2.1.9-2.1 2.1m4.6 0c0 1.4-1.1 2.5-2.4 2.5-1.4 0-2.5-1.1-2.5-2.5s1.1-2.4 2.5-2.4c1.3-.1 2.4 1 2.4 2.4"/></svg>