<svg xmlns="http://www.w3.org/2000/svg" width="65" height="65" viewBox="0 0 65 65"><defs><style>.a,.c,.d,.e,.g{fill:none;}.b,.g{stroke:#707070;}.b,.d,.f{stroke-width:2px;}.c,.d,.f{stroke:#f56d22;}.c,.g{stroke-linecap:round;}.c{stroke-dasharray:1 4;}.h,.i{stroke:none;}.i{fill:#707070;}</style></defs><g transform="translate(-1561 -192)"><rect class="a" width="65" height="65" transform="translate(1561 192)"/><g transform="translate(-4.736 151)"><g class="b" transform="translate(1598.093 53.037)"><path class="h" d="M0,0H16.667a5,5,0,0,1,5,5V34.722a5,5,0,0,1-5,5H0a0,0,0,0,1,0,0V0A0,0,0,0,1,0,0Z"/><path class="a" d="M2,1H16.667a4,4,0,0,1,4,4V34.722a4,4,0,0,1-4,4H2a1,1,0,0,1-1-1V2A1,1,0,0,1,2,1Z"/></g><path class="c" d="M0,0H10.241a3,3,0,0,1,3,3V22.278a3,3,0,0,1-3,3H0a0,0,0,0,1,0,0V0A0,0,0,0,1,0,0Z" transform="translate(1599.296 60.259)"/><path class="d" d="M-1702.247,3186.432h-6.393l-3.964-4.586" transform="translate(3302.748 -3120.568)"/><path class="d" d="M-1702.247,3181.845h-6.393l-3.964,4.587" transform="translate(3302.748 -3098.901)"/><line class="d" x2="10.833" transform="translate(1587.861 74.102)"/><g class="e" transform="translate(1568 41)"><path class="h" d="M17.671,58.942c-.285.025-.574.039-.867.039A10.032,10.032,0,0,1,6.982,48.75a10.56,10.56,0,0,1,.8-4.044,13.479,13.479,0,0,1-.623-24.119,10.733,10.733,0,0,1-.175-1.931A10.033,10.033,0,0,1,16.8,8.426q.352,0,.7.026-.023-.311-.023-.628A7.672,7.672,0,0,1,24.989,0,7.672,7.672,0,0,1,32.5,7.824a8.221,8.221,0,0,1-.074,1.1,3.656,3.656,0,0,1,.074.736v48.09a3.638,3.638,0,0,1-.18,1.134,7.451,7.451,0,0,1-14.65.06Z"/><path class="i" d="M 24.98940086364746 62.99980163574219 C 26.2538013458252 62.99980163574219 27.4428596496582 62.55947113037109 28.42801094055176 61.72642135620117 C 29.40414047241211 60.9010124206543 30.09200096130371 59.74258041381836 30.36487007141113 58.46451950073242 L 30.38702011108398 58.36078262329102 L 30.42003059387207 58.25996017456055 C 30.4736213684082 58.09622192382812 30.50080108642578 57.92414093017578 30.50080108642578 57.74850082397461 L 30.50080108642578 9.658801078796387 C 30.50080108642578 9.54585075378418 30.48950004577637 9.433550834655762 30.46721076965332 9.325000762939453 L 30.39888000488281 8.992151260375977 L 30.44429969787598 8.655401229858398 C 30.4811897277832 8.381911277770996 30.49990081787109 8.102090835571289 30.49990081787109 7.823700904846191 C 30.49990081787109 4.612500667572021 28.02790069580078 2.000000715255737 24.98940086364746 2.000000715255737 C 21.95090103149414 2.000000715255737 19.47890090942383 4.612500667572021 19.47890090942383 7.823700904846191 C 19.47890090942383 7.981490612030029 19.48494148254395 8.143250465393066 19.49686050415039 8.30448055267334 L 19.66787147521973 10.61813068389893 L 17.35427093505859 10.4464111328125 C 17.16997146606445 10.43274116516113 16.98480033874512 10.42580127716064 16.80389976501465 10.42580127716064 C 12.49100017547607 10.42580127716064 8.982200622558594 14.11830043792725 8.982200622558594 18.65700149536133 C 8.982200622558594 19.1837100982666 9.029980659484863 19.71227073669434 9.124220848083496 20.22799110412598 L 9.392590522766113 21.69659042358398 L 8.060910224914551 22.37148094177246 C 6.278010368347168 23.27505111694336 4.768170356750488 24.67843055725098 3.694620609283447 26.42990112304688 C 2.585990428924561 28.23860168457031 2.000000476837158 30.33758163452148 2.000000476837158 32.49990081787109 C 2.000000476837158 34.76880264282227 2.640710592269897 36.95446014404297 3.852870464324951 38.82060241699219 C 5.028880596160889 40.63109970092773 6.664650440216064 42.03316116333008 8.583340644836426 42.87520980834961 L 10.37605094909668 43.66197204589844 L 9.627730369567871 45.4710693359375 C 9.199390411376953 46.50661087036133 8.982200622558594 47.60990142822266 8.982200622558594 48.75030136108398 C 8.982200622558594 53.28850173950195 12.49100017547607 56.9806022644043 16.80389976501465 56.9806022644043 C 17.02978134155273 56.9806022644043 17.26217079162598 56.97019195556641 17.49463081359863 56.94966125488281 L 19.24361991882324 56.79516983032227 L 19.62328147888184 58.50942993164062 C 19.90394020080566 59.77664184570312 20.59419059753418 60.92398071289062 21.5669002532959 61.7401008605957 C 22.54911041259766 62.56420135498047 23.73258972167969 62.99980163574219 24.98940086364746 62.99980163574219 M 24.98940086364746 64.99980163574219 C 21.42450141906738 64.99980163574219 18.43920135498047 62.41230010986328 17.67060089111328 58.94190216064453 C 17.38529968261719 58.96710205078125 17.09640121459961 58.9806022644043 16.80389976501465 58.9806022644043 C 11.37960052490234 58.9806022644043 6.982200622558594 54.4005012512207 6.982200622558594 48.75030136108398 C 6.982200622558594 47.31389999389648 7.266600608825684 45.94680023193359 7.779600620269775 44.70660018920898 C 3.208500623703003 42.70050048828125 5.432128773463774e-07 37.99079895019531 5.432128773463774e-07 32.49990081787109 C 5.432128773463774e-07 27.26189994812012 2.919600486755371 22.73490142822266 7.156800746917725 20.58750152587891 C 7.042500495910645 19.96199989318848 6.982200622558594 19.31669998168945 6.982200622558594 18.65700149536133 C 6.982200622558594 13.00680065155029 11.37960052490234 8.425801277160645 16.80389976501465 8.425801277160645 C 17.0388011932373 8.425801277160645 17.27190017700195 8.43480110168457 17.50230026245117 8.451900482177734 C 17.48700141906738 8.244900703430176 17.47890090942383 8.035201072692871 17.47890090942383 7.823700904846191 C 17.47890090942383 3.502800703048706 20.84130096435547 8.178710686479462e-07 24.98940086364746 8.178710686479462e-07 C 29.13750076293945 8.178710686479462e-07 32.49990081787109 3.502800703048706 32.49990081787109 7.823700904846191 C 32.49990081787109 8.196630477905273 32.47478103637695 8.563751220703125 32.42634963989258 8.922770500183105 C 32.47515869140625 9.160511016845703 32.50080108642578 9.406620979309082 32.50080108642578 9.658801078796387 L 32.50080108642578 57.74850082397461 C 32.50080108642578 58.14426040649414 32.43756103515625 58.525390625 32.3207893371582 58.88212966918945 C 31.57342147827148 62.38253021240234 28.57493019104004 64.99980163574219 24.98940086364746 64.99980163574219 Z"/></g><g class="f" transform="translate(1581.241 69.889)"><circle class="h" cx="4.213" cy="4.213" r="4.213"/><circle class="a" cx="4.213" cy="4.213" r="3.213"/></g><g class="f" transform="translate(1584.852 55.444)"><circle class="h" cx="4.213" cy="4.213" r="4.213"/><circle class="a" cx="4.213" cy="4.213" r="3.213"/></g><g class="f" transform="translate(1584.852 84.333)"><circle class="h" cx="4.213" cy="4.213" r="4.213"/><circle class="a" cx="4.213" cy="4.213" r="3.213"/></g><line class="g" x2="4.815" transform="translate(1619.157 72.898)"/><line class="g" x2="4.815" transform="translate(1619.157 66.88)"/><line class="g" x2="4.815" transform="translate(1610.13 54.241) rotate(-90)"/><line class="g" x2="4.815" transform="translate(1610.13 96.37) rotate(-90)"/><line class="g" x2="4.815" transform="translate(1619.157 84.935)"/><line class="g" x2="4.815" transform="translate(1619.157 60.861)"/><line class="g" x2="4.815" transform="translate(1604.111 54.241) rotate(-90)"/><line class="g" x2="4.815" transform="translate(1604.111 96.37) rotate(-90)"/><line class="g" x2="4.815" transform="translate(1619.157 78.917)"/></g></g></svg>