<svg xmlns="http://www.w3.org/2000/svg" width="66" height="67.325" viewBox="0 0 66 67.325"><defs><style>.a,.c{fill:none;}.b{stroke-linejoin:round;}.c{stroke:#f56d22;stroke-linecap:round;stroke-dasharray:1 2;}.d{fill:#707070;}.e,.f{stroke:none;}.f{fill:#f56d22;}</style></defs><g transform="translate(-1261 -454.675)"><rect class="a" width="66" height="66" transform="translate(1261 456)"/><g class="b" transform="translate(1287.055 454.675) rotate(30)"><path class="e" d="M 21.91159629821777 26 L 8.088404655456543 26 L 1.143959999084473 13.5 L 8.088404655456543 1 L 21.91159629821777 1 L 28.85603904724121 13.5 L 21.91159629821777 26 Z"/><path class="f" d="M 8.676803588867188 2 L 2.28791618347168 13.5 L 8.676803588867188 25 L 21.32319641113281 25 L 27.71208381652832 13.5 L 21.32319641113281 2 L 8.676803588867188 2 M 7.5 0 L 22.5 0 L 30 13.5 L 22.5 27 L 7.5 27 L 0 13.5 L 7.5 0 Z"/></g><path class="c" d="M-2017.019,3546.259l11.244,5.832,11.7-5.832" transform="translate(3299 -3079)"/><path class="c" d="M-2005.956,3566.572v-14.794" transform="translate(3299 -3079)"/><path class="d" d="M44.93,25.928l3.887-1.159a.9.9,0,1,0-.517-1.732l-6.064,1.808a.9.9,0,0,0-.607,1.125l1.808,6.064a.9.9,0,0,0,.866.645.921.921,0,0,0,.259-.037.9.9,0,0,0,.607-1.125l-1.21-4.06c5.4,2.964,8.475,7.15,8.475,11.6,0,8.593-11.355,15.583-25.312,15.583S1.808,47.649,1.808,39.056c0-4.44,3.083-8.631,8.48-11.6l-1.21,4.056a.9.9,0,0,0,.607,1.125.921.921,0,0,0,.259.037.9.9,0,0,0,.866-.645l1.808-6.064a.9.9,0,0,0-.607-1.125L5.947,23.037a.9.9,0,0,0-.517,1.732l3.887,1.16C3.386,29.22,0,33.961,0,39.056c0,9.59,12.166,17.391,27.12,17.391s27.12-7.8,27.12-17.391C54.241,33.952,50.861,29.219,44.93,25.928Z" transform="translate(1266.175 462.192)"/><path class="d" d="M20.63,33A3.611,3.611,0,0,0,17.2,35.473a.9.9,0,0,0,1.718.57,1.808,1.808,0,1,1,1.718,2.38.9.9,0,1,0,0,1.808,1.808,1.808,0,1,1-1.718,2.38.9.9,0,0,0-1.718.57,3.616,3.616,0,1,0,5.825-3.855A3.616,3.616,0,0,0,20.63,33Z" transform="translate(1264.529 461.232)"/><path class="d" d="M29.615,45.655a3.866,3.866,0,0,0,3.616-4.068,3.866,3.866,0,0,0-3.616-4.068,3.229,3.229,0,0,0-1.2.248,4.972,4.972,0,0,1,2.473-3.039.9.9,0,1,0-.739-1.649c-4.1,1.841-4.15,7.8-4.15,8.057a.884.884,0,0,0,.028.139c-.007.1-.028.206-.028.313A3.866,3.866,0,0,0,29.615,45.655Zm0-6.328a2.317,2.317,0,0,1,0,4.52,2.317,2.317,0,0,1,0-4.52Z" transform="translate(1263.68 461.233)"/><path class="d" d="M35,36.616V42.04a3.616,3.616,0,0,0,7.232,0V36.616a3.616,3.616,0,0,0-7.232,0Zm5.424,0V42.04a1.808,1.808,0,0,1-3.616,0V36.616a1.808,1.808,0,0,1,3.616,0Z" transform="translate(1262.815 461.232)"/></g></svg>