<svg xmlns="http://www.w3.org/2000/svg" width="75" height="66" viewBox="0 0 75 66"><defs><style>.a,.c,.d{fill:none;}.b,.c,.d{stroke:#707070;}.b{stroke-linejoin:round;}.b,.c,.d,.e{stroke-width:2px;}.d{stroke-dasharray:2 3;}.e{stroke:#f56d22;}.f{stroke:none;}</style></defs><g transform="translate(-1252 -622)"><rect class="a" width="75" height="66" transform="translate(1252 622)"/><g transform="translate(-61 -80.5)"><path class="b" d="M3310-3015v-6.715c-.763-8.874-6.986-15.369-6.986-15.369l.241.026q-.335-.511-.638-1.042A20,20,0,0,1,3300-3048a19.862,19.862,0,0,1,1.571-7.784,19.934,19.934,0,0,1,4.287-6.358,19.949,19.949,0,0,1,6.359-4.287A19.862,19.862,0,0,1,3320-3068a19.945,19.945,0,0,1,13.528,5.269,19.934,19.934,0,0,1,6.39,12.912l.008.1.026.091,4.129,14.4H3337V-3023h-12v8Z" transform="translate(-1958.001 3778)"/><rect width="21" height="37" transform="translate(1334 709)"/><g transform="translate(-3)"><line class="c" y2="26" transform="translate(1352.5 713.5)"/><line class="c" y2="26" transform="translate(1368.192 724.308) rotate(45)"/><line class="c" y1="26" transform="translate(1349.808 709.999) rotate(-45)"/><line class="c" y2="26" transform="translate(1355.192 709.999) rotate(45)"/><line class="c" y1="26" transform="translate(1336.808 724.308) rotate(-45)"/><line class="c" y2="26" transform="translate(1366 726.5) rotate(90)"/><line class="d" x1="14" transform="translate(1325.5 726.5)"/><line class="d" x1="14" transform="translate(1327.55 714.05) rotate(45)"/><line class="d" x1="14" transform="translate(1327.55 738.692) rotate(-45)"/><g class="e" transform="translate(1348 722)"><circle class="f" cx="4.5" cy="4.5" r="4.5"/><circle class="a" cx="4.5" cy="4.5" r="3.5"/></g><g class="e" transform="translate(1321 722)"><circle class="f" cx="4.5" cy="4.5" r="4.5"/><circle class="a" cx="4.5" cy="4.5" r="3.5"/></g><g class="e" transform="translate(1321 708)"><circle class="f" cx="4.5" cy="4.5" r="4.5"/><circle class="a" cx="4.5" cy="4.5" r="3.5"/></g><g class="e" transform="translate(1321 736)"><circle class="f" cx="4.5" cy="4.5" r="4.5"/><circle class="a" cx="4.5" cy="4.5" r="3.5"/></g><g class="e" transform="translate(1335 722)"><circle class="f" cx="4.5" cy="4.5" r="4.5"/><circle class="a" cx="4.5" cy="4.5" r="3.5"/></g><g class="e" transform="translate(1348 709)"><circle class="f" cx="4.5" cy="4.5" r="4.5"/><circle class="a" cx="4.5" cy="4.5" r="3.5"/></g><g class="e" transform="translate(1361 722)"><circle class="f" cx="4.5" cy="4.5" r="4.5"/><circle class="a" cx="4.5" cy="4.5" r="3.5"/></g><g class="e" transform="translate(1348 735)"><circle class="f" cx="4.5" cy="4.5" r="4.5"/><circle class="a" cx="4.5" cy="4.5" r="3.5"/></g></g></g></g></svg>