<svg xmlns="http://www.w3.org/2000/svg" width="65" height="65" viewBox="0 0 65 65"><defs><style>.a{fill:none;}.b{stroke:#707070;}.b,.c{stroke-width:2px;}.c,.d{stroke:#f56d22;}.d{stroke-dasharray:4 2;}.e,.f{stroke:none;}.f{fill:#f56d22;}</style></defs><g transform="translate(-1561 -192)"><rect class="a" width="65" height="65" transform="translate(1561 192)"/><g transform="translate(-86 -255)"><g class="b" transform="translate(1666 489)"><rect class="e" width="33" height="9"/><rect class="a" x="1" y="1" width="31" height="7"/></g><g class="b" transform="translate(1672 482)"><rect class="e" width="34" height="9"/><rect class="a" x="1" y="1" width="32" height="7"/></g><g class="b" transform="translate(1677 475)"><rect class="e" width="34" height="9"/><rect class="a" x="1" y="1" width="32" height="7"/></g><g class="b" transform="translate(1672 468)"><rect class="e" width="34" height="9"/><rect class="a" x="1" y="1" width="32" height="7"/></g><g class="b" transform="translate(1670 461)"><rect class="e" width="41" height="9"/><rect class="a" x="1" y="1" width="39" height="7"/></g><g class="b" transform="translate(1664 454)"><rect class="e" width="41" height="9"/><rect class="a" x="1" y="1" width="39" height="7"/></g><g class="c" transform="translate(1649 461)"><circle class="e" cx="18.5" cy="18.5" r="18.5"/><circle class="a" cx="18.5" cy="18.5" r="17.5"/></g><g class="d" transform="translate(1654 466)"><circle class="e" cx="13.5" cy="13.5" r="13.5"/><circle class="a" cx="13.5" cy="13.5" r="13"/></g><g transform="translate(1658.628 477.779) rotate(-30)"><path class="e" d="M 9.463493347167969 12.48642730712891 C 9.124543190002441 12.48645782470703 8.787053108215332 12.39780807495117 8.487513542175293 12.23006725311279 L 6.957073211669922 11.37302780151367 L 5.426633358001709 12.23006725311279 C 5.12717342376709 12.39776802062988 4.78972339630127 12.48640727996826 4.450773239135742 12.48642730712891 C 3.366183280944824 12.4864673614502 2.468513250350952 11.60418796539307 2.449723243713379 10.51968765258789 L 2.418663263320923 8.725787162780762 L 0.8889032006263733 7.797017574310303 C 0.2865032255649567 7.431267738342285 -0.07313679158687592 6.792177677154541 -0.07313679158687592 6.087437629699707 C -0.07313679158687592 5.382697582244873 0.2865032255649567 4.743607521057129 0.8889032006263733 4.377857685089111 L 2.418673276901245 3.449087619781494 L 2.449723243713379 1.655197620391846 C 2.468513250350952 0.5707276463508606 3.36616325378418 -0.3115523755550385 4.450733184814453 -0.3115523755550385 C 4.78968334197998 -0.3115523755550385 5.127143383026123 -0.2229023724794388 5.426633358001709 -0.05518237128853798 L 6.9570631980896 0.8018576502799988 L 8.487513542175293 -0.05519236996769905 C 8.786993026733398 -0.2229023724794388 9.124453544616699 -0.3115523755550385 9.463413238525391 -0.3115523755550385 C 10.54798316955566 -0.3115523755550385 11.44563293457031 0.5707276463508606 11.46442317962646 1.655187606811523 L 11.4954833984375 3.449087619781494 L 13.02524280548096 4.377857685089111 C 13.62764358520508 4.743607521057129 13.98728275299072 5.382697582244873 13.98728275299072 6.087437629699707 C 13.98728275299072 6.792177677154541 13.62764358520508 7.431267738342285 13.02524280548096 7.797017574310303 L 11.4954833984375 8.725797653198242 L 11.46442317962646 10.51967716217041 C 11.44564342498779 11.60405731201172 10.54802322387695 12.48632717132568 9.463493347167969 12.48642730712891 Z"/><path class="f" d="M 4.450729370117188 0.688450813293457 C 3.933852195739746 0.6884965896606445 3.459538459777832 1.097265243530273 3.449573516845703 1.672507286071777 L 3.418513298034668 3.466397285461426 C 3.412572860717773 3.809587478637695 3.231033325195312 4.125737190246582 2.937643051147461 4.303867816925049 L 1.407883644104004 5.23264741897583 C 0.7665233612060547 5.622047424316406 0.7665233612060547 6.552827835083008 1.407883644104004 6.942227840423584 L 2.937643051147461 7.871007442474365 C 3.231033325195312 8.049137115478516 3.412572860717773 8.365297317504883 3.418513298034668 8.708477973937988 L 3.449573516845703 10.50236797332764 C 3.462672233581543 11.25858783721924 4.27812385559082 11.72710800170898 4.938033103942871 11.35755729675293 L 6.468473434448242 10.50051784515381 C 6.77202320098877 10.33051776885986 7.142123222351074 10.33051776885986 7.445672988891602 10.50051784515381 L 8.976113319396973 11.35755729675293 C 9.636022567749023 11.72710704803467 10.45147323608398 11.25858783721924 10.46457290649414 10.50236797332764 L 10.49563312530518 8.708477973937988 C 10.50157356262207 8.365297317504883 10.68311309814453 8.049137115478516 10.97650337219238 7.871007442474365 L 12.50626373291016 6.942227840423584 C 13.14762306213379 6.552827835083008 13.14762306213379 5.622047424316406 12.50626373291016 5.23264741897583 L 10.97650337219238 4.303867816925049 C 10.68311309814453 4.125737190246582 10.50157356262207 3.809577941894531 10.49563312530518 3.466397285461426 L 10.46457290649414 1.672507286071777 C 10.45147323608398 0.9162874221801758 9.636022567749023 0.4477672576904297 8.976113319396973 0.8173179626464844 L 7.445672988891602 1.674367904663086 C 7.142113208770752 1.844357490539551 6.772022247314453 1.844355583190918 6.46846342086792 1.674367904663086 L 4.938023567199707 0.8173179626464844 C 4.780094146728516 0.728877067565918 4.613344192504883 0.6884365081787109 4.450729370117188 0.688450813293457 M 4.450543403625488 -1.311552047729492 L 4.450613021850586 -1.311552047729492 C 4.960283279418945 -1.311582565307617 5.466732978820801 -1.178852081298828 5.915223121643066 -0.9277019500732422 L 6.957065582275391 -0.3442649841308594 L 7.998903274536133 -0.9276924133300781 C 8.447322845458984 -1.178812026977539 8.953752517700195 -1.311552047729492 9.463413238525391 -1.311552047729492 C 10.23266315460205 -1.311552047729492 10.96553325653076 -1.01964282989502 11.52701377868652 -0.4895925521850586 C 12.11729335784912 0.06763744354248047 12.45015335083008 0.8231773376464844 12.46427345275879 1.637847900390625 L 12.4857873916626 2.880456924438477 L 13.54421329498291 3.523067474365234 C 14.4478235244751 4.071687698364258 14.98728370666504 5.030327796936035 14.98728370666504 6.087437629699707 C 14.98728370666504 7.144547462463379 14.4478235244751 8.103187561035156 13.54422283172607 8.651797294616699 L 12.4857873916626 9.29442024230957 L 12.46427345275879 10.5369873046875 C 12.45016288757324 11.35164737701416 12.11730289459229 12.10719776153564 11.52700328826904 12.66445732116699 C 10.96550369262695 13.19450759887695 10.23264312744141 13.48642730712891 9.463413238525391 13.48642730712891 C 8.953763008117676 13.48642730712891 8.447343826293945 13.35369777679443 7.998913288116455 13.10257720947266 L 6.957069873809814 12.51914978027344 L 5.915233135223389 13.10257720947266 C 5.466823577880859 13.35368728637695 4.960392951965332 13.48642730712891 4.450733184814453 13.48642730712891 C 3.681483268737793 13.48642730712891 2.948613166809082 13.19451713562012 2.387133598327637 12.66446781158447 C 1.796853065490723 12.10723781585693 1.463993072509766 11.35169792175293 1.449872970581055 10.53702735900879 L 1.428359031677246 9.294418334960938 L 0.3699331283569336 8.65180778503418 C -0.5336771011352539 8.103187561035156 -1.073136329650879 7.144547462463379 -1.073136329650879 6.087437629699707 C -1.073136329650879 5.030327796936035 -0.5336771011352539 4.071687698364258 0.3699235916137695 3.523077964782715 L 1.428359031677246 2.880455017089844 L 1.449872970581055 1.637887954711914 C 1.463983535766602 0.8232173919677734 1.796853065490723 0.06766796112060547 2.387163162231445 -0.4895820617675781 C 2.948593139648438 -1.019562721252441 3.68138313293457 -1.311482429504395 4.450543403625488 -1.311552047729492 Z"/></g></g></g></svg>