<?xml version="1.0" encoding="utf-8"?>
<!DOCTYPE svg PUBLIC "-//W3C//DTD SVG 1.1//EN" "http://www.w3.org/Graphics/SVG/1.1/DTD/svg11.dtd">
<svg version="1.1" id="Layer_1" xmlns="http://www.w3.org/2000/svg" xmlns:xlink="http://www.w3.org/1999/xlink" x="0px" y="0px" viewBox="-180 -2 756 252">
<g>
	<circle fill="#E82425" cx="124" cy="123.999" r="124"/>
	<g id="mura-logo-lockup">
		<g id="Group-2">
			<g id="mura-logo-2020">
				<path id="Path" shape-rendering="geometricPrecision" fill="#FFFFFF" d="M39.923,151.051h10.03l-1.288,7.896
					c3.309-5.107,8.275-8.645,14.989-8.645c7.454,0,12.243,3.253,13.25,9.295c3.686-5.693,9.922-9.174,16.655-9.295
					c10.03,0,15.456,6.506,13.894,15.988l-4.878,31.607h-10.03l4.508-29.088c1.014-5.854-1.747-9.758-7.631-9.758
					c-6.907,0-11.777,6.132-13.162,15.15l-3.767,23.695h-9.941l4.508-29.088c1.014-5.854-1.65-9.758-7.542-9.758
					c-6.898,0-11.777,6.221-13.153,15.15l-3.775,23.695H32.565L39.923,151.051z"/>
				<path id="Path_1_" shape-rendering="geometricPrecision" fill="#FFFFFF" d="M150.37,197.158h-10.131l1.211-7.807
					c-3.951,5.286-10.128,8.443-16.726,8.547c-9.944,0-15.896-6.596-14.222-16.729l4.797-30.866h10.164l-4.553,28.531
					c-0.927,5.856,2.138,9.947,8.082,9.947c7.814,0,13.661-6.693,15.449-17.934l3.252-20.545h10.124L150.37,197.158z"/>
				<path id="Path_2_" shape-rendering="geometricPrecision" fill="#FFFFFF" d="M184.888,159.782
					c-6.502,0-14.223,6.132-16.481,20.632l-2.826,17.484h-10.268l7.532-46.842h10.268l-1.508,9.295
					c3.016-5.579,9.889-10.043,16.011-10.043c1.793-0.047,3.58,0.229,5.273,0.813l-2.167,9.759
					C188.875,160.118,186.889,159.744,184.888,159.782z"/>
				<path id="Shape" shape-rendering="geometricPrecision" fill="#FFFFFF" d="M232.684,170.211
					c1.902-11.832-5.889-19.908-17.849-19.908c-9.868,0-18.927,5.877-20.924,15.053l8.79,1.605c0.903-5.5,5.342-8.831,10.961-8.831
					c6.158,0,10.684,3.492,9.875,9.176l-0.094,0.803l-9.781,0.803c-15.582,1.47-23.278,6.968-23.278,16.513
					c0,6.977,5.707,12.475,14.037,12.475c6.341,0,12.317-3.025,15.488-7.706l-1.086,7.097h4.367c2.49-3.391,4.81-6.906,6.951-10.532
					L232.684,170.211z M221.811,178.022l0.182-1.011c-1.807,8.348-6.792,13.301-14.488,13.301c-4.756,0-7.435-2.408-7.435-5.779
					c0-4.584,4.082-7.152,12.507-7.979l9.693-1.012L221.811,178.022z"/>
			</g>
			<g id="Group" transform="translate(258.000000, 168.000000)">
				<path id="ability" shape-rendering="geometricPrecision" fill="#1E1E1E" d="M89.889,24.939c2.63,0,5.007-1.254,6.052-3.274
					v2.995h3.025V13.41c0-4.075-3.062-6.583-7.456-6.583c-3.818,0-6.809,2.264-7.349,5.747l2.846,0.522
					C87.259,10.729,89.024,9.3,91.51,9.3c2.665,0,4.431,1.532,4.431,3.937v0.348l-3.53,0.383c-5.8,0.559-8.646,2.404-8.646,5.783
					C83.765,22.779,86.25,24.939,89.889,24.939z M90.356,22.501c-2.089,0-3.53-1.149-3.53-2.786c0-1.846,1.91-3.065,5.584-3.449
					l3.53-0.383v0.836C95.94,20.237,93.887,22.501,90.356,22.501z M112.907,24.939c5.655,0,8.753-3.901,8.753-9.057
					c0-5.154-3.098-9.056-8.717-9.056c-2.414,0-4.791,1.149-5.944,2.786V0h-3.062v24.66h3.062v-2.542
					C107.828,23.721,110.241,24.939,112.907,24.939z M112.619,22.292c-3.566,0-5.872-2.542-5.872-6.409
					c0-3.866,2.306-6.408,5.872-6.408s5.907,2.542,5.907,6.408C118.526,19.75,116.186,22.292,112.619,22.292z M128.901,3.762V0
					h-3.53v3.762H128.901z M128.648,24.66V7.105h-3.062V24.66H128.648z M136.682,24.66V0h-3.062v24.66H136.682z M144.967,3.762V0
					h-3.529v3.762H144.967z M144.715,24.66V7.105h-3.062V24.66H144.715z M156.494,24.939c0.973,0,1.945-0.104,2.846-0.418
					l-0.216-2.717c-0.721,0.348-1.549,0.453-2.27,0.453c-1.585,0-2.665-0.906-2.665-2.752V9.718h4.862V7.105h-4.862V1.776h-3.063
					v5.329h-3.386v2.612h3.386v9.684C151.127,23.268,153.396,24.939,156.494,24.939z M168.49,31L178,7.105h-3.134l-5.331,13.445
					l-5.332-13.445h-3.313l7.096,17.312L165.356,31H168.49z"/>
				<ellipse id="Oval-Copy" shape-rendering="geometricPrecision" fill="#E82425" cx="74.603" cy="21.959" rx="3.927" ry="3.875"/>
				<path id="own" shape-rendering="geometricPrecision" fill="#1E1E1E" d="M9.185,25.834c5.346,0,9.221-3.791,9.221-9.043
					c0-5.25-3.875-9.041-9.221-9.041C3.803,7.75,0,11.541,0,16.791C0,22.043,3.803,25.834,9.185,25.834z M9.185,23.19
					c-3.624,0-6.063-2.644-6.063-6.399c0-3.755,2.439-6.398,6.063-6.398s6.063,2.644,6.063,6.398
					C15.248,20.547,12.809,23.19,9.185,23.19z M29.313,25.555l4.233-13.318l4.233,13.318h2.979l5.561-17.526h-3.193L39.25,21.417
					L35.017,8.028h-2.942l-4.232,13.389L23.931,8.028h-3.122l5.525,17.526H29.313z M52.776,25.555v-7.686
					c0-4.625,2.152-7.441,5.525-7.441c2.547,0,4.09,1.704,4.09,4.068v11.059h3.05V13.939c0-3.721-2.691-6.189-6.458-6.189
					c-2.763,0-4.951,1.495-6.207,3.582V8.028h-3.05v17.526H52.776z"/>
			</g>
		</g>
	</g>
</g>
</svg>
