<?xml version="1.0" encoding="UTF-8"?>
<svg viewBox="-62 0 306 102" version="1.1" xmlns="http://www.w3.org/2000/svg" xmlns:xlink="http://www.w3.org/1999/xlink">
    <g id="Page-5" stroke="none" stroke-width="1" fill="none" fill-rule="evenodd">
        <g id="pix-home-2" transform="translate(-166.000000, -30.000000)" fill="#FF5F01">
            <g id="Pixl8-group-RGB" transform="translate(166.000000, 30.000000)">
                <g id="SVGID_1_-link">
                    <path d="M44.76,30.7301587 C43.8933333,30.5555556 41.9866667,30.3809524 39.3866667,30.3809524 L30.72,30.3809524 L30.72,45.2222222 L39.56,45.2222222 C46.1466667,45.2222222 49.6133333,42.7777778 49.6133333,37.7142857 C49.6133333,36.1428571 49.2666667,34.5714286 48.4,33.3492063 C47.5333333,31.952381 46.32,31.0793651 44.76,30.7301587 L44.76,30.7301587 Z M39.56,51.3333333 L30.8933333,51.3333333 L30.8933333,67.3968254 C30.72,69.1428571 29.68,69.8412698 27.9466667,69.8412698 C27.2533333,69.8412698 26.3866667,69.6666667 25.52,69.1428571 C24.48,68.6190476 23.96,67.9206349 24.1333333,67.2222222 L24.1333333,23.9206349 L39.3866667,23.9206349 C42.3333333,23.9206349 44.5866667,24.0952381 46.32,24.2698413 C50.8266667,25.1428571 53.9466667,27.2380952 55.8533333,30.9047619 C56.72,32.8253968 57.24,34.9206349 57.24,37.1904762 C56.72,46.7936508 51,51.3333333 39.56,51.3333333 L39.56,51.3333333 Z M65.56,70.015873 C63.3066667,70.015873 62.0933333,69.3174603 62.0933333,67.7460317 L62.0933333,26.3650794 C62.0933333,25.4920635 62.6133333,24.7936508 63.48,24.2698413 C64.1733333,23.9206349 65.04,23.7460317 65.9066667,23.7460317 C67.9866667,23.7460317 69.0266667,24.6190476 69.0266667,26.5396825 L69.0266667,67.9206349 C69.0266667,69.3174603 67.9866667,70.015873 65.56,70.015873 L65.56,70.015873 Z M111.146667,69.8412698 C110.453333,70.015873 109.76,70.1904762 109.066667,70.1904762 C106.986667,70.1904762 105.426667,69.4920635 104.56,68.0952381 L93.12,51.3333333 L81.5066667,67.9206349 C80.4666667,69.3174603 78.9066667,70.015873 76.8266667,70.015873 C74.5733333,70.015873 73.36,69.3174603 73.36,68.0952381 C73.36,67.7460317 73.36,67.5714286 73.5333333,67.2222222 L89.1333333,45.7460317 L75.44,26.1904762 C75.2666667,26.015873 75.2666667,25.8412698 75.2666667,25.6666667 C75.2666667,25.1428571 75.7866667,24.6190476 76.8266667,24.0952381 C77.6933333,23.7460317 78.3866667,23.5714286 79.08,23.5714286 C80.9866667,23.5714286 82.5466667,24.2698413 83.4133333,25.4920635 L93.64,39.6349206 L104.56,24.968254 C105.253333,23.9206349 106.64,23.3968254 108.72,23.3968254 C110.973333,23.3968254 112.013333,23.9206349 112.013333,24.968254 C112.013333,25.1428571 112.013333,25.4920635 111.84,25.6666667 L97.28,45.3968254 L112.706667,67.3968254 C112.88,67.5714286 112.88,67.9206349 112.88,68.0952381 C112.88,68.968254 112.36,69.4920635 111.146667,69.8412698 L111.146667,69.8412698 Z M144.426667,69.4920635 L117.906667,69.4920635 L117.906667,26.7142857 C117.906667,25.8412698 118.426667,25.1428571 119.293333,24.6190476 C119.986667,24.2698413 120.853333,24.0952381 121.72,24.0952381 C123.973333,24.0952381 125.013333,24.968254 125.013333,26.8888889 L125.013333,63.3809524 L144.6,63.3809524 C146.333333,63.3809524 147.2,64.4285714 147.2,66.6984127 C147.026667,68.4444444 146.16,69.4920635 144.426667,69.4920635 L144.426667,69.4920635 Z M176.493333,66.5238095 C173.72,68.968254 170.08,70.1904762 165.746667,70.1904762 C161.24,70.1904762 157.773333,68.968254 154.826667,66.5238095 C151.88,63.9047619 150.493333,60.4126984 150.493333,56.047619 C150.493333,53.4285714 151.013333,50.984127 152.053333,48.7142857 C153.093333,46.6190476 154.133333,45.3968254 155.693333,44.6984127 C153.44,43.3015873 152.226667,40.3333333 152.226667,35.7936508 C152.226667,32.1269841 153.613333,29.1587302 156.213333,26.8888889 C158.64,24.7936508 161.76,23.7460317 165.573333,23.7460317 C169.213333,23.7460317 172.506667,24.7936508 174.933333,26.8888889 C177.706667,29.1587302 179.093333,32.1269841 179.093333,35.7936508 C179.093333,37.5396825 178.746667,39.2857143 178.226667,40.8571429 C177.533333,42.7777778 176.493333,44 175.106667,44.6984127 C176.84,45.3968254 178.053333,46.7936508 179.093333,48.7142857 C180.306667,50.984127 180.826667,53.4285714 180.826667,56.047619 C180.826667,60.5873016 179.44,64.0793651 176.493333,66.5238095 L176.493333,66.5238095 Z M165.573333,29.3333333 C163.666667,29.3333333 162.106667,29.8571429 160.893333,31.0793651 C159.506667,32.3015873 158.813333,33.6984127 158.813333,35.6190476 C158.813333,37.7142857 159.506667,39.2857143 160.72,40.6825397 C161.933333,41.9047619 163.666667,42.6031746 165.573333,42.6031746 C167.48,42.6031746 169.213333,41.9047619 170.426667,40.6825397 C171.64,39.4603175 172.333333,37.8888889 172.333333,35.7936508 C172.333333,33.8730159 171.64,32.1269841 170.426667,31.0793651 C169.213333,29.8571429 167.653333,29.3333333 165.573333,29.3333333 L165.573333,29.3333333 Z M165.573333,47.1428571 C163.146667,47.1428571 161.066667,48.015873 159.506667,49.7619048 C157.946667,51.5079365 157.253333,53.6031746 157.253333,56.2222222 C157.253333,58.8412698 157.946667,60.9365079 159.506667,62.5079365 C161.066667,64.0793651 163.146667,64.7777778 165.746667,64.7777778 C168.346667,64.7777778 170.426667,64.0793651 171.986667,62.5079365 C173.546667,60.9365079 174.24,59.015873 174.24,56.3968254 C174.24,53.7777778 173.373333,51.5079365 171.813333,49.7619048 C170.253333,48.015873 168.173333,47.1428571 165.573333,47.1428571 L165.573333,47.1428571 Z M0.04,8.03174603 L0.04,0 L7.84,0 L7.84,8.03174603 L0.04,8.03174603 L0.04,8.03174603 Z M15.8133333,16.0634921 L15.8133333,8.03174603 L23.6133333,8.03174603 L23.6133333,16.0634921 L15.8133333,16.0634921 L15.8133333,16.0634921 Z M7.84,24.0952381 L7.84,16.0634921 L15.64,16.0634921 L15.64,24.0952381 L7.84,24.0952381 L7.84,24.0952381 Z" id="SVGID_1_"></path>
                </g>
                <g id="Group" transform="translate(118.000000, 80.000000)" fill-rule="nonzero">
                    <path d="M14.1468085,15.7882353 C13.2382979,16.3058824 12.3297872,16.6941176 11.2914894,16.8235294 C10.2531915,17.0823529 9.34468085,17.2117647 8.30638298,17.2117647 C7.13829787,17.2117647 5.97021277,16.9529412 5.06170213,16.5647059 C4.02340426,16.1764706 3.24468085,15.6588235 2.46595745,14.8823529 C1.68723404,14.2352941 1.16808511,13.3294118 0.778723404,12.2941176 C0.389361702,11.2588235 0.129787234,10.2235294 0.129787234,9.05882353 C0.129787234,7.89411765 0.389361702,6.72941176 0.778723404,5.69411765 C1.16808511,4.65882353 1.81702128,3.88235294 2.59574468,3.10588235 C3.37446809,2.45882353 4.28297872,1.81176471 5.19148936,1.42352941 C6.22978723,1.03529412 7.26808511,0.776470588 8.43617021,0.776470588 C9.47446809,0.776470588 10.3829787,0.905882353 11.4212766,1.29411765 C12.3297872,1.55294118 13.2382979,2.07058824 13.887234,2.84705882 L12.4595745,4.27058824 C11.9404255,3.75294118 11.2914894,3.23529412 10.512766,2.97647059 C9.73404255,2.71764706 8.95531915,2.45882353 8.17659574,2.45882353 C7.26808511,2.45882353 6.4893617,2.58823529 5.7106383,2.97647059 C4.93191489,3.23529412 4.28297872,3.75294118 3.76382979,4.27058824 C3.24468085,4.78823529 2.72553191,5.56470588 2.46595745,6.34117647 C2.20638298,7.11764706 1.94680851,8.02352941 1.94680851,8.92941176 C1.94680851,9.83529412 2.07659574,10.7411765 2.46595745,11.5176471 C2.72553191,12.2941176 3.24468085,12.9411765 3.76382979,13.5882353 C4.28297872,14.1058824 4.93191489,14.6235294 5.7106383,14.8823529 C6.4893617,15.1411765 7.39787234,15.4 8.30638298,15.4 C8.95531915,15.4 9.60425532,15.2705882 10.2531915,15.1411765 C10.9021277,15.0117647 11.5510638,14.7529412 12.0702128,14.4941176 L12.0702128,9.83529412 L8.56595745,9.83529412 L8.56595745,8.15294118 L13.887234,8.15294118 L13.887234,15.7882353 L14.1468085,15.7882353 Z" id="Path"></path>
                    <path d="M17.7808511,9.05882353 C17.7808511,8.54117647 17.7808511,8.15294118 17.7808511,7.76470588 C17.7808511,7.37647059 17.7808511,6.98823529 17.7808511,6.6 L19.3382979,6.6 C19.3382979,6.85882353 19.3382979,7.11764706 19.3382979,7.37647059 C19.3382979,7.63529412 19.3382979,7.89411765 19.3382979,8.28235294 L19.3382979,8.28235294 C19.4680851,8.02352941 19.5978723,7.76470588 19.8574468,7.50588235 C20.1170213,7.24705882 20.3765957,7.11764706 20.6361702,6.85882353 C20.8957447,6.72941176 21.2851064,6.47058824 21.6744681,6.47058824 C22.0638298,6.34117647 22.4531915,6.34117647 22.8425532,6.34117647 C22.9723404,6.34117647 23.1021277,6.34117647 23.2319149,6.34117647 C23.3617021,6.34117647 23.4914894,6.34117647 23.6212766,6.47058824 L23.3617021,8.28235294 C23.1021277,8.15294118 22.712766,8.15294118 22.4531915,8.15294118 C21.4148936,8.15294118 20.6361702,8.54117647 20.1170213,9.18823529 C19.5978723,9.83529412 19.4680851,10.7411765 19.4680851,11.9058824 L19.4680851,16.8235294 L17.7808511,16.8235294 L17.7808511,9.05882353 Z" id="Path"></path>
                    <path d="M24.4,11.7764706 C24.4,11 24.5297872,10.2235294 24.7893617,9.57647059 C25.0489362,8.92941176 25.4382979,8.41176471 25.9574468,7.89411765 C26.4765957,7.37647059 26.9957447,7.11764706 27.6446809,6.85882353 C28.293617,6.6 29.0723404,6.47058824 29.8510638,6.47058824 C30.6297872,6.47058824 31.4085106,6.6 32.0574468,6.85882353 C32.706383,7.11764706 33.3553191,7.50588235 33.7446809,7.89411765 C34.2638298,8.41176471 34.6531915,8.92941176 34.912766,9.57647059 C35.1723404,10.2235294 35.3021277,11 35.3021277,11.7764706 C35.3021277,12.5529412 35.1723404,13.3294118 34.912766,13.9764706 C34.6531915,14.6235294 34.2638298,15.1411765 33.7446809,15.6588235 C33.2255319,16.1764706 32.706383,16.4352941 32.0574468,16.6941176 C31.4085106,16.9529412 30.6297872,17.0823529 29.8510638,17.0823529 C29.0723404,17.0823529 28.293617,16.9529412 27.6446809,16.6941176 C26.9957447,16.4352941 26.3468085,16.0470588 25.9574468,15.6588235 C25.4382979,15.1411765 25.0489362,14.6235294 24.7893617,13.9764706 C24.5297872,13.3294118 24.4,12.5529412 24.4,11.7764706 Z M26.2170213,11.7764706 C26.2170213,12.2941176 26.3468085,12.8117647 26.4765957,13.2 C26.606383,13.7176471 26.8659574,14.1058824 27.2553191,14.3647059 C27.5148936,14.7529412 27.9042553,15.0117647 28.4234043,15.1411765 C28.812766,15.4 29.3319149,15.4 29.8510638,15.4 C30.3702128,15.4 30.8893617,15.2705882 31.2787234,15.1411765 C31.6680851,14.8823529 32.0574468,14.6235294 32.4468085,14.3647059 C32.706383,13.9764706 32.9659574,13.5882353 33.2255319,13.2 C33.3553191,12.6823529 33.4851064,12.2941176 33.4851064,11.7764706 C33.4851064,11.2588235 33.3553191,10.7411765 33.2255319,10.3529412 C33.0957447,9.83529412 32.8361702,9.44705882 32.4468085,9.18823529 C32.187234,8.8 31.7978723,8.54117647 31.2787234,8.41176471 C30.8893617,8.15294118 30.3702128,8.15294118 29.8510638,8.15294118 C29.3319149,8.15294118 28.812766,8.28235294 28.4234043,8.41176471 C28.0340426,8.67058824 27.6446809,8.92941176 27.2553191,9.18823529 C26.9957447,9.57647059 26.7361702,9.96470588 26.4765957,10.3529412 C26.3468085,10.7411765 26.2170213,11.2588235 26.2170213,11.7764706 Z" id="Shape"></path>
                    <path d="M46.7234043,14.3647059 C46.7234043,14.8823529 46.7234043,15.2705882 46.7234043,15.6588235 C46.7234043,16.0470588 46.7234043,16.4352941 46.7234043,16.8235294 L45.1659574,16.8235294 C45.1659574,16.5647059 45.1659574,16.3058824 45.1659574,16.0470588 C45.1659574,15.7882353 45.1659574,15.5294118 45.1659574,15.1411765 L45.1659574,15.1411765 C45.0361702,15.4 44.906383,15.6588235 44.6468085,15.9176471 C44.387234,16.1764706 44.1276596,16.3058824 43.8680851,16.5647059 C43.6085106,16.6941176 43.2191489,16.9529412 42.8297872,16.9529412 C42.4404255,17.0823529 42.0510638,17.0823529 41.6617021,17.0823529 C41.012766,17.0823529 40.3638298,16.9529412 39.9744681,16.8235294 C39.4553191,16.5647059 39.0659574,16.3058824 38.806383,15.9176471 C38.5468085,15.5294118 38.287234,15.1411765 38.1574468,14.6235294 C38.0276596,14.1058824 37.8978723,13.5882353 37.8978723,12.9411765 L37.8978723,6.72941176 L39.5851064,6.72941176 L39.5851064,12.8117647 C39.5851064,13.7176471 39.7148936,14.3647059 40.1042553,14.8823529 C40.493617,15.4 41.012766,15.6588235 41.9212766,15.6588235 C42.4404255,15.6588235 42.9595745,15.5294118 43.3489362,15.4 C43.7382979,15.2705882 44.1276596,14.8823529 44.387234,14.6235294 C44.6468085,14.2352941 44.7765957,13.8470588 44.906383,13.3294118 C45.0361702,12.8117647 45.0361702,12.2941176 45.0361702,11.7764706 L45.0361702,6.85882353 L46.7234043,6.85882353 L46.7234043,14.3647059 L46.7234043,14.3647059 Z" id="Path"></path>
                    <path d="M49.9680851,6.72941176 L51.6553191,6.72941176 L51.6553191,8.15294118 L51.6553191,8.15294118 C52.1744681,7.63529412 52.693617,7.11764706 53.212766,6.85882353 C53.8617021,6.6 54.5106383,6.34117647 55.2893617,6.34117647 C56.0680851,6.34117647 56.8468085,6.47058824 57.4957447,6.72941176 C58.1446809,6.98823529 58.6638298,7.37647059 59.1829787,7.89411765 C59.7021277,8.41176471 59.9617021,8.92941176 60.2212766,9.57647059 C60.4808511,10.2235294 60.6106383,11 60.6106383,11.6470588 C60.6106383,12.4235294 60.4808511,13.0705882 60.2212766,13.7176471 C59.9617021,14.3647059 59.5723404,14.8823529 59.1829787,15.4 C58.6638298,15.9176471 58.1446809,16.3058824 57.6255319,16.5647059 C56.9765957,16.8235294 56.3276596,16.9529412 55.6787234,16.9529412 C54.7702128,16.9529412 53.9914894,16.6941176 53.212766,16.3058824 C52.5638298,15.9176471 52.0446809,15.4 51.6553191,14.8823529 L51.6553191,14.8823529 L51.6553191,21.6117647 L49.9680851,21.6117647 L49.9680851,6.72941176 L49.9680851,6.72941176 Z M51.6553191,11.7764706 C51.6553191,12.2941176 51.7851064,12.8117647 51.9148936,13.2 C52.0446809,13.7176471 52.3042553,14.1058824 52.693617,14.3647059 C52.9531915,14.7529412 53.3425532,15.0117647 53.8617021,15.1411765 C54.2510638,15.4 54.7702128,15.4 55.2893617,15.4 C55.8085106,15.4 56.3276596,15.2705882 56.7170213,15.1411765 C57.106383,14.8823529 57.4957447,14.6235294 57.8851064,14.3647059 C58.1446809,13.9764706 58.4042553,13.5882353 58.6638298,13.2 C58.793617,12.6823529 58.9234043,12.2941176 58.9234043,11.7764706 C58.9234043,11.2588235 58.793617,10.7411765 58.6638298,10.3529412 C58.5340426,9.83529412 58.2744681,9.44705882 57.8851064,9.18823529 C57.6255319,8.8 57.2361702,8.54117647 56.7170213,8.41176471 C56.3276596,8.15294118 55.8085106,8.15294118 55.2893617,8.15294118 C54.7702128,8.15294118 54.2510638,8.28235294 53.8617021,8.41176471 C53.4723404,8.67058824 53.0829787,8.92941176 52.693617,9.18823529 C52.4340426,9.57647059 52.1744681,9.96470588 51.9148936,10.3529412 C51.6553191,10.7411765 51.6553191,11.2588235 51.6553191,11.7764706 Z" id="Shape"></path>
                </g>
            </g>
        </g>
    </g>
</svg>