<?xml version="1.0" encoding="UTF-8"?>
<svg viewBox="-10 0 204 68" version="1.1" xmlns="http://www.w3.org/2000/svg" xmlns:xlink="http://www.w3.org/1999/xlink">
    <title>logo/preside</title>
    <g id="Symbols" stroke="none" stroke-width="1" fill="none" fill-rule="evenodd">
        <g id="sitewide/desktop/header" transform="translate(-102.000000, -16.000000)" fill-rule="nonzero">
            <g id="preside-logo-with-text" transform="translate(102.000000, 16.000000)">
                <g id="P" transform="translate(63.617709, 25.645714)" fill="#3E5065">
                    <path d="M18.3120731,12.697219 C17.7987351,13.8292571 17.072045,14.774781 16.1358819,15.5312 C15.1984259,16.2915048 14.0747716,16.8627048 12.7662122,17.2486857 C11.4563598,17.6346667 9.99263528,17.8263619 8.37503865,17.8263619 L6.68115249,17.8263619 L6.68115249,26.661181 L0.0956851722,26.661181 L0.0956851722,0.0440380952 L8.64399157,0.0440380952 C11.8791848,0.0440380952 14.4264793,0.770666667 16.288461,2.22262857 C18.1491497,3.67588571 19.0801598,5.84281905 19.0801598,8.72342857 C19.0827266,10.2414476 18.8254111,11.5664762 18.3120731,12.697219 Z M8.26125088,5.02034286 L6.60486297,5.02034286 L6.60486297,12.8526476 L8.14487702,12.8526476 C9.60860155,12.8526476 10.7309628,12.5301333 11.5145467,11.8876952 C12.2981307,11.2465524 12.6899227,10.2284952 12.6899227,8.84 C12.6899227,6.2935619 11.2132677,5.02034286 8.26125088,5.02034286 Z" id="Shape"></path>
                </g>
                <g id="r" transform="translate(84.952916, 32.899048)" fill="#3E5065">
                    <path d="M8.56770204,6.98780952 C7.51516514,7.50201905 6.62943078,8.14575238 5.91049895,8.91512381 L5.91049895,19.4091429 L0.0956851722,19.4091429 L0.0956851722,0.506438095 L5.17863668,0.506438095 L5.79412509,4.24708571 C6.35789178,3.16815238 7.07165144,2.23428571 7.93152495,1.45066667 C8.79139845,0.667047619 9.91375966,0.222780952 11.3011947,0.120457143 L12.2645116,6.06041905 C10.8525088,6.1640381 9.62153197,6.4736 8.56770204,6.98780952 Z" id="Path"></path>
                </g>
                <g id="e" transform="translate(98.271258, 32.899048)" fill="#3E5065">
                    <path d="M17.2970344,10.7673143 C17.284104,11.0509714 17.2517779,11.2685714 17.2013493,11.4227048 L5.9182572,11.4227048 C6.07083626,12.8992762 6.55702038,13.9510095 7.37551651,14.5753143 C8.19401265,15.199619 9.24396346,15.5104762 10.5227829,15.5104762 C11.5701476,15.5104762 12.6007027,15.335619 13.6118623,14.982019 C14.6217287,14.628419 15.6522839,14.1621333 16.7009417,13.5831619 L17.2776388,17.6709333 C16.2509628,18.3405714 15.1143781,18.8612571 13.8691778,19.2342857 C12.6239775,19.6073143 11.2572312,19.7938286 9.76893886,19.7938286 C8.35693605,19.7938286 7.05354884,19.6008381 5.85877723,19.2148571 C4.66529866,18.8288762 3.63862263,18.2382476 2.77874912,17.440381 C1.91758257,16.6438095 1.2516655,15.634819 0.77582572,14.4121143 C0.299985945,13.1907048 0.0620660576,11.7309714 0.0620660576,10.0342095 C0.0620660576,8.49158095 0.287055517,7.10826667 0.737034434,5.88685714 C1.18572031,4.66544762 1.80120871,3.62407619 2.58479269,2.76274286 C3.36837667,1.90140952 4.3045397,1.24601905 5.39586788,0.79527619 C6.48590302,0.345828571 7.67420942,0.120457143 8.95820098,0.120457143 C10.3960647,0.120457143 11.6412649,0.371733333 12.6938018,0.872990476 C13.7450457,1.37424762 14.6113844,2.06849524 15.292818,2.95573333 C15.9729585,3.84297143 16.4798313,4.88434286 16.8134364,6.08114286 C17.1470415,7.27664762 17.313844,8.55634286 17.313844,9.92022857 C17.3164301,10.2025905 17.3099649,10.4849524 17.2970344,10.7673143 Z M8.82501757,3.90125714 C8.00781448,3.90125714 7.33931131,4.25485714 6.81562895,4.96205714 C6.29323963,5.66925714 5.98032326,6.75466667 5.87817287,8.22087619 L11.7705692,8.22087619 C11.5662684,5.3415619 10.5848489,3.90125714 8.82501757,3.90125714 Z" id="Shape"></path>
                </g>
                <g id="s" transform="translate(117.925509, 33.028571)" fill="#3E5065">
                    <path d="M13.5472101,18.0258286 C12.2244273,19.0659048 10.3068447,19.5878857 7.79058327,19.5878857 C6.27513703,19.5878857 4.84373858,19.4013714 3.49638791,19.0296381 C2.1477442,18.6566095 0.985298665,18.2123429 0.0103443429,17.6981333 L0.704708363,13.2619429 C1.83353479,13.9574857 3.03347857,14.5040762 4.3045397,14.9017143 C5.57560084,15.3006476 6.75097681,15.5001143 7.82808152,15.5001143 C9.42111033,15.5001143 10.2150387,15.0234667 10.2150387,14.0727619 C10.2150387,13.8409143 10.1710752,13.6349714 10.0818552,13.4562286 C9.99134223,13.2761905 9.83100492,13.1078095 9.59955025,12.9549714 C9.36809557,12.8008381 9.04742094,12.6454095 8.63752635,12.4912762 C8.22633872,12.3371429 7.68713985,12.1830095 7.01992973,12.0288762 C5.83808855,11.7193143 4.82434294,11.3993905 3.97739986,11.065219 C3.12916374,10.7297524 2.43092059,10.330819 1.87749824,9.86841905 C1.32536894,9.40601905 0.921939564,8.86590476 0.664624034,8.24807619 C0.407308503,7.63154286 0.279297259,6.87253333 0.279297259,5.97234286 C0.279297259,4.19786667 0.901250878,2.77699048 2.14645116,1.70841905 C3.39165144,0.642438095 5.18251581,0.107504762 7.51904427,0.107504762 C8.8017428,0.107504762 10.0417709,0.229257143 11.2339564,0.474057143 C12.428728,0.718857143 13.512298,1.05820952 14.4885453,1.496 L13.75539,5.93219048 C12.728714,5.36746667 11.6632467,4.92967619 10.5602811,4.62011429 C9.45602249,4.31184762 8.45391427,4.15771429 7.55524947,4.15771429 C6.8621785,4.15771429 6.35530569,4.27299048 6.03463106,4.5048381 C5.71395643,4.73668571 5.55361911,5.032 5.55361911,5.39207619 C5.55361911,5.59801905 5.59887561,5.77805714 5.68809557,5.93219048 C5.77731553,6.08632381 5.93894589,6.23527619 6.16910752,6.3751619 C6.40185524,6.51634286 6.72123682,6.66529524 7.13242446,6.81942857 C7.54231904,6.9735619 8.08151792,7.14194286 8.75002108,7.32068571 C10.0081518,7.65615238 11.0658609,8.00327619 11.9270274,8.36205714 C12.7869009,8.72213333 13.4877301,9.13401905 14.025636,9.59641905 C14.5648349,10.058819 14.9501616,10.5989333 15.1816163,11.2167619 C15.413071,11.8332952 15.5294467,12.5806476 15.5294467,13.4549333 C15.5307379,15.4599619 14.869993,16.9844571 13.5472101,18.0258286 Z" id="Path"></path>
                </g>
                <g id="i" transform="translate(136.286718, 24.609524)" fill="#3E5065">
                    <path d="M5.69973296,5.47885714 C5.07002108,6.04487619 4.28126493,6.3272381 3.33087843,6.3272381 C2.40764582,6.3272381 1.62406184,6.04487619 0.982712579,5.47885714 C0.341363317,4.91413333 0.0206886859,4.15382857 0.0206886859,3.20312381 C0.0206886859,2.22651429 0.341363317,1.45455238 0.982712579,0.888533333 C1.62406184,0.323809524 2.40764582,0.040152381 3.33087843,0.040152381 C4.28126493,0.040152381 5.07002108,0.323809524 5.69973296,0.888533333 C6.32815179,1.45455238 6.64236121,2.22651429 6.64236121,3.20312381 C6.64236121,4.15382857 6.32815179,4.91413333 5.69973296,5.47885714 Z M0.404722417,27.6986667 L0.404722417,8.7959619 L6.21953619,8.7959619 L6.21953619,27.6986667 L0.404722417,27.6986667 L0.404722417,27.6986667 Z" id="Shape"></path>
                </g>
                <g id="d" transform="translate(145.725931, 24.350476)" fill="#3E5065">
                    <path d="M12.7222488,27.9577143 L12.336922,25.4876952 C11.6955727,26.2091429 10.9378496,26.8645333 10.0650457,27.4551619 C9.19224174,28.0457905 8.14099789,28.3424 6.907435,28.3424 C5.93248067,28.3424 5.03381588,28.1558857 4.21273366,27.7828571 C3.3903584,27.4098286 2.67271961,26.8451048 2.05593816,26.0848 C1.43915671,25.3270857 0.958144765,24.3621333 0.611609276,23.1912381 C0.265073788,22.0216381 0.0918060436,20.639619 0.0918060436,19.045181 C0.0918060436,17.2448 0.309037245,15.7021714 0.746085734,14.416 C1.18184118,13.1311238 1.77276177,12.0832762 2.51755446,11.2724571 C3.26234715,10.4629333 4.10929023,9.87100952 5.05967674,9.49798095 C6.0087702,9.12495238 7.00958538,8.93973333 8.06341532,8.93973333 C8.93621926,8.93973333 9.68747716,8.99154286 10.315896,9.09257143 C10.9443148,9.19619048 11.5300632,9.35161905 12.0692621,9.55626667 L12.0692621,1.03100952 L17.8840759,0.104914286 L17.8840759,27.9577143 L12.7222488,27.9577143 Z M12.0679691,14.0313143 C11.6283345,13.8266667 11.2145608,13.6841905 10.8266479,13.6077714 C10.4387351,13.5300571 9.93574139,13.4924952 9.31637386,13.4924952 C8.33366128,13.4924952 7.52033732,13.8914286 6.87381588,14.688 C6.22858749,15.4858667 5.90532677,16.7979429 5.90532677,18.6229333 C5.90532677,20.2445714 6.18333099,21.4076952 6.73804638,22.1148952 C7.29405481,22.8233905 7.98583275,23.1744 8.81208714,23.1744 C9.43145467,23.1744 10.0016866,22.9956571 10.5176107,22.635581 C11.0335348,22.2755048 11.5507519,21.8118095 12.0679691,21.2470857 L12.0679691,14.0313143 Z" id="Shape"></path>
                </g>
                <g id="d_1_" transform="translate(166.673226, 32.899048)" fill="#3E5065">
                    <path d="M17.2491918,10.7673143 C17.2362614,11.0509714 17.2039353,11.2685714 17.1535067,11.4227048 L5.87041462,11.4227048 C6.02299368,12.8992762 6.50917779,13.9510095 7.32767393,14.5753143 C8.14617006,15.199619 9.19612087,15.5104762 10.4749403,15.5104762 C11.522305,15.5104762 12.5528602,15.335619 13.5640197,14.982019 C14.5738862,14.628419 15.6044413,14.1621333 16.6530991,13.5831619 L17.2297962,17.6709333 C16.2031202,18.3405714 15.0665355,18.8612571 13.8213352,19.2342857 C12.5761349,19.6073143 11.2093886,19.7938286 9.72109628,19.7938286 C8.30909346,19.7938286 7.00570625,19.6008381 5.81093465,19.2148571 C4.61745608,18.8288762 3.59078004,18.2382476 2.73090654,17.440381 C1.86973999,16.6438095 1.20382291,15.634819 0.727983134,14.4121143 C0.252143359,13.1907048 0.0142234715,11.7309714 0.0142234715,10.0342095 C0.0142234715,8.49158095 0.23921293,7.10826667 0.689191848,5.88685714 C1.13787772,4.66544762 1.75336613,3.62407619 2.53695011,2.76274286 C3.32053408,1.90140952 4.25669712,1.24601905 5.3480253,0.79527619 C6.43806044,0.345828571 7.62636683,0.120457143 8.9103584,0.120457143 C10.3482221,0.120457143 11.5934223,0.371733333 12.6459592,0.872990476 C13.6972031,1.37424762 14.5635418,2.06849524 15.2449754,2.95573333 C15.925116,3.84297143 16.4319888,4.88434286 16.7655938,6.08114286 C17.0991989,7.27664762 17.2660014,8.55634286 17.2660014,9.92022857 C17.2685875,10.2025905 17.2621223,10.4849524 17.2491918,10.7673143 Z M8.77717498,3.90125714 C7.95997189,3.90125714 7.29146873,4.25485714 6.76778637,4.96205714 C6.24539705,5.66925714 5.93248067,6.75466667 5.83033029,8.22087619 L11.7227266,8.22087619 C11.5184259,5.3415619 10.5370063,3.90125714 8.77717498,3.90125714 Z" id="Shape"></path>
                </g>
                <g id="Layer_20" transform="translate(5.301476, 5.051429)" fill="#FFFFFF">
                    <path d="M21.447702,29.8953905 C23.3885594,27.1054476 35.9763317,21.2017524 35.9763317,17.5802667 C35.9763317,7.92815238 27.9284329,0.103619048 18.0017428,0.103619048 C8.07505271,0.103619048 0.0271539002,7.92685714 0.0271539002,17.5789714 C0.0271539002,25.9345524 6.06178496,32.9107048 14.1226142,34.6359619 C16.6608573,32.172419 18.218974,31.1919238 21.447702,29.8953905 Z" id="Path"></path>
                </g>
                <g id="Layer_19" fill="#3E5065">
                    <path d="M24.280759,0.101028571 C20.4236121,0.101028571 16.7798173,1.00899048 13.543331,2.61767619 C12.1171047,1.37165714 10.255123,0.608761905 8.21211525,0.608761905 L8.20435699,0.608761905 C3.71879129,0.608761905 0.0814617006,4.2535619 0.0814617006,8.74544762 L3.0645116,21.7535238 C3.0645116,21.7535238 6.46650738,39.118781 2.18136332,60.2169143 C1.2878707,64.622019 5.07260717,67.9067429 9.55817287,67.9067429 L9.56593113,67.9067429 C14.0527899,67.9067429 16.3350105,64.9432381 16.3350105,60.4474667 C16.3350105,57.1459048 16.3350105,47.2386286 16.3350105,47.2386286 C16.3440618,47.241219 16.3544062,47.2438095 16.3634575,47.2464 C16.3466479,47.0288 16.3350105,46.8112 16.3350105,46.5948952 C16.3350105,43.8541714 17.6720169,41.2960762 19.9878566,39.118781 C13.2782572,36.992 8.41641602,30.7062095 8.41641602,23.2819048 C8.41641602,14.1064381 15.8410682,6.66918095 25.0009838,6.66918095 C30.4395221,6.66918095 35.2677442,9.29074286 38.2921715,13.3435429 C40.2873366,11.456381 42.0833732,10.1313524 43.2768517,9.33089524 C38.8443008,3.71215238 31.9860014,0.101028571 24.280759,0.101028571 Z" id="Path"></path>
                </g>
                <g id="Layer_18" transform="translate(26.636683, 9.325714)" fill="#EF4136">
                    <path d="M16.6401687,0.00518095238 C15.4466901,0.805638095 13.6493605,2.13066667 11.6554884,4.01782857 C7.15440618,8.27786667 1.69647224,15.3822476 0.113787772,25.6198095 C2.64815179,24.5797333 5.53551651,23.8064762 8.65304287,23.3777524 C9.81936753,18.0465524 12.0252987,13.6453333 14.4988897,10.1222857 C16.0957976,7.84914286 17.796149,5.94255238 19.3982291,4.38826667 C18.6340408,2.82491429 17.705636,1.36 16.6401687,0.00518095238 Z" id="Path"></path>
                </g>
                <g id="Layer_17" transform="translate(35.170766, 13.600000)" fill="#F7941D">
                    <path d="M10.8628531,0.113980952 C9.26077301,1.66826667 7.56042164,3.57485714 5.9635137,5.848 C3.4899227,9.37104762 1.28269852,13.7735619 0.117666901,19.1034667 C1.28528461,18.9415619 2.48522839,18.8288762 3.71103303,18.7667048 C4.42608573,18.7304381 5.1488967,18.708419 5.88075896,18.708419 C7.9302319,18.708419 9.91763879,18.8560762 11.8209979,19.126781 C12.7830218,16.5129905 13.3092917,13.6893714 13.3092917,10.7401143 C13.3105833,6.92822857 12.428728,3.32358095 10.8628531,0.113980952 Z" id="Path"></path>
                </g>
                <g id="Layer_16" transform="translate(17.197470, 10.880000)" fill="#3E5065">
                    <path d="M10.2292621,5.19260952 C10.2292621,7.99939048 7.95867885,10.2725333 5.157948,10.2725333 C2.35721715,10.2725333 0.0866338721,7.99809524 0.0866338721,5.19260952 C0.0866338721,2.38712381 2.35721715,0.113980952 5.157948,0.113980952 C7.95867885,0.113980952 10.2292621,2.38712381 10.2292621,5.19260952 Z" id="Path"></path>
                </g>
                <g id="Layer_15" transform="translate(19.783556, 12.822857)" fill="#FFFFFF">
                    <ellipse id="Oval" cx="1.21804638" cy="1.21622857" rx="1.20123682" ry="1.20198095"></ellipse>
                </g>
            </g>
        </g>
    </g>
</svg>