<?xml version="1.0" encoding="utf-8"?>
<svg version="1.1" id="Layer_2" xmlns="http://www.w3.org/2000/svg" xmlns:xlink="http://www.w3.org/1999/xlink" x="0px" y="0px"
	 viewBox="0 -23 320 106" style="enable-background:new 0 0 320 60;" xml:space="preserve">
<style type="text/css">
	.st0{fill:#59595B;}
	.st1{fill:#A5CF6C;}
	.st2{fill:#5BC9F3;}
	.st3{fill:#00ACED;}
	.st4{fill:#00BAF0;}
	.st5{fill:#BCDA90;}
	.st6{fill:#F59451;}
	.st7{fill:#FABC8D;}
	.st8{fill:#F47920;}
	.st9{fill:#8AC440;}
</style>
<g>
	<g>
		<path class="st0" d="M241.6,40.8c-5.4,0-9.8-4.4-9.8-9.8c0-5.4,4.4-9.7,9.8-9.7c5.4,0,9.8,4.4,9.8,9.7
			C251.3,36.4,246.9,40.8,241.6,40.8z M241.6,24.6c-3.6,0-6.4,2.9-6.4,6.4c0,3.6,2.9,6.5,6.4,6.5c3.6,0,6.4-2.9,6.4-6.5
			C248,27.4,245.1,24.6,241.6,24.6z"/>
	</g>
	<g>
		<path class="st0" d="M267.3,40.1h-3.4V24.8h-4.7v-2.9h12.7v2.9h-4.6V40.1z"/>
	</g>
	<g>
		<path class="st0" d="M289.7,40.1h-3.4V24.8h-4.7v-2.9h12.7v2.9h-4.6V40.1z"/>
	</g>
	<g>
		<path class="st0" d="M320.1,40.1h-3.6l0-0.1l-1.5-3.2l-4-9.1l-2.9,6.5l-2.7,5.8h-3.4l0.1-0.1l8.9-18.7h0.4l0,0.1L320.1,40.1z"/>
	</g>
	<g>
		<path class="st0" d="M211.5,40.1h-3.3V21.9h4.5c6.7,0,10.9,3.5,10.9,9.1c0,3.4-1.6,6.1-4.5,7.8c-1.5,0.9-3.2,1.3-5.5,1.3l-0.1,0
			V37l0.1,0c4.1-0.2,6.6-2.4,6.6-6c0-3.8-2.6-6-7.1-6h-1.5V40.1z"/>
	</g>
	<g>
		<g>
			<g>
				<path class="st0" d="M88.4,40.1h-2.4V24h-4v-2.1h10.3V24h-4V40.1z"/>
			</g>
			<g>
				<path class="st0" d="M116.8,40.1h-10.2V21.9h10.1v2h-7.8v5.7h6.7v2h-6.7V38h7.9V40.1z"/>
			</g>
		</g>
		<g>
			<g>
				<path class="st0" d="M143.7,40.1h-3l0,0l-7.6-9.1l1-0.1c3.5,0,5.3-1.2,5.3-3.6c0-2.4-1.7-3.4-5.7-3.4h-1.4v16.2h-2.3V21.9h3.9
					c5.1,0,7.8,1.8,7.8,5.3c0,2.6-1.8,4.6-4.6,5.1L143.7,40.1z"/>
			</g>
		</g>
		<g>
			<g>
				<path class="st0" d="M169.4,40.1h-2.9l0,0l-7.6-9.1l1-0.1c3.5,0,5.3-1.2,5.3-3.6c0-2.4-1.7-3.4-5.7-3.4h-1.4v16.2h-2.3V21.9h3.9
					c5.1,0,7.8,1.8,7.8,5.3c0,2.6-1.8,4.6-4.6,5.1L169.4,40.1z"/>
			</g>
		</g>
		<g>
			<g>
				<path class="st0" d="M187.8,25.8"/>
				<path class="st0" d="M196.5,40.1H194l0-0.1l-6.1-14l-6.2,14.1h-2.4l8.5-18.6h0.4l0,0.1L196.5,40.1z"/>
			</g>
		</g>
	</g>
</g>
<g>
	<polygon class="st1" points="27.3,59.3 32,51.3 22.7,51.3 	"/>
	<g>
		<polygon class="st2" points="10.6,0.7 40.5,0.7 34.7,10.7 25.6,10.7 12.4,33.4 0.9,33.4 14.1,10.7 4.9,10.6 		"/>
		<polygon class="st3" points="4.9,10.6 9.5,18.6 14.1,10.7 		"/>
		<polygon class="st4" points="17,41.4 12.4,33.4 25.6,10.7 30.1,18.4 		"/>
	</g>
	<polygon class="st5" points="47.9,33.5 43.3,41.4 17,41.4 21.5,33.5 	"/>
	<g>
		<polygon class="st6" points="64,25.5 49,51.3 43.3,41.4 47.9,33.5 34.7,10.7 40.5,0.7 53.6,23.5 58.2,15.5 		"/>
		<polygon class="st7" points="58.2,15.5 49,15.5 53.6,23.5 		"/>
		<polygon class="st8" points="25.6,10.7 34.7,10.7 47.9,33.5 38.9,33.5 		"/>
	</g>
	<polygon class="st9" points="15.8,59.3 0.9,33.4 12.4,33.4 17,41.4 43.3,41.4 49,51.3 22.7,51.3 27.3,59.3 	"/>
</g>
</svg>
