<?xml version="1.0" encoding="utf-8"?>
<svg viewBox="244.356 271.717 121.984 40.9" xmlns="http://www.w3.org/2000/svg">
  <g fill="none" fill-rule="nonzero" stroke="none" stroke-width="1" transform="matrix(1, 0, 0, 1, 244.356247, 280.616669)">
    <path d="M34.396 16.388V12.5h-2.781V8.72l-4.05 1.215V12.5h-2.16v3.888h2.16v4.779c0 3.78 1.539 5.373 6.831 4.833v-3.672l-.397.02c-1.533.065-2.384-.11-2.384-1.181v-4.779h2.781zm8.505 9.99c3.969 0 7.155-3.105 7.155-7.128s-3.186-7.128-7.155-7.128c-3.969 0-7.155 3.105-7.155 7.128s3.186 7.128 7.155 7.128zm0-3.942c-1.755 0-3.105-1.269-3.105-3.186s1.35-3.186 3.105-3.186 3.105 1.269 3.105 3.186-1.35 3.186-3.105 3.186zm15.93 3.942c3.969 0 7.155-3.105 7.155-7.128s-3.186-7.128-7.155-7.128c-3.969 0-7.155 3.105-7.155 7.128s3.186 7.128 7.155 7.128zm0-3.942c-1.755 0-3.105-1.269-3.105-3.186s1.35-3.186 3.105-3.186 3.105 1.269 3.105 3.186-1.35 3.186-3.105 3.186zm24.57-10.314c-1.917 0-3.159.702-3.915 1.782-.756-1.134-1.944-1.782-3.537-1.782-1.809 0-2.997.702-3.618 1.62V12.5h-4.05V26h4.05v-7.614c0-1.593.756-2.538 2.106-2.538 1.296 0 1.944.864 1.944 2.214V26h4.05v-7.614c0-1.593.756-2.538 2.106-2.538 1.296 0 1.944.864 1.944 2.214V26h4.05v-8.289c0-3.375-2.025-5.589-5.13-5.589zm15.984 0c-1.809 0-3.132.621-4.023 1.647V7.1h-4.05V26h4.05v-1.269c.891 1.026 2.214 1.647 4.023 1.647 3.537 0 6.453-3.105 6.453-7.128s-2.916-7.128-6.453-7.128zm-.81 10.422c-1.863 0-3.213-1.269-3.213-3.294 0-2.025 1.35-3.294 3.213-3.294s3.213 1.269 3.213 3.294c0 2.025-1.35 3.294-3.213 3.294zM117.934 12.5v1.269c-.891-1.026-2.214-1.647-4.023-1.647-3.537 0-6.453 3.105-6.453 7.128s2.916 7.128 6.453 7.128c1.809 0 3.132-.621 4.023-1.647V26h4.05V12.5h-4.05zm-3.213 10.044c-1.863 0-3.213-1.269-3.213-3.294 0-2.025 1.35-3.294 3.213-3.294s3.213 1.269 3.213 3.294c0 2.025-1.35 3.294-3.213 3.294z" fill="#000" transform="translate(-904 -44) translate(904 37)"/>
    <path d="M17 0L17 5.92307692 6.42222222 10 17 14.0769231 17 20 0 12.5 0 7.5z" fill="#0464FA" transform="translate(-904 -44) translate(904 37) translate(0 9) matrix(-1 0 0 1 17 0)"/>
  </g>
</svg>